<?xml version="1.0" encoding="utf-8"?>
<!-- Generator: Adobe Illustrator 16.0.0, SVG Export Plug-In . SVG Version: 6.00 Build 0)  -->
<!DOCTYPE svg PUBLIC "-//W3C//DTD SVG 1.1//EN" "http://www.w3.org/Graphics/SVG/1.1/DTD/svg11.dtd">
<svg version="1.1" id="Layer_1" xmlns="http://www.w3.org/2000/svg" xmlns:xlink="http://www.w3.org/1999/xlink" x="0px" y="0px"
	 width="328.598px" height="121.099px" viewBox="0 0 328.598 121.099" enable-background="new 0 0 328.598 121.099"
	 xml:space="preserve">
<g>
	<path fill="#FFFFFF" d="M62.03,105.085c-0.091,0-0.185-0.004-0.28-0.012c-2.01-0.167-3.315-1.333-4.364-2.27
		c-0.978-0.874-1.62-1.409-2.473-1.409c-1.544,0-2.238,0.653-3.118,1.481c-0.931,0.876-1.986,1.87-3.995,1.87
		c-2.019,0-3.135-1.065-4.031-1.921c-0.819-0.783-1.467-1.401-2.751-1.401c-1.221,0-1.852,0.64-2.651,1.45
		c-0.901,0.914-2.023,2.051-4.09,2.051c-2.096,0-3.196-1.187-4.08-2.14c-0.798-0.861-1.429-1.542-2.728-1.542
		c-1.227,0-1.811,0.624-2.62,1.487c-0.879,0.938-1.972,2.105-4.038,2.105c-1.985,0-3.107-1.007-4.085-2.038l-0.689-0.727
		l0.727-0.688c0.828-0.784,1.415-1.432,1.415-2.631c0-1.197-0.618-1.775-1.473-2.575c-0.945-0.884-2.122-1.985-2.122-4.078
		c0-2.171,1.211-3.292,2.184-4.192c0.872-0.807,1.501-1.389,1.501-2.61c0-1.228-0.643-1.861-1.457-2.663
		c-0.913-0.898-2.048-2.017-2.048-4.073c0-2.085,1.085-3.219,1.957-4.13c0.765-0.799,1.369-1.431,1.369-2.647
		c0-1.214-0.557-1.804-1.327-2.621c-0.903-0.958-2.027-2.149-2.027-4.486c0-1.659,1.02-2.798,1.919-3.803
		c0.853-0.953,1.658-1.853,1.769-3.193c0.057-0.688-0.443-1.267-1.263-2.154c-0.981-1.061-2.201-2.382-2.245-4.477
		c-0.034-1.639,0.968-2.582,1.852-3.414c0.839-0.79,1.563-1.472,1.563-2.772c0-1.197-0.618-1.775-1.473-2.575
		c-0.945-0.884-2.122-1.985-2.122-4.078c0-2.104,1.189-3.203,2.146-4.084c0.86-0.794,1.539-1.42,1.539-2.717
		c0-1.229-0.643-1.861-1.457-2.663c-0.913-0.898-2.048-2.017-2.048-4.073c0-2.085,1.085-3.219,1.957-4.131
		c0.764-0.799,1.368-1.431,1.368-2.647c0-1.208-0.6-1.786-1.43-2.584l-0.076-0.074l1.388-1.439l0.075,0.072
		c0.91,0.876,2.042,1.966,2.042,4.025c0,2.019-1.066,3.133-1.923,4.029c-0.783,0.819-1.402,1.466-1.402,2.749
		c0,1.219,0.641,1.849,1.451,2.648c0.915,0.901,2.053,2.022,2.053,4.088c0,2.172-1.21,3.29-2.183,4.187
		c-0.872,0.805-1.502,1.386-1.502,2.615c0,1.225,0.625,1.809,1.488,2.617c0.939,0.878,2.107,1.971,2.107,4.036
		c0,2.164-1.216,3.309-2.192,4.228c-0.791,0.745-1.238,1.201-1.223,1.917c0.027,1.336,0.846,2.222,1.713,3.161
		c0.9,0.974,1.92,2.078,1.788,3.677c-0.166,2.009-1.333,3.314-2.272,4.362c-0.874,0.976-1.409,1.618-1.409,2.469
		c0,1.542,0.654,2.236,1.482,3.113c0.877,0.931,1.872,1.985,1.872,3.994c0,2.019-1.066,3.133-1.923,4.029
		c-0.783,0.819-1.402,1.466-1.402,2.748c0,1.219,0.641,1.85,1.452,2.648c0.915,0.901,2.053,2.022,2.053,4.087
		c0,2.095-1.188,3.195-2.143,4.078c-0.861,0.797-1.542,1.427-1.542,2.724c0,1.225,0.624,1.809,1.488,2.617
		c0.938,0.878,2.106,1.971,2.106,4.036c0,1.507-0.58,2.516-1.311,3.341c0.536,0.456,1.105,0.742,1.944,0.742
		c1.199,0,1.778-0.618,2.579-1.472c0.885-0.945,1.986-2.12,4.08-2.12c2.172,0,3.293,1.21,4.194,2.182
		c0.807,0.871,1.39,1.5,2.613,1.5c1.23,0,1.864-0.643,2.667-1.456c0.899-0.912,2.018-2.046,4.075-2.046
		c2.086,0,3.221,1.083,4.133,1.955c0.8,0.764,1.432,1.367,2.65,1.367c1.216,0,1.807-0.556,2.625-1.326
		c0.958-0.902,2.151-2.025,4.488-2.025c1.659,0,2.799,1.019,3.805,1.917c0.954,0.852,1.854,1.657,3.197,1.768
		c0.691,0.056,1.269-0.443,2.157-1.263c1.062-0.98,2.383-2.199,4.479-2.243c1.638-0.02,2.6,0.992,3.245,1.669l-1.449,1.379
		c-0.7-0.735-1.143-1.067-1.755-1.048c-1.338,0.027-2.225,0.846-3.165,1.712C64.512,104.133,63.48,105.085,62.03,105.085z
		 M62.03,94.805c-0.091,0-0.185-0.004-0.28-0.012c-2.01-0.166-3.315-1.333-4.364-2.27c-0.978-0.874-1.62-1.409-2.473-1.409
		c-1.544,0-2.238,0.654-3.117,1.481c-0.931,0.876-1.986,1.87-3.996,1.87c-2.019,0-3.135-1.065-4.031-1.921
		c-0.82-0.783-1.467-1.401-2.751-1.401c-1.221,0-1.852,0.64-2.651,1.451c-0.901,0.914-2.023,2.051-4.09,2.051
		c-2.096,0-3.196-1.187-4.08-2.141c-0.798-0.861-1.429-1.542-2.728-1.542c-0.485,0-0.872,0.104-1.295,0.35l-2.789,1.617l1.384-2.911
		c0.441-0.929,1.142-1.567,1.761-2.131c0.876-0.799,1.51-1.376,1.51-2.59c0-1.228-0.643-1.861-1.457-2.662
		c-0.913-0.899-2.049-2.017-2.049-4.074c0-2.085,1.085-3.219,1.957-4.13c0.765-0.799,1.369-1.431,1.369-2.647
		c0-1.214-0.557-1.805-1.327-2.621c-0.903-0.958-2.026-2.149-2.026-4.486c0-1.659,1.02-2.798,1.919-3.803
		c0.853-0.953,1.658-1.853,1.769-3.193c0.057-0.688-0.443-1.266-1.264-2.154c-0.981-1.061-2.201-2.382-2.245-4.477
		c-0.034-1.639,0.968-2.582,1.851-3.414c0.839-0.79,1.563-1.472,1.563-2.772c0-1.197-0.618-1.775-1.473-2.575
		c-0.945-0.884-2.122-1.985-2.122-4.078c0-2.104,1.189-3.203,2.146-4.084c0.86-0.794,1.539-1.42,1.539-2.717
		c0-1.229-0.643-1.861-1.457-2.663c-0.913-0.898-2.048-2.017-2.048-4.073c0-2.085,1.085-3.219,1.957-4.131
		c0.764-0.799,1.368-1.431,1.368-2.647c0-1.208-0.6-1.786-1.43-2.584l-0.076-0.074l1.388-1.439l0.075,0.072
		c0.91,0.876,2.042,1.966,2.042,4.025c0,2.019-1.066,3.133-1.923,4.029c-0.783,0.819-1.402,1.466-1.402,2.749
		c0,1.219,0.641,1.849,1.452,2.648c0.915,0.901,2.053,2.022,2.053,4.088c0,2.172-1.21,3.29-2.183,4.187
		c-0.872,0.805-1.502,1.386-1.502,2.615c0,1.225,0.624,1.809,1.488,2.617c0.938,0.878,2.106,1.971,2.106,4.036
		c0,2.164-1.215,3.308-2.192,4.228c-0.791,0.745-1.237,1.201-1.222,1.917c0.027,1.336,0.846,2.223,1.713,3.161
		c0.9,0.974,1.92,2.078,1.788,3.677c-0.167,2.009-1.334,3.313-2.272,4.362c-0.874,0.977-1.409,1.618-1.409,2.47
		c0,1.542,0.654,2.236,1.481,3.114c0.877,0.93,1.872,1.984,1.872,3.993c0,2.019-1.066,3.133-1.923,4.029
		c-0.783,0.819-1.402,1.466-1.402,2.748c0,1.219,0.641,1.85,1.452,2.648c0.915,0.901,2.054,2.022,2.054,4.087
		c0,1.831-0.914,2.896-1.788,3.722c1.672,0.249,2.626,1.278,3.412,2.126c0.807,0.871,1.39,1.5,2.613,1.5
		c1.23,0,1.864-0.643,2.667-1.456c0.899-0.912,2.018-2.046,4.075-2.046c2.086,0,3.221,1.084,4.133,1.955
		c0.8,0.764,1.432,1.368,2.65,1.368c1.216,0,1.807-0.556,2.625-1.326c0.958-0.902,2.151-2.025,4.488-2.025
		c1.659,0,2.799,1.019,3.805,1.917c0.954,0.852,1.854,1.657,3.197,1.768c0.691,0.061,1.269-0.443,2.157-1.263
		c1.062-0.98,2.384-2.199,4.48-2.242c1.632-0.022,2.6,0.991,3.245,1.669l-1.449,1.379c-0.7-0.735-1.1-1.065-1.754-1.048
		c-1.339,0.027-2.226,0.846-3.165,1.712C64.512,93.853,63.48,94.805,62.03,94.805z"/>
	<path fill="#FFFFFF" d="M109.859,56.681c-0.135,0-0.274-0.006-0.416-0.018c-1.786-0.151-2.71-0.896-3.452-1.496
		c-0.491-0.396-0.915-0.738-1.583-0.935l-0.551-0.162l-0.138-0.558c-0.224-0.907-0.905-1.687-1.626-2.512
		c-0.936-1.071-1.903-2.178-1.903-3.686c0-1.479,0.889-2.573,1.749-3.632c0.829-1.021,1.612-1.985,1.612-3.258
		c0-1.21-0.598-1.957-1.29-2.822c-0.773-0.966-1.65-2.062-1.65-3.816c0-1.833,1.031-2.948,1.941-3.931
		c0.76-0.821,1.416-1.531,1.464-2.602c0.039-0.865,0.12-1.293,0.729-1.763l0.541-0.417l0.614,0.329
		c0.685,0.411,1.168,0.853,1.595,1.243c0.723,0.66,1.121,1.024,2.157,1.024c0.971,0,1.776-0.673,2.709-1.453
		c1.099-0.918,2.344-1.959,4.106-1.959c2.39,0.029,3.598,1.471,4.664,2.744c0.469,0.56,0.913,1.089,1.428,1.478
		c0.351,0.265,0.768,0.368,1.487,0.368c0.216,0,0.437-0.008,0.66-0.017c0.253-0.009,0.51-0.018,0.77-0.018
		c1.104,0,2.542,0.165,3.884,1.455c1.758,1.69,1.626,3.023,1.511,4.199c-0.069,0.698-0.134,1.358,0.147,2.259
		c0.28,0.899,0.721,1.599,1.147,2.275c0.802,1.272,1.632,2.588,1.072,4.757c-0.559,2.165-2.059,2.964-3.383,3.67
		c-0.745,0.397-1.448,0.772-2.057,1.38c-0.647,0.647-0.771,1.297-0.926,2.119c-0.211,1.111-0.473,2.493-2.144,3.776
		c-0.674,0.518-1.414,0.781-2.199,0.781c-1.192,0-2.275-0.593-3.322-1.167c-0.995-0.545-1.934-1.059-2.878-1.059
		c-0.758,0-1.354,0.509-2.263,1.339C113.046,55.526,111.781,56.681,109.859,56.681z M105.495,52.497
		c0.756,0.311,1.28,0.733,1.752,1.114c0.665,0.536,1.189,0.96,2.364,1.059c1.289,0.111,2.121-0.654,3.102-1.549
		c0.956-0.873,2.04-1.862,3.612-1.862c1.456,0,2.722,0.693,3.839,1.305c0.865,0.474,1.681,0.921,2.361,0.921
		c0.344,0,0.656-0.117,0.981-0.367c1.065-0.818,1.211-1.588,1.396-2.563c0.175-0.925,0.394-2.077,1.477-3.16
		c0.819-0.819,1.728-1.303,2.53-1.731c1.189-0.634,2.048-1.092,2.387-2.405c0.344-1.333-0.097-2.032-0.828-3.191
		c-0.472-0.749-1.007-1.597-1.365-2.747c-0.402-1.289-0.306-2.265-0.228-3.05c0.101-1.027,0.152-1.543-0.907-2.561
		c-0.776-0.747-1.531-0.896-2.497-0.896c-0.234,0-0.467,0.008-0.696,0.017c-0.248,0.009-0.492,0.018-0.733,0.018
		c-0.826,0-1.791-0.092-2.692-0.771c-0.697-0.526-1.235-1.169-1.756-1.79c-1.044-1.247-1.753-2.012-3.102-2.028l0,0
		c-1.065,0-1.893,0.692-2.852,1.493c-1.076,0.899-2.295,1.918-3.992,1.918c-1.812,0-2.712-0.822-3.506-1.548
		c-0.064-0.059-0.129-0.118-0.195-0.177c-0.251,1.455-1.137,2.413-1.93,3.27c-0.874,0.945-1.409,1.574-1.409,2.573
		c0,1.052,0.535,1.72,1.212,2.566c0.77,0.962,1.729,2.16,1.729,4.071c0,1.982-1.142,3.389-2.059,4.519
		c-0.698,0.86-1.301,1.603-1.301,2.372c0,0.757,0.653,1.504,1.409,2.37C104.298,50.485,105.078,51.377,105.495,52.497z"/>
	<path fill="#FFFFFF" d="M102.515,105.501c-0.164-0.285-0.336-0.56-0.506-0.832c-0.693-1.108-1.41-2.254-1.41-3.685
		c0-1.433,0.711-2.472,1.399-3.477c0.702-1.025,1.364-1.993,1.364-3.458c0-1.378-0.534-2.085-1.153-2.904
		c-0.66-0.875-1.408-1.865-1.408-3.56c0-1.708,0.83-2.882,1.562-3.918c0.681-0.963,1.269-1.794,1.269-3.018
		c0-1.172-0.455-1.836-1.031-2.675c-0.686-0.999-1.462-2.13-1.462-4.125c0-2.019,0.844-3.183,1.523-4.118
		c0.58-0.8,1.038-1.432,1.038-2.548c0-1.198-0.625-2.005-1.348-2.94c-0.655-0.846-1.397-1.806-1.561-3.091l-0.128-1.013l1.015-0.107
		c0.341-0.036,0.719-0.043,1.135-0.043c2.154,0,3.417,1.5,4.431,2.706c0.924,1.098,1.535,1.771,2.41,1.771
		c0.277,0,0.544-0.048,0.815-0.147l0.331-0.121l0.333,0.113c1.226,0.416,2.609,0.989,3.51,2.523c0.912,1.552,0.658,3.022,0.435,4.32
		c-0.218,1.263-0.324,2.079,0.218,2.913c0.571,0.878,1.381,1.146,2.407,1.486c1.168,0.386,2.621,0.867,3.661,2.466
		c1.079,1.659,0.887,3.456,0.733,4.899c-0.117,1.097-0.218,2.044,0.198,2.686c0.409,0.629,1.357,0.894,2.456,1.201
		c1.428,0.399,3.206,0.896,4.266,2.527c1.021,1.571,0.843,3.128,0.699,4.379c-0.125,1.097-0.225,1.963,0.319,2.8
		c0.477,0.733,1.28,1.016,2.296,1.373c1.216,0.428,2.729,0.959,3.754,2.536c0.963,1.48,0.897,2.762,0.839,3.894l-0.013,0.261
		l-1.998-0.092l0.014-0.271c0.05-0.986,0.09-1.765-0.519-2.701c-0.654-1.005-1.621-1.345-2.741-1.739
		c-1.154-0.406-2.461-0.865-3.31-2.17c-0.936-1.439-0.773-2.862-0.629-4.118c0.129-1.123,0.24-2.094-0.389-3.062
		c-0.649-0.999-1.853-1.335-3.127-1.691c-1.363-0.381-2.773-0.775-3.594-2.037c-0.804-1.237-0.655-2.636-0.51-3.988
		c0.139-1.303,0.27-2.534-0.421-3.597c-0.657-1.011-1.563-1.311-2.612-1.658c-1.173-0.388-2.502-0.828-3.456-2.295
		c-0.997-1.533-0.739-3.026-0.512-4.343c0.189-1.098,0.353-2.047-0.188-2.967c-0.456-0.777-1.133-1.174-2.124-1.536
		c-0.375,0.102-0.757,0.154-1.141,0.154c-1.85,0-2.961-1.32-3.94-2.484c-0.798-0.949-1.5-1.782-2.5-1.959
		c0.201,0.324,0.452,0.649,0.721,0.996c0.787,1.017,1.767,2.283,1.767,4.164c0,1.766-0.754,2.805-1.419,3.723
		c-0.612,0.844-1.142,1.574-1.142,2.943c0,1.375,0.515,2.125,1.111,2.994c0.648,0.944,1.382,2.014,1.382,3.807
		c0,1.859-0.869,3.088-1.635,4.172c-0.641,0.908-1.195,1.691-1.195,2.764c0,1.024,0.421,1.582,1.004,2.354
		c0.693,0.918,1.557,2.061,1.557,4.11c0,2.085-0.95,3.473-1.714,4.588c-0.586,0.856-1.049,1.533-1.049,2.347
		c0,0.856,0.512,1.676,1.105,2.624c0.182,0.292,0.367,0.588,0.543,0.893L102.515,105.501z M92.136,105.5
		c-0.164-0.285-0.337-0.561-0.507-0.833c-0.692-1.108-1.409-2.253-1.409-3.683c0-1.433,0.711-2.472,1.399-3.477
		c0.702-1.025,1.364-1.993,1.364-3.458c0-1.378-0.534-2.085-1.153-2.904c-0.66-0.875-1.408-1.865-1.408-3.56
		c0-1.708,0.83-2.882,1.562-3.918c0.681-0.963,1.269-1.794,1.269-3.018c0-1.172-0.455-1.836-1.031-2.675
		c-0.686-0.999-1.462-2.13-1.462-4.125c0-2.019,0.844-3.183,1.523-4.118c0.58-0.8,1.038-1.432,1.038-2.548
		c0-1.199-0.625-2.01-1.35-2.949c-0.747-0.968-1.593-2.065-1.593-3.622c0-1.716,0.912-2.82,1.717-3.794
		c0.72-0.873,1.343-1.626,1.343-2.78c0-1.19-0.826-2.126-1.7-3.118c-0.936-1.062-1.904-2.159-1.904-3.666
		c0-1.475,0.887-2.566,1.746-3.622c0.827-1.017,1.607-1.978,1.607-3.246c0-1.205-0.596-1.949-1.287-2.81
		c-0.772-0.964-1.647-2.057-1.647-3.807c0-1.828,1.029-2.94,1.938-3.92c0.758-0.818,1.412-1.525,1.46-2.591
		c0.055-1.215-0.63-2.066-1.423-3.052c-0.787-0.978-1.68-2.087-1.686-3.613c-0.012-2.695,1.562-4.057,1.628-4.113l0.678-0.574
		l0.65,0.606c0.016,0.014,1.893,1.692,3.21,0.963c0.583-0.321,1.111-0.784,1.67-1.275c1.215-1.066,2.593-2.276,4.886-2.303
		c0.02,0,0.039,0,0.058,0c1.817,0,2.965,1.021,3.978,1.923c0.884,0.787,1.648,1.467,2.809,1.533c1.171,0.065,1.901-0.511,2.83-1.242
		c1.032-0.811,2.201-1.73,4.063-1.73c1.984,0,2.946,1.146,3.719,2.065c0.702,0.836,1.208,1.44,2.416,1.458
		c1.197,0.018,2.286-0.327,3.327-0.661c1.544-0.496,3.142-1.01,4.851-0.139c1.656,0.843,1.818,2.121,1.948,3.148
		c0.112,0.889,0.209,1.657,1.133,2.541c0.899,0.859,1.682,0.979,2.511,1.105c1.053,0.161,2.363,0.36,3.094,2.245
		c0.592,1.528,0.223,3.046-0.103,4.386c-0.305,1.253-0.593,2.437-0.129,3.536c0.394,0.932,0.857,1.474,1.348,2.048
		c0.818,0.956,1.663,1.944,1.663,4.273c0,2.3-1.113,3.373-2.094,4.32c-0.641,0.618-1.193,1.151-1.517,2.042
		c-0.345,0.951-0.136,2.239,0.067,3.484c0.291,1.792,0.621,3.823-0.73,5.26c-1.45,1.542-3.436,2.004-5.357,2.451
		c-1.266,0.294-2.461,0.573-3.406,1.139c-0.752,0.451-1.225,1.248-1.771,2.17c-0.809,1.365-1.815,3.064-4.114,3.937
		c-0.177,0.068-0.348,0.118-0.51,0.155c0.059,0.326,0.18,0.616,0.373,0.913c0.571,0.879,1.382,1.148,2.408,1.487
		c1.167,0.386,2.621,0.867,3.66,2.466c1.078,1.659,0.887,3.455,0.733,4.899c-0.117,1.097-0.218,2.044,0.199,2.686
		c0.409,0.629,1.357,0.894,2.455,1.201c1.428,0.399,3.205,0.896,4.266,2.527c1.021,1.571,0.843,3.128,0.699,4.379
		c-0.125,1.097-0.225,1.963,0.319,2.8c0.477,0.733,1.28,1.016,2.295,1.373c1.216,0.428,2.73,0.959,3.755,2.537
		c0.963,1.481,0.897,2.763,0.839,3.895c-0.054,1.042-0.1,1.94,0.647,3.089c0.75,1.153,1.591,1.502,2.564,1.907
		c1.058,0.439,2.257,0.937,3.234,2.44l-1.677,1.09c-0.639-0.984-1.383-1.292-2.324-1.683c-1.119-0.464-2.387-0.991-3.475-2.664
		c-1.101-1.693-1.027-3.128-0.968-4.282c0.051-0.986,0.091-1.765-0.518-2.702c-0.654-1.006-1.621-1.346-2.741-1.739
		c-1.153-0.406-2.461-0.865-3.309-2.17c-0.936-1.439-0.773-2.862-0.629-4.117c0.129-1.124,0.24-2.094-0.389-3.062
		c-0.649-0.999-1.853-1.335-3.127-1.691c-1.363-0.381-2.773-0.775-3.594-2.037c-0.804-1.237-0.655-2.636-0.511-3.988
		c0.139-1.303,0.27-2.533-0.421-3.597c-0.657-1.01-1.562-1.31-2.611-1.657c-1.173-0.388-2.502-0.829-3.456-2.296
		c-0.58-0.892-0.809-1.841-0.719-2.987l0.074-0.945l0.947,0.023c0.326,0.008,0.56-0.026,0.799-0.118
		c1.646-0.625,2.355-1.822,3.104-3.088c0.628-1.06,1.277-2.155,2.464-2.866c1.214-0.727,2.621-1.054,3.98-1.371
		c1.707-0.397,3.318-0.772,4.354-1.873c0.676-0.719,0.461-2.04,0.213-3.569c-0.232-1.428-0.496-3.047,0.027-4.488
		c0.481-1.326,1.292-2.108,2.008-2.798c0.861-0.831,1.483-1.431,1.483-2.881c0-1.59-0.445-2.111-1.183-2.974
		c-0.515-0.602-1.156-1.352-1.67-2.57c-0.72-1.707-0.322-3.342,0.029-4.786c0.293-1.207,0.547-2.249,0.181-3.191
		c-0.312-0.804-0.594-0.848-1.53-0.99c-0.944-0.144-2.236-0.341-3.592-1.637c-1.438-1.374-1.61-2.738-1.736-3.735
		c-0.121-0.953-0.191-1.271-0.871-1.617c-0.928-0.472-1.827-0.223-3.333,0.261c-1.139,0.365-2.419,0.771-3.968,0.757
		c-2.121-0.032-3.117-1.218-3.917-2.172c-0.746-0.888-1.182-1.352-2.187-1.352c-1.17,0-1.938,0.604-2.827,1.303
		c-1.059,0.832-2.262,1.771-4.179,1.667c-1.857-0.105-3.009-1.131-4.025-2.036c-0.996-0.887-1.653-1.444-2.683-1.417
		c-1.553,0.018-2.498,0.847-3.591,1.806c-0.615,0.54-1.251,1.098-2.023,1.524c-1.765,0.973-3.622,0.108-4.676-0.588
		c-0.231,0.426-0.461,1.07-0.457,1.945c0.003,0.826,0.579,1.541,1.244,2.368c0.87,1.081,1.952,2.426,1.863,4.396
		c-0.081,1.798-1.096,2.894-1.991,3.86c-0.871,0.94-1.405,1.567-1.405,2.562c0,1.048,0.533,1.713,1.208,2.556
		c0.769,0.959,1.726,2.154,1.726,4.061c0,1.978-1.14,3.38-2.056,4.507c-0.696,0.856-1.297,1.596-1.297,2.361
		c0,0.75,0.651,1.488,1.404,2.343c0.98,1.111,2.2,2.495,2.2,4.441c0,1.874-0.999,3.083-1.801,4.054
		c-0.703,0.852-1.259,1.524-1.259,2.521c0,0.875,0.519,1.548,1.177,2.4c0.787,1.021,1.767,2.29,1.767,4.171
		c0,1.766-0.754,2.805-1.419,3.723c-0.612,0.844-1.142,1.574-1.142,2.943c0,1.375,0.515,2.125,1.111,2.994
		c0.648,0.944,1.382,2.014,1.382,3.807c0,1.859-0.869,3.088-1.635,4.172c-0.641,0.908-1.195,1.691-1.195,2.764
		c0,1.024,0.421,1.582,1.004,2.354c0.693,0.918,1.557,2.061,1.557,4.11c0,2.085-0.95,3.473-1.714,4.588
		c-0.586,0.856-1.049,1.533-1.049,2.347c0,0.855,0.512,1.674,1.104,2.623c0.183,0.292,0.368,0.589,0.544,0.895L92.136,105.5z"/>
	<path fill="#FFFFFF" d="M166.114,104.311l-1.17-1.622c0.195-0.141,0.395-0.276,0.597-0.413c0.901-0.61,1.68-1.136,2.198-2.252
		c0.475-1.022,0.206-1.859-0.272-3.141c-0.466-1.25-0.994-2.666-0.276-4.314c0.683-1.568,1.72-2.338,2.635-3.016
		c0.821-0.609,1.596-1.184,2.207-2.365c0.544-1.05,0.276-1.883-0.064-2.937c-0.372-1.153-0.834-2.589-0.018-4.306
		c0.773-1.625,1.854-2.336,2.809-2.964c0.855-0.562,1.531-1.006,1.988-2.083c0.418-0.983,0-2.052-0.483-3.29
		c-0.549-1.405-1.17-2.999-0.458-4.66c0.664-1.551,1.655-2.303,2.529-2.967c0.779-0.591,1.515-1.149,2.111-2.314
		c0.551-1.076,0.379-1.987,0.181-3.042c-0.231-1.227-0.492-2.618,0.409-4.23c0.81-1.451,1.781-2.208,2.638-2.877
		c0.817-0.637,1.522-1.188,2.089-2.307c0.448-0.885,0.217-1.686-0.197-2.919c-0.417-1.24-0.935-2.784-0.206-4.553
		c0.729-1.771,1.91-2.512,2.951-3.165c0.862-0.541,1.543-0.967,1.974-1.943c0.405-0.917,0.027-1.924-0.41-3.09
		c-0.521-1.389-1.111-2.962-0.318-4.616c0.757-1.577,1.768-2.307,2.746-3.012c0.787-0.568,1.531-1.105,2.25-2.143
		c0.681-0.983,0.523-1.954,0.322-3.184c-0.209-1.286-0.447-2.744,0.397-4.273c0.772-1.398,2.252-2.272,4.061-2.4
		c2.063-0.146,4.068,0.716,5.222,2.248c1.21,1.606,0.944,3.33,0.729,4.715c-0.178,1.151-0.332,2.145,0.227,3.02
		c0.605,0.948,1.344,1.416,2.125,1.911c1.029,0.652,2.195,1.392,2.949,3.172c0.75,1.768,0.181,3.261-0.32,4.578
		c-0.415,1.088-0.772,2.028-0.384,3.045c0.432,1.131,1.113,1.587,1.977,2.165c0.926,0.621,1.977,1.324,2.71,2.89
		c0.783,1.673,0.324,3.184-0.082,4.517c-0.401,1.318-0.621,2.171-0.111,3.064c0.611,1.073,1.246,1.528,1.98,2.056
		c0.838,0.601,1.787,1.282,2.606,2.843c0.845,1.608,0.652,3.048,0.481,4.318c-0.156,1.163-0.291,2.167,0.26,3.361
		c0.597,1.294,1.277,1.803,2.065,2.394c0.786,0.588,1.676,1.255,2.351,2.668c0.792,1.659,0.145,3.275-0.426,4.7
		c-0.464,1.159-0.902,2.253-0.548,3.221c0.388,1.06,1.082,1.521,1.96,2.104c0.984,0.654,2.101,1.396,2.894,3.035
		c0.881,1.82,0.444,3.207,0.093,4.32c-0.299,0.949-0.536,1.698-0.143,2.777c0.464,1.274,1.199,1.828,2.128,2.527
		c0.871,0.656,1.858,1.399,2.598,2.805c0.899,1.71,0.364,3.257-0.107,4.623c-0.389,1.125-0.725,2.097-0.308,3.108
		c0.457,1.11,1.188,1.565,2.115,2.142c0.193,0.12,0.386,0.24,0.576,0.366l-1.105,1.667c-0.174-0.115-0.351-0.225-0.527-0.335
		c-1.034-0.643-2.205-1.372-2.908-3.078c-0.704-1.71-0.188-3.204,0.267-4.522c0.449-1.299,0.7-2.141,0.227-3.039
		c-0.53-1.009-1.226-1.532-2.03-2.138c-1.002-0.754-2.138-1.609-2.804-3.44c-0.626-1.717-0.215-3.018,0.114-4.063
		c0.319-1.011,0.549-1.742,0.015-2.848c-0.555-1.147-1.318-1.654-2.201-2.241c-0.992-0.659-2.117-1.407-2.73-3.082
		c-0.619-1.688,0.012-3.263,0.569-4.653c0.479-1.195,0.892-2.227,0.478-3.095c-0.463-0.969-1.029-1.393-1.745-1.929
		c-0.878-0.658-1.874-1.403-2.683-3.156c-0.794-1.721-0.599-3.179-0.426-4.465c0.156-1.161,0.279-2.078-0.27-3.122
		c-0.6-1.142-1.25-1.608-2.002-2.148c-0.809-0.581-1.725-1.238-2.553-2.69c-0.96-1.687-0.484-3.254-0.064-4.637
		c0.344-1.132,0.641-2.109,0.184-3.087c-0.497-1.062-1.199-1.532-2.012-2.076c-0.972-0.651-2.073-1.388-2.731-3.113
		c-0.661-1.729-0.106-3.186,0.383-4.471c0.486-1.276,0.763-2.107,0.348-3.086c-0.51-1.206-1.246-1.672-2.178-2.263
		c-0.888-0.563-1.894-1.201-2.739-2.523c-0.966-1.512-0.728-3.048-0.518-4.403c0.219-1.41,0.318-2.318-0.35-3.205
		c-0.739-0.982-2.101-1.552-3.484-1.457c-1.119,0.079-2.012,0.579-2.451,1.372c-0.51,0.923-0.354,1.878-0.174,2.984
		c0.229,1.405,0.489,2.998-0.653,4.645c-0.915,1.319-1.875,2.013-2.723,2.625c-0.881,0.636-1.577,1.138-2.113,2.256
		c-0.424,0.885-0.048,1.888,0.387,3.049c0.516,1.377,1.101,2.937,0.367,4.6c-0.678,1.537-1.774,2.224-2.741,2.831
		c-0.901,0.564-1.679,1.052-2.164,2.231c-0.444,1.079-0.122,2.041,0.252,3.155c0.438,1.304,0.934,2.783,0.085,4.459
		c-0.769,1.518-1.765,2.295-2.644,2.98c-0.776,0.605-1.509,1.177-2.122,2.275c-0.548,0.98-0.39,1.821-0.189,2.885
		c0.221,1.175,0.497,2.638-0.366,4.323c-0.804,1.571-1.802,2.328-2.683,2.996c-0.807,0.612-1.444,1.096-1.9,2.161
		c-0.39,0.91,0.014,1.945,0.483,3.145c0.561,1.438,1.197,3.066,0.46,4.8c-0.694,1.633-1.776,2.344-2.73,2.972
		c-0.842,0.553-1.569,1.031-2.101,2.151c-0.476,1-0.215,1.81,0.115,2.834c0.385,1.194,0.864,2.68-0.064,4.47
		c-0.824,1.592-1.869,2.367-2.792,3.051c-0.851,0.631-1.523,1.13-1.994,2.209c-0.376,0.863-0.125,1.633,0.317,2.816
		c0.473,1.27,1.062,2.849,0.212,4.681c-0.752,1.62-1.889,2.389-2.892,3.067C166.477,104.058,166.293,104.182,166.114,104.311z"/>
	<path fill="#FFFFFF" d="M178.412,104.02l-1.818-0.832c0.485-1.061,0.181-2.101-0.172-3.304c-0.381-1.301-0.813-2.775-0.153-4.363
		c0.622-1.494,1.649-2.222,2.555-2.865c0.908-0.644,1.692-1.199,2.188-2.524c0.471-1.259,0.246-2.135-0.014-3.149
		c-0.288-1.123-0.614-2.396,0.055-4.077c0.432-1.083,1.038-1.887,1.908-2.528l0.719-0.529l0.607,0.654
		c0.833,0.897,1.36,1.405,2.495,1.405c1.232,0,1.866-0.643,2.669-1.457c0.9-0.912,2.02-2.046,4.078-2.046
		c2.087,0,3.223,1.084,4.135,1.955c0.801,0.764,1.434,1.368,2.653,1.368c1.217,0,1.809-0.557,2.627-1.327
		c0.958-0.902,2.152-2.025,4.491-2.025c1.64,0,2.758,1.042,3.745,1.96c0.992,0.924,1.849,1.722,3.18,1.722
		c0.729,0,1.149-0.296,1.715-0.878l0.677-0.697l0.716,0.657c0.651,0.597,1.083,1.299,1.362,2.211
		c0.525,1.718,0.25,2.926,0.007,3.992c-0.217,0.954-0.405,1.778-0.097,3.051c0.292,1.209,0.963,1.645,1.892,2.248
		c0.93,0.604,2.088,1.355,2.742,3.029c0.705,1.804,0.259,3.372-0.135,4.755c-0.292,1.029-0.545,1.918-0.318,2.786l-1.935,0.507
		c-0.366-1.396,0.003-2.694,0.33-3.839c0.352-1.236,0.655-2.303,0.195-3.48c-0.419-1.074-1.137-1.54-1.968-2.079
		c-1.01-0.656-2.268-1.472-2.748-3.456c-0.418-1.729-0.147-2.917,0.091-3.964c0.223-0.98,0.399-1.755,0.03-2.964
		c-0.07-0.229-0.152-0.431-0.25-0.615c-0.595,0.43-1.322,0.738-2.308,0.738c-2.117,0-3.462-1.252-4.543-2.258
		c-0.948-0.883-1.57-1.424-2.382-1.424c-1.545,0-2.241,0.654-3.12,1.482c-0.932,0.876-1.988,1.87-3.998,1.87
		c-2.021,0-3.137-1.065-4.034-1.921c-0.821-0.783-1.469-1.402-2.754-1.402c-1.222,0-1.854,0.641-2.654,1.451
		c-0.902,0.914-2.025,2.052-4.093,2.052c-1.538,0-2.515-0.631-3.263-1.33c-0.243,0.296-0.438,0.642-0.607,1.068
		c-0.429,1.076-0.229,1.855,0.024,2.841c0.286,1.113,0.641,2.499-0.05,4.347c-0.711,1.9-1.876,2.726-2.904,3.455
		c-0.818,0.58-1.464,1.038-1.865,2.001c-0.389,0.935-0.104,1.907,0.226,3.032C178.747,100.708,179.208,102.28,178.412,104.02z
		 M214.665,74.272l-0.908-0.16c-1.719-0.303-2.849-1.312-3.847-2.202c-0.979-0.874-1.622-1.409-2.476-1.409
		c-1.545,0-2.241,0.654-3.12,1.482c-0.932,0.876-1.988,1.87-3.998,1.87c-2.021,0-3.137-1.065-4.034-1.921
		c-0.821-0.783-1.469-1.402-2.754-1.402c-1.222,0-1.854,0.641-2.655,1.451c-0.902,0.914-2.024,2.051-4.092,2.051
		c-0.292,0-0.624,0-0.975-0.071l-0.546-0.111l-0.193-0.523c-0.389-1.053-0.711-2.293-0.148-3.507
		c0.606-1.31,1.462-2.005,2.291-2.678c0.769-0.625,1.495-1.214,2.073-2.368c0.549-1.098,0.468-2.064,0.375-3.183
		c-0.099-1.184-0.212-2.526,0.44-4.095c0.718-1.73,1.791-2.489,2.738-3.159c0.769-0.544,1.433-1.014,1.983-2.003
		c0.546-0.982,0.331-1.858,0.059-2.966c-0.287-1.167-0.611-2.489-0.013-4.035c0.872-2.251,4.08-5.538,5.191-5.33l0.816,0.152
		l0.001,0.344c1.036,0.749,3.439,2.49,4.433,4.506c0.723,1.466,0.301,2.973-0.071,4.303c-0.327,1.167-0.635,2.269-0.196,3.239
		c0.448,0.99,1.143,1.493,1.947,2.076c0.992,0.719,2.117,1.533,2.846,3.29c0.712,1.714,0.592,2.852,0.475,3.951
		c-0.1,0.941-0.194,1.829,0.229,3.278c0.414,1.416,1.153,1.925,2.01,2.515c0.91,0.626,1.942,1.336,2.39,3.02
		c0.226,0.851,0.213,1.735-0.041,2.703L214.665,74.272z M186.746,72.033c0.012,0,0.023,0,0.035,0c1.232,0,1.866-0.643,2.669-1.456
		c0.9-0.912,2.02-2.046,4.078-2.046c2.087,0,3.223,1.084,4.135,1.955c0.801,0.764,1.434,1.368,2.653,1.368
		c1.217,0,1.809-0.557,2.627-1.327c0.958-0.902,2.152-2.025,4.491-2.025c1.66,0,2.801,1.018,3.808,1.917
		c0.601,0.536,1.179,1.052,1.856,1.389c-0.008-0.21-0.039-0.413-0.093-0.616c-0.258-0.969-0.817-1.354-1.591-1.886
		c-0.973-0.669-2.184-1.502-2.797-3.602c-0.534-1.827-0.409-3.008-0.298-4.049c0.102-0.966,0.183-1.73-0.333-2.974
		c-0.513-1.235-1.282-1.792-2.172-2.437c-0.905-0.655-1.93-1.397-2.597-2.871c-0.739-1.632-0.297-3.21,0.092-4.603
		c0.315-1.126,0.588-2.1,0.203-2.879c-0.735-1.491-2.752-3.001-3.673-3.67c-0.824,0.655-2.459,2.154-3.11,3.834
		c-0.371,0.958-0.157,1.828,0.09,2.835c0.316,1.288,0.674,2.747-0.254,4.416c-0.772,1.387-1.73,2.065-2.576,2.663
		c-0.865,0.612-1.549,1.096-2.046,2.294c-0.465,1.119-0.385,2.065-0.293,3.161c0.104,1.24,0.222,2.646-0.58,4.246
		c-0.771,1.539-1.743,2.329-2.6,3.025c-0.74,0.602-1.325,1.076-1.737,1.966C186.576,71.002,186.575,71.42,186.746,72.033z"/>
	<path fill="#FFFFFF" d="M269.192,97.888c-1.687,0-2.777-0.827-3.739-1.557c-0.842-0.639-1.506-1.143-2.507-1.143
		c-0.379,0-0.63,0.005-0.822,0.025l0.025,0.293l-0.9,0.024l-1.19,0.601l-0.004-2.646l0.116-0.001
		c0.263-1.178,0.945-2.094,1.562-2.924c0.731-0.983,1.362-1.833,1.362-3.024c0-1.175-0.598-1.944-1.291-2.835
		c-0.77-0.99-1.643-2.113-1.643-3.838c0-1.729,0.903-2.831,1.701-3.804c0.726-0.886,1.354-1.651,1.354-2.869
		c0-1.225-0.653-2.042-1.408-2.988c-0.814-1.019-1.737-2.174-1.737-3.896c0-1.764,0.998-2.97,1.878-4.034
		c0.761-0.92,1.418-1.715,1.418-2.759c0-1.04-0.532-1.733-1.206-2.612c-0.795-1.038-1.697-2.214-1.697-4.091
		c0-1.888,0.956-3.029,1.799-4.037c0.718-0.857,1.286-1.535,1.286-2.606c0-1.1-0.703-1.937-1.517-2.907
		c-0.905-1.077-1.931-2.299-1.931-4.037c0-1.751,1.005-2.941,1.893-3.992c0.77-0.912,1.434-1.699,1.434-2.741
		c0-2.146-3.078-3.834-3.109-3.851l-0.766-0.405l0.292-0.816c0.049-0.136,1.239-3.347,4.721-3.347c2.139,0,3.432,1.084,4.572,2.04
		c0.875,0.734,1.631,1.368,2.711,1.516c0.981,0.138,1.832-0.329,2.757-0.826c0.907-0.488,1.935-1.041,3.16-1.041
		c0.391,0,0.785,0.057,1.171,0.169c2.192,0.637,3.01,2.128,3.731,3.445c0.432,0.787,0.839,1.531,1.528,2.05
		c0.613,0.462,1.287,0.668,2.183,0.668c0.499,0,1.023-0.062,1.531-0.124c0.524-0.062,1.065-0.127,1.6-0.127
		c0.705,0,1.751,0.094,2.697,0.912c1.64,1.417,1.688,3.098,1.731,4.581c0.03,1.019,0.055,1.898,0.547,2.694
		c0.575,0.931,1.706,1.354,3.015,1.844c1.653,0.618,3.526,1.319,4.461,3.303c0.727,1.543,0.148,2.857-0.411,4.127
		c-0.461,1.047-0.938,2.13-0.909,3.601c0.02,1.02,0.528,1.57,1.424,2.456c0.944,0.933,2.119,2.094,2.144,4.223
		c0.021,1.902-0.982,3.103-1.789,4.067c-0.698,0.834-1.249,1.494-1.264,2.496c-0.023,1.407,0.633,2.516,1.268,3.588
		c0.641,1.083,1.304,2.203,0.998,3.46c-0.484,1.996-1.775,3.003-3.024,3.977c-0.894,0.697-1.738,1.355-2.348,2.401
		c-0.644,1.101-0.591,2.168-0.536,3.298c0.06,1.229,0.128,2.621-0.982,3.698c-1.021,0.991-2.285,1.08-3.507,1.165
		c-1.178,0.083-2.396,0.168-3.729,0.99c-0.934,0.577-1.263,1.39-1.644,2.332c-0.457,1.13-0.974,2.411-2.59,3.086
		c-0.474,0.197-0.982,0.298-1.513,0.298c-1.244,0-2.418-0.534-3.554-1.051c-1.075-0.489-2.068-0.947-2.979-0.88
		c-1.389,0.109-2.257,0.972-3.262,1.972c-1.048,1.042-2.236,2.223-4.109,2.385C269.491,97.882,269.339,97.888,269.192,97.888z
		 M262.946,93.188c1.673,0,2.759,0.824,3.716,1.55c0.923,0.701,1.636,1.24,2.812,1.138c1.15-0.1,1.948-0.893,2.872-1.811
		c1.122-1.116,2.394-2.38,4.515-2.547c1.385-0.109,2.708,0.482,3.965,1.054c1.311,0.597,2.54,1.118,3.468,0.728
		c0.806-0.337,1.084-0.944,1.507-1.99c0.425-1.053,0.955-2.363,2.447-3.284c1.751-1.081,3.353-1.193,4.64-1.283
		c1.122-0.079,1.78-0.145,2.254-0.605c0.44-0.427,0.432-1.036,0.377-2.165c-0.061-1.244-0.137-2.792,0.806-4.405
		c0.804-1.377,1.888-2.223,2.844-2.969c1.112-0.868,1.991-1.553,2.311-2.873c0.113-0.467-0.299-1.164-0.776-1.97
		c-0.703-1.188-1.578-2.667-1.546-4.638c0.027-1.71,0.932-2.792,1.729-3.747c0.747-0.893,1.336-1.599,1.323-2.762
		c-0.015-1.307-0.692-1.977-1.55-2.824c-0.882-0.872-1.98-1.958-2.018-3.838c-0.038-1.913,0.581-3.318,1.078-4.447
		c0.521-1.183,0.756-1.781,0.432-2.469c-0.588-1.248-1.869-1.728-3.353-2.282c-1.444-0.54-3.081-1.152-4.016-2.666
		c-0.774-1.252-0.812-2.546-0.845-3.687c-0.042-1.458-0.112-2.323-1.041-3.126c-0.344-0.298-0.76-0.425-1.389-0.425
		c-0.415,0-0.875,0.055-1.362,0.113c-0.566,0.067-1.15,0.137-1.768,0.137c-1.341,0-2.417-0.34-3.387-1.071
		c-1.032-0.777-1.588-1.792-2.078-2.686c-0.637-1.162-1.14-2.08-2.535-2.485c-0.943-0.274-1.799,0.159-2.826,0.712
		c-1.094,0.588-2.373,1.267-3.976,1.046c-1.651-0.227-2.752-1.15-3.724-1.965c-1.006-0.844-1.876-1.573-3.287-1.573
		c-1.272,0-2.045,0.744-2.457,1.331c1.223,0.845,3.319,2.648,3.319,5.088c0,1.773-1.013,2.973-1.906,4.031
		c-0.762,0.903-1.42,1.683-1.42,2.702c0,1.01,0.678,1.817,1.462,2.751c0.931,1.108,1.985,2.364,1.985,4.192
		c0,1.798-0.931,2.91-1.752,3.89c-0.745,0.889-1.333,1.591-1.333,2.752c0,1.198,0.595,1.975,1.285,2.874
		c0.758,0.99,1.618,2.111,1.618,3.829c0,1.764-0.998,2.97-1.877,4.034c-0.761,0.92-1.419,1.715-1.419,2.76
		c0,1.021,0.573,1.739,1.299,2.647c0.865,1.083,1.846,2.31,1.846,4.236c0,1.933-1.002,3.155-1.807,4.137
		c-0.697,0.85-1.248,1.522-1.248,2.536c0,1.039,0.539,1.732,1.222,2.61c0.803,1.032,1.712,2.202,1.712,4.062
		c0,1.853-0.934,3.109-1.757,4.217c-0.37,0.498-0.713,0.958-0.95,1.439C262.562,93.189,262.746,93.188,262.946,93.188z"/>
	<path fill="#FFFFFF" d="M257.453,107.3c-2.648,0-5.325-2.775-5.621-3.091l-0.386-0.413l0.154-0.544
		c0.049-0.174,0.103-0.347,0.156-0.52c0.18-0.583,0.349-1.134,0.349-1.72c0-1.34-0.441-2.033-1-2.91
		c-0.62-0.974-1.323-2.077-1.323-4.027c0-2.119,0.945-3.167,1.705-4.009c0.673-0.746,1.159-1.284,1.159-2.559
		c0-1.295-0.521-1.944-1.18-2.766c-0.72-0.897-1.617-2.014-1.617-4.003c0-2.043,0.919-3.158,1.658-4.055
		c0.655-0.794,1.173-1.422,1.173-2.681c0-1.248-0.481-1.822-1.148-2.616c-0.78-0.929-1.75-2.085-1.75-4.389
		c0-1.571,0.658-2.666,1.294-3.723c0.594-0.988,1.156-1.921,1.273-3.342c0.067-0.804-0.27-1.382-0.871-2.335
		c-0.652-1.035-1.464-2.323-1.505-4.297c-0.032-1.529,0.628-2.456,1.21-3.272c0.576-0.809,1.073-1.506,1.073-2.914
		c0-1.266-0.52-1.881-1.179-2.661c-0.741-0.877-1.663-1.968-1.663-3.993c0-2.039,0.939-3.128,1.693-4.003
		c0.691-0.803,1.237-1.436,1.237-2.799c0-1.273-0.557-1.911-1.261-2.719c-0.779-0.894-1.749-2.006-1.749-4.018
		c0-2.04,0.917-3.167,1.654-4.072c0.657-0.808,1.176-1.445,1.176-2.707c0-1.261-0.618-1.857-1.473-2.682l-0.378-0.365l0.086-0.519
		c0.132-0.794,2.068-2.677,4.625-2.677c2.407,0,3.459,1.246,4.304,2.248c0.747,0.885,1.287,1.524,2.739,1.524
		c0.88,0,1.652-0.539,2.546-1.162c1.145-0.799,2.442-1.704,4.298-1.704l0.201,0.003c2.208,0.079,3.408,1.505,4.372,2.651
		c0.744,0.884,1.386,1.647,2.36,1.808c1.113,0.186,1.871-0.309,2.782-0.9c0.867-0.562,1.851-1.201,3.181-1.201
		c0.437,0,0.889,0.071,1.346,0.211c1.869,0.575,2.787,2.031,3.596,3.316c0.67,1.063,1.249,1.982,2.257,2.361
		c0.852,0.32,1.741,0.191,2.684-0.012c0.574-0.124,1.168-0.252,1.818-0.252c0.981,0,1.878,0.304,2.742,0.929
		c1.678,1.213,2.074,2.758,2.424,4.12c0.257,1,0.479,1.864,1.183,2.532c0.66,0.626,1.613,0.741,2.717,0.874
		c1.498,0.18,3.362,0.404,4.651,2.198c1.257,1.75,1.023,3.398,0.836,4.724c-0.143,1.005-0.255,1.8,0.174,2.589
		c0.468,0.862,1.21,1.414,1.996,1.998c1.097,0.814,2.339,1.737,2.9,3.577c0.562,1.84-0.105,3.182-0.694,4.366
		c-0.475,0.954-0.884,1.777-0.783,2.908c0.097,1.076,0.82,1.771,1.658,2.577c1.005,0.967,2.255,2.17,2.255,4.214
		c0,1.974-1.145,3.253-2.155,4.381c-0.833,0.931-1.552,1.734-1.552,2.792c0,1.111,0.446,1.806,0.962,2.61
		c0.644,1.003,1.373,2.141,1.119,3.992c-0.339,2.471-1.967,3.506-3.403,4.42c-0.878,0.559-1.707,1.086-2.187,1.911
		c-0.389,0.668-0.118,1.748,0.168,2.891c0.404,1.612,0.907,3.617-0.458,5.236c-1.201,1.425-2.659,1.868-3.945,2.259
		c-1.048,0.319-1.952,0.594-2.676,1.341c-0.64,0.66-0.847,1.618-1.065,2.632c-0.315,1.458-0.708,3.273-2.623,4.302
		c-0.793,0.426-1.604,0.633-2.48,0.634c-0.769,0-1.464-0.156-2.137-0.307c-1.043-0.234-2.021-0.391-2.928-0.048
		c-1.02,0.384-1.479,1.132-2.062,2.08c-0.691,1.125-1.474,2.399-3.308,2.97c-0.51,0.159-0.997,0.236-1.49,0.236
		c-1.168,0-2.076-0.431-2.955-0.849c-0.917-0.436-1.769-0.842-2.934-0.728c-1.176,0.115-1.778,0.773-2.541,1.607
		c-0.814,0.889-1.826,1.996-3.663,2.23c-1.941,0.24-3.203-0.7-4.305-1.519c-0.94-0.699-1.752-1.303-2.966-1.303
		c-0.912,0-1.689,0.617-2.59,1.33C260.334,106.343,259.126,107.3,257.453,107.3z M253.692,103.238
		c0.865,0.806,2.485,2.062,3.76,2.062c0.977,0,1.778-0.635,2.705-1.37c1.042-0.827,2.224-1.763,3.833-1.763
		c1.876,0,3.089,0.902,4.16,1.698c0.98,0.729,1.724,1.282,2.859,1.139c1.109-0.141,1.696-0.783,2.44-1.596
		c0.839-0.917,1.883-2.058,3.823-2.247c1.716-0.167,2.932,0.412,3.986,0.912c1.04,0.493,1.901,0.851,2.993,0.51
		c1.117-0.348,1.594-1.124,2.198-2.107c0.656-1.068,1.4-2.279,3.061-2.905c0.613-0.231,1.231-0.343,1.893-0.343
		c0.79,0,1.496,0.159,2.178,0.312c1.181,0.265,2.226,0.403,3.232-0.137c1.048-0.563,1.296-1.493,1.614-2.962
		c0.256-1.186,0.547-2.53,1.584-3.601c1.083-1.119,2.383-1.514,3.53-1.863c1.169-0.356,2.178-0.663,2.998-1.635
		c0.658-0.78,0.457-1.828,0.047-3.461c-0.354-1.412-0.755-3.012,0.043-4.384c0.724-1.244,1.849-1.959,2.841-2.591
		c1.275-0.812,2.282-1.453,2.495-3.006c0.154-1.12-0.255-1.757-0.821-2.64c-0.569-0.888-1.278-1.993-1.278-3.69
		c0-1.823,1.096-3.047,2.062-4.126c0.883-0.986,1.645-1.837,1.645-3.047c0-1.136-0.624-1.793-1.642-2.773
		c-0.984-0.946-2.099-2.019-2.264-3.839c-0.152-1.694,0.452-2.908,0.984-3.979c0.523-1.052,0.902-1.812,0.572-2.892
		c-0.369-1.21-1.208-1.833-2.179-2.555c-0.882-0.656-1.882-1.398-2.562-2.648c-0.744-1.371-0.56-2.674-0.397-3.825
		c0.172-1.217,0.309-2.179-0.479-3.276c-0.739-1.028-1.722-1.194-3.266-1.379c-1.272-0.153-2.714-0.326-3.855-1.408
		c-1.122-1.064-1.452-2.351-1.744-3.486c-0.304-1.185-0.566-2.207-1.659-2.997c-0.935-0.677-1.84-0.585-2.967-0.343
		c-1.096,0.236-2.529,0.41-3.808-0.071c-1.639-0.616-2.493-1.971-3.247-3.167c-0.714-1.134-1.332-2.114-2.492-2.47
		c-1.098-0.338-1.888,0.13-2.85,0.755c-1.069,0.694-2.315,1.503-4.196,1.196c-1.703-0.28-2.692-1.456-3.565-2.493
		c-0.988-1.174-1.657-1.895-2.913-1.94l-0.13-0.002c-1.228,0-2.163,0.653-3.154,1.344c-1.022,0.713-2.181,1.521-3.69,1.521
		c-2.38,0-3.426-1.239-4.267-2.234c-0.753-0.893-1.298-1.538-2.776-1.538c-0.97,0-1.766,0.444-2.252,0.819
		c0.727,0.794,1.392,1.822,1.392,3.423c0,1.973-0.901,3.08-1.625,3.969c-0.673,0.828-1.205,1.481-1.205,2.81
		c0,1.263,0.554,1.898,1.256,2.704c0.781,0.896,1.753,2.011,1.753,4.034c0,2.106-0.955,3.214-1.722,4.104
		c-0.675,0.784-1.208,1.402-1.208,2.698c0,1.293,0.525,1.915,1.19,2.703c0.735,0.871,1.651,1.955,1.651,3.952
		c0,2.047-0.801,3.171-1.444,4.074c-0.498,0.699-0.857,1.204-0.839,2.071c0.029,1.418,0.597,2.319,1.197,3.272
		c0.638,1.012,1.298,2.058,1.172,3.567c-0.156,1.887-0.898,3.12-1.553,4.208c-0.563,0.937-1.008,1.676-1.008,2.692
		c0,1.575,0.566,2.25,1.282,3.103c0.758,0.903,1.616,1.926,1.616,3.902c0,1.977-0.904,3.073-1.63,3.953
		c-0.671,0.814-1.201,1.457-1.201,2.782c0,1.286,0.519,1.933,1.176,2.751c0.722,0.899,1.621,2.019,1.621,4.018
		c0,2.043-0.928,3.072-1.673,3.898c-0.691,0.766-1.19,1.32-1.19,2.669c0,1.367,0.468,2.102,1.01,2.953
		c0.616,0.966,1.314,2.062,1.314,3.985C254.104,101.862,253.891,102.592,253.692,103.238z"/>
</g>
</svg>
