<?xml version="1.0" standalone="no"?>
<!DOCTYPE svg PUBLIC "-//W3C//DTD SVG 1.1//EN" "http://www.w3.org/Graphics/SVG/1.1/DTD/svg11.dtd" >
<svg xmlns="http://www.w3.org/2000/svg">
<metadata>
Created by FontPrep 20130207 at Fri Feb 20 17:43:24 2015
 By Appuhn, Mikey
Copyright (c) 2008 by Radim Pesko. All rights reserved.
</metadata>
<defs>
<font id="26a5f4031ec4a4c21898163151754229" horiz-adv-x='1024' >
  <font-face 
    font-family="Fugue-Regular"
    font-weight="400"
    font-stretch="normal"
    units-per-em="2048"
    panose-1="2 0 5 3 0 0 0 2 0 3"
    ascent="1556"
    descent="-492"
    x-height="963"
    cap-height="1495"
    bbox="-80 -492 2867 2359"
    underline-thickness="102"
    underline-position="-102"
    unicode-range="U+0020-FB04"
  />
<missing-glyph horiz-adv-x="471" 
 />
    <glyph glyph-name="ff" unicode="ff" horiz-adv-x="1064" 
d="M860 1270v-307h144v-185h-144v-778h-205v778h-286v-778h-205v778h-144v185h144v286q0 141 79 225t228 82l143 -20v-184l-153 20q-92 0 -92 -102v-307h286v286q0 141 79 225t229 82l102 -20v-184l-113 20q-92 0 -92 -102z" />
    <glyph glyph-name="fi" unicode="fi" horiz-adv-x="983" 
d="M655 1311v205h205v-205h-205zM20 778v185h144v286q0 141 79 225t228 82l123 -20v-184l-133 20q-92 0 -92 -102v-307h491v-963h-203v778h-288v-778h-205v778h-144z" />
    <glyph glyph-name="fl" unicode="fl" horiz-adv-x="983" 
d="M860 1536v-1352l21 -184h-205l-21 184v1352h205zM20 778v185h144v286q0 141 79 225t228 82l123 -20v-184l-133 20q-92 0 -92 -102v-307h102v-185h-102v-778h-205v778h-144z" />
    <glyph glyph-name="ffi" unicode="ffi" horiz-adv-x="1474" 
d="M1147 1311v205h205v-205h-205zM860 1270v-307h492v-963h-205v778h-287v-778h-205v778h-286v-778h-205v778h-144v185h144v286q0 141 79 225t228 82l143 -20v-184l-153 20q-92 0 -92 -102v-307h286v286q0 141 79 225t229 82l122 -20v-184l-133 20q-92 0 -92 -102z" />
    <glyph glyph-name="ffl" unicode="ffl" horiz-adv-x="1474" 
d="M1352 1536v-1352l20 -184h-205l-20 184v1352h205zM860 1270v-307h103v-185h-103v-778h-205v778h-286v-778h-205v778h-144v185h144v286q0 141 79 225t228 82l143 -20v-184l-153 20q-92 0 -92 -102v-307h286v286q0 141 79 225t229 82l122 -20v-184l-133 20q-92 0 -92 -102z
" />
    <glyph glyph-name=".notdef" horiz-adv-x="471" 
 />
    <glyph glyph-name=".null" horiz-adv-x="0" 
 />
    <glyph glyph-name="nonmarkingreturn" horiz-adv-x="681" 
 />
    <glyph glyph-name="space" unicode=" " horiz-adv-x="491" 
 />
    <glyph glyph-name="exclam" unicode="!" horiz-adv-x="491" 
d="M123 0v246h246v-246h-246zM225 348l-82 615l-20 532h246l-21 -532l-82 -615h-41z" />
    <glyph glyph-name="quotedbl" unicode="&#x22;" 
d="M553 1495v-532h-145v532h145zM287 1495v-532h-144v532h144z" />
    <glyph glyph-name="numbersign" unicode="#" horiz-adv-x="1474" 
d="M625 963l-133 -431h356l133 431h-356zM61 389v143h275l133 431h-244v143h289l121 389h143v-41l-108 -348h356l121 389h143v-41l-108 -348h231v-143h-276l-133 -431h245v-143h-288l-121 -389h-144v41l107 348h-354l-121 -389h-144v41l107 348h-230z" />
    <glyph glyph-name="dollar" unicode="$" horiz-adv-x="1085" 
d="M631 -82h-176v90q-160 29 -256 153t-97 269h203q-4 -72 38 -133t112 -88v221h176v-227q71 18 109 71t38 125q0 143 -174 211q-314 121 -430 258q-72 86 -72 228t96 253q96 112 257 138v90h176v-90q160 -31 256 -154t96 -268h-203q2 72 -39 133t-110 88v-221h-176v227
q-147 -41 -148 -196q0 -119 144 -197q90 -49 227 -104q305 -123 305 -396q0 -141 -95 -254t-257 -139v-88z" />
    <glyph glyph-name="percent" unicode="%" horiz-adv-x="1392" 
d="M840 297q0 -82 51 -132t123 -50t123 50t51 132t-51 132t-123 50t-123 -50t-51 -132zM696 297q0 135 87 226t231 91t230 -91q87 -91 87 -226t-87 -226t-230 -91t-231 91q-87 91 -87 226zM205 1198q0 -82 51 -132t123 -50t123 50t51 132t-51 132t-123 50t-123 -50t-51 -132
zM61 1198q0 135 87 226q86 92 230 92t231 -92t87 -226q0 -135 -87 -226t-230 -91t-231 91q-87 91 -87 226zM1352 1495l-1147 -1495h-164l1147 1495h164z" />
    <glyph glyph-name="ampersand" unicode="&#x26;" horiz-adv-x="1515" 
d="M635 1315q-72 0 -118 -42t-46 -105t31 -101q31 -37 43 -52t41 -44l28 -29q184 100 185 215q0 74 -46 116t-118 42zM307 399q0 -103 75 -169t161 -66t148 38t96 82t75 113l-295 312q-260 -139 -260 -310zM635 1516q156 0 262 -98t107 -251q0 -106 -71 -203t-185 -159
l-3 -2l224 -234l116 189q68 108 148 156t201 49h61v-185h-61q-68 0 -108 -33t-77 -90l-149 -245l231 -410h-225l-123 219q-164 -240 -432 -239q-199 0 -324 118t-125 301q0 264 328 443l6 4q-170 188 -170 330t106 242q106 98 263 98z" />
    <glyph glyph-name="quotesingle" unicode="'" 
d="M143 1495h410v-532h-410v532z" />
    <glyph glyph-name="parenleft" unicode="(" 
d="M92 758q0 176 46 333t124 271q150 220 352 338l82 -123q-188 -102 -319 -317t-131 -503t131 -502t319 -316l-82 -123q-203 118 -352 338q-78 116 -124 272t-46 332z" />
    <glyph glyph-name="parenright" unicode=")" 
d="M604 758q0 -176 -46 -333t-124 -271q-150 -220 -352 -338l-82 123q188 102 319 316t131 502t-130 503q-132 215 -320 317l82 123q203 -118 352 -338q78 -116 124 -272t46 -332z" />
    <glyph glyph-name="asterisk" unicode="*" horiz-adv-x="921" 
d="M860 1167v-143h-328v-328h-143v226l-160 -160l-102 102l160 160h-226v143h328v328h143v-225l160 160l103 -103l-160 -160h225z" />
    <glyph glyph-name="plus" unicode="+" horiz-adv-x="1105" 
d="M635 102h-164v410h-410v164h410v409h164v-409h409v-164h-409v-410z" />
    <glyph glyph-name="comma" unicode="," horiz-adv-x="499" 
d="M29 -205v41l215 481l194 -92l-194 -430h-215z" />
    <glyph glyph-name="hyphen" unicode="-" horiz-adv-x="655" 
d="M61 696h533v-225h-533v225z" />
    <glyph glyph-name="period" unicode="." horiz-adv-x="368" 
d="M61 0v266h246v-266h-246z" />
    <glyph glyph-name="slash" unicode="/" horiz-adv-x="1044" 
d="M1044 1556l-901 -1638h-143l901 1638h143z" />
    <glyph glyph-name="zero" unicode="0" horiz-adv-x="1126" 
d="M256 748q0 -266 76 -419t232 -153t231 153q76 153 75 419q0 266 -76 418t-231 153q-155 -1 -231 -153t-76 -418zM1075 748q0 -340 -136 -554t-377 -214t-376 214t-135 554t135 554t376 214t377 -214t136 -554z" />
    <glyph glyph-name="one" unicode="1" horiz-adv-x="942" 
d="M635 1495v-1495h-205v1229l-121 -185h-207v41l287 410h246z" />
    <glyph glyph-name="two" unicode="2" horiz-adv-x="1126" 
d="M102 1004v61q0 195 140 323t334 128q192 0 330 -122t138 -329q0 -86 -38 -167t-71 -121q-125 -147 -293 -274q-168 -129 -236 -189t-68 -111h686v-203h-942v102q0 96 66 194t146 164q81 67 207 168q251 201 308 304q31 59 31 133q0 117 -80 185t-186 67q-106 0 -188 -68
q-81 -68 -81 -184v-61h-203z" />
    <glyph glyph-name="three" unicode="3" horiz-adv-x="1126" 
d="M1044 468q0 -192 -139 -340t-351 -148t-352 136t-141 324h205q0 -114 82 -190t204 -76t205 85t83 211t-87 207t-221 81h-206v184l422 350h-625v203h778l123 -203l-438 -354q202 -10 330 -144t128 -326z" />
    <glyph glyph-name="four" unicode="4" horiz-adv-x="1126" 
d="M717 584v653q-297 -438 -447 -653h447zM41 389v195l614 911h267v-911h163v-195h-163v-389h-205v389h-676z" />
    <glyph glyph-name="five" unicode="5" horiz-adv-x="1187" 
d="M41 492h205q0 -130 94 -220t234 -90t234 88q93 88 93 236t-89 234t-239 89q-109 4 -358 -10l-92 195l174 481h686v-203h-557l-113 -284q145 18 260 16q240 -4 386 -145q147 -141 147 -369t-158 -379t-377 -151t-375 152t-155 360z" />
    <glyph glyph-name="six" unicode="6" horiz-adv-x="1126" 
d="M618 1516q186 0 312 -121t125 -310h-205q0 111 -68 173t-168 62t-171 -56t-105 -148q-65 -176 -62 -356q137 182 345 182t336 -140t128 -338t-131 -341t-344 -143q-132 0 -240 60q-295 163 -288 708q4 308 125 528q61 112 167 176t244 64zM605 176q122 0 199 81t77 205
t-79 205t-203 81t-200 -81q-75 -81 -75 -202t80 -205t201 -84z" />
    <glyph glyph-name="seven" unicode="7" horiz-adv-x="1003" 
d="M983 1495v-203q-104 -197 -258 -577q-155 -379 -264 -715h-205v41q203 588 508 1251h-764v203h983z" />
    <glyph glyph-name="eight" unicode="8" horiz-adv-x="1126" 
d="M307 1100q0 -94 70 -164q71 -70 187 -70t186 70t70 164t-75 157t-183 63t-182 -62q-74 -64 -73 -158zM850 424q0 110 -81 182q-81 70 -203 70t-206 -72t-84 -180q0 -110 82 -180t205 -70t205 70t82 180zM102 1106q0 168 138 289t323 121t323 -121t138 -289
q0 -207 -186 -326q217 -117 217 -370q1 -180 -139 -306t-353 -124q-213 0 -352 124t-139 306q0 254 215 370q-185 119 -185 326z" />
    <glyph glyph-name="nine" unicode="9" horiz-adv-x="1126" 
d="M276 410q0 -111 68 -173q68 -63 168 -63t171 57t105 149q67 182 62 355q-123 -182 -338 -182t-343 140t-128 338t133 341t348 144q143 0 260 -79q269 -182 262 -689q-4 -311 -124 -529q-62 -111 -168 -175t-244 -64q-186 0 -312 120t-124 310h204zM521 1319
q-123 0 -199 -81t-76 -204t82 -204q82 -80 204 -80t196 80q75 80 75 200q0 121 -80 205t-202 84z" />
    <glyph glyph-name="colon" unicode=":" horiz-adv-x="491" 
d="M123 82v246h246v-246h-246zM123 717v246h246v-246h-246z" />
    <glyph glyph-name="semicolon" unicode=";" horiz-adv-x="561" 
d="M193 717v246h245v-246h-245zM29 -205v41l235 522l193 -92l-213 -471h-215z" />
    <glyph glyph-name="less" unicode="&#x3c;" horiz-adv-x="1105" 
d="M82 676l942 368v-161l-754 -289l754 -287v-164l-942 369v164z" />
    <glyph glyph-name="equal" unicode="=" horiz-adv-x="1105" 
d="M61 492h983v-164h-983v164zM61 860h983v-164h-983v164z" />
    <glyph glyph-name="greater" unicode="&#x3e;" horiz-adv-x="1105" 
d="M82 1044l942 -368v-164l-942 -369v164l752 287l-752 289v161z" />
    <glyph glyph-name="question" unicode="?" horiz-adv-x="985" 
d="M501 1495q173 0 298 -121t125 -289q0 -94 -36 -174t-86 -127t-106 -98t-94 -92q-39 -41 -50 -107t23 -139h-204q-31 102 -17 183t52 131t93 100q54 49 102 88t83 98t35 143q-1 85 -63 145t-161 60t-163 -65q-63 -66 -64 -166v-41l-205 41q1 170 133 300t305 130zM350 0
v246h246v-246h-246z" />
    <glyph glyph-name="at" unicode="@" horiz-adv-x="1884" 
d="M898 0q-175 0 -284 110t-122 310q-4 49 0 102q14 196 126 308t274 112q161 0 257 -123l39 103h123v-656q1 -51 33 -82t79 -30q205 0 205 348q0 313 -184 510q-184 196 -502 196t-518 -206q-199 -206 -199 -532t199 -530q199 -206 518 -206q143 0 225 54t80 140l133 -82
q-14 -126 -138 -196t-300 -70q-383 0 -632 253t-249 636t255 638t625 255q371 0 611 -243t240 -617q0 -218 -93 -360t-276 -142q-78 0 -141 38t-94 105l-10 11l-11 -11q-94 -143 -269 -143zM911 164q98 0 160 67q61 68 68 179q14 215 -67 303q-60 65 -160 65t-164 -68
q-88 -94 -72 -290q20 -256 235 -256z" />
    <glyph glyph-name="A" unicode="A" horiz-adv-x="1331" 
d="M666 1208l-209 -614h415zM41 0l512 1495h225l512 -1495h-215l-133 389h-555l-131 -389h-215z" />
    <glyph glyph-name="B" unicode="B" horiz-adv-x="1290" 
d="M379 860h328q102 0 174 53t71 162q0 109 -71 162q-72 53 -174 53h-328v-430zM379 205h348q98 0 172 61t74 170t-72 164t-174 55h-348v-450zM164 0v1495h532q203 0 337 -114t134 -296q0 -100 -49 -184t-133 -135q203 -104 203 -346q0 -188 -134 -304t-337 -116h-553z" />
    <glyph glyph-name="C" unicode="C" horiz-adv-x="1515" 
d="M82 745q0 331 220 561t548 230q172 0 330 -75t264 -212l-144 -143q-162 227 -429 227t-419 -166q-152 -165 -153 -419q0 -254 155 -420t425 -166t432 227l143 -143q-106 -137 -264 -212t-330 -75q-336 0 -557 227t-221 559z" />
    <glyph glyph-name="D" unicode="D" horiz-adv-x="1351" 
d="M512 1290h-133v-1085h133q254 0 398 144q144 145 144 399t-144 398t-398 144zM164 0v1495h338q332 0 550 -210q218 -209 218 -537t-218 -538t-550 -210h-338z" />
    <glyph glyph-name="E" unicode="E" horiz-adv-x="1167" 
d="M164 0v1495h901v-205h-686v-430h665v-205h-665v-450h686v-205h-901z" />
    <glyph glyph-name="F" unicode="F" horiz-adv-x="1126" 
d="M164 0v1495h901v-205h-686v-430h625v-205h-625v-655h-215z" />
    <glyph glyph-name="G" unicode="G" horiz-adv-x="1648" 
d="M850 1331q-250 0 -400 -164t-151 -421q0 -258 151 -420t388 -162t391 132t168 339h-762v205h778l195 -195q-16 -281 -236 -483t-534 -203q-316 0 -536 228q-220 227 -220 561t221 561t571 227t582 -285l-147 -147q-158 227 -459 227z" />
    <glyph glyph-name="H" unicode="H" horiz-adv-x="1331" 
d="M952 860v635h215v-1495h-215v655h-573v-655h-215v1495h215v-635h573z" />
    <glyph glyph-name="I" unicode="I" horiz-adv-x="593" 
d="M154 0v205h34v1085h-34v205h286v-205h-34v-1085h34v-205h-286z" />
    <glyph glyph-name="J" unicode="J" horiz-adv-x="573" 
d="M61 0h41q41 0 67 23t26 59v1413h215v-1393q0 -139 -84 -223t-224 -84l-41 21v184z" />
    <glyph glyph-name="K" unicode="K" horiz-adv-x="1208" 
d="M379 0h-215v1495h215v-614l553 614h256l-645 -735l665 -760h-274l-555 635v-635z" />
    <glyph glyph-name="L" unicode="L" horiz-adv-x="1085" 
d="M164 0v1495h215v-1290h625v-205h-840z" />
    <glyph glyph-name="M" unicode="M" horiz-adv-x="1843" 
d="M1679 1495v-1495h-213v1206l-422 -878h-245l-422 878v-1206h-213v1495h307l451 -954l450 954h307z" />
    <glyph glyph-name="N" unicode="N" horiz-adv-x="1413" 
d="M1036 1495h213v-1495h-235l-637 1126v-1126h-213v1495h235l637 -1106v1106z" />
    <glyph glyph-name="O" unicode="O" horiz-adv-x="1740" 
d="M870 1331q-252 0 -412 -165t-161 -420q0 -254 161 -418q160 -164 412 -164t412 164t160 418t-160 420q-160 165 -412 165zM82 748q0 328 230 558t558 230t558 -230t230 -558t-230 -558t-558 -231q-328 1 -558 231t-230 558z" />
    <glyph glyph-name="P" unicode="P" horiz-adv-x="1208" 
d="M379 840h338q98 0 167 58t68 167q0 109 -68 167q-69 58 -167 58h-338v-450zM164 0v1495h543q201 0 331 -120t129 -310q0 -190 -130 -310t-330 -120h-328v-635h-215z" />
    <glyph glyph-name="Q" unicode="Q" horiz-adv-x="1761" 
d="M1444 748q0 256 -161 420t-414 163q-253 0 -413 -164q-160 -165 -161 -419q0 -254 162 -419t413 -165q200 0 347 106l-316 303l143 154l310 -307q90 145 90 328zM82 748q0 330 229 559t559 229t560 -229t229 -559q0 -266 -156 -474l238 -233v-41h-242l-135 129
q-215 -170 -494 -170q-330 -1 -559 229t-229 560z" />
    <glyph glyph-name="R" unicode="R" horiz-adv-x="1249" 
d="M379 860h328q95 0 165 60t70 155t-70 155t-165 60h-328v-430zM1188 0h-244l-524 655h-41v-655h-215v1495h532q193 0 327 -114t134 -303t-141 -306t-334 -117l506 -614v-41z" />
    <glyph glyph-name="S" unicode="S" horiz-adv-x="1208" 
d="M1065 1106h-225q0 92 -75 159t-185 67t-176 -61q-67 -60 -66 -155q0 -174 235 -235q39 -10 185 -45q146 -34 248 -140q100 -106 100 -286t-137 -314t-355 -133q-218 0 -372 136q-156 136 -160 311l215 82q-2 -146 91 -234t220 -88t205 66t78 174q0 178 -236 225
q-84 18 -163 43q-164 49 -267 160q-102 112 -102 288t133 291t331 115t338 -122t140 -304z" />
    <glyph glyph-name="T" unicode="T" horiz-adv-x="1085" 
d="M651 1290v-1290h-217v1290h-414v205h1045v-205h-414z" />
    <glyph glyph-name="U" unicode="U" horiz-adv-x="1341" 
d="M963 440v1055h215v-1495h-164l-31 82l-10 10l-10 -10q-45 -51 -147 -87t-191 -36q-213 0 -342 137t-129 355v1044h215v-1055q1 -120 77 -198t207 -78t221 80t89 196z" />
    <glyph glyph-name="V" unicode="V" horiz-adv-x="1290" 
d="M41 1495h217l387 -1196l387 1196h217l-491 -1495h-226z" />
    <glyph glyph-name="W" unicode="W" horiz-adv-x="1781" 
d="M778 1188h228l274 -815l244 1122h217l-328 -1495h-215l-307 866l-307 -866h-215l-328 1495h217l244 -1124z" />
    <glyph glyph-name="X" unicode="X" horiz-adv-x="1187" 
d="M41 1495h235l316 -532l317 532h238l-436 -731l456 -764h-237l-336 565l-336 -565h-238l455 764z" />
    <glyph glyph-name="Y" unicode="Y" horiz-adv-x="1126" 
d="M672 0h-217v737l-435 758h236l307 -534l305 534h238l-434 -758v-737z" />
    <glyph glyph-name="Z" unicode="Z" horiz-adv-x="1146" 
d="M102 1290v205h983v-205l-784 -1085h764v-205h-1004v205l785 1085h-744z" />
    <glyph glyph-name="bracketleft" unicode="[" horiz-adv-x="675" 
d="M676 1741v-123h-287v-1741h287v-123h-410l-20 21v1945l20 21h410z" />
    <glyph glyph-name="backslash" unicode="\" horiz-adv-x="1044" 
d="M901 -82l-901 1638h143l901 -1638h-143z" />
    <glyph glyph-name="bracketright" unicode="]" horiz-adv-x="675" 
d="M0 -246v123h287v1741h-287v123h410l20 -21v-1945l-20 -21h-410z" />
    <glyph glyph-name="asciicircum" unicode="^" horiz-adv-x="1105" 
d="M635 1495l369 -983h-164l-287 788l-289 -788h-162l369 983h164z" />
    <glyph glyph-name="underscore" unicode="_" horiz-adv-x="880" 
d="M0 0h881v-143h-881v143z" />
    <glyph glyph-name="grave" unicode="`" horiz-adv-x="675" 
d="M72 1358l147 106l256 -389h-201z" />
    <glyph glyph-name="a" unicode="a" horiz-adv-x="1167" 
d="M860 481q0 133 -84 225t-219 93q-135 0 -214 -90q-79 -89 -79 -227t79 -228t214 -90t219 92t84 225zM537 983q189 0 292 -113l11 11l20 82h184v-963h-184l-20 82l-11 10q-112 -112 -276 -112q-205 0 -348 141t-144 360t143 361t333 141z" />
    <glyph glyph-name="b" unicode="b" horiz-adv-x="1167" 
d="M307 481q0 -133 84 -225t219 -92t213 90t78 227t-78 227t-213 91q-135 -1 -219 -93t-84 -225zM614 -20q-164 0 -276 112l-12 -10l-19 -82h-184v1556h203v-675l12 -11q103 113 292 113q188 0 332 -141q144 -140 144 -360t-143 -361t-349 -141z" />
    <glyph glyph-name="c" unicode="c" horiz-adv-x="1003" 
d="M262 481q0 -137 80 -227t221 -90q88 0 156 49t94 115l160 -103q-63 -113 -171 -179t-249 -66q-199 0 -345 142t-147 359q1 217 147 359t345 143q141 0 247 -67t171 -179l-160 -102q-27 68 -94 116q-68 48 -154 48q-141 -1 -221 -91t-80 -227z" />
    <glyph glyph-name="d" unicode="d" horiz-adv-x="1167" 
d="M860 481q0 133 -84 225t-219 93q-135 0 -214 -90q-79 -89 -79 -227t79 -228t214 -90t219 92t84 225zM537 983q189 0 292 -113l11 11v675h204v-1556h-184l-20 82l-11 10q-112 -112 -276 -112q-205 0 -348 141t-144 360t143 361t333 141z" />
    <glyph glyph-name="e" unicode="e" horiz-adv-x="1034" 
d="M532 799q-201 0 -256 -189h492q-8 80 -76 134t-160 55zM266 430q0 -114 75 -190t202 -76q88 0 150 40t87 103l172 -82q-141 -246 -420 -245q-198 0 -334 141t-136 361t134 360t329 141q195 0 327 -137t131 -354l-20 -62h-697z" />
    <glyph glyph-name="f" unicode="f" horiz-adv-x="634" 
d="M41 778v185h164v286q0 141 79 225t228 82l102 -20v-184l-112 20q-92 0 -92 -102v-307h204v-185h-204v-778h-205v778h-164z" />
    <glyph glyph-name="g" unicode="g" horiz-adv-x="993" 
d="M256 -61q0 -83 62 -137t162 -54t164 53q62 53 62 137t-62 140q-62 55 -162 55t-164 -55q-62 -55 -62 -139zM256 563q0 -100 63 -168q63 -67 161 -67t163 67q63 68 64 168t-63 168t-162 68t-162 -68t-64 -168zM61 -63q0 201 185 299q-184 109 -185 327q0 176 122 298
t298 122q69 0 137 -29t99 -73l10 -11l10 11l21 82h143v-400q0 -219 -184 -327q184 -96 184 -299q0 -165 -125 -265t-295 -100t-295 100t-125 265z" />
    <glyph glyph-name="h" unicode="h" horiz-adv-x="1064" 
d="M123 0v1556h205v-675l10 -11l10 11q30 45 96 73t129 29q181 0 285 -109t105 -280v-594h-205v594q-10 205 -205 205q-90 1 -156 -63t-69 -154v-582h-205z" />
    <glyph glyph-name="i" unicode="i" horiz-adv-x="450" 
d="M123 1147v225h205v-225h-205zM125 0v963h201v-963h-201z" />
    <glyph glyph-name="j" unicode="j" horiz-adv-x="468" 
d="M143 1147v225h203v-225h-203zM143 -168v1131h203v-1110q0 -143 -78 -225t-227 -83l-102 21v184l112 -20q92 0 92 102z" />
    <glyph glyph-name="k" unicode="k" horiz-adv-x="983" 
d="M328 0h-205v1556h205v-983l389 390h266l-463 -463l484 -500h-267l-409 410v-410z" />
    <glyph glyph-name="l" unicode="l" horiz-adv-x="450" 
d="M328 1556v-1372l20 -184h-205l-20 184v1372h205z" />
    <glyph glyph-name="m" unicode="m" horiz-adv-x="1617" 
d="M1167 983q166 0 257 -95t92 -253v-635h-205v614q0 184 -164 185q-90 1 -156 -63t-69 -154v-582h-205v614q0 184 -164 185q-90 1 -156 -63t-69 -154v-582h-205v963h184l21 -82l10 -11l10 11q30 45 96 73t129 29q222 0 308 -164l51 62q36 45 104 73t131 29z" />
    <glyph glyph-name="n" unicode="n" horiz-adv-x="1064" 
d="M123 0v963h184l21 -82l10 -11l10 11q30 45 96 73t129 29q181 0 285 -109t105 -280v-594h-205v594q-10 205 -205 205q-90 1 -156 -63t-69 -154v-582h-205z" />
    <glyph glyph-name="o" unicode="o" horiz-adv-x="1126" 
d="M266 481q0 -137 78 -227t219 -90t219 90t78 227t-78 227t-219 91q-141 -1 -219 -91t-78 -227zM61 481q1 217 149 359t353 143q205 0 353 -142q148 -141 148 -359t-148 -360t-353 -142t-353 142t-149 359z" />
    <glyph glyph-name="p" unicode="p" horiz-adv-x="1167" 
d="M307 481q0 -133 84 -225t219 -92t213 90t78 227t-78 227t-213 91q-135 -1 -219 -93t-84 -225zM614 -20q-164 0 -276 112l-12 -10v-516h-203v1397h184l19 -82l12 -11q103 113 292 113q188 0 332 -141q144 -140 144 -360t-143 -361t-349 -141z" />
    <glyph glyph-name="q" unicode="q" horiz-adv-x="1167" 
d="M860 481q0 133 -84 225t-219 93q-135 0 -213 -90q-78 -89 -78 -227t78 -228t213 -90t219 92t84 225zM537 983q189 0 292 -113l13 11l18 82h184v-1397h-202v516l-13 10q-112 -112 -276 -112q-205 0 -348 141t-144 360t143 361t333 141z" />
    <glyph glyph-name="r" unicode="r" 
d="M123 0v963h184l21 -103l10 -10l10 10q92 123 225 123q61 0 103 -20v-185h-123q-90 0 -156 -63t-69 -154v-561h-205z" />
    <glyph glyph-name="s" unicode="s" horiz-adv-x="829" 
d="M420 -20q-145 0 -247 77q-101 78 -132 209l184 72q7 -78 63 -128t131 -50t115 34t39 82q0 84 -122 105q-41 8 -103 22q-127 33 -202 108q-74 75 -74 195t102 199q102 78 236 78t233 -80q100 -80 115 -207h-205q0 45 -41 76t-102 31q-60 0 -102 -31t-42 -76
q0 -86 123 -110l103 -21q128 -29 202 -101t74 -191q0 -121 -102 -207t-246 -86z" />
    <glyph glyph-name="t" unicode="t" 
d="M20 778v185h187v204l162 205h39v-409h206v-185h-206v-491q0 -45 28 -74t76 -29l123 21v-185l-113 -20q-154 0 -234 74t-81 213v491h-187z" />
    <glyph glyph-name="u" unicode="u" horiz-adv-x="1064" 
d="M942 963v-963h-184l-21 82l-10 10l-10 -10q-31 -45 -97 -74t-128 -28q-180 0 -285 108q-104 109 -105 281v594h205v-594q6 -205 205 -205q88 0 155 62t70 153v584h205z" />
    <glyph glyph-name="v" unicode="v" horiz-adv-x="921" 
d="M461 274l235 689h205l-348 -963h-184l-349 963h205z" />
    <glyph glyph-name="w" unicode="w" horiz-adv-x="1351" 
d="M389 276l184 543h205l185 -543l165 687h203l-266 -963h-195l-194 555l-195 -555h-194l-267 963h203z" />
    <glyph glyph-name="x" unicode="x" horiz-adv-x="880" 
d="M440 668l195 295h225l-307 -467l328 -496h-226l-215 326l-215 -326h-225l328 496l-308 467h226z" />
    <glyph glyph-name="y" unicode="y" horiz-adv-x="880" 
d="M440 385l215 578h205l-512 -1373h-205l201 537l-324 836h207z" />
    <glyph glyph-name="z" unicode="z" horiz-adv-x="942" 
d="M92 778v185h768v-185l-549 -594h539v-184h-768v184l543 594h-533z" />
    <glyph glyph-name="braceleft" unicode="{" 
d="M328 1065v369q0 122 72 194t194 72l102 -21v-123h-102q-123 0 -123 -122v-390q0 -225 -205 -276q205 -51 205 -276v-390q0 -123 123 -122h102v-123l-102 -21q-123 0 -195 72t-71 194v369q0 256 -246 225v144q246 -31 246 225z" />
    <glyph glyph-name="bar" unicode="|" horiz-adv-x="471" 
d="M307 1577v-1782h-143v1782h143z" />
    <glyph glyph-name="braceright" unicode="}" 
d="M369 102q0 -122 -72 -194t-195 -72l-102 21v123h102q123 0 123 122v390q0 225 205 276q-205 51 -205 276v390q0 123 -123 122h-102v123l102 21q123 0 195 -72t72 -194v-369q-1 -256 245 -225v-144q-246 31 -245 -225v-369z" />
    <glyph glyph-name="asciitilde" unicode="~" horiz-adv-x="1105" 
d="M729 553q-47 0 -162 -51t-225 -51q-110 -1 -182 71t-58 205h185q-9 -43 17 -68t74 -25t169 52q121 51 201 51q126 1 198 -71t58 -205h-185q9 43 -17 67t-73 25z" />
    <glyph glyph-name="uni00A0" unicode="&#xa0;" horiz-adv-x="491" 
 />
    <glyph glyph-name="exclamdown" unicode="&#xa1;" horiz-adv-x="491" 
d="M123 1249v246h246v-246h-246zM143 532l82 615h41l82 -615l21 -532h-246z" />
    <glyph glyph-name="cent" unicode="&#xa2;" horiz-adv-x="1085" 
d="M317 737q0 -256 179 -309v619q-179 -54 -179 -310zM496 1577h178v-336q125 -23 218 -107t132 -212h-195q-49 98 -155 127v-623q104 25 155 127h195q-39 -129 -132 -213t-218 -107v-315h-178v313q-172 33 -278 173q-105 140 -105 330t109 331q110 141 274 174v338z" />
    <glyph glyph-name="sterling" unicode="&#xa3;" horiz-adv-x="1085" 
d="M123 1096q0 156 120 278q119 122 313 121q194 0 310 -123t117 -287h-205q0 85 -63 147t-163 62t-158 -58q-56 -58 -56 -140q0 -133 133 -246q16 -16 27 -23l219 197l114 -133l-206 -184q92 -106 92 -215q0 -174 -144 -289h471v-203h-921v203h123q114 1 190 67t76 148
t-43 147l-231 -207l-115 134l227 202l-2 2q-111 100 -168 190t-57 210z" />
    <glyph glyph-name="currency" unicode="&#xa4;" horiz-adv-x="1105" 
d="M102 593q0 142 80 257l-92 92l115 115l92 -92q117 79 254 79t258 -79l92 92l115 -115l-92 -92q80 -121 80 -258t-80 -254l92 -92l-115 -115l-92 92q-115 -80 -257 -80t-255 80l-92 -92l-115 115l92 92q-80 113 -80 255zM246 594q0 -127 90 -217t217 -90t217 90t90 217
t-90 217t-217 90t-217 -90t-90 -217z" />
    <glyph glyph-name="yen" unicode="&#xa5;" horiz-adv-x="1249" 
d="M1065 532v-184h-338v-348h-205v348h-338v184h338l-110 252l-230 -96l-80 172l234 101l-234 534h224l299 -735l297 735h225l-234 -534l234 -101l-80 -172l-229 96l-111 -252h338z" />
    <glyph glyph-name="brokenbar" unicode="&#xa6;" horiz-adv-x="471" 
d="M307 410v-615h-143v615h143zM307 1577v-614h-143v614h143z" />
    <glyph glyph-name="section" unicode="&#xa7;" horiz-adv-x="1105" 
d="M809 512q0 106 -123 154q-100 37 -217 90q-86 0 -129 -38t-43 -95q0 -106 123 -154q41 -16 215 -90q88 0 131 38t43 95zM102 592q0 80 54 148t151 102q-154 111 -153 295q0 156 111 257q112 101 288 101t288 -110t111 -279h-204q0 92 -56 144t-144 52q-87 0 -138 -46
q-51 -48 -52 -119q0 -117 118 -173t282 -118q246 -94 246 -303q0 -80 -56 -149t-151 -101q156 -113 155 -295q0 -154 -112 -255t-288 -101q-177 0 -288 108t-110 279h204q0 -93 56 -145t144 -52q87 0 138 47t52 119q0 117 -118 173t-282 118q-246 94 -246 303z" />
    <glyph glyph-name="dieresis" unicode="&#xa8;" horiz-adv-x="675" 
d="M410 1137v225h204v-225h-204zM61 1137v225h203v-225h-203z" />
    <glyph glyph-name="copyright" unicode="&#xa9;" horiz-adv-x="1740" 
d="M887 293q-188 0 -305 129t-117 326q0 198 117 326t305 128q244 0 360 -215l-141 -84q-20 61 -78 103t-133 41q-131 0 -199 -83t-68 -216t68 -217q68 -83 199 -82q76 1 133 41t78 102l141 -84q-116 -215 -360 -215zM260 748q0 -262 177 -438t433 -175q256 0 434 175
q177 176 177 438t-176 437q-177 175 -435 175t-434 -175t-176 -437zM123 748q0 311 222 529t525 218q304 0 526 -218t222 -529q0 -312 -223 -530t-525 -218t-525 218q-222 218 -222 530z" />
    <glyph glyph-name="ordfeminine" unicode="&#xaa;" horiz-adv-x="901" 
d="M444 1372q-100 0 -164 -74t-64 -178t62 -177q64 -73 166 -73t168 75q68 75 68 176t-68 176t-168 75zM426 731q-144 0 -254 110q-110 109 -111 279q0 170 111 281t254 111t223 -80l6 -9l9 9l16 63h139v-747h-139l-16 63l-9 6q-85 -86 -229 -86z" />
    <glyph glyph-name="guillemotleft" unicode="&#xab;" horiz-adv-x="839" 
d="M430 123l-389 481l389 481v-235l-194 -246l194 -246v-235zM369 604l389 481v-235l-195 -246l195 -246v-235z" />
    <glyph glyph-name="logicalnot" unicode="&#xac;" horiz-adv-x="1105" 
d="M881 328v471h-820v164h983v-635h-163z" />
    <glyph glyph-name="uni00AD" unicode="&#xad;" horiz-adv-x="655" 
d="M61 696h533v-225h-533v225z" />
    <glyph glyph-name="registered" unicode="&#xae;" horiz-adv-x="1740" 
d="M743 803h191q63 0 104 32t41 94t-41 93t-104 31h-191v-250zM586 313v887h354q127 0 213 -76t86 -194t-86 -191q-86 -74 -209 -82l277 -305l-29 -39h-143l-299 344h-7v-344h-157zM260 748q0 -262 177 -438t433 -175q256 0 434 175q177 176 177 438t-176 437
q-177 175 -435 175t-434 -175t-176 -437zM123 748q0 311 222 529t525 218q304 0 526 -218t222 -529q0 -312 -223 -530t-525 -218t-525 218q-222 218 -222 530z" />
    <glyph glyph-name="macron" unicode="&#xaf;" horiz-adv-x="675" 
d="M61 1116v154h553v-154h-553z" />
    <glyph glyph-name="degree" unicode="&#xb0;" horiz-adv-x="737" 
d="M205 1188q0 -70 47 -117t117 -47q71 0 117 47t46 117t-47 117t-117 47t-116 -47q-47 -47 -47 -117zM61 1188q-1 131 89 219t219 88t218 -88t89 -219t-89 -219t-218 -88t-219 88t-89 219z" />
    <glyph glyph-name="plusminus" unicode="&#xb1;" horiz-adv-x="1105" 
d="M1044 0h-983v164h983v-164zM635 389h-164v410h-410v164h410v409h164v-409h409v-164h-409v-410z" />
    <glyph glyph-name="twosuperior" unicode="&#xb2;" 
d="M96 1608v20q0 118 73 182t177 64t174 -65q68 -65 68 -170t-111 -205q-31 -31 -87 -70t-88 -66t-32 -49h328v-133h-502v82q2 66 43 116t118 106q187 136 187 218q0 45 -27 74q-28 29 -75 29t-75 -29t-27 -74v-30h-144z" />
    <glyph glyph-name="threesuperior" unicode="&#xb3;" 
d="M604 1864v-133l-205 -136q95 -10 155 -73q60 -62 60 -162t-76 -177t-193 -77q-115 0 -189 75t-74 171h143q0 -47 35 -80t88 -33t88 33t35 84t-37 85t-98 34h-131v112l188 144h-291v133h502z" />
    <glyph glyph-name="acute" unicode="&#xb4;" horiz-adv-x="675" 
d="M471 1464l147 -106l-202 -283h-201z" />
    <glyph glyph-name="mu" unicode="&#xb5;" horiz-adv-x="1064" 
d="M305 -434h-203v1397h205v-574q0 -225 205 -225q92 0 159 66t66 159v574h205v-963h-184l-21 82l-10 10l-10 -10q-31 -45 -97 -74t-149 -29q-84 0 -166 41v-454z" />
    <glyph glyph-name="mu" unicode="&#x3bc;" horiz-adv-x="1064" 
d="M305 -434h-203v1397h205v-574q0 -225 205 -225q92 0 159 66t66 159v574h205v-963h-184l-21 82l-10 10l-10 -10q-31 -45 -97 -74t-149 -29q-84 0 -166 41v-454z" />
    <glyph glyph-name="paragraph" unicode="&#xb6;" horiz-adv-x="860" 
d="M0 1188q0 139 84 223t223 84h144v-1833h-144v1219q-139 0 -223 84t-84 223zM553 1495h143v-1833h-143v1833z" />
    <glyph glyph-name="periodcentered" unicode="&#xb7;" horiz-adv-x="368" 
d="M61 471v266h246v-266h-246z" />
    <glyph glyph-name="cedilla" unicode="&#xb8;" horiz-adv-x="675" 
d="M320 -276q68 0 69 51q0 51 -72 51h-47v205h152v-78q55 -8 100 -56t45 -133t-70 -145q-71 -59 -181 -59t-197 69l84 142q49 -47 117 -47z" />
    <glyph glyph-name="onesuperior" unicode="&#xb9;" 
d="M463 1864v-748h-139v604l-84 -123h-146v21l174 246h195z" />
    <glyph glyph-name="ordmasculine" unicode="&#xba;" horiz-adv-x="901" 
d="M215 1120q-1 -104 63 -177t173 -73t172 73t63 177t-63 178t-172 74t-173 -74t-63 -178zM61 1120q0 172 118 282t272 110q153 0 271 -110t118 -282t-118 -280t-272 -109q-154 1 -271 109q-118 108 -118 280z" />
    <glyph glyph-name="guillemotright" unicode="&#xbb;" horiz-adv-x="839" 
d="M799 604l-389 -481v235l194 246l-194 246v235zM80 1085l389 -481l-389 -481v235l194 246l-194 246v235z" />
    <glyph glyph-name="onequarter" unicode="&#xbc;" horiz-adv-x="1187" 
d="M1024 1126l-698 -757h-142l697 757h143zM410 1495v-747h-140v604l-84 -123h-145v20l174 246h195zM635 492v20q0 118 73 182q74 64 178 64t172 -65t68 -170t-110 -206q-31 -31 -87 -69t-88 -66q-32 -27 -32 -49h321v-133h-495v82q2 66 43 116t118 106q187 136 187 218
q0 47 -29 75q-30 28 -74 28t-73 -28t-29 -75v-30h-143z" />
    <glyph glyph-name="onehalf" unicode="&#xbd;" horiz-adv-x="1187" 
d="M881 328v258l-236 -258h236zM1024 1126l-698 -757h-142l697 757h143zM410 1495v-747h-140v604l-84 -123h-145v20l174 246h195zM471 195v133l389 420h164v-420h82v-133h-82v-195h-143v195h-410z" />
    <glyph glyph-name="threequarters" unicode="&#xbe;" horiz-adv-x="1187" 
d="M881 328v258l-236 -258h236zM1024 1126l-698 -757h-142l697 757h143zM563 1495v-133l-205 -135q96 -9 156 -73t59 -164t-77 -176q-76 -77 -192 -77t-190 75t-73 171h143q0 -47 35 -80t88 -33t88 33t35 84t-37 85t-98 34h-131v113l188 143h-291v133h502zM1024 748v-420h82
v-133h-82v-195h-143v195h-410v133l389 420h164z" />
    <glyph glyph-name="questiondown" unicode="&#xbf;" horiz-adv-x="983" 
d="M484 0q-174 0 -298 121q-125 121 -125 289q0 94 36 174t86 127q49 47 105 98t95 92t50 107t-23 139h204q31 -102 17 -183t-52 -131q-39 -49 -93 -99t-102 -89t-83 -98t-35 -143t62 -144t162 -61t163 65t64 166v41l205 -41q0 -170 -132 -300t-306 -130zM635 1495v-246
h-246v246h246z" />
    <glyph glyph-name="Agrave" unicode="&#xc0;" horiz-adv-x="1331" 
d="M348 1817l137 129l295 -338h-235zM666 1208l-209 -614h415zM41 0l512 1495h225l512 -1495h-215l-133 389h-555l-131 -389h-215z" />
    <glyph glyph-name="Aacute" unicode="&#xc1;" horiz-adv-x="1331" 
d="M862 1946l137 -129l-196 -209h-236zM457 594h415l-206 614zM553 1495h225l512 -1495h-215l-133 389h-555l-131 -389h-215z" />
    <glyph glyph-name="Acircumflex" unicode="&#xc2;" horiz-adv-x="1331" 
d="M756 1939l213 -200l-129 -131l-174 168l-174 -168l-130 131l213 200h181zM666 1208l-209 -614h415zM41 0l512 1495h225l512 -1495h-215l-133 389h-555l-131 -389h-215z" />
    <glyph glyph-name="Atilde" unicode="&#xc3;" horiz-adv-x="1331" 
d="M807 1886q102 0 157 -68q54 -69 42 -190h-168q12 80 -43 80q-19 0 -101 -40t-160 -40t-131 56q-51 56 -43 159l170 45q-10 -80 45 -80q27 0 101 39t131 39zM457 594h415l-206 614zM553 1495h225l512 -1495h-215l-133 389h-555l-131 -389h-215z" />
    <glyph glyph-name="Adieresis" unicode="&#xc4;" horiz-adv-x="1331" 
d="M727 1632v226h225v-226h-225zM379 1632v226h223v-226h-223zM457 594h415l-206 614zM553 1495h225l512 -1495h-215l-133 389h-555l-131 -389h-215z" />
    <glyph glyph-name="Aring" unicode="&#xc5;" horiz-adv-x="1331" 
d="M578 1786q0 -39 24 -64q24 -24 64 -24t64 24t24 64t-25 64t-63 24t-64 -24q-24 -24 -24 -64zM438 1786q0 96 67 160t161 63q94 0 160 -63q66 -64 67 -160q0 -96 -67 -160q-66 -64 -160 -63q-94 -1 -161 63t-67 160zM666 1208l-209 -614h415zM41 0l512 1495h225l512 -1495
h-215l-133 389h-555l-131 -389h-215z" />
    <glyph glyph-name="AE" unicode="&#xc6;" horiz-adv-x="1638" 
d="M604 1188l-168 -574h336zM1536 1495v-205h-758l129 -430h609v-205h-547l137 -450h430v-205h-584l-121 410h-456l-119 -410h-215l451 1495h1044z" />
    <glyph glyph-name="Ccedilla" unicode="&#xc7;" horiz-adv-x="1515" 
d="M822 -307q68 0 69 51q0 51 -72 51h-47v170q-303 31 -497 251q-193 220 -193 540t220 550t548 230q172 0 330 -75t264 -212l-144 -143q-162 227 -429 227t-419 -166q-152 -165 -153 -419q0 -254 155 -420t425 -166t432 227l143 -143q-96 -125 -235 -198t-295 -85v-41
q55 -8 100 -56t45 -133t-71 -145t-181 -59q-110 0 -196 70l84 141q49 -47 117 -47z" />
    <glyph glyph-name="Egrave" unicode="&#xc8;" horiz-adv-x="1167" 
d="M303 1817l137 129l295 -338h-235zM164 0v1495h901v-205h-686v-430h665v-205h-665v-450h686v-205h-901z" />
    <glyph glyph-name="Eacute" unicode="&#xc9;" horiz-adv-x="1167" 
d="M786 1946l138 -129l-197 -209h-235zM164 1495h901v-205h-686v-430h665v-205h-665v-450h686v-205h-901v1495z" />
    <glyph glyph-name="Ecircumflex" unicode="&#xca;" horiz-adv-x="1167" 
d="M717 1939l213 -200l-129 -131l-174 168l-174 -168l-129 131l213 200h180zM164 0v1495h901v-205h-686v-430h665v-205h-665v-450h686v-205h-901z" />
    <glyph glyph-name="Edieresis" unicode="&#xcb;" horiz-adv-x="1167" 
d="M676 1632v226h225v-226h-225zM328 1632v226h223v-226h-223zM164 1495h901v-205h-686v-430h665v-205h-665v-450h686v-205h-901v1495z" />
    <glyph glyph-name="Igrave" unicode="&#xcc;" horiz-adv-x="593" 
d="M-16 1817l137 129l295 -338h-236zM154 0v205h34v1085h-34v205h286v-205h-34v-1085h34v-205h-286z" />
    <glyph glyph-name="Iacute" unicode="&#xcd;" horiz-adv-x="593" 
d="M473 1946l137 -129l-196 -209h-236zM154 205h34v1085h-34v205h286v-205h-34v-1085h34v-205h-286v205z" />
    <glyph glyph-name="Icircumflex" unicode="&#xce;" horiz-adv-x="593" 
d="M387 1939l213 -200l-129 -131l-174 168l-174 -168l-129 131l213 200h180zM154 0v205h34v1085h-34v205h286v-205h-34v-1085h34v-205h-286z" />
    <glyph glyph-name="Idieresis" unicode="&#xcf;" horiz-adv-x="593" 
d="M358 1632v226h226v-226h-226zM10 1632v226h223v-226h-223zM154 205h34v1085h-34v205h286v-205h-34v-1085h34v-205h-286v205z" />
    <glyph glyph-name="Eth" unicode="&#xd0;" horiz-adv-x="1351" 
d="M512 1290h-92v-450h215v-185h-215v-450h92q254 0 398 144q144 145 144 399t-144 398t-398 144zM20 655v185h185v655h297q332 0 550 -210q218 -209 218 -537t-218 -538t-550 -210h-297v655h-185z" />
    <glyph glyph-name="Ntilde" unicode="&#xd1;" horiz-adv-x="1413" 
d="M848 1886q102 0 157 -68q54 -69 42 -190h-168q12 80 -43 80q-18 0 -100 -40t-162 -40q-78 0 -130 56q-51 56 -43 159l170 45q-10 -80 45 -80q27 0 101 39t131 39zM1036 1495h213v-1495h-235l-637 1126v-1126h-213v1495h235l637 -1106v1106z" />
    <glyph glyph-name="Ograve" unicode="&#xd2;" horiz-adv-x="1740" 
d="M569 1817l138 129l294 -338h-235zM870 1331q-252 0 -412 -165t-161 -420q0 -254 161 -418q160 -164 412 -164t412 164t160 418t-160 420q-160 165 -412 165zM82 748q0 328 230 558t558 230t558 -230t230 -558t-230 -558t-558 -231q-328 1 -558 231t-230 558z" />
    <glyph glyph-name="Oacute" unicode="&#xd3;" horiz-adv-x="1740" 
d="M1053 1946l137 -129l-197 -209h-235zM870 1331q-252 0 -412 -165t-161 -420q0 -254 161 -418q160 -164 412 -164t412 164t160 418t-160 420q-160 165 -412 165zM82 748q0 328 230 558t558 230t558 -230t230 -558t-230 -558t-558 -231q-328 1 -558 231t-230 558z" />
    <glyph glyph-name="Ocircumflex" unicode="&#xd4;" horiz-adv-x="1740" 
d="M961 1939l213 -200l-130 -131l-174 168l-174 -168l-129 131l213 200h181zM870 1331q-252 0 -412 -165t-161 -420q0 -254 161 -418q160 -164 412 -164t412 164t160 418t-160 420q-160 165 -412 165zM82 748q0 328 230 558t558 230t558 -230t230 -558t-230 -558t-558 -231
q-328 1 -558 231t-230 558z" />
    <glyph glyph-name="Otilde" unicode="&#xd5;" horiz-adv-x="1740" 
d="M1012 1886q102 0 156 -68t42 -190h-168q12 80 -43 80q-18 0 -100 -40q-83 -40 -161 -40t-130 56q-51 56 -43 159l170 45q-10 -80 45 -80q27 0 101 39t131 39zM870 1331q-252 0 -412 -165t-161 -420q0 -254 161 -418q160 -164 412 -164t412 164t160 418t-160 420
q-160 165 -412 165zM82 748q0 328 230 558t558 230t558 -230t230 -558t-230 -558t-558 -231q-328 1 -558 231t-230 558z" />
    <glyph glyph-name="Odieresis" unicode="&#xd6;" horiz-adv-x="1740" 
d="M932 1632v226h225v-226h-225zM584 1632v226h223v-226h-223zM870 1331q-252 0 -412 -165t-161 -420q0 -254 161 -418q160 -164 412 -164t412 164t160 418t-160 420q-160 165 -412 165zM82 748q0 328 230 558t558 230t558 -230t230 -558t-230 -558t-558 -231
q-328 1 -558 231t-230 558z" />
    <glyph glyph-name="multiply" unicode="&#xd7;" horiz-adv-x="1105" 
d="M1016 246l-115 -115l-348 346l-348 -346l-115 115l346 348l-346 348l115 115l348 -346l348 346l115 -115l-346 -348z" />
    <glyph glyph-name="Oslash" unicode="&#xd8;" horiz-adv-x="1740" 
d="M870 164q252 0 412 164t160 417q0 195 -101 347l-813 -826q147 -102 342 -102zM297 745q0 -195 100 -344l813 826q-143 104 -340 104q-252 0 -412 -165t-161 -421zM82 748q0 328 230 558t558 230q268 0 482 -164l123 123h266l-254 -256q172 -215 172 -491
q-1 -328 -231 -558t-558 -231q-270 0 -483 164l-121 -123h-266l252 256q-170 213 -170 492z" />
    <glyph glyph-name="Ugrave" unicode="&#xd9;" horiz-adv-x="1341" 
d="M406 1817l137 129l295 -338h-236zM963 440v1055h215v-1495h-164l-31 82l-10 10l-10 -10q-45 -51 -147 -87t-191 -36q-213 0 -342 137t-129 355v1044h215v-1055q1 -120 77 -198t207 -78t221 80t89 196z" />
    <glyph glyph-name="Uacute" unicode="&#xda;" horiz-adv-x="1341" 
d="M817 1946l137 -129l-196 -209h-236zM963 1495h215v-1495h-164l-31 82l-10 10l-10 -10q-45 -51 -147 -87t-191 -36q-213 0 -342 137t-129 355v1044h215v-1055q1 -120 77 -198t207 -78t220 80t90 196v1055z" />
    <glyph glyph-name="Ucircumflex" unicode="&#xdb;" horiz-adv-x="1341" 
d="M766 1939l213 -200l-129 -131l-174 168l-174 -168l-129 131l213 200h180zM963 440v1055h215v-1495h-164l-31 82l-10 10l-10 -10q-45 -51 -147 -87t-191 -36q-213 0 -342 137t-129 355v1044h215v-1055q1 -120 77 -198t207 -78t221 80t89 196z" />
    <glyph glyph-name="Udieresis" unicode="&#xdc;" horiz-adv-x="1341" 
d="M748 1632v226h225v-226h-225zM399 1632v226h224v-226h-224zM963 1495h215v-1495h-164l-31 82l-10 10l-10 -10q-45 -51 -147 -87t-191 -36q-213 0 -342 137t-129 355v1044h215v-1055q1 -120 77 -198t207 -78t220 80t90 196v1055z" />
    <glyph glyph-name="Yacute" unicode="&#xdd;" horiz-adv-x="1126" 
d="M729 1946l137 -129l-196 -209h-236zM672 0h-217v737l-435 758h236l307 -534l305 534h238l-434 -758v-737z" />
    <glyph glyph-name="Thorn" unicode="&#xde;" horiz-adv-x="1208" 
d="M379 532h338q98 0 167 58t68 168q0 109 -68 167q-69 58 -167 58h-338v-451zM164 0v1495h215v-307h328q201 0 331 -120t129 -310q0 -190 -130 -310t-330 -120h-328v-328h-215z" />
    <glyph glyph-name="germandbls" unicode="&#xdf;" horiz-adv-x="1167" 
d="M326 901h217q117 0 197 70q80 69 79 179t-69 176t-178 67q-110 0 -178 -67t-68 -179v-246zM471 164h102q135 0 222 80q86 80 86 196t-80 197q-80 80 -207 80h-268v-717h-203v1147q0 201 128 315t314 115q187 0 323 -118t136 -302q0 -115 -59 -200t-148 -128
q117 -49 193 -150t75 -239q0 -200 -138 -330t-353 -130l-123 143v41z" />
    <glyph glyph-name="agrave" unicode="&#xe0;" horiz-adv-x="1167" 
d="M258 1358l148 106l256 -389h-201zM860 481q0 133 -84 225t-219 93q-135 0 -214 -90q-79 -89 -79 -227t79 -228t214 -90t219 92t84 225zM537 983q189 0 292 -113l11 11l20 82h184v-963h-184l-20 82l-11 10q-112 -112 -276 -112q-205 0 -348 141t-144 360t143 361t333 141z
" />
    <glyph glyph-name="aacute" unicode="&#xe1;" horiz-adv-x="1167" 
d="M698 1464l148 -106l-203 -283h-201zM860 481q0 133 -84 225t-219 93q-135 0 -214 -90q-79 -89 -79 -227t79 -228t214 -90t219 92t84 225zM537 983q189 0 292 -113l11 11l20 82h184v-963h-184l-20 82l-11 10q-112 -112 -276 -112q-205 0 -348 141t-144 360t143 361
t333 141z" />
    <glyph glyph-name="acircumflex" unicode="&#xe2;" horiz-adv-x="1167" 
d="M666 1403l186 -217l-121 -111l-168 197l-168 -197l-121 111l187 217h205zM860 481q0 133 -84 225t-219 93q-135 0 -214 -90q-79 -89 -79 -227t79 -228t214 -90t219 92t84 225zM537 983q189 0 292 -113l11 11l20 82h184v-963h-184l-20 82l-11 10q-112 -112 -276 -112
q-205 0 -348 141t-144 360t143 361t333 141z" />
    <glyph glyph-name="atilde" unicode="&#xe3;" horiz-adv-x="1167" 
d="M692 1331q100 0 148 -63t37 -183h-152q6 80 -41 80q-18 0 -89 -44t-147 -44q-76 -1 -124 55q-47 56 -41 148l151 49q-2 -45 6 -64q21 -49 129 23q66 43 123 43zM860 481q0 133 -84 225t-219 93q-135 0 -214 -90q-79 -89 -79 -227t79 -228t214 -90t219 92t84 225zM537 983
q189 0 292 -113l11 11l20 82h184v-963h-184l-20 82l-11 10q-112 -112 -276 -112q-205 0 -348 141t-144 360t143 361t333 141z" />
    <glyph glyph-name="adieresis" unicode="&#xe4;" horiz-adv-x="1167" 
d="M643 1137v225h205v-225h-205zM295 1137v225h203v-225h-203zM860 481q0 133 -84 225t-219 93q-135 0 -214 -90q-79 -89 -79 -227t79 -228t214 -90t219 92t84 225zM537 983q189 0 292 -113l11 11l20 82h184v-963h-184l-20 82l-11 10q-112 -112 -276 -112q-205 0 -348 141
t-144 360t143 361t333 141z" />
    <glyph glyph-name="aring" unicode="&#xe5;" horiz-adv-x="1167" 
d="M465 1260q-1 -39 25 -66t67 -27t67 27t25 66q1 40 -25 66t-67 26t-67 -26t-25 -66zM332 1260q0 94 65 156q66 62 160 62t160 -62q65 -62 65 -156t-65 -157q-66 -63 -160 -63t-160 63q-65 63 -65 157zM860 481q0 133 -84 225t-219 93q-135 0 -214 -90q-79 -89 -79 -227
t79 -228t214 -90t219 92t84 225zM537 983q189 0 292 -113l11 11l20 82h184v-963h-184l-20 82l-11 10q-112 -112 -276 -112q-205 0 -348 141t-144 360t143 361t333 141z" />
    <glyph glyph-name="ae" unicode="&#xe6;" horiz-adv-x="1742" 
d="M1260 799q-197 0 -256 -189h483q1 80 -67 134t-160 55zM819 481q0 135 -75 227q-76 92 -208 91q-132 0 -202 -89q-70 -88 -70 -228t70 -229t203 -89t207 91t75 226zM532 983q153 0 256 -113l11 11l20 82h185v-93l20 21q80 92 252 92t302 -135t122 -356l-21 -62h-675v-10
q4 -112 70 -184t186 -72q176 0 229 143l170 -82q-141 -246 -399 -245q-145 0 -236 92l-20 20v-92h-185l-20 82l-11 10q-112 -112 -256 -112q-202 0 -336 140t-135 361q1 221 135 361t336 141z" />
    <glyph glyph-name="ccedilla" unicode="&#xe7;" horiz-adv-x="1003" 
d="M505 -276q69 0 68 51q0 51 -71 51h-47v164q-168 33 -281 167q-113 133 -113 337q1 204 147 346t345 143q141 0 247 -67t171 -179l-160 -102q-27 68 -94 116q-68 48 -154 48q-141 0 -221 -90q-80 -89 -80 -227t80 -228t221 -90q88 0 156 49t94 115l160 -103
q-123 -217 -367 -241v-31q54 -8 100 -56t46 -133q0 -84 -71 -144t-181 -60t-197 69l84 142q49 -47 118 -47z" />
    <glyph glyph-name="egrave" unicode="&#xe8;" horiz-adv-x="1034" 
d="M254 1358l147 106l256 -389h-200zM532 799q-201 0 -256 -189h492q-8 80 -76 134t-160 55zM266 430q0 -114 75 -190t202 -76q88 0 150 40t87 103l172 -82q-141 -246 -420 -245q-198 0 -334 141t-136 361t134 360t329 141q195 0 327 -137t131 -354l-20 -62h-697z" />
    <glyph glyph-name="eacute" unicode="&#xe9;" horiz-adv-x="1034" 
d="M688 1464l148 -106l-203 -283h-201zM532 799q-201 0 -256 -189h492q-8 80 -76 134t-160 55zM266 430q0 -114 75 -190t202 -76q88 0 150 40t87 103l172 -82q-141 -246 -420 -245q-198 0 -334 141t-136 361t134 360t329 141q195 0 327 -137t131 -354l-20 -62h-697z" />
    <glyph glyph-name="ecircumflex" unicode="&#xea;" horiz-adv-x="1034" 
d="M625 1403l186 -217l-121 -111l-168 197l-168 -197l-121 111l187 217h205zM532 799q-201 0 -256 -189h492q-8 80 -76 134t-160 55zM266 430q0 -114 75 -190t202 -76q88 0 150 40t87 103l172 -82q-141 -246 -420 -245q-198 0 -334 141t-136 361t134 360t329 141
q195 0 327 -137t131 -354l-20 -62h-697z" />
    <glyph glyph-name="edieresis" unicode="&#xeb;" horiz-adv-x="1034" 
d="M606 1137v225h205v-225h-205zM258 1137v225h203v-225h-203zM532 799q-201 0 -256 -189h492q-8 80 -76 134t-160 55zM266 430q0 -114 75 -190t202 -76q88 0 150 40t87 103l172 -82q-141 -246 -420 -245q-198 0 -334 141t-136 361t134 360t329 141q195 0 327 -137t131 -354
l-20 -62h-697z" />
    <glyph glyph-name="igrave" unicode="&#xec;" horiz-adv-x="450" 
d="M-80 1358l148 106l256 -389h-201zM125 0v963h201v-963h-201z" />
    <glyph glyph-name="iacute" unicode="&#xed;" horiz-adv-x="450" 
d="M383 1464l147 -106l-202 -283h-201zM125 0v963h201v-963h-201z" />
    <glyph glyph-name="icircumflex" unicode="&#xee;" horiz-adv-x="450" 
d="M328 1403l186 -217l-121 -111l-168 197l-168 -197l-120 111l186 217h205zM125 0v963h201v-963h-201z" />
    <glyph glyph-name="idieresis" unicode="&#xef;" horiz-adv-x="450" 
d="M297 1137v225h205v-225h-205zM-51 1137v225h203v-225h-203zM125 0v963h201v-963h-201z" />
    <glyph glyph-name="eth" unicode="&#xf0;" horiz-adv-x="1146" 
d="M860 476q0 138 -84 230t-216 93q-132 0 -213 -91q-81 -90 -81 -226t81 -227t212 -91t216 87t85 225zM562 -20q-198 0 -350 143t-151 360q-1 217 143 359t349 141q86 0 176 -42t131 -91l10 -10l11 10q0 221 -109 348l-127 -133l-123 113l123 129q-162 88 -379 65l103 184
q221 13 403 -114l109 114l123 -112l-109 -115q137 -164 157 -387q20 -222 4 -454t-156 -370t-338 -138z" />
    <glyph glyph-name="ntilde" unicode="&#xf1;" horiz-adv-x="1064" 
d="M659 1331q101 0 149 -63t36 -183h-152q6 80 -41 80q-18 0 -89 -44q-72 -44 -148 -44q-76 -1 -123 55t-41 148l151 49q-1 -45 7 -64q21 -48 129 23q65 43 122 43zM123 963h184l21 -82l10 -11l10 11q30 45 96 73t129 29q181 0 285 -109t105 -280v-594h-205v594
q-10 205 -205 205q-90 1 -156 -63t-69 -154v-582h-205v963z" />
    <glyph glyph-name="ograve" unicode="&#xf2;" horiz-adv-x="1126" 
d="M279 1358l147 106l256 -389h-201zM266 481q0 -137 78 -227t219 -90t219 90t78 227t-78 227t-219 91q-141 -1 -219 -91t-78 -227zM61 481q1 217 149 359t353 143q205 0 353 -142q148 -141 148 -359t-148 -360t-353 -142t-353 142t-149 359z" />
    <glyph glyph-name="oacute" unicode="&#xf3;" horiz-adv-x="1126" 
d="M719 1464l147 -106l-202 -283h-201zM266 481q0 -137 78 -227t219 -90t219 90t78 227t-78 227t-219 91q-141 -1 -219 -91t-78 -227zM61 481q1 217 149 359t353 143q205 0 353 -142q148 -141 148 -359t-148 -360t-353 -142t-353 142t-149 359z" />
    <glyph glyph-name="ocircumflex" unicode="&#xf4;" horiz-adv-x="1126" 
d="M662 1403l186 -217l-121 -111l-168 197l-168 -197l-121 111l187 217h205zM266 481q0 -137 78 -227t219 -90t219 90t78 227t-78 227t-219 91q-141 -1 -219 -91t-78 -227zM61 481q1 217 149 359t353 143q205 0 353 -142q148 -141 148 -359t-148 -360t-353 -142t-353 142
t-149 359z" />
    <glyph glyph-name="otilde" unicode="&#xf5;" horiz-adv-x="1126" 
d="M672 1331q100 0 148 -63t36 -183h-151q6 80 -41 80q-18 0 -90 -44t-148 -44q-76 -1 -123 55t-41 148l152 49q-2 -45 6 -64q21 -49 129 23q66 43 123 43zM266 481q0 -137 78 -227t219 -90t219 90t78 227t-78 227t-219 91q-141 -1 -219 -91t-78 -227zM61 481q1 217 149 359
t353 143q205 0 353 -142q148 -141 148 -359t-148 -360t-353 -142t-353 142t-149 359z" />
    <glyph glyph-name="odieresis" unicode="&#xf6;" horiz-adv-x="1126" 
d="M635 1137v225h205v-225h-205zM287 1137v225h202v-225h-202zM266 481q0 -137 78 -227t219 -90t219 90t78 227t-78 227t-219 91q-141 -1 -219 -91t-78 -227zM61 481q1 217 149 359t353 143q205 0 353 -142q148 -141 148 -359t-148 -360t-353 -142t-353 142t-149 359z" />
    <glyph glyph-name="divide" unicode="&#xf7;" horiz-adv-x="1105" 
d="M676 102h-246v246h246v-246zM676 840h-246v245h246v-245zM1044 512h-983v164h983v-164z" />
    <glyph glyph-name="oslash" unicode="&#xf8;" horiz-adv-x="1126" 
d="M262 481q0 -88 35 -164l418 447q-66 39 -152 39q-141 -1 -221 -93t-80 -229zM563 160q141 0 221 92t80 229q0 92 -37 162l-417 -446q69 -37 153 -37zM1065 481q0 -215 -152 -358t-350 -143q-150 0 -278 83l-60 -63h-225l164 174q-102 133 -103 307q0 215 152 359t350 143
q150 0 277 -86l61 66h225l-163 -177q102 -133 102 -305z" />
    <glyph glyph-name="ugrave" unicode="&#xf9;" horiz-adv-x="1064" 
d="M248 1358l147 106l256 -389h-200zM942 0h-184l-21 82l-10 10l-10 -10q-31 -45 -97 -74t-128 -28q-180 0 -285 108q-104 109 -105 281v594h205v-594q6 -205 205 -205q88 0 155 62t70 153v584h205v-963z" />
    <glyph glyph-name="uacute" unicode="&#xfa;" horiz-adv-x="1064" 
d="M668 1464l147 -106l-203 -283h-200zM942 0h-184l-21 82l-10 10l-10 -10q-31 -45 -97 -74t-128 -28q-180 0 -285 108q-104 109 -105 281v594h205v-594q6 -205 205 -205q88 0 155 62t70 153v584h205v-963z" />
    <glyph glyph-name="ucircumflex" unicode="&#xfb;" horiz-adv-x="1064" 
d="M623 1403l186 -217l-121 -111l-168 197l-168 -197l-121 111l187 217h205zM942 963v-963h-184l-21 82l-10 10l-10 -10q-31 -45 -97 -74t-128 -28q-180 0 -285 108q-104 109 -105 281v594h205v-594q6 -205 205 -205q88 0 155 62t70 153v584h205z" />
    <glyph glyph-name="udieresis" unicode="&#xfc;" horiz-adv-x="1064" 
d="M596 1137v225h205v-225h-205zM248 1137v225h203v-225h-203zM942 0h-184l-21 82l-10 10l-10 -10q-31 -45 -97 -74t-128 -28q-180 0 -285 108q-104 109 -105 281v594h205v-594q6 -205 205 -205q88 0 155 62t70 153v584h205v-963z" />
    <glyph glyph-name="yacute" unicode="&#xfd;" horiz-adv-x="880" 
d="M596 1464l147 -106l-202 -283h-201zM655 963h205l-512 -1373h-205l201 537l-324 836h207l213 -578z" />
    <glyph glyph-name="thorn" unicode="&#xfe;" horiz-adv-x="1126" 
d="M307 481q0 -133 84 -225t219 -92t213 90t78 227t-78 227t-213 91q-135 -1 -219 -93t-84 -225zM614 -20q-164 0 -276 112l-12 -10v-516h-203v1990h203v-675l12 -11q103 113 292 113q188 0 332 -141q144 -140 144 -360t-143 -361t-349 -141z" />
    <glyph glyph-name="ydieresis" unicode="&#xff;" horiz-adv-x="880" 
d="M512 1137v225h205v-225h-205zM164 1137v225h203v-225h-203zM655 963h205l-512 -1373h-205l201 537l-324 836h207l213 -578z" />
    <glyph glyph-name="Amacron" unicode="&#x100;" horiz-adv-x="1331" 
d="M389 1669v164h553v-164h-553zM457 594h415l-206 614zM553 1495h225l512 -1495h-215l-133 389h-555l-131 -389h-215z" />
    <glyph glyph-name="amacron" unicode="&#x101;" horiz-adv-x="1167" 
d="M289 1116v154h553v-154h-553zM860 481q0 133 -84 225t-219 93q-135 0 -214 -90q-79 -89 -79 -227t79 -228t214 -90t219 92t84 225zM537 983q189 0 292 -113l11 11l20 82h184v-963h-184l-20 82l-11 10q-112 -112 -276 -112q-205 0 -348 141t-144 360t143 361t333 141z" />
    <glyph glyph-name="Abreve" unicode="&#x102;" horiz-adv-x="1331" 
d="M666 1608q-129 0 -203 78t-74 174v14h174v-2q0 -39 26 -71t77 -32q50 0 76 32t26 71v2h174v-14q0 -96 -74 -174t-202 -78zM457 594h415l-206 614zM553 1495h225l512 -1495h-215l-133 389h-555l-131 -389h-215z" />
    <glyph glyph-name="abreve" unicode="&#x103;" horiz-adv-x="1167" 
d="M571 1071q-125 0 -201 74t-75 172v12h166v-4q-1 -41 29 -73t81 -32t81 32t30 73v4h166v-12q0 -98 -76 -172t-201 -74zM860 481q0 133 -84 225t-219 93q-135 0 -214 -90q-79 -89 -79 -227t79 -228t214 -90t219 92t84 225zM537 983q189 0 292 -113l11 11l20 82h184v-963
h-184l-20 82l-11 10q-112 -112 -276 -112q-205 0 -348 141t-144 360t143 361t333 141z" />
    <glyph glyph-name="Aogonek" unicode="&#x104;" horiz-adv-x="1331" 
d="M666 1208l-209 -614h415zM1223 -168q1 -30 29 -52t67 -22h45l-45 -168h-10q-127 0 -204 52t-77 138q0 85 98 220h-51l-133 389h-555l-131 -389h-215l512 1495h225l512 -1495l-57 -117q-10 -20 -10 -51z" />
    <glyph glyph-name="aogonek" unicode="&#x105;" horiz-adv-x="1167" 
d="M860 481q0 133 -84 225t-219 93q-135 0 -214 -90q-79 -89 -79 -227t79 -228t214 -90t219 92t84 225zM537 983q189 0 292 -113l11 11l20 82h184v-963l-57 -117q-10 -20 -10 -51q0 -30 29 -52t67 -22h45l-45 -168h-10q-127 0 -204 52t-77 138q0 85 99 220h-21l-20 82
l-11 10q-112 -112 -276 -112q-205 0 -348 141t-144 360t143 361t333 141z" />
    <glyph glyph-name="Cacute" unicode="&#x106;" horiz-adv-x="1515" 
d="M1042 1946l138 -129l-197 -209h-235zM82 745q0 331 220 561t548 230q172 0 330 -75t264 -212l-144 -143q-162 227 -429 227t-419 -166q-152 -165 -153 -419q0 -254 155 -420t425 -166t432 227l143 -143q-106 -137 -264 -212t-330 -75q-336 0 -557 227t-221 559z" />
    <glyph glyph-name="cacute" unicode="&#x107;" horiz-adv-x="1003" 
d="M717 1464l147 -106l-202 -283h-201zM262 481q0 -137 80 -227t221 -90q88 0 156 49t94 115l160 -103q-63 -113 -171 -179t-249 -66q-199 0 -345 142t-147 359q1 217 147 359t345 143q141 0 247 -67t171 -179l-160 -102q-27 68 -94 116q-68 48 -154 48q-141 -1 -221 -91
t-80 -227z" />
    <glyph glyph-name="Ccircumflex" unicode="&#x108;" horiz-adv-x="1515" 
d="M950 1939l213 -200l-129 -131l-174 168l-174 -168l-129 131l213 200h180zM82 745q0 331 220 561t548 230q172 0 330 -75t264 -212l-144 -143q-162 227 -429 227t-419 -166q-152 -165 -153 -419q0 -254 155 -420t425 -166t432 227l143 -143q-106 -137 -264 -212t-330 -75
q-336 0 -557 227t-221 559z" />
    <glyph glyph-name="ccircumflex" unicode="&#x109;" horiz-adv-x="1003" 
d="M657 1403l187 -217l-121 -111l-168 197l-168 -197l-121 111l187 217h204zM262 481q0 -137 80 -227t221 -90q88 0 156 49t94 115l160 -103q-63 -113 -171 -179t-249 -66q-199 0 -345 142t-147 359q1 217 147 359t345 143q141 0 247 -67t171 -179l-160 -102q-27 68 -94 116
q-68 48 -154 48q-141 -1 -221 -91t-80 -227z" />
    <glyph glyph-name="Cdotaccent" unicode="&#x10a;" horiz-adv-x="1515" 
d="M737 1632v226h226v-226h-226zM82 745q0 331 220 561t548 230q172 0 330 -75t264 -212l-144 -143q-162 227 -429 227t-419 -166q-152 -165 -153 -419q0 -254 155 -420t425 -166t432 227l143 -143q-106 -137 -264 -212t-330 -75q-336 0 -557 227t-221 559z" />
    <glyph glyph-name="cdotaccent" unicode="&#x10b;" horiz-adv-x="1003" 
d="M451 1116v225h204v-225h-204zM262 481q0 -137 80 -227t221 -90q88 0 156 49t94 115l160 -103q-63 -113 -171 -179t-249 -66q-199 0 -345 142t-147 359q1 217 147 359t345 143q141 0 247 -67t171 -179l-160 -102q-27 68 -94 116q-68 48 -154 48q-141 -1 -221 -91t-80 -227
z" />
    <glyph glyph-name="Ccaron" unicode="&#x10c;" horiz-adv-x="1515" 
d="M1143 1808l-213 -200h-180l-213 200l129 131l174 -167l174 167zM82 745q0 331 220 561t548 230q172 0 330 -75t264 -212l-144 -143q-162 227 -429 227t-419 -166q-152 -165 -153 -419q0 -254 155 -420t425 -166t432 227l143 -143q-106 -137 -264 -212t-330 -75
q-336 0 -557 227t-221 559z" />
    <glyph glyph-name="ccaron" unicode="&#x10d;" horiz-adv-x="1003" 
d="M840 1292l-187 -217h-204l-187 217l121 111l168 -197l168 197zM262 481q0 -137 80 -227t221 -90q88 0 156 49t94 115l160 -103q-63 -113 -171 -179t-249 -66q-199 0 -345 142t-147 359q1 217 147 359t345 143q141 0 247 -67t171 -179l-160 -102q-27 68 -94 116
q-68 48 -154 48q-141 -1 -221 -91t-80 -227z" />
    <glyph glyph-name="Dcaron" unicode="&#x10e;" horiz-adv-x="1351" 
d="M897 1808l-213 -200h-180l-213 200l129 131l174 -167l174 167zM512 1290h-133v-1085h133q254 0 398 144q144 145 144 399t-144 398t-398 144zM164 0v1495h338q332 0 550 -210q218 -209 218 -537t-218 -538t-550 -210h-338z" />
    <glyph glyph-name="dcaron" unicode="&#x10f;" horiz-adv-x="1351" 
d="M1415 1556l-139 -432l-170 56l119 376h190zM860 481q0 133 -84 225t-219 93q-135 0 -214 -90q-79 -89 -79 -227t79 -228t214 -90t219 92t84 225zM537 983q189 0 292 -113l11 11v675h204v-1556h-184l-20 82l-11 10q-112 -112 -276 -112q-205 0 -348 141t-144 360t143 361
t333 141z" />
    <glyph glyph-name="Dcroat" unicode="&#x110;" horiz-adv-x="1351" 
d="M512 1290h-92v-450h215v-185h-215v-450h92q254 0 398 144q144 145 144 399t-144 398t-398 144zM20 655v185h185v655h297q332 0 550 -210q218 -209 218 -537t-218 -538t-550 -210h-297v655h-185z" />
    <glyph glyph-name="dcroat" unicode="&#x111;" horiz-adv-x="1167" 
d="M860 481q0 133 -84 225t-219 93q-135 0 -214 -90q-79 -89 -79 -227t79 -228t214 -90t219 92t84 225zM537 983q189 0 292 -113l11 11v256h-308v153h308v266h204v-266h123v-153h-123v-1137h-184l-20 82l-11 10q-112 -112 -276 -112q-205 0 -348 141t-144 360t143 361
t333 141z" />
    <glyph glyph-name="Emacron" unicode="&#x112;" horiz-adv-x="1167" 
d="M340 1669v164h553v-164h-553zM164 1495h901v-205h-686v-430h665v-205h-665v-450h686v-205h-901v1495z" />
    <glyph glyph-name="emacron" unicode="&#x113;" horiz-adv-x="1034" 
d="M254 1116v154h553v-154h-553zM532 799q-201 0 -256 -189h492q-8 80 -76 134t-160 55zM266 430q0 -114 75 -190t202 -76q88 0 150 40t87 103l172 -82q-141 -246 -420 -245q-198 0 -334 141t-136 361t134 360t329 141q195 0 327 -137t131 -354l-20 -62h-697z" />
    <glyph glyph-name="Ebreve" unicode="&#x114;" horiz-adv-x="1167" 
d="M618 1608q-128 0 -202 78t-74 174v14h174v-2q0 -39 26 -71t76 -32t77 32q26 32 26 71v2h174v-14q0 -96 -74 -174t-203 -78zM164 1495h901v-205h-686v-430h665v-205h-665v-450h686v-205h-901v1495z" />
    <glyph glyph-name="ebreve" unicode="&#x115;" horiz-adv-x="1034" 
d="M535 1071q-125 0 -201 74t-76 172v12h166v-4q0 -41 30 -73t81 -32t81 32t29 73v4h166v-12q1 -98 -75 -172t-201 -74zM532 799q-201 0 -256 -189h492q-8 80 -76 134t-160 55zM266 430q0 -114 75 -190t202 -76q88 0 150 40t87 103l172 -82q-141 -246 -420 -245
q-198 0 -334 141t-136 361t134 360t329 141q195 0 327 -137t131 -354l-20 -62h-697z" />
    <glyph glyph-name="Edotaccent" unicode="&#x116;" horiz-adv-x="1167" 
d="M506 1632v226h225v-226h-225zM164 1495h901v-205h-686v-430h665v-205h-665v-450h686v-205h-901v1495z" />
    <glyph glyph-name="edotaccent" unicode="&#x117;" horiz-adv-x="1034" 
d="M414 1116v225h204v-225h-204zM532 799q-201 0 -256 -189h492q-8 80 -76 134t-160 55zM266 430q0 -114 75 -190t202 -76q88 0 150 40t87 103l172 -82q-141 -246 -420 -245q-198 0 -334 141t-136 361t134 360t329 141q195 0 327 -137t131 -354l-20 -62h-697z" />
    <glyph glyph-name="Eogonek" unicode="&#x118;" horiz-adv-x="1167" 
d="M1065 0h-74l-57 -117q-10 -20 -10 -51q0 -30 28 -52t68 -22h45l-45 -168h-10q-127 0 -204 52t-77 138q0 85 98 220h-663v1495h901v-205h-686v-430h665v-205h-665v-450h686v-205z" />
    <glyph glyph-name="eogonek" unicode="&#x119;" horiz-adv-x="1034" 
d="M532 799q-201 0 -256 -189h492q-8 80 -76 134t-160 55zM266 430q0 -114 75 -190t202 -76q88 0 150 40t87 103l172 -82q-125 -256 -136 -303t-11 -78q0 -86 92 -86h45l-45 -168q-127 -6 -202 50t-75 151q0 94 82 217q-80 -29 -170 -28q-198 0 -334 141t-136 361t134 360
t329 141q195 0 327 -137t131 -354l-20 -62h-697z" />
    <glyph glyph-name="Ecaron" unicode="&#x11a;" horiz-adv-x="1167" 
d="M915 1808l-213 -200h-180l-213 200l129 131l174 -167l174 167zM164 0v1495h901v-205h-686v-430h665v-205h-665v-450h686v-205h-901z" />
    <glyph glyph-name="ecaron" unicode="&#x11b;" horiz-adv-x="1034" 
d="M815 1292l-186 -217h-205l-186 217l120 111l168 -197l168 197zM532 799q-201 0 -256 -189h492q-8 80 -76 134t-160 55zM266 430q0 -114 75 -190t202 -76q88 0 150 40t87 103l172 -82q-141 -246 -420 -245q-198 0 -334 141t-136 361t134 360t329 141q195 0 327 -137
t131 -354l-20 -62h-697z" />
    <glyph glyph-name="Gcircumflex" unicode="&#x11c;" horiz-adv-x="1648" 
d="M936 1939l213 -200l-129 -131l-174 168l-174 -168l-129 131l213 200h180zM850 1331q-250 0 -400 -164t-151 -421q0 -258 151 -420t388 -162t391 132t168 339h-762v205h778l195 -195q-16 -281 -236 -483t-534 -203q-316 0 -536 228q-220 227 -220 561t221 561t571 227
t582 -285l-147 -147q-158 227 -459 227z" />
    <glyph glyph-name="gcircumflex" unicode="&#x11d;" horiz-adv-x="993" 
d="M592 1403l186 -217l-121 -111l-168 197l-167 -197l-121 111l186 217h205zM256 -61q0 -83 62 -137t162 -54t164 53q62 53 62 137t-62 140q-62 55 -162 55t-164 -55q-62 -55 -62 -139zM256 563q0 -100 63 -168q63 -67 161 -67t163 67q63 68 64 168t-63 168t-162 68
t-162 -68t-64 -168zM61 -63q0 201 185 299q-184 109 -185 327q0 176 122 298t298 122q69 0 137 -29t99 -73l10 -11l10 11l21 82h143v-400q0 -219 -184 -327q184 -96 184 -299q0 -165 -125 -265t-295 -100t-295 100t-125 265z" />
    <glyph glyph-name="Gbreve" unicode="&#x11e;" horiz-adv-x="1648" 
d="M858 1608q-129 0 -203 78t-73 174v14h174v-2q0 -39 26 -71t76 -32q51 0 77 32t26 71v2h174v-14q0 -96 -74 -174t-203 -78zM850 1331q-250 0 -400 -164t-151 -421q0 -258 151 -420t388 -162t391 132t168 339h-762v205h778l195 -195q-16 -281 -236 -483t-534 -203
q-316 0 -536 228q-220 227 -220 561t221 561t570 227t583 -285l-147 -147q-158 227 -459 227z" />
    <glyph glyph-name="gbreve" unicode="&#x11f;" horiz-adv-x="993" 
d="M487 1071q-125 0 -201 74t-75 172v12h166v-4q0 -41 30 -73q31 -32 81 -32t80 32t30 73v4h166v-12q0 -98 -76 -172t-201 -74zM256 -61q0 -83 62 -137t162 -54t164 53q62 53 62 137t-62 140q-62 55 -162 55t-164 -55q-62 -55 -62 -139zM256 563q0 -100 63 -168
q63 -67 161 -67t163 67q63 68 64 168t-63 168t-162 68t-162 -68t-64 -168zM61 -63q0 201 185 299q-184 109 -185 327q0 176 122 298t298 122q69 0 137 -29t99 -73l10 -11l10 11l21 82h143v-400q0 -219 -184 -327q184 -96 184 -299q0 -165 -125 -265t-295 -100t-295 100
t-125 265z" />
    <glyph glyph-name="Gdotaccent" unicode="&#x120;" horiz-adv-x="1648" 
d="M750 1632v226h225v-226h-225zM850 1331q-250 0 -400 -164t-151 -421q0 -258 151 -420t388 -162t391 132t168 339h-762v205h778l195 -195q-16 -281 -236 -483t-534 -203q-316 0 -536 228q-220 227 -220 561t221 561t570 227t583 -285l-147 -147q-158 227 -459 227z" />
    <glyph glyph-name="gdotaccent" unicode="&#x121;" horiz-adv-x="993" 
d="M379 1116v225h205v-225h-205zM256 -61q0 -83 62 -137t162 -54t164 53q62 53 62 137t-62 140q-62 55 -162 55t-164 -55q-62 -55 -62 -139zM256 563q0 -100 63 -168q63 -67 161 -67t163 67q63 68 64 168t-63 168t-162 68t-162 -68t-64 -168zM61 -63q0 201 185 299
q-184 109 -185 327q0 176 122 298t298 122q69 0 137 -29t99 -73l10 -11l10 11l21 82h143v-400q0 -219 -184 -327q184 -96 184 -299q0 -165 -125 -265t-295 -100t-295 100t-125 265z" />
    <glyph glyph-name="Gcommaaccent" unicode="&#x122;" horiz-adv-x="1648" 
d="M961 -104l-130 -388l-176 58l109 330h197zM850 1331q-250 0 -400 -164t-151 -421q0 -258 151 -420t388 -162t391 132t168 339h-762v205h778l195 -195q-16 -281 -236 -483t-534 -203q-316 0 -536 228q-220 227 -220 561t221 561t571 227t582 -285l-147 -147
q-158 227 -459 227z" />
    <glyph glyph-name="gcommaaccent" unicode="&#x123;" horiz-adv-x="993" 
d="M379 1075l129 387l176 -57l-109 -330h-196zM256 -61q0 -83 62 -137t162 -54t164 53q62 53 62 137t-62 140q-62 55 -162 55t-164 -55q-62 -55 -62 -139zM256 563q0 -100 63 -168q63 -67 161 -67t163 67q63 68 64 168t-63 168t-162 68t-162 -68t-64 -168zM61 -63
q0 201 185 299q-184 109 -185 327q0 176 122 298t298 122q69 0 137 -29t99 -73l10 -11l10 11l21 82h143v-400q0 -219 -184 -327q184 -96 184 -299q0 -165 -125 -265t-295 -100t-295 100t-125 265z" />
    <glyph glyph-name="Hcircumflex" unicode="&#x124;" horiz-adv-x="1331" 
d="M756 1939l213 -200l-129 -131l-174 168l-174 -168l-130 131l213 200h181zM952 860v635h215v-1495h-215v655h-573v-655h-215v1495h215v-635h573z" />
    <glyph glyph-name="hcircumflex" unicode="&#x125;" horiz-adv-x="1064" 
d="M123 0v1556h205v-675l10 -11l10 11q30 45 96 73t129 29q181 0 285 -109t105 -280v-594h-205v594q-10 205 -205 205q-90 1 -156 -63t-69 -154v-582h-205zM553 1946l186 -197l-121 -111l-167 177l-168 -177l-121 111l186 197h205z" />
    <glyph glyph-name="Hbar" unicode="&#x126;" horiz-adv-x="1331" 
d="M379 860h573v205h-573v-205zM51 1065v205h113v225h215v-225h573v225h215v-225h113v-205h-113v-1065h-215v655h-573v-655h-215v1065h-113z" />
    <glyph glyph-name="hbar" unicode="&#x127;" horiz-adv-x="1064" 
d="M0 1137v153h123v266h205v-266h307v-153h-307v-256l10 -11l10 11q30 45 96 73t129 29q181 0 285 -109t105 -280v-594h-205v594q-10 205 -205 205q-90 1 -156 -63t-69 -154v-582h-205v1137h-123z" />
    <glyph glyph-name="Itilde" unicode="&#x128;" horiz-adv-x="593" 
d="M426 1886q102 0 157 -68q54 -69 42 -190h-168q12 80 -43 80q-18 0 -100 -40t-162 -40q-78 0 -129 56t-43 159l170 45q-10 -80 45 -80q27 0 101 39t130 39zM154 205h34v1085h-34v205h286v-205h-34v-1085h34v-205h-286v205z" />
    <glyph glyph-name="itilde" unicode="&#x129;" horiz-adv-x="450" 
d="M342 1331q100 0 148 -63t36 -183h-151q6 80 -41 80q-18 0 -89 -44t-147 -44q-76 -1 -124 55t-42 148l152 49q-2 -45 6 -64q20 -47 129 23q68 43 123 43zM125 0v963h201v-963h-201z" />
    <glyph glyph-name="Imacron" unicode="&#x12a;" horiz-adv-x="593" 
d="M20 1669v164h553v-164h-553zM154 205h34v1085h-34v205h286v-205h-34v-1085h34v-205h-286v205z" />
    <glyph glyph-name="imacron" unicode="&#x12b;" horiz-adv-x="450" 
d="M-51 1116v154h553v-154h-553zM125 0v963h201v-963h-201z" />
    <glyph glyph-name="Ibreve" unicode="&#x12c;" horiz-adv-x="593" 
d="M297 1608q-129 0 -203 78t-74 174v14h175v-2q-1 -39 25 -71t77 -32t77 32t25 71v2h174v-14q1 -96 -73 -174t-203 -78zM154 205h34v1085h-34v205h286v-205h-34v-1085h34v-205h-286v205z" />
    <glyph glyph-name="ibreve" unicode="&#x12d;" horiz-adv-x="450" 
d="M225 1071q-125 0 -201 74t-75 172v12h166v-4q-1 -41 29 -73t81 -32t81 32t30 73v4h166v-12q0 -98 -76 -172t-201 -74zM125 0v963h201v-963h-201z" />
    <glyph glyph-name="Iogonek" unicode="&#x12e;" horiz-adv-x="593" 
d="M440 0h-63l-58 -117q-10 -20 -10 -51q0 -30 29 -52t68 -22h45l-45 -168h-11q-127 0 -204 52t-77 138q0 85 99 220h-59v205h34v1085h-34v205h286v-205h-34v-1085h34v-205z" />
    <glyph glyph-name="iogonek" unicode="&#x12f;" horiz-adv-x="450" 
d="M123 1147v225h205v-225h-205zM125 0h201l-58 -117q-10 -20 -10 -51q0 -30 29 -52t67 -22h45l-45 -168h-10q-127 0 -204 52t-77 138q0 85 99 220h164v963h-201v-963z" />
    <glyph glyph-name="Idotaccent" unicode="&#x130;" horiz-adv-x="593" 
d="M184 1632v226h226v-226h-226zM154 205h34v1085h-34v205h286v-205h-34v-1085h34v-205h-286v205z" />
    <glyph glyph-name="dotlessi" unicode="&#x131;" horiz-adv-x="450" 
d="M125 0v963h201v-963h-201z" />
    <glyph glyph-name="Jcircumflex" unicode="&#x134;" horiz-adv-x="573" 
d="M389 1939l213 -200l-129 -131l-174 168l-174 -168l-129 131l213 200h180zM61 0h41q41 0 67 23t26 59v1413h215v-1393q0 -139 -84 -223t-224 -84l-41 21v184z" />
    <glyph glyph-name="jcircumflex" unicode="&#x135;" horiz-adv-x="468" 
d="M338 1403l186 -217l-121 -111l-167 197l-168 -197l-121 111l186 217h205zM143 -168v1131h203v-1110q0 -143 -78 -225t-227 -83l-102 21v184l112 -20q92 0 92 102z" />
    <glyph glyph-name="Kcommaaccent" unicode="&#x136;" horiz-adv-x="1208" 
d="M739 -84l-129 -387l-176 57l109 330h196zM379 0h-215v1495h215v-614l553 614h256l-645 -735l665 -760h-274l-555 635v-635z" />
    <glyph glyph-name="kcommaaccent" unicode="&#x137;" horiz-adv-x="983" 
d="M643 -84l-129 -387l-176 57l108 330h197zM328 0h-205v1556h205v-983l389 390h266l-463 -463l484 -500h-267l-409 410v-410z" />
    <glyph glyph-name="Lacute" unicode="&#x139;" horiz-adv-x="1085" 
d="M459 1946l137 -129l-197 -209h-235zM164 1495h215v-1290h625v-205h-840v1495z" />
    <glyph glyph-name="lacute" unicode="&#x13a;" horiz-adv-x="450" 
d="M123 1556h205v-1372l20 -184h-205l-20 184v1372zM389 1946l119 -109l-176 -197h-209z" />
    <glyph glyph-name="Lcommaaccent" unicode="&#x13b;" horiz-adv-x="1085" 
d="M698 -84l-129 -387l-176 57l109 330h196zM164 0v1495h215v-1290h625v-205h-840z" />
    <glyph glyph-name="lcommaaccent" unicode="&#x13c;" horiz-adv-x="450" 
d="M356 -84l-129 -387l-176 57l109 330h196zM328 1556v-1372l20 -184h-205l-20 184v1372h205z" />
    <glyph glyph-name="Lcaron" unicode="&#x13d;" horiz-adv-x="1085" 
d="M795 1597l-140 -432l-170 56l119 376h191zM164 1495h215v-1290h625v-205h-840v1495z" />
    <glyph glyph-name="lcaron" unicode="&#x13e;" horiz-adv-x="634" 
d="M698 1556l-139 -432l-170 56l119 376h190zM328 1556v-1372l20 -184h-205l-20 184v1372h205z" />
    <glyph glyph-name="Ldot" unicode="&#x13f;" horiz-adv-x="1085" 
d="M555 492v266h246v-266h-246zM164 0v1495h215v-1290h625v-205h-840z" />
    <glyph glyph-name="ldot" unicode="&#x140;" horiz-adv-x="819" 
d="M512 471v266h246v-266h-246zM328 1556v-1372l20 -184h-205l-20 184v1372h205z" />
    <glyph glyph-name="Lslash" unicode="&#x141;" horiz-adv-x="1085" 
d="M164 1495h215v-747l317 174v-205l-317 -174v-338h625v-205h-840v424l-103 -55v204l103 56v866z" />
    <glyph glyph-name="lslash" unicode="&#x142;" horiz-adv-x="450" 
d="M123 1556h205v-583l123 112v-204l-123 -113v-584l20 -184h-205l-20 184v398l-123 -111v205l123 110v770z" />
    <glyph glyph-name="Nacute" unicode="&#x143;" horiz-adv-x="1413" 
d="M889 1946l137 -129l-197 -209h-235zM1036 1495h213v-1495h-235l-637 1126v-1126h-213v1495h235l637 -1106v1106z" />
    <glyph glyph-name="nacute" unicode="&#x144;" horiz-adv-x="1064" 
d="M694 1464l148 -106l-203 -283h-201zM123 963h184l21 -82l10 -11l10 11q30 45 96 73t129 29q181 0 285 -109t105 -280v-594h-205v594q-10 205 -205 205q-90 1 -156 -63t-69 -154v-582h-205v963z" />
    <glyph glyph-name="Ncommaaccent" unicode="&#x145;" horiz-adv-x="1413" 
d="M842 -84l-129 -387l-176 57l108 330h197zM1036 1495h213v-1495h-235l-637 1126v-1126h-213v1495h235l637 -1106v1106z" />
    <glyph glyph-name="ncommaaccent" unicode="&#x146;" horiz-adv-x="1064" 
d="M668 -84l-129 -387l-177 57l109 330h197zM123 0v963h184l21 -82l10 -11l10 11q30 45 96 73t129 29q181 0 285 -109t105 -280v-594h-205v594q-10 205 -205 205q-90 1 -156 -63t-69 -154v-582h-205z" />
    <glyph glyph-name="Ncaron" unicode="&#x147;" horiz-adv-x="1413" 
d="M1010 1808l-213 -200h-181l-213 200l129 131l175 -167l174 167zM1036 1495h213v-1495h-235l-637 1126v-1126h-213v1495h235l637 -1106v1106z" />
    <glyph glyph-name="ncaron" unicode="&#x148;" horiz-adv-x="1064" 
d="M840 1292l-187 -217h-204l-187 217l121 111l168 -197l168 197zM123 0v963h184l21 -82l10 -11l10 11q30 45 96 73t129 29q181 0 285 -109t105 -280v-594h-205v594q-10 205 -205 205q-90 1 -156 -63t-69 -154v-582h-205z" />
    <glyph glyph-name="Eng" unicode="&#x14a;" horiz-adv-x="1413" 
d="M903 -229h41q41 1 67 23t25 59v147l-659 1126v-1126h-213v1495h235l637 -1106v1106h213v-1622q0 -139 -84 -223t-221 -84l-41 20v185z" />
    <glyph glyph-name="eng" unicode="&#x14b;" horiz-adv-x="1064" 
d="M758 -168v762q-10 205 -205 205q-90 1 -156 -63t-69 -154v-582h-205v963h184l21 -82l10 -11l10 11q30 45 96 73t129 29q181 0 285 -109t105 -280v-741q0 -143 -78 -225t-228 -83l-102 21v184l113 -20q90 0 90 102z" />
    <glyph glyph-name="Omacron" unicode="&#x14c;" horiz-adv-x="1740" 
d="M594 1669v164h553v-164h-553zM870 1331q-252 0 -412 -165t-161 -420q0 -254 161 -418q160 -164 412 -164t412 164t160 418t-160 420q-160 165 -412 165zM82 748q0 328 230 558t558 230t558 -230t230 -558t-230 -558t-558 -231q-328 1 -558 231t-230 558z" />
    <glyph glyph-name="omacron" unicode="&#x14d;" horiz-adv-x="1126" 
d="M287 1116v154h553v-154h-553zM266 481q0 -137 78 -227t219 -90t219 90t78 227t-78 227t-219 91q-141 -1 -219 -91t-78 -227zM61 481q1 217 149 359t353 143q205 0 353 -142q148 -141 148 -359t-148 -360t-353 -142t-353 142t-149 359z" />
    <glyph glyph-name="Obreve" unicode="&#x14e;" horiz-adv-x="1740" 
d="M870 1608q-128 0 -202 78t-74 174v14h174v-2q0 -39 26 -71t76 -32t77 32q26 32 26 71v2h174v-14q0 -96 -74 -174t-203 -78zM870 1331q-252 0 -412 -165t-161 -420q0 -254 161 -418q160 -164 412 -164t412 164t160 418t-160 420q-160 165 -412 165zM82 748q0 328 230 558
t558 230t558 -230t230 -558t-230 -558t-558 -231q-328 1 -558 231t-230 558z" />
    <glyph glyph-name="obreve" unicode="&#x14f;" horiz-adv-x="1126" 
d="M563 1071q-125 0 -201 74t-75 172v12h166v-4q-1 -41 29 -73t81 -32t81 32t30 73v4h166v-12q0 -98 -76 -172t-201 -74zM266 481q0 -137 78 -227t219 -90t219 90t78 227t-78 227t-219 91q-141 -1 -219 -91t-78 -227zM61 481q1 217 149 359t353 143q205 0 353 -142
q148 -141 148 -359t-148 -360t-353 -142t-353 142t-149 359z" />
    <glyph glyph-name="Ohungarumlaut" unicode="&#x150;" horiz-adv-x="1740" 
d="M1184 1952l141 -117l-203 -229h-211zM813 1944l160 -97l-156 -241h-196zM870 1331q-252 0 -412 -165t-161 -420q0 -254 161 -418q160 -164 412 -164t412 164t160 418t-160 420q-160 165 -412 165zM82 748q0 328 230 558t558 230t558 -230t230 -558t-230 -558t-558 -231
q-328 1 -558 231t-230 558z" />
    <glyph glyph-name="ohungarumlaut" unicode="&#x151;" horiz-adv-x="1126" 
d="M852 1421l143 -102l-182 -264h-199zM512 1425l166 -79l-154 -291h-190zM266 481q0 -137 78 -227t219 -90t219 90t78 227t-78 227t-219 91q-141 -1 -219 -91t-78 -227zM61 481q1 217 149 359t353 143q205 0 353 -142q148 -141 148 -359t-148 -360t-353 -142t-353 142
t-149 359z" />
    <glyph glyph-name="OE" unicode="&#x152;" horiz-adv-x="1966" 
d="M870 1331q-252 0 -412 -165t-161 -420q0 -254 161 -418t412 -164q139 0 256 53v1063q-111 51 -256 51zM1864 0h-738q-123 -41 -266 -41q-330 0 -554 228q-224 229 -224 561t224 560t554 228q143 0 266 -41h738v-205h-523v-430h502v-205h-502v-450h523v-205z" />
    <glyph glyph-name="oe" unicode="&#x153;" horiz-adv-x="1773" 
d="M1280 801q-195 0 -256 -191h485q-2 86 -67 139q-66 52 -162 52zM264 481q0 -135 76 -226t206 -91t202 90t71 227q0 137 -71 228q-72 90 -203 90q-131 1 -206 -91t-75 -227zM528 -20q-176 0 -321 143t-146 358t145 359t322 143q176 0 301 -102l89 -109l86 109
q126 102 292 102t299 -136t125 -355l-20 -62h-676q0 -114 70 -190t172 -76t166 40q63 40 90 103l170 -82q-141 -246 -412 -245q-152 0 -276 102l-86 106l-89 -106q-125 -102 -301 -102z" />
    <glyph glyph-name="Racute" unicode="&#x154;" horiz-adv-x="1249" 
d="M766 1946l137 -129l-196 -209h-236zM707 860q95 0 165 60t70 155t-70 155t-165 60h-328v-430h328zM1188 0h-244l-524 655h-41v-655h-215v1495h532q193 0 327 -114t134 -303t-141 -306t-334 -117l506 -614v-41z" />
    <glyph glyph-name="racute" unicode="&#x155;" 
d="M551 1464l147 -106l-202 -283h-201zM123 963h184l21 -103l10 -10l10 10q92 123 225 123q61 0 103 -20v-185h-123q-90 0 -156 -63t-69 -154v-561h-205v963z" />
    <glyph glyph-name="Rcommaaccent" unicode="&#x156;" horiz-adv-x="1249" 
d="M760 -84l-129 -387l-176 57l108 330h197zM379 860h328q95 0 165 60t70 155t-70 155t-165 60h-328v-430zM1188 0h-244l-524 655h-41v-655h-215v1495h532q193 0 327 -114t134 -303t-141 -306t-334 -117l506 -614v-41z" />
    <glyph glyph-name="rcommaaccent" unicode="&#x157;" 
d="M328 -84l-129 -387l-176 57l108 330h197zM123 0v963h184l21 -103l10 -10l10 10q92 123 225 123q61 0 103 -20v-185h-123q-90 0 -156 -63t-69 -154v-561h-205z" />
    <glyph glyph-name="Rcaron" unicode="&#x158;" horiz-adv-x="1249" 
d="M907 1808l-213 -200h-180l-213 200l129 131l174 -167l174 167zM379 860h328q95 0 165 60t70 155t-70 155t-165 60h-328v-430zM1188 0h-244l-524 655h-41v-655h-215v1495h532q193 0 327 -114t134 -303t-141 -306t-334 -117l506 -614v-41z" />
    <glyph glyph-name="rcaron" unicode="&#x159;" 
d="M690 1292l-186 -217h-205l-186 217l120 111l168 -197l168 197zM123 0v963h184l21 -103l10 -10l10 10q92 123 225 123q61 0 103 -20v-185h-123q-90 0 -156 -63t-69 -154v-561h-205z" />
    <glyph glyph-name="Sacute" unicode="&#x15a;" horiz-adv-x="1208" 
d="M766 1946l137 -129l-196 -209h-236zM1065 1106h-225q0 92 -75 159t-185 67t-176 -61q-67 -60 -66 -155q0 -174 235 -235q39 -10 185 -45q146 -34 248 -140q100 -106 100 -286t-137 -314t-355 -133q-218 0 -372 136q-156 136 -160 311l215 82q-2 -146 91 -234t220 -88
t205 66t78 174q0 178 -236 225q-84 18 -163 43q-164 49 -267 160q-102 112 -102 288t133 291t331 115t338 -122t140 -304z" />
    <glyph glyph-name="sacute" unicode="&#x15b;" horiz-adv-x="829" 
d="M555 1464l147 -106l-202 -283h-201zM420 -20q-145 0 -247 77q-101 78 -132 209l184 72q7 -78 63 -128t131 -50t115 34t39 82q0 84 -122 105q-41 8 -103 22q-127 33 -202 108q-74 75 -74 195t102 199q102 78 236 78t233 -80q100 -80 115 -207h-205q0 45 -41 76t-102 31
q-60 0 -102 -31t-42 -76q0 -86 123 -110l103 -21q128 -29 202 -101t74 -191q0 -121 -102 -207t-246 -86z" />
    <glyph glyph-name="Scircumflex" unicode="&#x15c;" horiz-adv-x="1208" 
d="M690 1939l213 -200l-129 -131l-174 168l-174 -168l-129 131l213 200h180zM1065 1106h-225q0 92 -75 159t-185 67t-176 -61q-67 -60 -66 -155q0 -174 235 -235q39 -10 185 -45q146 -34 248 -140q100 -106 100 -286t-137 -314t-355 -133q-218 0 -372 136q-156 136 -160 311
l215 82q-2 -146 91 -234t220 -88t205 66t78 174q0 178 -236 225q-84 18 -163 43q-164 49 -267 160q-102 112 -102 288t133 291t331 115t338 -122t140 -304z" />
    <glyph glyph-name="scircumflex" unicode="&#x15d;" horiz-adv-x="829" 
d="M520 1403l187 -217l-121 -111l-168 197l-168 -197l-121 111l186 217h205zM420 -20q-145 0 -247 77q-101 78 -132 209l184 72q7 -78 63 -128t131 -50t115 34t39 82q0 84 -122 105q-41 8 -103 22q-127 33 -202 108q-74 75 -74 195t102 199q102 78 236 78t233 -80
q100 -80 115 -207h-205q0 45 -41 76t-102 31q-60 0 -102 -31t-42 -76q0 -86 123 -110l103 -21q128 -29 202 -101t74 -191q0 -121 -102 -207t-246 -86z" />
    <glyph glyph-name="Scedilla" unicode="&#x15e;" horiz-adv-x="1208" 
d="M587 -307q69 0 68 51q0 51 -71 51h-47v172q-186 25 -319 154q-132 129 -136 289l215 82q-2 -146 91 -234t220 -88t205 66t78 174q0 178 -236 225q-84 18 -163 43q-164 49 -267 160q-102 112 -102 288t133 291t331 115t338 -122t140 -304h-225q0 92 -75 159t-185 67
t-176 -61q-67 -60 -66 -155q0 -174 235 -235q39 -10 185 -45q146 -34 248 -140q100 -106 100 -277t-113 -298t-305 -152v-47q55 -8 100 -56q46 -48 46 -133t-71 -145t-181 -59q-110 0 -197 70l84 141q49 -47 118 -47z" />
    <glyph glyph-name="scedilla" unicode="&#x15f;" horiz-adv-x="829" 
d="M376 -276q69 0 68 51q0 51 -71 51h-47v164q-111 20 -186 94t-99 182l184 72q7 -78 63 -128t131 -50t115 34t39 82q0 84 -122 105q-41 8 -103 22q-127 33 -202 108q-74 75 -74 195t102 199q102 78 236 78t233 -80q100 -80 115 -207h-205q0 45 -41 76t-102 31
q-60 0 -102 -31t-42 -76q0 -86 123 -110l103 -21q128 -29 202 -101t74 -185q0 -115 -83 -197t-208 -98v-31q55 -8 101 -56t45 -133q0 -84 -71 -144q-72 -60 -182 -60t-196 69l84 142q49 -47 118 -47z" />
    <glyph glyph-name="Scaron" unicode="&#x160;" horiz-adv-x="1208" 
d="M899 1808l-213 -200h-180l-213 200l129 131l174 -167l174 167zM1065 1106h-225q0 92 -75 159t-185 67t-176 -61q-67 -60 -66 -155q0 -174 235 -235q39 -10 185 -45q146 -34 248 -140q100 -106 100 -286t-137 -314t-355 -133q-218 0 -372 136q-156 136 -160 311l215 82
q-2 -146 91 -234t220 -88t205 66t78 174q0 178 -236 225q-84 18 -163 43q-164 49 -267 160q-102 112 -102 288t133 291t331 115t338 -122t140 -304z" />
    <glyph glyph-name="scaron" unicode="&#x161;" horiz-adv-x="829" 
d="M698 1292l-186 -217h-205l-186 217l121 111l168 -197l168 197zM420 -20q-145 0 -247 77q-101 78 -132 209l184 72q7 -78 63 -128t131 -50t115 34t39 82q0 84 -122 105q-41 8 -103 22q-127 33 -202 108q-74 75 -74 195t102 199q102 78 236 78t233 -80q100 -80 115 -207
h-205q0 45 -41 76t-102 31q-60 0 -102 -31t-42 -76q0 -86 123 -110l103 -21q128 -29 202 -101t74 -191q0 -121 -102 -207t-246 -86z" />
    <glyph glyph-name="Tcedilla" unicode="&#x162;" horiz-adv-x="1085" 
d="M519 -276q69 0 69 51t-72 51h-47v174h-35v1290h-414v205h1045v-205h-414v-1290h-30v-47q55 -8 100 -56t45 -133q0 -84 -71 -144t-181 -60t-197 69l84 142q49 -47 118 -47z" />
    <glyph glyph-name="tcedilla" unicode="&#x163;" 
d="M421 -276q69 0 68 51q0 51 -71 51h-47v197q-164 61 -164 264v491h-187v185h187v204l162 205h39v-409h206v-185h-206v-491q0 -45 28 -74t76 -29l123 21v-185l-113 -20v-47q54 -8 100 -56t46 -133q0 -84 -71 -144t-181 -60t-197 69l84 142q49 -47 118 -47z" />
    <glyph glyph-name="Tcaron" unicode="&#x164;" horiz-adv-x="1085" 
d="M846 1808l-213 -200h-180l-213 200l129 131l174 -167l174 167zM651 1290v-1290h-217v1290h-414v205h1045v-205h-414z" />
    <glyph glyph-name="tcaron" unicode="&#x165;" horiz-adv-x="765" 
d="M799 1556l-140 -432l-170 56l119 376h191zM20 778v185h187v204l162 205h39v-409h206v-185h-206v-491q0 -45 28 -74t76 -29l123 21v-185l-113 -20q-154 0 -234 74t-81 213v491h-187z" />
    <glyph glyph-name="Tbar" unicode="&#x166;" horiz-adv-x="1085" 
d="M651 1290v-450h283v-205h-283v-635h-217v635h-278v205h278v450h-414v205h1045v-205h-414z" />
    <glyph glyph-name="tbar" unicode="&#x167;" 
d="M20 778v185h187v204l162 205h39v-409h206v-185h-206v-143h206v-184h-206v-164q0 -45 28 -74t76 -29l123 21v-185l-113 -20q-154 0 -234 74t-81 213v164h-187v184h187v143h-187z" />
    <glyph glyph-name="Utilde" unicode="&#x168;" horiz-adv-x="1341" 
d="M827 1886q102 0 157 -68q54 -69 42 -190h-168q12 80 -43 80q-18 0 -100 -40t-161 -40t-130 56t-43 159l170 45q-10 -80 45 -80q26 0 100 39t131 39zM963 1495h215v-1495h-164l-31 82l-10 10l-10 -10q-45 -51 -147 -87t-191 -36q-213 0 -342 137t-129 355v1044h215v-1055
q1 -120 77 -198t207 -78t220 80t90 196v1055z" />
    <glyph glyph-name="utilde" unicode="&#x169;" horiz-adv-x="1064" 
d="M651 1331q101 0 149 -63t36 -183h-152q6 80 -41 80q-18 0 -89 -44q-72 -44 -148 -44q-76 -1 -123 55t-41 148l151 49q-2 -45 6 -64q21 -49 129 23q66 43 123 43zM942 0h-184l-21 82l-10 10l-10 -10q-31 -45 -97 -74t-128 -28q-180 0 -285 108q-104 109 -105 281v594h205
v-594q6 -205 205 -205q88 0 155 62t70 153v584h205v-963z" />
    <glyph glyph-name="Umacron" unicode="&#x16a;" horiz-adv-x="1341" 
d="M393 1669v164h553v-164h-553zM963 1495h215v-1495h-164l-31 82l-10 10l-10 -10q-45 -51 -147 -87t-191 -36q-213 0 -342 137t-129 355v1044h215v-1055q1 -120 77 -198t207 -78t220 80t90 196v1055z" />
    <glyph glyph-name="umacron" unicode="&#x16b;" horiz-adv-x="1064" 
d="M246 1116v154h553v-154h-553zM942 0h-184l-21 82l-10 10l-10 -10q-31 -45 -97 -74t-128 -28q-180 0 -285 108q-104 109 -105 281v594h205v-594q6 -205 205 -205q88 0 155 62t70 153v584h205v-963z" />
    <glyph glyph-name="Ubreve" unicode="&#x16c;" horiz-adv-x="1341" 
d="M674 1608q-129 0 -203 78t-74 174v14h174v-2q0 -39 26 -71t77 -32t77 32t25 71v2h174v-14q0 -96 -74 -174t-202 -78zM963 1495h215v-1495h-164l-31 82l-10 10l-10 -10q-45 -51 -147 -87t-191 -36q-213 0 -342 137t-129 355v1044h215v-1055q1 -120 77 -198t207 -78t220 80
t90 196v1055z" />
    <glyph glyph-name="ubreve" unicode="&#x16d;" horiz-adv-x="1064" 
d="M528 1071q-124 0 -200 74t-76 172v12h166v-4q0 -41 30 -73t80 -32q51 0 81 32t30 73v4h166v-12q0 -98 -76 -172t-201 -74zM942 0h-184l-21 82l-10 10l-10 -10q-31 -45 -97 -74t-128 -28q-180 0 -285 108q-104 109 -105 281v594h205v-594q6 -205 205 -205q88 0 155 62
t70 153v584h205v-963z" />
    <glyph glyph-name="Uring" unicode="&#x16e;" horiz-adv-x="1341" 
d="M598 1765q0 -39 25 -63t63 -25q38 0 64 25q24 26 24 64t-24 63q-25 25 -64 25q-40 0 -64 -26q-24 -24 -24 -63zM459 1765q0 96 66 160q67 63 161 63t161 -62q67 -64 67 -160t-68 -160q-66 -64 -160 -64t-160 64t-67 159zM963 440v1055h215v-1495h-164l-31 82l-10 10
l-10 -10q-45 -51 -147 -87t-191 -36q-213 0 -342 137t-129 355v1044h215v-1055q1 -120 77 -198t207 -78t221 80t89 196z" />
    <glyph glyph-name="uring" unicode="&#x16f;" horiz-adv-x="1064" 
d="M432 1260q0 -39 26 -66t66 -27t67 27q26 27 25 66q0 40 -26 66t-66 26t-66 -26t-26 -66zM299 1260q0 94 66 156q65 62 159 62t160 -62t66 -156t-66 -156t-160 -64q-94 0 -160 63t-65 157zM942 963v-963h-184l-21 82l-10 10l-10 -10q-31 -45 -97 -74t-128 -28
q-180 0 -285 108q-104 109 -105 281v594h205v-594q6 -205 205 -205q88 0 155 62t70 153v584h205z" />
    <glyph glyph-name="Uhungarumlaut" unicode="&#x170;" horiz-adv-x="1341" 
d="M973 1952l141 -117l-203 -229h-211zM602 1944l160 -97l-156 -241h-196zM963 1495h215v-1495h-164l-31 82l-10 10l-10 -10q-45 -51 -147 -87t-191 -36q-213 0 -342 137t-129 355v1044h215v-1055q1 -120 77 -198t207 -78t220 80t90 196v1055z" />
    <glyph glyph-name="uhungarumlaut" unicode="&#x171;" horiz-adv-x="1064" 
d="M780 1421l144 -102l-183 -264h-198zM440 1425l166 -79l-153 -291h-191zM942 0h-184l-21 82l-10 10l-10 -10q-31 -45 -97 -74t-128 -28q-180 0 -285 108q-104 109 -105 281v594h205v-594q6 -205 205 -205q88 0 155 62t70 153v584h205v-963z" />
    <glyph glyph-name="Uogonek" unicode="&#x172;" horiz-adv-x="1341" 
d="M1178 1495v-1495l-58 -117q-10 -20 -10 -51q0 -30 29 -52t67 -22h45l-45 -168h-10q-127 0 -204 52t-77 138q0 85 99 220l-31 82l-10 10l-10 -10q-45 -51 -147 -87t-191 -36q-213 0 -342 137t-129 355v1044h215v-1055q1 -120 77 -198t207 -78t220 80t90 196v1055h215z" />
    <glyph glyph-name="uogonek" unicode="&#x173;" horiz-adv-x="1064" 
d="M942 963v-963l-57 -117q-11 -20 -11 -51q0 -30 29 -52t68 -22h45l-45 -168h-10q-127 0 -204 52t-77 138q0 85 98 220h-20l-21 82l-10 10l-10 -10q-31 -45 -97 -74t-128 -28q-180 0 -285 108q-104 109 -105 281v594h205v-594q6 -205 205 -205q88 0 155 62t70 153v584h205z
" />
    <glyph glyph-name="Wcircumflex" unicode="&#x174;" horiz-adv-x="1783" 
d="M981 1939l213 -200l-129 -131l-174 168l-174 -168l-129 131l213 200h180zM778 1188h228l274 -815l244 1122h217l-328 -1495h-215l-307 866l-307 -866h-215l-328 1495h217l244 -1124z" />
    <glyph glyph-name="wcircumflex" unicode="&#x175;" horiz-adv-x="1351" 
d="M778 1403l187 -217l-121 -111l-168 197l-168 -197l-121 111l186 217h205zM389 276l184 543h205l185 -543l165 687h203l-266 -963h-195l-194 555l-195 -555h-194l-267 963h203z" />
    <glyph glyph-name="Ycircumflex" unicode="&#x176;" horiz-adv-x="1126" 
d="M653 1939l213 -200l-129 -131l-174 168l-174 -168l-129 131l213 200h180zM672 0h-217v737l-435 758h236l307 -534l305 534h238l-434 -758v-737z" />
    <glyph glyph-name="ycircumflex" unicode="&#x177;" horiz-adv-x="880" 
d="M543 1403l186 -217l-121 -111l-168 197l-168 -197l-120 111l186 217h205zM440 385l215 578h205l-512 -1373h-205l201 537l-324 836h207z" />
    <glyph glyph-name="Ydieresis" unicode="&#x178;" horiz-adv-x="1126" 
d="M625 1632v226h225v-226h-225zM276 1632v226h224v-226h-224zM672 0h-217v737l-435 758h236l307 -534l305 534h238l-434 -758v-737z" />
    <glyph glyph-name="Zacute" unicode="&#x179;" horiz-adv-x="1146" 
d="M735 1946l137 -129l-196 -209h-236zM102 1495h983v-205l-784 -1085h764v-205h-1004v205l785 1085h-744v205z" />
    <glyph glyph-name="zacute" unicode="&#x17a;" horiz-adv-x="942" 
d="M627 1464l147 -106l-203 -283h-200zM92 963h768v-185l-549 -594h539v-184h-768v184l543 594h-533v185z" />
    <glyph glyph-name="Zdotaccent" unicode="&#x17b;" horiz-adv-x="1146" 
d="M485 1632v226h226v-226h-226zM102 1495h983v-205l-784 -1085h764v-205h-1004v205l785 1085h-744v205z" />
    <glyph glyph-name="zdotaccent" unicode="&#x17c;" horiz-adv-x="942" 
d="M403 1116v225h205v-225h-205zM92 963h768v-185l-549 -594h539v-184h-768v184l543 594h-533v185z" />
    <glyph glyph-name="Zcaron" unicode="&#x17d;" horiz-adv-x="1146" 
d="M903 1808l-213 -200h-180l-213 200l129 131l174 -167l174 167zM102 1290v205h983v-205l-784 -1085h764v-205h-1004v205l785 1085h-744z" />
    <glyph glyph-name="zcaron" unicode="&#x17e;" horiz-adv-x="942" 
d="M801 1292l-187 -217h-204l-187 217l121 111l168 -197l168 197zM92 778v185h768v-185l-549 -594h539v-184h-768v184l543 594h-533z" />
    <glyph glyph-name="florin" unicode="&#x192;" horiz-adv-x="737" 
d="M471 778v-758q0 -141 -79 -224t-228 -83l-144 21v184l154 -20q92 0 92 102v778h-246v185h246v286q0 141 79 225t228 82l144 -20v-184l-154 20q-92 0 -92 -102v-307h246v-185h-246z" />
    <glyph glyph-name="Aringacute" unicode="&#x1fa;" horiz-adv-x="1331" 
d="M573 1772q0 -39 27 -66t66 -27q40 0 66 27t26 66q0 40 -27 66t-65 26t-66 -26q-27 -26 -27 -66zM440 1772q0 94 66 156t160 62t160 -62t65 -156q0 -94 -66 -156q-65 -62 -159 -64q-94 0 -160 63t-66 157zM457 594h415l-206 614zM553 1495h225l512 -1495h-215l-133 389
h-555l-131 -389h-215zM791 2359l147 -106l-154 -209h-200z" />
    <glyph glyph-name="aringacute" unicode="&#x1fb;" horiz-adv-x="1167" 
d="M739 1921l148 -106l-203 -283h-201zM481 1260q0 -39 26 -66q27 -27 67 -27t66 27t26 66q0 40 -26 66t-67 26t-67 -26t-25 -66zM348 1260q0 94 66 156t160 62t159 -62q66 -62 66 -156t-66 -156t-160 -64q-93 0 -159 63t-66 157zM860 481q0 133 -84 225t-219 93
q-135 0 -214 -90q-79 -89 -79 -227t79 -228t214 -90t219 92t84 225zM537 983q189 0 292 -113l11 11l20 82h184v-963h-184l-20 82l-11 10q-112 -112 -276 -112q-205 0 -348 141t-144 360t143 361t333 141z" />
    <glyph glyph-name="AEacute" unicode="&#x1fc;" horiz-adv-x="1638" 
d="M1145 1946l137 -129l-197 -209h-235zM436 614h336l-168 574zM1536 1495v-205h-758l129 -430h609v-205h-547l137 -450h430v-205h-584l-121 410h-456l-119 -410h-215l451 1495h1044z" />
    <glyph glyph-name="aeacute" unicode="&#x1fd;" horiz-adv-x="1742" 
d="M1071 1464l148 -106l-203 -283h-201zM1260 799q-197 0 -256 -189h483q1 80 -67 134t-160 55zM819 481q0 135 -75 227q-76 92 -208 91q-132 0 -202 -89q-70 -88 -70 -228t70 -229t203 -89t207 91t75 226zM532 983q153 0 256 -113l11 11l20 82h185v-93l20 21q80 92 252 92
t302 -135t122 -356l-21 -62h-675v-10q4 -112 70 -184t186 -72q176 0 229 143l170 -82q-141 -246 -399 -245q-145 0 -236 92l-20 20v-92h-185l-20 82l-11 10q-112 -112 -256 -112q-202 0 -336 140t-135 361q1 221 135 361t336 141z" />
    <glyph glyph-name="Oslashacute" unicode="&#x1fe;" horiz-adv-x="1740" 
d="M1053 1946l137 -129l-197 -209h-235zM870 164q252 0 412 164t160 417q0 195 -101 347l-813 -826q147 -102 342 -102zM297 745q0 -195 100 -344l813 826q-143 104 -340 104q-252 0 -412 -165t-161 -421zM82 748q0 328 230 558t558 230q268 0 482 -164l123 123h266
l-254 -256q172 -215 172 -491q-1 -328 -231 -558t-558 -231q-270 0 -483 164l-121 -123h-266l252 256q-170 213 -170 492z" />
    <glyph glyph-name="oslashacute" unicode="&#x1ff;" horiz-adv-x="1126" 
d="M717 1464l147 -106l-202 -283h-201zM262 481q0 -88 35 -164l418 447q-66 39 -152 39q-141 -1 -221 -93t-80 -229zM563 160q141 0 221 92t80 229q0 92 -37 162l-417 -446q69 -37 153 -37zM1065 481q0 -215 -152 -358t-350 -143q-150 0 -278 83l-60 -63h-225l164 174
q-102 133 -103 307q0 215 152 359t350 143q150 0 277 -86l61 66h225l-163 -177q102 -133 102 -305z" />
    <glyph glyph-name="Scommaaccent" unicode="&#x218;" horiz-adv-x="1208" 
d="M727 -84l-129 -387l-176 57l108 330h197zM1065 1106h-225q0 92 -75 159t-185 67t-176 -61q-67 -60 -66 -155q0 -174 235 -235q39 -10 185 -45q146 -34 248 -140q100 -106 100 -286t-137 -314t-355 -133q-218 0 -372 136q-156 136 -160 311l215 82q-2 -146 91 -234
t220 -88t205 66t78 174q0 178 -236 225q-84 18 -163 43q-164 49 -267 160q-102 112 -102 288t133 291t331 115t338 -122t140 -304z" />
    <glyph glyph-name="scommaaccent" unicode="&#x219;" horiz-adv-x="829" 
d="M541 -84l-129 -387l-176 57l108 330h197zM420 -20q-145 0 -247 77q-101 78 -132 209l184 72q7 -78 63 -128t131 -50t115 34t39 82q0 84 -122 105q-41 8 -103 22q-127 33 -202 108q-74 75 -74 195t102 199q102 78 236 78t233 -80q100 -80 115 -207h-205q0 45 -41 76
t-102 31q-60 0 -102 -31t-42 -76q0 -86 123 -110l103 -21q128 -29 202 -101t74 -191q0 -121 -102 -207t-246 -86z" />
    <glyph glyph-name="Tcommaaccent" unicode="&#x21a;" horiz-adv-x="1085" 
d="M647 -84l-129 -387l-176 57l109 330h196zM651 1290v-1290h-217v1290h-414v205h1045v-205h-414z" />
    <glyph glyph-name="tcommaaccent" unicode="&#x21b;" 
d="M545 -84l-129 -387l-176 57l108 330h197zM20 778v185h187v204l162 205h39v-409h206v-185h-206v-491q0 -45 28 -74t76 -29l123 21v-185l-113 -20q-154 0 -234 74t-81 213v491h-187z" />
    <glyph glyph-name="circumflex" unicode="&#x2c6;" horiz-adv-x="675" 
d="M440 1403l187 -217l-121 -111l-168 197l-168 -197l-121 111l187 217h204z" />
    <glyph glyph-name="caron" unicode="&#x2c7;" horiz-adv-x="675" 
d="M627 1292l-187 -217h-204l-187 217l121 111l168 -197l168 197z" />
    <glyph glyph-name="breve" unicode="&#x2d8;" horiz-adv-x="675" 
d="M338 1071q-125 0 -201 74t-76 172v12h166v-4q0 -41 30 -73t81 -32t81 32t30 73v4h165v-12q0 -98 -76 -172t-200 -74z" />
    <glyph glyph-name="dotaccent" unicode="&#x2d9;" horiz-adv-x="675" 
d="M236 1116v225h204v-225h-204z" />
    <glyph glyph-name="ring" unicode="&#x2da;" horiz-adv-x="675" 
d="M246 1260q0 -39 26 -66t66 -27t66 27t26 66q0 40 -27 66t-65 26t-66 -26q-26 -26 -26 -66zM113 1260q0 94 65 156q66 62 160 62t160 -62t66 -156t-66 -157t-160 -63t-160 63q-65 63 -65 157z" />
    <glyph glyph-name="ogonek" unicode="&#x2db;" horiz-adv-x="675" 
d="M381 -168q0 -30 29 -52t67 -22h45l-45 -168h-10q-127 0 -204 52t-77 138q0 85 99 220h164l-58 -117q-10 -20 -10 -51z" />
    <glyph glyph-name="tilde" unicode="&#x2dc;" 
d="M459 1331q100 0 148 -63t36 -183h-151q6 80 -41 80q-17 0 -89 -44t-148 -44q-76 -1 -124 55q-47 56 -41 148l152 49q-2 -45 6 -64q21 -49 129 23q66 43 123 43z" />
    <glyph glyph-name="hungarumlaut" unicode="&#x2dd;" horiz-adv-x="675" 
d="M559 1421l143 -102l-182 -264h-198zM219 1425l166 -79l-154 -291h-190z" />
    <glyph glyph-name="Delta" unicode="&#x394;" horiz-adv-x="921" 
d="M758 143l-297 1133l-297 -1133h594zM901 0h-881v143l369 1352h143l369 -1352v-143z" />
    <glyph glyph-name="Delta" unicode="&#x2206;" horiz-adv-x="921" 
d="M758 143l-297 1133l-297 -1133h594zM901 0h-881v143l369 1352h143l369 -1352v-143z" />
    <glyph glyph-name="Omega" unicode="&#x3a9;" horiz-adv-x="1126" 
d="M564 1495q210 0 350 -152t153 -401q10 -292 -98 -469q-88 -145 -234 -199v-135h248v-139h-389v389q131 0 225 113t105 317q2 61 0 123q-8 198 -106 306t-254 108q-157 0 -254 -109q-124 -139 -105 -428q10 -205 103 -317t224 -113v-389h-389v139h248v135
q-143 52 -231 198t-99 347q-21 337 153 525q140 152 350 151z" />
    <glyph glyph-name="Omega" unicode="&#x2126;" horiz-adv-x="1126" 
d="M564 1495q210 0 350 -152t153 -401q10 -292 -98 -469q-88 -145 -234 -199v-135h248v-139h-389v389q131 0 225 113t105 317q2 61 0 123q-8 198 -106 306t-254 108q-157 0 -254 -109q-124 -139 -105 -428q10 -205 103 -317t224 -113v-389h-389v139h248v135
q-143 52 -231 198t-99 347q-21 337 153 525q140 152 350 151z" />
    <glyph glyph-name="pi" unicode="&#x3c0;" horiz-adv-x="921" 
d="M901 963v-144h-82l-82 -604q-5 -33 13 -52t49 -20h20v-143h-20q-100 0 -160 58q-59 58 -45 167l82 594h-371v-819h-141v819h-123l20 144h840z" />
    <glyph glyph-name="afii10023" unicode="&#x401;" horiz-adv-x="1167" 
d="M684 1632v226h225v-226h-225zM336 1632v226h223v-226h-223zM164 1495h901v-205h-686v-430h665v-205h-665v-450h686v-205h-901v1495z" />
    <glyph glyph-name="afii10051" unicode="&#x402;" horiz-adv-x="1249" 
d="M1004 635q0 164 -154 164q-76 -1 -134 -61t-65 -148v-590h-217v1290h-414v205h1045v-205h-414v-409l11 -13q106 115 246 115t220 -86t80 -252v-358q0 -141 -78 -219t-229 -78l-102 20v205l112 -20q92 0 93 92v348z" />
    <glyph glyph-name="afii10052" unicode="&#x403;" horiz-adv-x="1126" 
d="M813 1946l137 -129l-196 -209h-236zM164 1495h942v-205h-727v-1290h-215v1495z" />
    <glyph glyph-name="afii10053" unicode="&#x404;" horiz-adv-x="1515" 
d="M1167 860v-205h-864q27 -221 173 -356t384 -135q289 0 451 225l143 -143q-106 -137 -264 -212t-330 -75q-336 0 -557 227t-221 559q0 331 220 561t548 230q172 0 330 -75t264 -212l-144 -143q-162 227 -440 227q-224 0 -372 -131t-181 -342h860z" />
    <glyph glyph-name="afii10054" unicode="&#x405;" horiz-adv-x="1208" 
d="M1065 1106h-225q0 92 -75 159t-185 67t-176 -61q-67 -60 -66 -155q0 -174 235 -235q39 -10 185 -45q146 -34 248 -140q100 -106 100 -286t-137 -314t-355 -133q-218 0 -372 136q-156 136 -160 311l215 82q-2 -146 91 -234t220 -88t205 66t78 174q0 178 -236 225
q-84 18 -163 43q-164 49 -267 160q-102 112 -102 288t133 291t331 115t338 -122t140 -304z" />
    <glyph glyph-name="afii10055" unicode="&#x406;" horiz-adv-x="593" 
d="M154 0v205h34v1085h-34v205h286v-205h-34v-1085h34v-205h-286z" />
    <glyph glyph-name="afii10056" unicode="&#x407;" horiz-adv-x="593" 
d="M358 1632v226h226v-226h-226zM10 1632v226h223v-226h-223zM154 205h34v1085h-34v205h286v-205h-34v-1085h34v-205h-286v205z" />
    <glyph glyph-name="afii10057" unicode="&#x408;" horiz-adv-x="573" 
d="M61 0h41q41 0 67 23t26 59v1413h215v-1393q0 -139 -84 -223t-224 -84l-41 21v184z" />
    <glyph glyph-name="afii10058" unicode="&#x409;" horiz-adv-x="1679" 
d="M973 205h215q98 0 167 58t68 167q0 109 -68 167q-69 58 -167 58h-215v-450zM225 348v1147h748v-635h205q196 0 328 -121t132 -309t-133 -309t-327 -121h-420v1290h-318v-940q0 -154 -101 -262t-278 -108l-41 20v184h41q78 0 121 43t43 121z" />
    <glyph glyph-name="afii10059" unicode="&#x40a;" horiz-adv-x="1679" 
d="M973 205h215q98 0 167 58t68 167q0 109 -68 167q-69 58 -167 58h-215v-450zM129 0v205h35v1085h-35v205h287v-205h-37v-430h379v635h215v-635h205q196 0 328 -121t132 -309t-133 -309t-327 -121h-420v655h-379v-450h37v-205h-287z" />
    <glyph glyph-name="afii10060" unicode="&#x40b;" horiz-adv-x="1310" 
d="M1004 635q0 164 -154 164q-76 -1 -134 -61t-65 -148v-590h-217v1290h-414v205h1045v-205h-414v-409l11 -13q106 115 246 115t220 -86t80 -252v-645h-204v635z" />
    <glyph glyph-name="afii10061" unicode="&#x40c;" horiz-adv-x="1208" 
d="M813 1946l137 -129l-196 -209h-236zM379 0h-215v1495h215v-614l553 614h256l-645 -735l665 -760h-274l-555 635v-635z" />
    <glyph glyph-name="afii10062" unicode="&#x40e;" horiz-adv-x="1146" 
d="M596 1608q-129 0 -203 78t-74 174v14h175v-2q0 -39 26 -71t76 -32q51 0 77 32t25 71v2h174v-14q0 -96 -74 -174t-202 -78zM41 1495h235l304 -696l311 696h235l-675 -1495h-230l244 545z" />
    <glyph glyph-name="afii10145" unicode="&#x40f;" horiz-adv-x="1372" 
d="M164 0v1495h215v-1290h614v1290h215v-1495h-415v-307h-215v307h-414z" />
    <glyph glyph-name="afii10017" unicode="&#x410;" horiz-adv-x="1331" 
d="M666 1208l-209 -614h415zM41 0l512 1495h225l512 -1495h-215l-133 389h-555l-131 -389h-215z" />
    <glyph glyph-name="afii10018" unicode="&#x411;" horiz-adv-x="1269" 
d="M379 205h358q98 0 167 58t69 167t-69 167t-167 58h-358v-450zM164 0v1495h942v-205h-727v-430h348q201 0 331 -120t130 -310t-130 -310t-331 -120h-563z" />
    <glyph glyph-name="afii10019" unicode="&#x412;" horiz-adv-x="1290" 
d="M379 860h328q102 0 174 53t71 162q0 109 -71 162q-72 53 -174 53h-328v-430zM379 205h348q98 0 172 61t74 170t-72 164t-174 55h-348v-450zM164 0v1495h532q203 0 337 -114t134 -296q0 -100 -49 -184t-133 -135q203 -104 203 -346q0 -188 -134 -304t-337 -116h-553z" />
    <glyph glyph-name="afii10020" unicode="&#x413;" horiz-adv-x="1126" 
d="M164 0v1495h942v-205h-727v-1290h-215z" />
    <glyph glyph-name="afii10021" unicode="&#x414;" horiz-adv-x="1433" 
d="M1014 205v1085h-522v-880q0 -119 -80 -205h602zM287 389v1106h942v-1290h164v-512h-215v307h-942v-307h-216v512h99q78 4 123 51t45 133z" />
    <glyph glyph-name="afii10022" unicode="&#x415;" horiz-adv-x="1167" 
d="M164 0v1495h901v-205h-686v-430h665v-205h-665v-450h686v-205h-901z" />
    <glyph glyph-name="afii10024" unicode="&#x416;" horiz-adv-x="1863" 
d="M825 1495h215v-614l527 614h256l-625 -737l645 -758h-274l-529 635v-635h-215v635l-530 -635h-275l646 758l-625 737h256l528 -614v614z" />
    <glyph glyph-name="afii10025" unicode="&#x417;" horiz-adv-x="1228" 
d="M367 655v205h227q110 0 188 65t78 175t-83 171q-83 60 -193 60t-194 -52q-83 -52 -83 -153h-215q0 170 142 290t346 120t349 -122q146 -122 146 -318t-186 -324q238 -109 237 -362q0 -199 -150 -325t-370 -126q-219 0 -366 113t-179 297l215 61q8 -122 96 -194t222 -72
q133 0 225 66t92 189q0 122 -84 179t-213 57h-247z" />
    <glyph glyph-name="afii10026" unicode="&#x418;" horiz-adv-x="1413" 
d="M377 1495v-1106l637 1106h235v-1495h-213v1126l-637 -1126h-235v1495h213z" />
    <glyph glyph-name="afii10027" unicode="&#x419;" horiz-adv-x="1413" 
d="M721 1608q-129 0 -203 78t-74 174v14h174v-2q0 -39 26 -71t77 -32t77 32t25 71v2h174v-14q1 -96 -73 -174t-203 -78zM377 1495v-1106l637 1106h235v-1495h-213v1126l-637 -1126h-235v1495h213z" />
    <glyph glyph-name="afii10028" unicode="&#x41a;" horiz-adv-x="1208" 
d="M379 0h-215v1495h215v-614l553 614h256l-645 -735l665 -760h-274l-555 635v-635z" />
    <glyph glyph-name="afii10029" unicode="&#x41b;" horiz-adv-x="1372" 
d="M225 348v1147h963v-1495h-215v1290h-533v-940q0 -154 -101 -262t-278 -108l-41 20v184h41q78 0 121 43t43 121z" />
    <glyph glyph-name="afii10030" unicode="&#x41c;" horiz-adv-x="1843" 
d="M1679 1495v-1495h-213v1206l-422 -878h-245l-422 878v-1206h-213v1495h307l451 -954l450 954h307z" />
    <glyph glyph-name="afii10031" unicode="&#x41d;" horiz-adv-x="1331" 
d="M952 860v635h215v-1495h-215v655h-573v-655h-215v1495h215v-635h573z" />
    <glyph glyph-name="afii10032" unicode="&#x41e;" horiz-adv-x="1740" 
d="M870 1331q-252 0 -412 -165t-161 -420q0 -254 161 -418q160 -164 412 -164t412 164t160 418t-160 420q-160 165 -412 165zM82 748q0 328 230 558t558 230t558 -230t230 -558t-230 -558t-558 -231q-328 1 -558 231t-230 558z" />
    <glyph glyph-name="afii10033" unicode="&#x41f;" horiz-adv-x="1331" 
d="M164 0v1495h1003v-1495h-215v1290h-573v-1290h-215z" />
    <glyph glyph-name="afii10034" unicode="&#x420;" horiz-adv-x="1208" 
d="M379 840h338q98 0 167 58t68 167q0 109 -68 167q-69 58 -167 58h-338v-450zM164 0v1495h543q201 0 331 -120t129 -310q0 -190 -130 -310t-330 -120h-328v-635h-215z" />
    <glyph glyph-name="afii10035" unicode="&#x421;" horiz-adv-x="1515" 
d="M82 745q0 331 220 561t548 230q172 0 330 -75t264 -212l-144 -143q-162 227 -429 227t-419 -166q-152 -165 -153 -419q0 -254 155 -420t425 -166t432 227l143 -143q-106 -137 -264 -212t-330 -75q-336 0 -557 227t-221 559z" />
    <glyph glyph-name="afii10036" unicode="&#x422;" horiz-adv-x="1085" 
d="M20 1290v205h1045v-205h-414v-1290h-217v1290h-414z" />
    <glyph glyph-name="afii10037" unicode="&#x423;" horiz-adv-x="1126" 
d="M41 1495h235l304 -696l311 696h235l-675 -1495h-230l244 545z" />
    <glyph glyph-name="afii10038" unicode="&#x424;" horiz-adv-x="1658" 
d="M256 768q0 -127 89 -214t239 -87h139v602h-139q-150 0 -239 -87t-89 -214zM936 467h139q150 0 239 87t89 214t-89 214t-239 87h-139v-602zM723 1270v225h213v-225h129q245 0 399 -142t154 -360q0 -217 -155 -359t-398 -143h-129v-266h-213v266h-129q-244 0 -398 142
t-155 360q0 217 155 359t398 143h129z" />
    <glyph glyph-name="afii10039" unicode="&#x425;" horiz-adv-x="1187" 
d="M41 1495h235l316 -532l317 532h238l-436 -731l456 -764h-237l-336 565l-336 -565h-238l455 764z" />
    <glyph glyph-name="afii10040" unicode="&#x426;" horiz-adv-x="1413" 
d="M164 0v1495h215v-1290h614v1290h215v-1290h164v-512h-215v307h-993z" />
    <glyph glyph-name="afii10041" unicode="&#x427;" horiz-adv-x="1290" 
d="M911 1034v461h215v-1495h-215v676l-10 10l-10 -10q-47 -55 -127 -89t-170 -34q-211 0 -331 136t-120 355v451h215v-461q0 -124 62 -200t193 -76q130 0 214 80t84 196z" />
    <glyph glyph-name="afii10042" unicode="&#x428;" horiz-adv-x="2045" 
d="M915 205v1290h215v-1290h539v1290h215v-1495h-1720v1495h215v-1290h536z" />
    <glyph glyph-name="afii10043" unicode="&#x429;" horiz-adv-x="2088" 
d="M379 1495v-1290h536v1290h215v-1290h539v1290h215v-1290h164v-512h-215v307h-1669v1495h215z" />
    <glyph glyph-name="afii10044" unicode="&#x42a;" horiz-adv-x="1413" 
d="M522 205h379q98 0 167 58t69 167t-69 167t-167 58h-379v-450zM20 1290v205h502v-635h369q201 0 331 -120t130 -310t-130 -310t-331 -120h-584v1290h-287z" />
    <glyph glyph-name="afii10045" unicode="&#x42b;" horiz-adv-x="1765" 
d="M379 205h379q98 0 167 58t68 167q0 109 -68 167q-69 58 -167 58h-379v-450zM1346 0v205h34v1085h-34v205h286v-205h-35v-1085h35v-205h-286zM164 0v1495h215v-635h369q200 0 330 -120t130 -310t-130 -310t-330 -120h-584z" />
    <glyph glyph-name="afii10046" unicode="&#x42c;" horiz-adv-x="1269" 
d="M379 205h379q98 0 167 58t68 167q0 109 -68 167q-69 58 -167 58h-379v-450zM164 0v1495h215v-635h369q200 0 330 -120t130 -310t-130 -310t-330 -120h-584z" />
    <glyph glyph-name="afii10047" unicode="&#x42d;" horiz-adv-x="1515" 
d="M348 655v205h858q-33 211 -179 341t-372 130q-279 0 -440 -225l-143 143q106 137 264 212t330 75q328 0 548 -229t220 -561t-222 -560q-222 -227 -557 -227q-171 0 -329 75t-265 212l144 143q162 -225 450 -225q236 0 382 135t173 356h-862z" />
    <glyph glyph-name="afii10048" unicode="&#x42e;" horiz-adv-x="2119" 
d="M1309 1331q-231 0 -371 -169t-141 -416q0 -246 140 -414q139 -168 371 -168t372 168t140 414t-140 416q-140 169 -371 169zM129 0v205h35v1085h-35v205h287v-205h-37v-430h209q35 293 235 485q201 191 500 191t507 -228t208 -560t-208 -560t-509 -229q-301 0 -503 198
t-232 498h-207v-450h37v-205h-287z" />
    <glyph glyph-name="afii10049" unicode="&#x42f;" horiz-adv-x="1249" 
d="M543 860h327v430h-327q-96 0 -166 -59t-70 -155t70 -156t166 -60zM92 1078q0 190 134 304t327 113h532v-1495h-215v655h-41l-524 -655h-244v41l506 614q-193 0 -334 117q-141 116 -141 306z" />
    <glyph glyph-name="afii10065" unicode="&#x430;" horiz-adv-x="1167" 
d="M860 481q0 133 -84 225t-219 93q-135 0 -214 -90q-79 -89 -79 -227t79 -228t214 -90t219 92t84 225zM537 983q189 0 292 -113l11 11l20 82h184v-963h-184l-20 82l-11 10q-112 -112 -276 -112q-205 0 -348 141t-144 360t143 361t333 141z" />
    <glyph glyph-name="afii10066" unicode="&#x431;" horiz-adv-x="1146" 
d="M584 799q-135 1 -216 -91t-81 -228t86 -226t216 -90t212 91t82 226t-82 227t-217 91zM901 1538v18h164l20 -20q12 -106 -43 -166q-95 -105 -452 -211q-154 -45 -232 -130t-71 -179l10 -10l10 10q45 55 120 94t167 39q205 0 348 -141q143 -140 143 -358q1 -218 -151 -361
t-350 -143t-338 138q-139 138 -156 353q-32 431 99 620q67 95 147 149t196 94t267 100q102 41 102 104z" />
    <glyph glyph-name="afii10067" unicode="&#x432;" horiz-adv-x="983" 
d="M324 573h219q57 0 95 26t38 78t-36 81t-97 28h-219v-213zM324 176h239q59 0 96 32t37 79q0 113 -133 112h-239v-223zM123 0v963h409q166 0 258 -76t91 -199q0 -123 -115 -196q135 -74 135 -205t-95 -209t-263 -78h-420z" />
    <glyph glyph-name="afii10068" unicode="&#x433;" horiz-adv-x="839" 
d="M123 0v963h696v-185h-491v-778h-205z" />
    <glyph glyph-name="afii10069" unicode="&#x434;" horiz-adv-x="1126" 
d="M758 184v594h-348v-430q0 -105 -74 -164h422zM20 -246v430h64q55 4 88 41t33 103v635h758v-779h122v-430h-204v246h-656v-246h-205z" />
    <glyph glyph-name="afii10070" unicode="&#x435;" horiz-adv-x="1034" 
d="M532 799q-201 0 -256 -189h492q-8 80 -76 134t-160 55zM266 430q0 -114 75 -190t202 -76q88 0 150 40t87 103l172 -82q-141 -246 -420 -245q-198 0 -334 141t-136 361t134 360t329 141q195 0 327 -137t131 -354l-20 -62h-697z" />
    <glyph glyph-name="afii10072" unicode="&#x436;" horiz-adv-x="1515" 
d="M860 0h-205v410l-368 -410h-256l450 494l-440 469h266l348 -390v390h205v-390l348 390h267l-441 -469l451 -494h-256l-369 410v-410z" />
    <glyph glyph-name="afii10073" unicode="&#x437;" horiz-adv-x="862" 
d="M289 399v181h143q74 0 114 30t40 77q0 48 -42 81t-122 33t-128 -32t-48 -73h-193q0 111 110 199q109 88 261 88t254 -82t102 -208t-118 -204q139 -74 139 -205q1 -132 -101 -218t-262 -86t-262 75q-100 76 -135 191l186 61q9 -59 59 -102t139 -43t135 37t46 89t-49 82
t-135 29h-133z" />
    <glyph glyph-name="afii10074" unicode="&#x438;" horiz-adv-x="1064" 
d="M123 0v963h201v-656l383 656h235v-963h-201v655l-383 -655h-235z" />
    <glyph glyph-name="afii10075" unicode="&#x439;" horiz-adv-x="1064" 
d="M549 1071q-125 0 -201 74t-76 172v12h166v-4q0 -41 30 -73t81 -32t81 32t29 73v4h166v-12q1 -98 -75 -172t-201 -74zM123 963h201v-656l383 656h235v-963h-201v655l-383 -655h-235v963z" />
    <glyph glyph-name="afii10076" unicode="&#x43a;" horiz-adv-x="983" 
d="M328 0h-205v963h205v-390l389 390h266l-463 -463l484 -500h-267l-409 410v-410z" />
    <glyph glyph-name="afii10077" unicode="&#x43b;" horiz-adv-x="1044" 
d="M164 266v697h758v-963h-205v778h-348v-502q0 -152 -85 -234t-233 -83l-31 21v184h41q45 0 74 28t29 74z" />
    <glyph glyph-name="afii10078" unicode="&#x43c;" horiz-adv-x="1249" 
d="M1126 963v-963h-184v635l-225 -533h-185l-225 533v-635h-184v963h235l267 -627l266 627h235z" />
    <glyph glyph-name="afii10079" unicode="&#x43d;" horiz-adv-x="1064" 
d="M123 0v963h205v-369h409v369h205v-963h-205v410h-409v-410h-205z" />
    <glyph glyph-name="afii10080" unicode="&#x43e;" horiz-adv-x="1126" 
d="M266 481q0 -137 78 -227t219 -90t219 90t78 227t-78 227t-219 91q-141 -1 -219 -91t-78 -227zM61 481q1 217 149 359t353 143q205 0 353 -142q148 -141 148 -359t-148 -360t-353 -142t-353 142t-149 359z" />
    <glyph glyph-name="afii10081" unicode="&#x43f;" horiz-adv-x="1064" 
d="M123 0v963h819v-963h-205v778h-409v-778h-205z" />
    <glyph glyph-name="afii10082" unicode="&#x440;" horiz-adv-x="1167" 
d="M307 481q0 -133 84 -225t219 -92t213 90t78 227t-78 227t-213 91q-135 -1 -219 -93t-84 -225zM614 -20q-164 0 -276 112l-12 -10v-516h-203v1397h184l19 -82l12 -11q103 113 292 113q188 0 332 -141q144 -140 144 -360t-143 -361t-349 -141z" />
    <glyph glyph-name="afii10083" unicode="&#x441;" horiz-adv-x="1024" 
d="M262 481q0 -137 80 -227t221 -90q88 0 156 49t94 115l170 -103q-61 -111 -175 -179t-255 -66q-199 0 -345 142t-147 359q1 217 147 359t345 143q141 0 254 -68t174 -178l-170 -102q-27 68 -94 116q-68 48 -154 48q-141 -1 -221 -91t-80 -227z" />
    <glyph glyph-name="afii10084" unicode="&#x442;" horiz-adv-x="901" 
d="M41 778v185h819v-185h-307v-778h-205v778h-307z" />
    <glyph glyph-name="afii10085" unicode="&#x443;" horiz-adv-x="880" 
d="M440 385l215 578h205l-512 -1373h-205l201 537l-324 836h207z" />
    <glyph glyph-name="afii10086" unicode="&#x444;" horiz-adv-x="1433" 
d="M819 184h10q156 0 237 81t81 216t-81 216t-237 81h-10v-594zM287 481q0 -135 81 -216t236 -81h10v594h-10q-156 0 -236 -81t-81 -216zM819 0v-434h-205v434q-240 0 -386 138t-146 343t146 343t386 139v593h205v-593q240 -1 386 -139q147 -138 147 -343t-146 -343
t-387 -138z" />
    <glyph glyph-name="afii10087" unicode="&#x445;" horiz-adv-x="880" 
d="M440 668l195 295h225l-307 -467l328 -496h-226l-215 326l-215 -326h-225l328 496l-308 467h226z" />
    <glyph glyph-name="afii10088" unicode="&#x446;" horiz-adv-x="1085" 
d="M123 0v963h205v-779h409v779h205v-779h123v-430h-205v246h-737z" />
    <glyph glyph-name="afii10089" unicode="&#x447;" horiz-adv-x="983" 
d="M881 963v-963h-205v369l-10 10l-11 -10q-86 -102 -225 -103q-172 0 -270 108t-99 281v308h205v-287q0 -106 51 -166t143 -59q92 0 152 58q61 58 64 146v308h205z" />
    <glyph glyph-name="afii10090" unicode="&#x448;" horiz-adv-x="1515" 
d="M1190 184v779h203v-963h-1270v963h203v-779h331v779h201v-779h332z" />
    <glyph glyph-name="afii10091" unicode="&#x449;" horiz-adv-x="1536" 
d="M1188 184v779h205v-779h123v-430h-205v246h-1188v963h205v-779h327v779h205v-779h328z" />
    <glyph glyph-name="afii10092" unicode="&#x44a;" horiz-adv-x="1044" 
d="M471 182h113q84 0 130 43t46 113t-46 113t-130 43h-113v-312zM41 778v185h430v-287h102q181 0 285 -94t104 -244t-104 -244t-285 -94h-307v778h-225z" />
    <glyph glyph-name="afii10093" unicode="&#x44b;" horiz-adv-x="1269" 
d="M328 184h153q84 0 129 42t45 112t-45 112t-129 42h-153v-308zM942 0v963h205v-963h-205zM123 0v963h205v-287h143q181 0 285 -94t104 -244t-104 -244t-285 -94h-348z" />
    <glyph glyph-name="afii10094" unicode="&#x44c;" horiz-adv-x="921" 
d="M348 182h113q84 0 130 43t46 113t-46 113t-130 43h-113v-312zM143 0v963h205v-287h103q180 0 284 -94q105 -94 105 -244t-104 -244t-285 -94h-308z" />
    <glyph glyph-name="afii10095" unicode="&#x44d;" horiz-adv-x="1024" 
d="M328 393v180h426q-25 105 -101 165t-177 60t-169 -47q-68 -48 -94 -116l-170 102q61 111 174 179t254 67q199 0 345 -142q146 -141 146 -359t-146 -360t-345 -142q-141 0 -255 68t-175 177l170 103q27 -66 95 -115t170 -49q104 0 180 61t98 168h-426z" />
    <glyph glyph-name="afii10096" unicode="&#x44e;" horiz-adv-x="1454" 
d="M655 481q0 -141 74 -229t203 -88t203 88t73 229q0 141 -73 230q-74 88 -203 88q-129 -1 -203 -89t-74 -229zM123 0v963h205v-390h129q31 182 163 296t324 114t330 -141q139 -140 139 -360t-139 -361q-138 -141 -330 -141t-324 114t-163 295h-129v-389h-205z" />
    <glyph glyph-name="afii10097" unicode="&#x44f;" horiz-adv-x="983" 
d="M287 676q0 -55 41 -89t106 -34h221v246h-231q-66 0 -102 -34t-35 -89zM82 0v20l319 373q-141 12 -225 93t-84 182q0 135 88 215t260 80h400v-963h-189v393h-37l-317 -393h-215z" />
    <glyph glyph-name="afii10071" unicode="&#x451;" horiz-adv-x="1034" 
d="M588 1137v225h205v-225h-205zM240 1137v225h202v-225h-202zM532 799q-201 0 -256 -189h492q-8 80 -76 134t-160 55zM266 430q0 -114 75 -190t202 -76q88 0 150 40t87 103l172 -82q-141 -246 -420 -245q-198 0 -334 141t-136 361t134 360t329 141q195 0 327 -137t131 -354
l-20 -62h-697z" />
    <glyph glyph-name="afii10099" unicode="&#x452;" horiz-adv-x="1064" 
d="M758 -147v720q0 225 -205 226q-90 1 -156 -63t-69 -154v-582h-205v1167h-103v185h103v204h205v-204h225v-185h-225v-286l10 -11l10 11q30 45 96 73t129 29q181 0 285 -109t105 -280v-721q0 -141 -79 -224t-229 -83l-102 20v185l113 -21q92 0 92 103z" />
    <glyph glyph-name="afii10100" unicode="&#x453;" horiz-adv-x="839" 
d="M596 1464l147 -106l-202 -283h-201zM123 963h696v-185h-491v-778h-205v963z" />
    <glyph glyph-name="afii10101" unicode="&#x454;" horiz-adv-x="1024" 
d="M696 573v-180h-428q25 -105 101 -167t179 -62t171 49t94 115l170 -103q-61 -111 -175 -179t-255 -66q-199 0 -345 142t-147 359q1 217 147 359t345 143q141 0 254 -68t174 -178l-170 -102q-27 68 -94 116t-169 48q-102 -1 -178 -61t-100 -165h426z" />
    <glyph glyph-name="afii10102" unicode="&#x455;" horiz-adv-x="829" 
d="M420 -20q-145 0 -247 77q-101 78 -132 209l184 72q7 -78 63 -128t131 -50t115 34t39 82q0 84 -122 105q-41 8 -103 22q-127 33 -202 108q-74 75 -74 195t102 199q102 78 236 78t233 -80q100 -80 115 -207h-205q0 45 -41 76t-102 31q-60 0 -102 -31t-42 -76
q0 -86 123 -110l103 -21q128 -29 202 -101t74 -191q0 -121 -102 -207t-246 -86z" />
    <glyph glyph-name="afii10103" unicode="&#x456;" horiz-adv-x="450" 
d="M123 1126v226h205v-226h-205zM125 0v963h201v-963h-201z" />
    <glyph glyph-name="afii10104" unicode="&#x457;" horiz-adv-x="450" 
d="M125 0v963h201v-963h-201zM297 1137v225h205v-225h-205zM-51 1137v225h203v-225h-203z" />
    <glyph glyph-name="afii10105" unicode="&#x458;" horiz-adv-x="468" 
d="M143 1147v225h203v-225h-203zM143 -168v1131h203v-1110q0 -143 -78 -225t-227 -83l-102 21v184l112 -20q92 0 92 102z" />
    <glyph glyph-name="afii10106" unicode="&#x459;" horiz-adv-x="1269" 
d="M737 184h92q84 0 129 42t46 112q0 70 -46 112t-129 42h-92v-308zM164 287v676h573v-287h82q181 0 285 -94t104 -244t-104 -244t-285 -94h-287v778h-163v-481q0 -152 -85 -235t-233 -82l-31 20v184h41q45 0 74 29t29 74z" />
    <glyph glyph-name="afii10107" unicode="&#x45a;" horiz-adv-x="1269" 
d="M737 184h92q84 0 129 42t46 112q0 70 -46 112t-129 42h-92v-308zM123 0v963h205v-287h204v287h205v-287h82q181 0 285 -94t104 -244t-104 -244t-285 -94h-287v492h-204v-492h-205z" />
    <glyph glyph-name="afii10108" unicode="&#x45b;" horiz-adv-x="1064" 
d="M20 1167v185h103v204h205v-204h225v-185h-225v-286l10 -11l10 11q30 45 96 73t129 29q181 0 285 -109t105 -280v-594h-205v573q0 225 -205 226q-90 1 -156 -63t-69 -154v-582h-205v1167h-103z" />
    <glyph glyph-name="afii10109" unicode="&#x45c;" horiz-adv-x="983" 
d="M395 1935l119 -108l-176 -197h-209zM328 0h-205v1556h205v-983l389 390h266l-463 -463l484 -500h-267l-409 410v-410z" />
    <glyph glyph-name="afii10110" unicode="&#x45e;" horiz-adv-x="880" 
d="M440 1071q-124 0 -200 74t-76 172v12h166v-4q0 -41 30 -73t80 -32q51 0 81 32t30 73v4h166v-12q0 -98 -76 -172t-201 -74zM655 963h205l-512 -1373h-205l201 537l-324 836h207l213 -578z" />
    <glyph glyph-name="afii10193" unicode="&#x45f;" horiz-adv-x="1064" 
d="M123 0v963h203v-779h413v779h203v-963h-307v-266h-205v266h-307z" />
    <glyph glyph-name="afii10050" unicode="&#x490;" horiz-adv-x="1085" 
d="M850 1495v225h215v-245l-184 -185h-502v-1290h-215v1495h686z" />
    <glyph glyph-name="afii10098" unicode="&#x491;" horiz-adv-x="839" 
d="M123 0v963h491v245h205v-266l-184 -164h-307v-778h-205z" />
    <glyph glyph-name="Wgrave" unicode="&#x1e80;" horiz-adv-x="1783" 
d="M633 1817l137 129l295 -338h-236zM778 1188h228l274 -815l244 1122h217l-328 -1495h-215l-307 866l-307 -866h-215l-328 1495h217l244 -1124z" />
    <glyph glyph-name="wgrave" unicode="&#x1e81;" horiz-adv-x="1351" 
d="M373 1358l147 106l256 -389h-201zM573 819h205l185 -543l165 687h203l-266 -963h-195l-194 555l-195 -555h-194l-267 963h203l166 -687z" />
    <glyph glyph-name="Wacute" unicode="&#x1e82;" horiz-adv-x="1783" 
d="M1096 1946l137 -129l-197 -209h-235zM778 1188h228l274 -815l244 1122h217l-328 -1495h-215l-307 866l-307 -866h-215l-328 1495h217l244 -1124z" />
    <glyph glyph-name="wacute" unicode="&#x1e83;" horiz-adv-x="1351" 
d="M848 1464l147 -106l-202 -283h-201zM573 819h205l185 -543l165 687h203l-266 -963h-195l-194 555l-195 -555h-194l-267 963h203l166 -687z" />
    <glyph glyph-name="Wdieresis" unicode="&#x1e84;" horiz-adv-x="1783" 
d="M952 1632v226h226v-226h-226zM604 1632v226h223v-226h-223zM778 1188h228l274 -815l244 1122h217l-328 -1495h-215l-307 866l-307 -866h-215l-328 1495h217l244 -1124z" />
    <glyph glyph-name="wdieresis" unicode="&#x1e85;" horiz-adv-x="1351" 
d="M748 1137v225h204v-225h-204zM399 1137v225h203v-225h-203zM573 819h205l185 -543l165 687h203l-266 -963h-195l-194 555l-195 -555h-194l-267 963h203l166 -687z" />
    <glyph glyph-name="Ygrave" unicode="&#x1ef2;" horiz-adv-x="1126" 
d="M289 1817l137 129l295 -338h-236zM672 0h-217v737l-435 758h236l307 -534l305 534h238l-434 -758v-737z" />
    <glyph glyph-name="ygrave" unicode="&#x1ef3;" horiz-adv-x="880" 
d="M176 1358l148 106l256 -389h-201zM655 963h205l-512 -1373h-205l201 537l-324 836h207l213 -578z" />
    <glyph glyph-name="endash" unicode="&#x2013;" horiz-adv-x="1249" 
d="M61 696h1127v-184h-1127v184z" />
    <glyph glyph-name="emdash" unicode="&#x2014;" horiz-adv-x="1843" 
d="M61 696h1721v-184h-1721v184z" />
    <glyph glyph-name="quoteleft" unicode="&#x2018;" horiz-adv-x="483" 
d="M20 963l216 532l184 -82l-184 -450h-216z" />
    <glyph glyph-name="quoteright" unicode="&#x2019;" horiz-adv-x="481" 
d="M451 1495l-218 -532l-182 81l185 451h215z" />
    <glyph glyph-name="quotesinglbase" unicode="&#x201a;" horiz-adv-x="483" 
d="M20 -205l216 533l184 -82l-184 -451h-216z" />
    <glyph glyph-name="quotedblleft" unicode="&#x201c;" horiz-adv-x="800" 
d="M20 963l216 532l182 -82l-182 -450h-216zM338 963l215 532l184 -82l-184 -450h-215z" />
    <glyph glyph-name="quotedblright" unicode="&#x201d;" horiz-adv-x="800" 
d="M768 1495l-213 -532l-186 81l184 451h215zM449 1495l-213 -532l-185 81l185 451h213z" />
    <glyph glyph-name="quotedblbase" unicode="&#x201e;" horiz-adv-x="800" 
d="M20 -205l216 533l182 -82l-182 -451h-216zM338 -205l215 533l184 -82l-184 -451h-215z" />
    <glyph glyph-name="dagger" unicode="&#x2020;" horiz-adv-x="921" 
d="M532 1249h328v-143h-328v-1106h-143v1106h-328v143h328v246h143v-246z" />
    <glyph glyph-name="daggerdbl" unicode="&#x2021;" horiz-adv-x="921" 
d="M389 0v246h-328v143h328v717h-328v143h328v246h143v-246h328v-143h-328v-717h328v-143h-328v-246h-143z" />
    <glyph glyph-name="bullet" unicode="&#x2022;" horiz-adv-x="1105" 
d="M287 922q0 -16 12 -28q13 -12 29 -13q16 0 27 12q11 13 11 29t-10 28q-28 29 -57 0q-12 -12 -12 -28zM102 696q0 186 132 318t318 133q186 0 319 -132q133 -133 133 -319t-132 -318t-319 -132q-186 0 -319 132q-132 132 -132 318z" />
    <glyph glyph-name="ellipsis" unicode="&#x2026;" horiz-adv-x="1495" 
d="M1208 0v266h226v-266h-226zM655 0v266h246v-266h-246zM61 0v266h265v-266h-265z" />
    <glyph glyph-name="perthousand" unicode="&#x2030;" horiz-adv-x="1710" 
d="M246 1198q0 -82 51 -132t123 -50t123 50t51 132t-51 132t-123 50t-123 -50t-51 -132zM1116 707q0 -83 51 -133t123 -50t123 50t51 132t-51 133q-51 50 -123 50t-123 -50t-51 -132zM819 297q0 -82 51 -132t123 -50t123 50t51 132t-51 132t-123 50t-123 -50t-51 -132z
M1331 1495l-1085 -1495h-164l1085 1495h164zM102 1198q0 135 87 226q87 92 231 92t230 -92q87 -92 87 -226q0 -135 -87 -226t-230 -91t-231 91q-87 91 -87 226zM973 707q0 135 87 226t230 91q142 0 230 -91t88 -225t-85 -226t-225 -93q12 -43 13 -92q0 -135 -87 -226
q-86 -91 -230 -91t-231 91t-87 225t85 225t224 93q-12 44 -12 93z" />
    <glyph glyph-name="guilsinglleft" unicode="&#x2039;" horiz-adv-x="655" 
d="M573 131l-534 473l534 473v-217l-286 -256l286 -256v-217z" />
    <glyph glyph-name="guilsinglright" unicode="&#x203a;" horiz-adv-x="655" 
d="M82 1077l532 -473l-532 -473v217l287 256l-287 256v217z" />
    <glyph glyph-name="interrobang" unicode="&#x203d;" horiz-adv-x="983" 
d="M328 0v246h245v-246h-245zM717 1101q-1 83 -63 141t-161 58t-157 -63l53 -274v-297q47 69 206 196q122 99 122 239zM922 1106q0 -82 -29 -154t-72 -118t-94 -96q-51 -48 -95 -84t-74 -85t-33 -98t28 -123h-205l-184 615l-123 532h246l14 -78q35 35 95 57t116 21
q174 0 292 -105t118 -284z" />
    <glyph glyph-name="asterism" unicode="&#x2042;" horiz-adv-x="1822" 
d="M389 328h-328v143h226l-160 160l102 102l160 -160v226h143v-328h328v-143h-225l160 -160l-103 -102l-160 159v-225h-143v328zM963 328v143h327v328h144v-226l159 160l103 -102l-160 -160h225v-143h-327v-328h-144v225l-160 -159l-102 102l160 160h-225zM512 1024v143h225
l-159 160l102 103l160 -160v225h143v-225l160 160l102 -103l-160 -160h226v-143h-226l160 -160l-102 -102l-160 160v-226h-143v226l-160 -160l-102 102l159 160h-225z" />
    <glyph glyph-name="fraction" unicode="&#x2044;" horiz-adv-x="1392" 
d="M1393 1495l-1229 -1495h-164l1229 1495h164z" />
    <glyph glyph-name="zerosuperior" unicode="&#x2070;" 
d="M348 1741q-133 0 -133 -251t133 -251t133 251t-133 251zM348 1106q-129 0 -203 108q-73 108 -73 278q0 171 73 276q74 106 203 106t203 -106t74 -276t-74 -278t-203 -108z" />
    <glyph glyph-name="foursuperior" unicode="&#x2074;" 
d="M389 1444v258l-188 -258h188zM532 1864v-420h103v-133h-103v-195h-143v195h-348v133l307 420h184z" />
    <glyph glyph-name="fivesuperior" unicode="&#x2075;" 
d="M614 1374q0 -112 -76 -190t-192 -78t-190 74t-74 172h143q0 -47 36 -80t89 -33t87 35t34 94t-42 93q-41 34 -115 34t-156 -14l-56 106l97 277h385v-133h-297l-45 -121q39 18 100 18q123 0 198 -70q74 -71 74 -184z" />
    <glyph glyph-name="sixsuperior" unicode="&#x2076;" 
d="M373 1874q96 0 161 -60t64 -165h-137q0 47 -28 73t-71 25q-127 0 -141 -207q55 55 160 55q105 -1 171 -71t66 -172t-72 -174t-197 -72q-127 0 -197 104t-69 271q1 165 76 279t214 114zM246 1353q0 -50 32 -82t83 -32q50 0 81 32t31 82t-32 83q-32 32 -81 32
q-50 0 -82 -32t-32 -83z" />
    <glyph glyph-name="sevensuperior" unicode="&#x2077;" 
d="M92 1731v133h533v-123q-131 -246 -267 -625h-143v31q70 187 256 584h-379z" />
    <glyph glyph-name="eightsuperior" unicode="&#x2078;" 
d="M348 1741q-46 1 -74 -25t-28 -63t28 -62t75 -25q48 0 75 26q27 24 27 61t-29 63t-74 25zM225 1338q0 -46 35 -72t89 -27q54 0 88 27q34 26 34 72t-35 74t-87 28t-88 -28t-36 -74zM102 1660q0 94 72 154t174 60t174 -59t72 -157t-82 -153q102 -51 102 -174q0 -94 -74 -160
q-74 -65 -192 -65t-192 66t-74 159q0 123 102 174q-82 60 -82 155z" />
    <glyph glyph-name="ninesuperior" unicode="&#x2079;" 
d="M324 1106q-96 0 -161 60t-65 165h138q0 -47 28 -73t70 -25q127 0 141 207q-55 -56 -159 -56t-172 71q-67 71 -66 173q0 102 72 174t198 72t196 -104t69 -271q-1 -165 -75 -279t-214 -114zM335 1741q-50 0 -81 -32t-31 -82t32 -83t81 -33t82 33t33 83t-33 82t-83 32z" />
    <glyph glyph-name="zeroinferior" unicode="&#x2080;" 
d="M348 256q-133 0 -133 -251t133 -251t133 251t-133 251zM348 -379q-129 0 -203 108q-73 109 -73 279t73 276q74 105 203 105t203 -105q74 -104 74 -276t-74 -280t-203 -107z" />
    <glyph glyph-name="oneinferior" unicode="&#x2081;" 
d="M463 379v-748h-139v605l-84 -123h-146v20l174 246h195z" />
    <glyph glyph-name="twoinferior" unicode="&#x2082;" 
d="M96 123v20q0 117 73 182t177 65t174 -66q68 -64 68 -169t-111 -206q-31 -31 -87 -70t-88 -65t-32 -50h328v-133h-502v82q2 66 43 116t118 106q187 136 187 219q0 46 -28 74t-74 28q-47 0 -75 -28t-27 -74v-31h-144z" />
    <glyph glyph-name="threeinferior" unicode="&#x2083;" 
d="M604 379v-133l-205 -135q95 -9 155 -73t60 -164t-76 -176q-76 -77 -193 -77q-115 0 -189 75t-74 171h143q0 -47 35 -80t88 -33t88 33t35 84t-37 85t-98 34h-131v112l188 144h-291v133h502z" />
    <glyph glyph-name="fourinferior" unicode="&#x2084;" 
d="M389 -41v258l-188 -258h188zM532 379v-420h103v-133h-103v-195h-143v195h-348v133l307 420h184z" />
    <glyph glyph-name="fiveinferior" unicode="&#x2085;" 
d="M614 -111q0 -113 -76 -191t-192 -77q-116 0 -190 75t-74 171h143q0 -47 36 -80t89 -33t87 35t34 94t-42 93q-41 34 -115 34t-156 -14l-56 106l97 277h385v-133h-297l-45 -121q41 18 100 18q123 0 198 -70q74 -71 74 -184z" />
    <glyph glyph-name="sixinferior" unicode="&#x2086;" 
d="M373 389q96 0 161 -60t64 -165h-137q0 47 -28 73t-71 25q-127 0 -141 -207q55 55 160 55t171 -70q66 -71 66 -173t-72 -174t-197 -72q-127 1 -197 105t-69 270t76 280t214 113zM360 -16q-50 0 -82 -33t-32 -83t32 -82t83 -32q50 0 81 32t31 82t-32 83t-81 33z" />
    <glyph glyph-name="seveninferior" unicode="&#x2087;" 
d="M92 246v133h533v-123q-131 -246 -267 -625h-143v31q70 187 256 584h-379z" />
    <glyph glyph-name="eightinferior" unicode="&#x2088;" 
d="M348 256q-46 0 -74 -26t-28 -62q0 -37 28 -62q28 -24 75 -24q48 0 75 24t27 62q0 36 -29 62t-74 26zM225 -147q0 -47 35 -73t89 -26t88 27t34 73t-35 73q-35 28 -87 28t-88 -28t-36 -74zM102 175q0 95 72 155t174 59q102 0 174 -59q72 -58 72 -156t-82 -154
q102 -51 102 -174q0 -94 -74 -160t-192 -65q-118 0 -192 66t-74 159q0 123 102 174q-82 60 -82 155z" />
    <glyph glyph-name="nineinferior" unicode="&#x2089;" 
d="M324 -379q-96 1 -161 61t-65 164h138q0 -46 28 -72t70 -26q127 0 141 207q-55 -55 -159 -55t-172 70q-67 70 -66 173q0 102 72 174t198 72q126 -1 196 -105t69 -270t-75 -280t-214 -113zM335 256q-50 0 -81 -32t-31 -82t32 -83t81 -33t82 34q33 32 33 82t-33 82t-83 32z
" />
    <glyph glyph-name="Euro" unicode="&#x20ac;" horiz-adv-x="1331" 
d="M778 1516q197 0 340 -116t193 -294h-205q-31 92 -115 159t-216 67q-260 -1 -372 -265l437 -84l-31 -174l-451 86q-10 -55 -10 -146t12 -171l449 88l31 -174l-428 -84q113 -244 356 -244q139 0 223 66t117 159h203q-49 -178 -193 -294q-144 -115 -336 -115
q-194 0 -341 103q-146 103 -224 286l-166 -31l-31 174l144 27q-41 192 -4 395l-140 29l31 174l158 -31q76 190 224 300t345 110z" />
    <glyph glyph-name="afii61352" unicode="&#x2116;" horiz-adv-x="1843" 
d="M1262 1167q0 -80 36 -132t105 -52t105 52t36 132t-37 132q-37 53 -105 53t-104 -52t-36 -133zM1106 737h594v-174h-594v174zM1085 1167q-1 162 93 255q94 94 225 94t224 -94t93 -255q0 -162 -93 -255t-224 -93t-225 93t-93 255zM758 1495h184v-1495h-266l-328 1149v-1149
h-184v1495h266l328 -1128v1128z" />
    <glyph glyph-name="trademark" unicode="&#x2122;" horiz-adv-x="1740" 
d="M20 1331v164h615v-164h-215v-727h-164v727h-236zM1618 1495v-891h-158v686l-205 -430h-176l-205 430v-686h-157v891h225l225 -457l226 457h225z" />
    <glyph glyph-name="uni2160" unicode="&#x2160;" horiz-adv-x="798" 
d="M143 0v203h154v1091h-154v201h512v-201h-153v-1091h153v-203h-512z" />
    <glyph glyph-name="uni2161" unicode="&#x2161;" horiz-adv-x="1269" 
d="M717 0v203h112v1091h-112v201h430v-201h-113v-1091h113v-203h-430zM123 0v203h113v1091h-113v201h430v-201h-113v-1091h113v-203h-430z" />
    <glyph glyph-name="uni2162" unicode="&#x2162;" horiz-adv-x="1863" 
d="M1311 0v203h112v1091h-112v201h430v-201h-113v-1091h113v-203h-430zM717 0v203h112v1091h-112v201h430v-201h-113v-1091h113v-203h-430zM123 0v203h113v1091h-113v201h430v-201h-113v-1091h113v-203h-430z" />
    <glyph glyph-name="uni2163" unicode="&#x2163;" horiz-adv-x="1863" 
d="M123 0v203h113v1091h-113v201h430v-201h-113v-1091h113v-203h-430zM696 1495h215l318 -1194l317 1194h215l-422 -1495h-221z" />
    <glyph glyph-name="uni2164" unicode="&#x2164;" horiz-adv-x="1269" 
d="M102 1495h215l328 -1194l328 1194h215l-432 -1495h-221z" />
    <glyph glyph-name="uni2165" unicode="&#x2165;" horiz-adv-x="1863" 
d="M1741 203v-203h-430v203h112v1091h-112v201h430v-201h-113v-1091h113zM952 1495h215l-422 -1495h-221l-422 1495h215l318 -1194z" />
    <glyph glyph-name="uni2166" unicode="&#x2166;" horiz-adv-x="2478" 
d="M1905 203h112v1091h-112v201h430v-201h-113v-1091h113v-203h-430v203zM1741 203v-203h-430v203h112v1091h-112v201h430v-201h-113v-1091h113zM952 1495h215l-422 -1495h-221l-422 1495h215l318 -1194z" />
    <glyph glyph-name="uni2167" unicode="&#x2167;" horiz-adv-x="2990" 
d="M2437 203h113v1091h-113v201h430v-201h-112v-1091h112v-203h-430v203zM1864 203h112v1091h-112v201h430v-201h-113v-1091h113v-203h-430v203zM1720 203v-203h-430v203h113v1091h-113v201h430v-201h-112v-1091h112zM952 1495h215l-422 -1495h-221l-422 1495h215l318 -1194
z" />
    <glyph glyph-name="uni2168" unicode="&#x2168;" horiz-adv-x="1863" 
d="M123 0v203h113v1091h-113v201h430v-201h-113v-1091h113v-203h-430zM1366 748l426 -748h-233l-310 543l-309 -543h-233l426 748l-426 747h233l309 -543l310 543h233z" />
    <glyph glyph-name="uni2169" unicode="&#x2169;" horiz-adv-x="1269" 
d="M750 748l438 -748h-232l-321 549l-322 -549h-231l436 748l-436 747h231l322 -551l321 551h232z" />
    <glyph glyph-name="uni216A" unicode="&#x216a;" horiz-adv-x="1863" 
d="M1741 203v-203h-430v203h112v1091h-112v201h430v-201h-113v-1091h113zM72 0l426 748l-426 747h233l309 -543l310 543h233l-426 -747l426 -748h-233l-310 543l-309 -543h-233z" />
    <glyph glyph-name="uni216B" unicode="&#x216b;" horiz-adv-x="2478" 
d="M1905 203h112v1091h-112v201h430v-201h-113v-1091h113v-203h-430v203zM1741 203v-203h-430v203h112v1091h-112v201h430v-201h-113v-1091h113zM72 0l426 748l-426 747h233l309 -543l310 543h233l-426 -747l426 -748h-233l-310 543l-309 -543h-233z" />
    <glyph glyph-name="uni216C" unicode="&#x216c;" horiz-adv-x="1249" 
d="M225 0v1495h205v-1292h696v-203h-901z" />
    <glyph glyph-name="uni216D" unicode="&#x216d;" horiz-adv-x="1474" 
d="M369 748q-1 -266 113 -418t306 -152q140 0 224 60t116 151h213q-49 -176 -197 -293t-356 -116q-266 0 -445 214t-179 554t179 554t445 214q208 0 356 -117t197 -293h-215q-31 88 -113 149q-83 61 -225 62q-193 1 -306 -151t-113 -418z" />
    <glyph glyph-name="uni216E" unicode="&#x216e;" horiz-adv-x="1495" 
d="M584 1294h-154v-1093h154q254 0 398 146q144 147 144 401t-144 400t-398 146zM225 0v1495h348q332 0 545 -209q213 -208 213 -538t-213 -539t-545 -209h-348z" />
    <glyph glyph-name="uni216F" unicode="&#x216f;" horiz-adv-x="1822" 
d="M1597 1495v-1495h-200v1219l-359 -850h-254l-358 850v-1219h-201v1495h287l399 -934l400 934h286z" />
    <glyph glyph-name="uni2180" unicode="&#x2180;" horiz-adv-x="2396" 
d="M1485 1294h-154v-1093h154q254 0 398 146q145 147 145 401t-144 400t-399 146zM369 748q-1 -266 113 -418t306 -152q142 0 224 60t114 151v717q-31 88 -113 149q-83 61 -225 62q-193 1 -306 -151t-113 -418zM1126 1495h349q333 0 545 -209q212 -208 212 -538t-213 -539
t-544 -209h-349v92q-139 -113 -338 -112q-266 0 -445 214t-179 554t179 554t445 214q199 0 338 -113v92z" />
    <glyph glyph-name="uni2181" unicode="&#x2181;" horiz-adv-x="1495" 
d="M584 942h-154v-389h154q86 0 140 52q54 51 54 141t-54 143t-140 53zM584 1294h-154v-168h143q166 0 278 -106t112 -272t-112 -272t-278 -107h-143v-168h154q254 0 398 146q144 147 144 401t-144 400t-398 146zM225 0v1495h348q332 0 545 -209q213 -208 213 -538
t-213 -539t-545 -209h-348z" />
    <glyph glyph-name="partialdiff" unicode="&#x2202;" horiz-adv-x="921" 
d="M510 821q-156 0 -241 -144t-85 -319q0 -109 52 -172t143 -63q158 0 248 139t90 311q-1 113 -57 181t-150 67zM379 -20q-154 0 -246 101t-92 291t120 384q56 90 148 148q91 58 181 58t147 -31q57 -32 84 -79q-17 260 -119 383t-220 123q-230 0 -196 -232h-133
q-23 176 69 272t248 97q157 0 280 -116q71 -67 121 -167q51 -100 77 -265t14 -389t-142 -402q-130 -176 -341 -176z" />
    <glyph glyph-name="product" unicode="&#x220f;" horiz-adv-x="921" 
d="M860 1290v-143h-41v-1581h-143v1581h-430v-1581h-144v1581h-41v143h799z" />
    <glyph glyph-name="summation" unicode="&#x2211;" horiz-adv-x="921" 
d="M881 -291v-143h-861v143l697 803l-697 840v143h861v-143h-666l645 -758v-143l-645 -742h666z" />
    <glyph glyph-name="minus" unicode="&#x2212;" horiz-adv-x="1105" 
d="M1044 512h-983v164h983v-164z" />
    <glyph glyph-name="radical" unicode="&#x221a;" horiz-adv-x="921" 
d="M0 819v144h266l215 -1045l297 1577h144l-369 -1929h-143l-267 1253h-143z" />
    <glyph glyph-name="infinity" unicode="&#x221e;" horiz-adv-x="1105" 
d="M829 717q-98 0 -192 -123q94 -123 192 -123q57 0 89 36q31 36 30 87q0 51 -30 87q-32 36 -89 36zM158 594q0 -51 30 -87t88 -36q106 0 193 123q-90 123 -193 123q-58 0 -88 -36t-30 -87zM20 594q0 122 70 194t186 72q152 0 275 -149q125 150 278 149q117 0 187 -72
t70 -194t-70 -195q-70 -72 -187 -71q-154 0 -278 149q-123 -150 -275 -149q-116 0 -186 72t-70 194z" />
    <glyph glyph-name="integral" unicode="&#x222b;" horiz-adv-x="921" 
d="M563 -127q0 -141 -79 -224t-228 -83h-174v147h205q92 0 92 103l-21 860v573q0 141 79 225t229 82h174v-143h-205q-92 0 -92 -102l20 -635v-803z" />
    <glyph glyph-name="therefore" unicode="&#x2234;" horiz-adv-x="1187" 
d="M881 0v266h245v-266h-245zM471 696v267h246v-267h-246zM61 0v266h246v-266h-246z" />
    <glyph glyph-name="because" unicode="&#x2235;" horiz-adv-x="1187" 
d="M881 696v267h245v-267h-245zM471 0v266h246v-266h-246zM61 696v267h246v-267h-246z" />
    <glyph glyph-name="approxequal" unicode="&#x2248;" horiz-adv-x="1105" 
d="M729 358q-47 0 -162 -51t-225 -51t-182 72t-58 204h185q-9 -44 17 -68t74 -24t169 52t201 51q126 0 198 -72t58 -205h-185q8 43 -17 68q-26 24 -73 24zM729 727q-47 0 -162 -51t-225 -51q-110 -1 -182 71t-58 205h185q-9 -43 17 -67t74 -25q48 0 169 51t201 51
q126 1 198 -71t58 -205h-185q9 43 -17 67t-73 25z" />
    <glyph glyph-name="notequal" unicode="&#x2260;" horiz-adv-x="1105" 
d="M1044 492v-164h-614l-246 -328h-123v41l215 287h-215v164h338l154 204h-492v164h615l246 328h122v-41l-215 -287h215v-164h-337l-154 -204h491z" />
    <glyph glyph-name="lessequal" unicode="&#x2264;" horiz-adv-x="1105" 
d="M1024 0h-942v160h778l-778 352v164l942 450v-163l-772 -369l772 -348v-246z" />
    <glyph glyph-name="greaterequal" unicode="&#x2265;" horiz-adv-x="1105" 
d="M1024 0h-942v246l772 348l-772 369v163l942 -450v-164l-780 -352h780v-160z" />
    <glyph glyph-name="lozenge" unicode="&#x25ca;" horiz-adv-x="860" 
d="M225 748l205 -564l205 564l-205 563zM61 748l287 747h164l287 -747l-287 -748h-164z" />
    <glyph glyph-name="at.cap" horiz-adv-x="1884" 
d="M898 215q-175 0 -284 110t-122 310q-4 49 0 102q14 195 126 307t274 113q161 0 257 -123l39 103h123v-656q1 -51 33 -82t79 -30q205 0 205 348q0 313 -184 510t-502 197t-518 -206q-199 -206 -199 -532t199 -532t518 -205q143 0 225 54t80 140l133 -82
q-14 -125 -138 -195t-300 -71q-383 0 -632 253t-249 636t255 638t625 255q371 0 611 -243t240 -617q0 -217 -93 -359t-276 -143q-78 -1 -141 37t-94 106l-10 11l-11 -11q-94 -143 -269 -143zM911 379q98 0 160 67q61 68 68 179q14 216 -67 303q-60 66 -160 66t-164 -68
q-88 -94 -72 -291q20 -256 235 -256z" />
    <glyph glyph-name="zero.tnum" horiz-adv-x="1126" 
d="M256 748q0 -266 76 -419t232 -153t231 153q76 153 75 419q0 266 -76 418t-231 153q-155 -1 -231 -153t-76 -418zM1075 748q0 -340 -136 -554t-377 -214t-376 214t-135 554t135 554t376 214t377 -214t136 -554z" />
    <glyph glyph-name="one.tnum" horiz-adv-x="1126" 
d="M123 0v203h348v1054l-113 -151h-215v41l287 348h246v-1292h328v-203h-881z" />
    <glyph glyph-name="two.tnum" horiz-adv-x="1126" 
d="M102 1004v61q0 195 140 323t334 128q192 0 330 -122t138 -329q0 -86 -38 -167t-71 -121q-125 -147 -293 -274q-168 -129 -236 -189t-68 -111h686v-203h-942v102q0 96 66 194t146 164q81 67 207 168q251 201 308 304q31 59 31 133q0 117 -80 185t-186 67q-106 0 -188 -68
q-81 -68 -81 -184v-61h-203z" />
    <glyph glyph-name="three.tnum" horiz-adv-x="1126" 
d="M1055 468q1 -192 -139 -340t-352 -148t-352 136t-140 324h204q0 -114 82 -190t204 -76t205 85t83 211t-87 207t-220 81h-207v184l422 350h-625v203h778l123 -203l-438 -354q201 -10 330 -144t129 -326z" />
    <glyph glyph-name="four.tnum" horiz-adv-x="1126" 
d="M717 584v653q-297 -438 -447 -653h447zM41 389v195l614 911h267v-911h163v-195h-163v-389h-205v389h-676z" />
    <glyph glyph-name="five.tnum" horiz-adv-x="1126" 
d="M543 1008q227 0 377 -142t150 -368t-145 -372q-143 -146 -363 -146t-360 144t-141 368h205q0 -134 81 -226t218 -92t216 90t79 234t-89 230t-239 91q-100 4 -296 -10l-93 195l174 491h656v-203h-524l-113 -297q70 13 207 13z" />
    <glyph glyph-name="six.tnum" horiz-adv-x="1126" 
d="M598 1516q186 0 312 -121t124 -310h-205q0 111 -67 173q-68 62 -168 62t-171 -56t-105 -148q-66 -178 -62 -356q137 182 345 182t336 -140t128 -338t-131 -341t-344 -143q-131 0 -240 60q-295 162 -289 708q4 308 125 528q62 112 168 176t244 64zM585 176q123 0 199 81
t76 205t-79 205t-203 81t-200 -81t-75 -202q0 -121 80 -205t202 -84z" />
    <glyph glyph-name="seven.tnum" horiz-adv-x="1126" 
d="M1055 1495v-203q-102 -195 -258 -575q-156 -381 -265 -717h-204v41q203 588 508 1251h-764v203h983z" />
    <glyph glyph-name="eight.tnum" horiz-adv-x="1126" 
d="M307 1100q0 -94 70 -164q71 -70 187 -70t186 70t70 164t-75 157t-183 63t-182 -62q-74 -64 -73 -158zM850 424q0 110 -81 182q-81 70 -203 70t-206 -72t-84 -180q0 -110 82 -180t205 -70t205 70t82 180zM102 1106q0 168 138 289t323 121t323 -121t138 -289
q0 -207 -186 -326q217 -117 217 -370q1 -180 -139 -306t-353 -124q-213 0 -352 124t-139 306q0 254 215 370q-185 119 -185 326z" />
    <glyph glyph-name="nine.tnum" horiz-adv-x="1126" 
d="M295 410q-1 -111 67 -173q68 -63 168 -63t172 57q70 57 104 149q66 178 62 355q-123 -182 -338 -182t-343 140t-128 338q-1 198 133 341t349 144q143 0 260 -79q269 -182 262 -689q-4 -309 -125 -529q-62 -111 -168 -175t-244 -64q-186 0 -312 120t-124 310h205z
M821 1030q1 121 -79 205t-202 84t-199 -81t-77 -204t82 -204q82 -80 204 -80t196 80t75 200z" />
    <glyph glyph-name="zero.dnom" 
d="M348 1372q-133 0 -133 -251t133 -251t133 251t-133 251zM348 737q-129 0 -203 108q-73 109 -73 279t73 276q74 105 203 105t203 -105q74 -104 74 -276t-74 -280t-203 -107z" />
    <glyph glyph-name="one.dnom" 
d="M463 1495v-747h-139v604l-84 -123h-146v20l174 246h195z" />
    <glyph glyph-name="two.dnom" 
d="M96 1239v21q0 118 73 182t177 64t174 -66q68 -64 68 -169t-111 -206q-31 -31 -87 -70t-88 -65t-32 -49h328v-133h-502v81q2 66 43 116q41 51 118 107q187 137 187 218q0 46 -28 74t-74 28q-47 0 -75 -29t-27 -73v-31h-144z" />
    <glyph glyph-name="three.dnom" 
d="M604 1495v-133l-205 -135q95 -9 155 -73t60 -164t-76 -176q-76 -77 -193 -77q-115 0 -189 75t-74 171h143q0 -47 35 -80t88 -33t88 33t35 84t-37 85t-98 34h-131v113l188 143h-291v133h502z" />
    <glyph glyph-name="four.dnom" 
d="M389 1075v258l-188 -258h188zM532 1495v-420h103v-133h-103v-194h-143v194h-348v133l307 420h184z" />
    <glyph glyph-name="five.dnom" 
d="M471 999q0 166 -313 113l-56 107l97 276h385v-133h-297l-45 -121q39 18 100 19q124 0 198 -70t74 -184q0 -113 -76 -191t-192 -78t-190 74t-74 172h143q0 -47 36 -80t89 -33t87 35t34 94z" />
    <glyph glyph-name="six.dnom" 
d="M461 1280q0 47 -28 73t-71 25q-127 0 -141 -207q55 55 160 55t171 -70q66 -71 66 -173t-72 -174t-197 -72q-127 1 -197 105t-69 270t76 280t214 113q96 0 161 -60t64 -165h-137zM360 1100q-50 0 -82 -33t-32 -83t32 -82t83 -32q50 0 81 32t31 82t-32 83t-81 33z" />
    <glyph glyph-name="seven.dnom" 
d="M92 1362v133h533v-123q-131 -246 -267 -624h-143v30q70 187 256 584h-379z" />
    <glyph glyph-name="eight.dnom" 
d="M246 1284q0 -38 28 -62t75 -24q48 0 75 25t27 61t-29 63q-29 25 -74 25t-74 -25q-28 -26 -28 -63zM471 970q0 46 -35 74t-87 27q-52 1 -88 -27t-36 -74t35 -73t89 -27t88 27t34 73zM102 1291q0 95 72 155t174 59q102 0 174 -59q72 -58 72 -156t-82 -153q102 -51 102 -174
q0 -94 -74 -160t-192 -66t-192 66t-74 160q0 123 102 174q-82 59 -82 154z" />
    <glyph glyph-name="nine.dnom" 
d="M324 737q-96 1 -161 61t-65 165h138q0 -47 28 -73t70 -26q127 0 141 207q-55 -55 -159 -55t-172 70q-66 70 -66 174q0 102 72 174t184 71q140 -1 210 -105t69 -270t-75 -280t-214 -113zM451 1259q0 49 -33 81t-83 32t-81 -32t-31 -82t32 -82q32 -33 81 -33t82 33t33 83z
" />
    <glyph glyph-name="zero.numr" 
d="M348 625q-133 0 -133 -251t133 -251t133 251t-133 251zM348 -10q-129 0 -203 108q-73 108 -73 278q0 171 73 276q74 106 203 106t203 -106t74 -276t-74 -278t-203 -108z" />
    <glyph glyph-name="one.numr" 
d="M463 748v-748h-139v604l-84 -123h-146v21l174 246h195z" />
    <glyph glyph-name="two.numr" 
d="M96 492v20q0 118 73 182t177 64t174 -65q68 -65 68 -170t-111 -206q-31 -31 -87 -69t-88 -66q-32 -27 -32 -49h328v-133h-502v82q2 66 43 116t118 106q187 136 187 218q0 47 -27 75q-28 28 -75 28t-75 -28t-27 -75v-30h-144z" />
    <glyph glyph-name="three.numr" 
d="M604 748v-134l-205 -135q95 -10 155 -73q60 -62 60 -162t-76 -177t-193 -77q-115 0 -189 75t-74 171h143q0 -47 35 -80t88 -33t88 33t35 84t-37 85t-98 33h-131v113l188 143h-291v134h502z" />
    <glyph glyph-name="four.numr" 
d="M389 328v258l-188 -258h188zM532 748v-420h103v-133h-103v-195h-143v195h-348v133l307 420h184z" />
    <glyph glyph-name="five.numr" 
d="M342 512q124 0 198 -70t74 -184q0 -112 -76 -190t-192 -78t-190 75t-74 171h143q0 -47 36 -80t89 -33t87 35t34 94t-42 93q-41 34 -115 34t-156 -14l-56 106l97 277h385v-134h-297l-45 -120q39 18 100 18z" />
    <glyph glyph-name="six.numr" 
d="M373 758q96 0 161 -60t64 -166h-137q0 47 -28 73t-71 26q-127 0 -141 -207q55 55 160 55q105 -1 171 -71t66 -172t-71 -175q-72 -71 -198 -71q-127 0 -197 104t-69 271q1 165 76 279t214 114zM473 237q0 51 -32 83t-81 32q-50 0 -82 -33t-32 -83t32 -81q32 -32 83 -32
q50 0 81 32t31 82z" />
    <glyph glyph-name="seven.numr" 
d="M92 614v134h533v-123q-131 -246 -267 -625h-143v31q70 186 256 583h-379z" />
    <glyph glyph-name="eight.numr" 
d="M348 625q-46 1 -74 -25t-28 -63t28 -62t75 -25q48 0 75 26q27 24 27 61t-29 63t-74 25zM225 222q0 -46 35 -72t89 -27q54 0 88 27q34 26 34 72t-35 74t-87 28t-88 -28t-36 -74zM102 544q0 95 72 154q72 60 174 60t174 -60t72 -156q0 -97 -82 -153q102 -51 102 -174
q0 -94 -74 -160q-74 -65 -192 -65t-192 66t-74 159q0 123 102 174q-82 60 -82 155z" />
    <glyph glyph-name="nine.numr" 
d="M98 215h138q0 -47 28 -73t70 -25q127 0 141 207q-55 -56 -159 -56t-172 71q-67 71 -66 173q0 102 72 174t198 72t196 -104t69 -271q-1 -166 -75 -280t-214 -113q-96 0 -161 60t-65 165zM335 625q-50 0 -81 -32t-31 -82t32 -83t81 -33t82 33t33 83t-33 82t-83 32z" />
    <glyph glyph-name="commaaccent" horiz-adv-x="491" 
d="M373 -84l-129 -387l-176 57l108 330h197z" />
    <glyph glyph-name="commaaccent.alt" horiz-adv-x="491" 
d="M66 1075l129 387l176 -57l-109 -330h-196z" />
    <glyph glyph-name="caron.alt" horiz-adv-x="491" 
d="M457 1556l-140 -432l-170 56l119 376h191z" />
    <glyph glyph-name="caron.cap" 
d="M651 1808l-213 -200h-180l-213 200l129 131l174 -167l174 167z" />
    <glyph glyph-name="circumflex.cap" horiz-adv-x="675" 
d="M436 1939l213 -200l-129 -131l-174 168l-174 -168l-129 131l213 200h180z" />
    <glyph glyph-name="acute.cap" horiz-adv-x="675" 
d="M442 1946l138 -129l-197 -209h-236z" />
    <glyph glyph-name="grave.cap" horiz-adv-x="675" 
d="M80 1817l137 129l295 -338h-236z" />
    <glyph glyph-name="macron.cap" horiz-adv-x="675" 
d="M61 1669v164h553v-164h-553z" />
    <glyph glyph-name="breve.cap" horiz-adv-x="675" 
d="M338 1608q-129 0 -203 78t-74 174v14h175v-2q0 -39 26 -71t76 -32q51 0 77 32t25 71v2h174v-14q0 -96 -74 -174t-202 -78z" />
    <glyph glyph-name="ring.cap" horiz-adv-x="675" 
d="M250 1765q0 -39 24 -63t64 -25q40 0 64 25q24 26 24 64t-25 63t-63 25t-64 -25q-24 -25 -24 -64zM111 1765q0 96 66 160q67 63 161 63t161 -62q67 -64 67 -160t-68 -160q-66 -64 -160 -64t-160 64t-67 159z" />
    <glyph glyph-name="tilde.cap" 
d="M471 1886q102 0 157 -68q54 -69 42 -190h-168q12 80 -43 80q-19 0 -101 -40t-160 -40t-130 56q-51 56 -43 159l170 45q-10 -80 45 -80q26 0 100 39t131 39z" />
    <glyph glyph-name="dotaccent.cap" horiz-adv-x="675" 
d="M236 1632v226h225v-226h-225z" />
    <glyph glyph-name="hungarumlaut.cap" horiz-adv-x="675" 
d="M612 1952l142 -117l-203 -229h-211zM242 1944l159 -97l-155 -241h-197z" />
    <glyph glyph-name="dieresis.cap" horiz-adv-x="675" 
d="M399 1632v226h226v-226h-226zM51 1632v226h223v-226h-223z" />
    <glyph glyph-name="afii10072.BUL" horiz-adv-x="1515" 
d="M858 0h-201v410l-370 -410h-256l450 494l-440 469h266l350 -390v983h201v-983l350 390h267l-441 -469l451 -494h-256l-371 410v-410z" />
    <glyph glyph-name="afii10096.BUL" horiz-adv-x="1454" 
d="M655 481q0 -141 74 -229t203 -88t203 88t73 229q0 141 -73 230q-74 88 -203 88q-129 -1 -203 -89t-74 -229zM123 0v1556h201v-983h133q31 182 163 296t324 114t330 -141q139 -140 139 -360t-139 -361q-138 -141 -330 -141t-324 114t-163 295h-133v-389h-201z" />
    <glyph glyph-name="afii10068.BUL" horiz-adv-x="829" 
d="M410 -20q-145 0 -247 87q-101 87 -101 207t74 191q75 72 202 100l102 21q123 25 123 110q0 45 -41 76t-102 31q-60 0 -102 -31t-42 -76h-204q14 127 114 207t234 80t235 -78q103 -78 103 -199q0 -122 -75 -196t-202 -107q-61 -14 -102 -22q-123 -20 -123 -105
q0 -48 40 -82t115 -34t130 50t63 128l184 -72q-31 -130 -132 -208t-246 -78z" />
    <glyph glyph-name="afii10075.BUL" horiz-adv-x="1064" 
d="M246 1116v154h553v-154h-553zM942 0h-184l-21 82l-10 10l-10 -10q-31 -45 -97 -74t-128 -28q-180 0 -285 108q-104 109 -105 281v594h205v-594q6 -205 205 -205q88 0 155 62t70 153v584h205v-963z" />
    <glyph glyph-name="afii10077.BUL" horiz-adv-x="1024" 
d="M512 702l-268 -702h-213l381 963h202l379 -963h-213z" />
    <glyph glyph-name="afii10081.BUL" horiz-adv-x="1064" 
d="M123 0v963h184l21 -82l10 -11l10 11q30 45 96 73t129 29q181 0 285 -109t105 -280v-594h-205v594q-10 205 -205 205q-90 1 -156 -63t-69 -154v-582h-205z" />
    <glyph glyph-name="afii10084.BUL" horiz-adv-x="1617" 
d="M1167 983q166 0 257 -95t92 -253v-635h-205v614q0 184 -164 185q-90 1 -156 -63t-69 -154v-582h-205v614q0 184 -164 185q-90 1 -156 -63t-69 -154v-582h-205v963h184l21 -82l10 -11l10 11q30 45 96 73t129 29q222 0 308 -164l51 62q36 45 104 73t131 29z" />
    <glyph glyph-name="afii10088.BUL" horiz-adv-x="1085" 
d="M102 963h205v-594q6 -205 205 -205q88 0 155 62t70 153v584h205v-779h123v-430h-205v246h-102l-21 82l-10 10l-10 -10q-31 -45 -97 -74t-128 -28q-180 0 -285 108q-104 109 -105 281v594z" />
    <glyph glyph-name="afii10090.BUL" horiz-adv-x="1617" 
d="M102 963h205v-615q0 -184 164 -184q90 0 156 63t69 154v582h205v-615q0 -184 164 -184q90 0 156 63t69 154v582h205v-963h-184l-21 82l-10 10l-10 -10q-30 -45 -96 -74t-130 -28q-221 -1 -307 163l-51 -61q-36 -45 -104 -74t-131 -28q-166 0 -257 95t-92 253v635z" />
    <glyph glyph-name="afii10091.BUL" horiz-adv-x="1638" 
d="M102 963h205v-615q0 -184 164 -184q90 0 156 63t69 154v582h205v-615q0 -184 164 -184q90 0 156 63t69 154v582h205v-779h123v-430h-205v246h-102l-21 82l-10 10l-10 -10q-30 -45 -96 -74t-130 -28q-221 -1 -307 163l-51 -61q-36 -45 -104 -74t-131 -28q-166 0 -257 95
t-92 253v635z" />
    <glyph glyph-name="afii10092.BUL" horiz-adv-x="1064" 
d="M778 367q0 89 -56 147t-146 59q-90 0 -151 -57q-60 -57 -60 -143q0 -85 57 -147t149 -62t150 57q57 57 57 146zM983 374q0 -164 -115 -280q-115 -114 -295 -114q-181 0 -295 112t-114 279v407h-144v185h347v-297l12 -11q90 99 235 99t257 -108t112 -272z" />
    <glyph glyph-name="afii10094.BUL" horiz-adv-x="1024" 
d="M737 367q0 89 -56 147q-57 58 -147 59q-90 0 -150 -57t-60 -143q0 -85 57 -147t149 -62t150 57q57 57 57 146zM573 754q145 0 257 -108t112 -272t-115 -280q-115 -114 -295 -114t-294 112t-115 279v592h203v-297l12 -11q90 99 235 99z" />
    <glyph glyph-name="afii10076.BUL" horiz-adv-x="983" 
d="M328 0h-205v1556h205v-983l389 390h266l-463 -463l484 -500h-267l-409 410v-410z" />
    <glyph glyph-name="afii10029.BUL" horiz-adv-x="1290" 
d="M270 0h-229l479 1495h250l479 -1495h-229l-377 1198z" />
    <glyph glyph-name="afii10073.BUL" horiz-adv-x="983" 
d="M462 -225q108 0 178 63q70 62 71 160q0 98 -74 160t-178 67h-172v185q113 -2 164 0q109 4 172 58t63 142t-62 142t-164 55q-102 0 -162 -51q-62 -51 -62 -142h-195q0 168 124 268t297 101q173 0 296 -97t123 -272q1 -98 -51 -172t-134 -114q92 -50 154 -136t61 -192
q0 -180 -131 -295t-311 -115t-308 96t-151 251l195 63q0 -98 74 -162q75 -64 183 -63z" />
    <glyph glyph-name="afii10074.BUL" horiz-adv-x="1064" 
d="M942 963v-963h-184l-21 82l-10 10l-10 -10q-31 -45 -97 -74t-128 -28q-180 0 -285 108q-104 109 -105 281v594h205v-594q6 -205 205 -205q88 0 155 62t70 153v584h205z" />
    <glyph glyph-name="afii10067.BUL" horiz-adv-x="1167" 
d="M324 1106v-666q0 -116 78 -194t204 -78q125 0 199 72t74 190t-88 192q-88 73 -228 70q-63 0 -92 -2v195h61q125 2 201 60q76 59 76 163t-69 164t-171 59q-101 0 -173 -57t-72 -168zM604 -18q-213 0 -347 133t-134 336v645q0 198 131 308t312 110t313 -108
q131 -108 131 -290q0 -102 -62 -188t-149 -119q115 -33 201 -137t85 -244q0 -194 -134 -320t-347 -126z" />
    <glyph glyph-name="afii10069.BUL" horiz-adv-x="1167" 
d="M1044 963v-973q0 -188 -135 -306t-316 -118t-314 96t-156 248l194 63q8 -100 82 -159q74 -60 188 -60q113 0 185 60t72 166v122l-13 11q-49 -53 -123 -83q-75 -30 -145 -30q-205 0 -348 137t-143 355t143 354q143 137 348 137q70 0 144 -31t122 -82l13 11l18 82h184z
M860 492q0 131 -82 219t-211 88t-210 -87t-81 -220q0 -132 81 -220t210 -88t211 88t82 220z" />
    <glyph glyph-name="afii10021.BUL" horiz-adv-x="1433" 
d="M707 1219l-316 -1014h633zM1393 205v-512h-215v307h-942v-307h-216v512h144l418 1290h252l415 -1290h144z" />
    <glyph glyph-name="afii10038.BUL" horiz-adv-x="1658" 
d="M256 758q0 -138 84 -230t244 -92h139v643h-139q-160 0 -244 -91t-84 -230zM936 436h139q160 0 244 91t84 231t-84 230q-84 91 -244 91h-139v-643zM723 -102v338h-129q-254 0 -404 147t-150 375t149 376q148 146 405 146h129v338h213v-338h129q256 0 404 -146
q149 -146 149 -376t-148 -376t-405 -146h-129v-338h-213z" />
    <glyph glyph-name="afii10017.BULgrave" horiz-adv-x="1331" 
d="M348 1817l137 129l295 -338h-235zM666 1208l-209 -614h415zM41 0l512 1495h225l512 -1495h-215l-133 389h-555l-131 -389h-215z" />
    <glyph glyph-name="afii10022.BULgrave" horiz-adv-x="1167" 
d="M303 1817l137 129l295 -338h-235zM164 0v1495h901v-205h-686v-430h665v-205h-665v-450h686v-205h-901z" />
    <glyph glyph-name="afii10026.BULgrave" horiz-adv-x="1413" 
d="M449 1817l137 129l295 -338h-236zM377 1495v-1106l637 1106h235v-1495h-213v1126l-637 -1126h-235v1495h213z" />
    <glyph glyph-name="afii10032.BULgrave" horiz-adv-x="1740" 
d="M569 1817l138 129l294 -338h-235zM870 1331q-252 0 -412 -165t-161 -420q0 -254 161 -418q160 -164 412 -164t412 164t160 418t-160 420q-160 165 -412 165zM82 748q0 328 230 558t558 230t558 -230t230 -558t-230 -558t-558 -231q-328 1 -558 231t-230 558z" />
    <glyph glyph-name="afii10037.BULgrave" horiz-adv-x="1126" 
d="M307 1817l137 129l295 -338h-235zM41 1495h235l304 -696l311 696h235l-675 -1495h-230l244 545z" />
    <glyph glyph-name="afii10044.BULgrave" horiz-adv-x="1413" 
d="M82 1817l137 129l295 -338h-235zM522 205h379q98 0 167 58t69 167t-69 167t-167 58h-379v-450zM20 1290v205h502v-635h369q201 0 331 -120t130 -310t-130 -310t-331 -120h-584v1290h-287z" />
    <glyph glyph-name="afii10045.BULgrave" horiz-adv-x="1765" 
d="M612 1817l138 129l294 -338h-235zM379 205h379q98 0 167 58t68 167q0 109 -68 167q-69 58 -167 58h-379v-450zM1346 0v205h34v1085h-34v205h286v-205h-35v-1085h35v-205h-286zM164 0v1495h215v-635h369q200 0 330 -120t130 -310t-130 -310t-330 -120h-584z" />
    <glyph glyph-name="afii10047.BULgrave" horiz-adv-x="1515" 
d="M326 1817l137 129l295 -338h-236zM348 655v205h858q-33 211 -179 341t-372 130q-279 0 -440 -225l-143 143q106 137 264 212t330 75q328 0 548 -229t220 -561t-222 -560q-222 -227 -557 -227q-171 0 -329 75t-265 212l144 143q162 -225 450 -225q236 0 382 135t173 356
h-862z" />
    <glyph glyph-name="afii10048.BULgrave" horiz-adv-x="2119" 
d="M965 1817l137 129l295 -338h-236zM1309 1331q-231 0 -371 -169t-141 -416q0 -246 140 -414q139 -168 371 -168t372 168t140 414t-140 416q-140 169 -371 169zM129 0v205h35v1085h-35v205h287v-205h-37v-430h209q35 293 235 485q201 191 500 191t507 -228t208 -560
t-208 -560t-509 -229q-301 0 -503 198t-232 498h-207v-450h37v-205h-287z" />
    <glyph glyph-name="afii10049.BULgrave" horiz-adv-x="1249" 
d="M428 1817l137 129l295 -338h-235zM543 860h327v430h-327q-96 0 -166 -59t-70 -155t70 -156t166 -60zM92 1078q0 190 134 304t327 113h532v-1495h-215v655h-41l-524 -655h-244v41l506 614q-193 0 -334 117q-141 116 -141 306z" />
    <glyph glyph-name="afii10065.BULgrave" horiz-adv-x="1167" 
d="M258 1358l148 106l256 -389h-201zM860 481q0 133 -84 225t-219 93q-135 0 -214 -90q-79 -89 -79 -227t79 -228t214 -90t219 92t84 225zM537 983q189 0 292 -113l11 11l20 82h184v-963h-184l-20 82l-11 10q-112 -112 -276 -112q-205 0 -348 141t-144 360t143 361t333 141z
" />
    <glyph glyph-name="afii10070.BULgrave" horiz-adv-x="1034" 
d="M254 1358l147 106l256 -389h-200zM532 799q-201 0 -256 -189h492q-8 80 -76 134t-160 55zM266 430q0 -114 75 -190t202 -76q88 0 150 40t87 103l172 -82q-141 -246 -420 -245q-198 0 -334 141t-136 361t134 360t329 141q195 0 327 -137t131 -354l-20 -62h-697z" />
    <glyph glyph-name="afii10074.BULgrave" horiz-adv-x="1064" 
d="M248 1358l147 106l256 -389h-200zM942 0h-184l-21 82l-10 10l-10 -10q-31 -45 -97 -74t-128 -28q-180 0 -285 108q-104 109 -105 281v594h205v-594q6 -205 205 -205q88 0 155 62t70 153v584h205v-963z" />
    <glyph glyph-name="afii10080.BULgrave" horiz-adv-x="1126" 
d="M279 1358l147 106l256 -389h-201zM266 481q0 -137 78 -227t219 -90t219 90t78 227t-78 227t-219 91q-141 -1 -219 -91t-78 -227zM61 481q1 217 149 359t353 143q205 0 353 -142q148 -141 148 -359t-148 -360t-353 -142t-353 142t-149 359z" />
    <glyph glyph-name="afii10085.BULgrave" horiz-adv-x="880" 
d="M176 1358l148 106l256 -389h-201zM655 963h205l-512 -1373h-205l201 537l-324 836h207l213 -578z" />
    <glyph glyph-name="afii10092.BULgrave" horiz-adv-x="1064" 
d="M-37 1358l148 106l256 -389h-201zM778 367q0 89 -56 147t-146 59q-90 0 -151 -57q-60 -57 -60 -143q0 -85 57 -147t149 -62t150 57q57 57 57 146zM983 374q0 -164 -115 -280q-115 -114 -295 -114q-181 0 -295 112t-114 279v407h-144v185h347v-297l12 -11q90 99 235 99
t257 -108t112 -272z" />
    <glyph glyph-name="afii10093.BULgrave" horiz-adv-x="1269" 
d="M358 1358l148 106l256 -389h-201zM481 184q84 0 129 42t45 112t-45 112t-129 42h-153v-308h153zM942 963h205v-963h-205v963zM123 963h205v-287h143q181 0 285 -94t104 -244t-104 -244t-285 -94h-348v963z" />
    <glyph glyph-name="afii10095.BULgrave" horiz-adv-x="1024" 
d="M168 1358l147 106l256 -389h-200zM328 573h426q-25 105 -101 165t-177 60t-169 -47q-68 -48 -94 -116l-170 102q61 111 174 179t254 67q199 0 345 -142q146 -141 146 -359t-146 -360t-345 -142q-141 0 -255 68t-175 177l170 103q27 -66 95 -115t170 -49q104 0 180 61
t98 168h-426v180z" />
    <glyph glyph-name="afii10096.BULgrave" horiz-adv-x="1454" 
d="M625 1358l147 106l256 -389h-201zM655 481q0 -141 74 -229t203 -88t203 88t73 229q0 141 -73 230q-74 88 -203 88q-129 -1 -203 -89t-74 -229zM123 0v1556h201v-983h133q31 182 163 296t324 114t330 -141q139 -140 139 -360t-139 -361q-138 -141 -330 -141t-324 114
t-163 295h-133v-389h-201z" />
    <glyph glyph-name="afii10097.BULgrave" horiz-adv-x="983" 
d="M262 1358l148 106l256 -389h-201zM287 676q0 -55 41 -89t106 -34h221v246h-231q-66 0 -102 -34t-35 -89zM82 0v20l319 373q-141 12 -225 93t-84 182q0 135 88 215t260 80h400v-963h-189v393h-37l-317 -393h-215z" />
    <glyph glyph-name="a.ss03" horiz-adv-x="1024" 
d="M258 287q0 -59 48 -94t144 -35t179 62q82 62 96 169v68q-49 -16 -285 -37q-182 -16 -182 -133zM705 635q1 88 -57 131t-155 43t-151 -40t-55 -103h-205q16 131 126 224t281 93t291 -94t121 -275v-614h-164l-20 92l-10 10q-135 -123 -293 -123q-158 1 -255 81t-97 220
t94 214q96 74 240 86q273 23 309 34v21z" />
    <glyph glyph-name="agrave.ss03" horiz-adv-x="1024" 
d="M215 1358l147 106l256 -389h-200zM258 287q0 -59 48 -94t144 -35t179 62q82 62 96 169v68q-59 -20 -285 -37q-182 -16 -182 -133zM705 635q1 88 -57 131t-155 43t-151 -40t-55 -103h-205q16 131 126 224t281 93t291 -94t121 -275v-614h-164l-20 92l-10 10
q-135 -123 -293 -123q-158 1 -255 81t-97 220t94 214q96 74 264 88q266 23 285 32v21z" />
    <glyph glyph-name="aacute.ss03" horiz-adv-x="1024" 
d="M635 1464l147 -106l-202 -283h-201zM258 287q0 -59 48 -94t144 -35t179 62q82 62 96 169v68q-59 -20 -285 -37q-182 -16 -182 -133zM705 635q1 88 -57 131t-155 43t-151 -40t-55 -103h-205q16 131 126 224t281 93t291 -94t121 -275v-614h-164l-20 92l-10 10
q-135 -123 -293 -123q-158 1 -255 81t-97 220t94 214q96 74 264 88q266 23 285 32v21z" />
    <glyph glyph-name="acircumflex.ss03" horiz-adv-x="1024" 
d="M602 1403l186 -217l-120 -111l-168 197l-168 -197l-121 111l186 217h205zM258 287q0 -59 48 -94t144 -35t179 62q82 62 96 169v68q-49 -16 -285 -37q-182 -16 -182 -133zM705 635q1 88 -57 131t-155 43t-151 -40t-55 -103h-205q16 131 126 224t281 93t291 -94t121 -275
v-614h-164l-20 92l-10 10q-135 -123 -293 -123q-158 1 -255 81t-97 220t94 214q96 74 240 86q273 23 309 34v21z" />
    <glyph glyph-name="atilde.ss03" horiz-adv-x="1024" 
d="M612 1331q100 0 148 -63t37 -183h-152q6 80 -41 80q-18 0 -89 -44t-147 -44q-76 -1 -124 55q-47 56 -41 148l151 49q-2 -45 6 -64q20 -47 129 23q68 43 123 43zM258 287q0 -59 48 -94t144 -35t179 62q82 62 96 169v68q-59 -20 -285 -37q-182 -16 -182 -133zM705 635
q1 88 -57 131t-155 43t-151 -40t-55 -103h-205q16 131 126 224t281 93t291 -94t121 -275v-614h-164l-20 92l-10 10q-135 -123 -293 -123q-158 1 -255 81t-97 220t94 214q96 74 264 88q266 23 285 32v21z" />
    <glyph glyph-name="adieresis.ss03" horiz-adv-x="1024" 
d="M580 1137v225h204v-225h-204zM231 1137v225h203v-225h-203zM258 287q0 -59 48 -94t144 -35t179 62q82 62 96 169v68q-59 -20 -285 -37q-182 -16 -182 -133zM705 635q1 88 -57 131t-155 43t-151 -40t-55 -103h-205q16 131 126 224t281 93t291 -94t121 -275v-614h-164
l-20 92l-10 10q-135 -123 -293 -123q-158 1 -255 81t-97 220t94 214q96 74 264 88q266 23 285 32v21z" />
    <glyph glyph-name="amacron.ss03" horiz-adv-x="1024" 
d="M227 1116v154h553v-154h-553zM258 287q0 -59 48 -94t144 -35t179 62q82 62 96 169v68q-59 -20 -285 -37q-182 -16 -182 -133zM705 635q1 88 -57 131t-155 43t-151 -40t-55 -103h-205q16 131 126 224t281 93t291 -94t121 -275v-614h-164l-20 92l-10 10
q-135 -123 -293 -123q-158 1 -255 81t-97 220t94 214q96 74 264 88q266 23 285 32v21z" />
    <glyph glyph-name="abreve.ss03" horiz-adv-x="1024" 
d="M506 1071q-125 0 -201 74t-76 172v12h166v-4q0 -41 30 -73t81 -32t81 32t29 73v4h166v-12q0 -98 -76 -172t-200 -74zM258 287q0 -59 48 -94t144 -35t179 62q82 62 96 169v68q-59 -20 -285 -37q-182 -16 -182 -133zM705 635q1 88 -57 131t-155 43t-151 -40t-55 -103h-205
q16 131 126 224t281 93t291 -94t121 -275v-614h-164l-20 92l-10 10q-135 -123 -293 -123q-158 1 -255 81t-97 220t94 214q96 74 264 88q266 23 285 32v21z" />
    <glyph glyph-name="aring.ss03" horiz-adv-x="1024" 
d="M399 1260q0 -39 26 -66t67 -27q40 0 66 27t26 66q0 40 -26 66t-66 26t-67 -26q-26 -26 -26 -66zM266 1260q0 94 66 156t160 62t160 -62t65 -156q0 -94 -66 -156q-65 -62 -159 -64q-94 0 -160 63t-66 157zM258 287q0 -59 48 -94t144 -35t179 62q82 62 96 169v68
q-49 -16 -285 -37q-182 -16 -182 -133zM705 635q1 88 -57 131t-155 43t-151 -40t-55 -103h-205q16 131 126 224t281 93t291 -94t121 -275v-614h-164l-20 92l-10 10q-135 -123 -293 -123q-158 1 -255 81t-97 220t94 214q96 74 240 86q273 23 309 34v21z" />
    <glyph glyph-name="aringacute.ss03" horiz-adv-x="1024" 
d="M662 1915l147 -107l-203 -282h-200zM401 1257q0 -41 27 -67t66 -25q40 0 66 26q26 27 26 67t-27 66t-65 26t-66 -26q-27 -26 -27 -67zM268 1257q0 95 66 157t160 62t160 -62t65 -156q0 -94 -66 -157q-65 -63 -159 -63t-160 62t-66 157zM258 287q0 -59 48 -94t144 -35
t179 62q82 62 96 169v68q-59 -20 -285 -37q-182 -16 -182 -133zM705 635q1 88 -57 131t-155 43t-151 -40t-55 -103h-205q16 131 126 224t281 93t291 -94t121 -275v-614h-164l-20 92l-10 10q-135 -123 -293 -123q-158 1 -255 81t-97 220t94 214q96 74 264 88q266 23 285 32
v21z" />
    <glyph glyph-name="aogonek.ss03" horiz-adv-x="1024" 
d="M258 287q0 -59 48 -94t144 -35t179 62q82 62 96 169v68q-49 -16 -285 -37q-182 -16 -182 -133zM705 635q1 88 -57 131t-155 43t-151 -40t-55 -103h-205q16 131 126 224t281 93q171 -1 291 -95t121 -274v-614l-57 -117q-10 -20 -10 -51q0 -30 28 -52t68 -22h45l-45 -168
h-10q-127 0 -204 52t-77 138q0 85 98 220l-20 92l-10 10q-135 -123 -293 -123q-158 1 -255 81t-97 220t94 214q96 74 240 86q273 23 309 34v21z" />
    <glyph glyph-name="t.ss01" horiz-adv-x="655" 
d="M41 778v185h174v204l160 205h41v-409h198v-185h-198v-594l20 -184h-221v778h-174z" />
    <glyph glyph-name="tcaron.ss01" 
d="M793 1556l-140 -432l-170 56l119 376h191zM41 778v185h174v204l160 205h41v-409h198v-185h-198v-594l20 -184h-221v778h-174z" />
    <glyph glyph-name="tcommaaccent.ss01" horiz-adv-x="655" 
d="M428 -84l-129 -387l-176 57l108 330h197zM41 778v185h174v204l160 205h41v-409h198v-185h-198v-594l20 -184h-221v778h-174z" />
    <glyph glyph-name="tcedilla.ss01" horiz-adv-x="655" 
d="M300 -276q69 0 69 51t-72 51h-47v174h-35v778h-174v185h174v204l160 205h41v-409h198v-185h-198v-594l20 -184h-35v-47q55 -8 101 -56t45 -133q0 -84 -71 -144q-72 -60 -182 -60t-196 69l84 142q49 -47 118 -47z" />
    <glyph glyph-name="tbar.ss01" horiz-adv-x="655" 
d="M41 778v185h174v204l160 205h41v-409h198v-185h-198v-143h198v-184h-198v-267l20 -184h-221v451h-174v184h174v143h-174z" />
    <glyph glyph-name="one.ss02" horiz-adv-x="1126" 
d="M143 0v203h349v1054l-113 -151h-215v41l287 348h245v-1292h328v-203h-881z" />
    <glyph glyph-name="ae.ss03" horiz-adv-x="1640" 
d="M1157 799q-197 0 -256 -189h483q0 80 -68 134t-159 55zM258 287q0 -59 48 -94t144 -35t179 62q82 62 96 169v64q-49 -12 -285 -33q-182 -16 -182 -133zM705 635q1 88 -57 131t-155 43t-151 -40t-55 -103h-205q16 131 126 224t279 93t281 -92l72 -84l71 84q80 92 257 92
q178 0 308 -135t121 -356l-20 -62l-676 4q0 -114 66 -192t190 -78q176 0 229 143l170 -82q-141 -246 -399 -245q-145 0 -235 92l-21 30v-102h-164l-20 92l-10 10q-135 -123 -293 -123q-158 1 -255 81t-97 220t94 214q96 74 240 86q273 23 309 34v21z" />
    <glyph glyph-name="ampersand.alt" horiz-adv-x="1310" 
d="M881 440v31h-144v184h471v-184h-123v-31q0 -184 -136 -322t-346 -138t-345 135t-135 325q0 248 209 379q-148 117 -148 291t125 290t295 116t295 -116t125 -284h-205q0 96 -59 150q-58 54 -154 55q-96 0 -156 -58q-60 -59 -60 -151t62 -151q64 -59 162 -60v-184
q-118 0 -202 -78t-84 -197q0 -120 76 -194t200 -74q123 0 200 74t77 192z" />
    <glyph glyph-name="oneinferior.alt" 
d="M102 -369v133h185v469l-41 -59h-144v21l144 184h184v-615h184v-133h-512z" />
    <glyph glyph-name="onesuperior.alt" 
d="M102 1116v133h185v469l-41 -59h-144v20l144 185h184v-615h184v-133h-512z" />
    <glyph glyph-name="one.dnom.alt" 
d="M102 748v133h185v469l-41 -60h-144v21l144 184h184v-614h184v-133h-512z" />
    <glyph glyph-name="one.numr.alt" 
d="M102 0v133h185v469l-41 -59h-144v20l144 185h184v-615h184v-133h-512z" />
    <glyph glyph-name="onehalf.alt" horiz-adv-x="1187" 
d="M881 328v258l-236 -258h236zM1024 1126l-698 -757h-142l697 757h143zM41 748v133h164v454l-31 -45h-133v21l123 184h184v-614h164v-82l-47 -51h-424zM471 195v133l389 420h164v-420h82v-133h-82v-195h-143v195h-410z" />
    <glyph glyph-name="onequarter.alt" horiz-adv-x="1187" 
d="M41 748v133h164v454l-31 -45h-133v21l123 184h184v-614h164v-82l-47 -51h-424zM1024 1126l-698 -757h-142l697 757h143zM635 492v20q0 118 73 182q74 64 178 64t172 -65t68 -170t-110 -206q-31 -31 -87 -69t-88 -66q-32 -27 -32 -49h321v-133h-495v82q2 66 43 116
t118 106q187 136 187 218q0 47 -29 75q-30 28 -74 28t-73 -28t-29 -75v-30h-143z" />
    <glyph glyph-name="ordfeminine.alt" horiz-adv-x="901" 
d="M244 965q0 -45 38 -71t108 -26t140 49t80 127v52q-12 -6 -225 -29q-141 -14 -141 -102zM368 731q-128 1 -202 61t-74 168q0 209 270 232l240 27v20q0 61 -50 98t-120 37t-116 -30t-58 -74h-156q12 98 104 170t223 72q132 0 230 -74q98 -72 99 -209v-481h-129l-25 71
l-10 10q-98 -98 -226 -98z" />
    <glyph glyph-name="arrow_right" horiz-adv-x="1884" 
d="M82 512v184h1456l-33 21l-440 338l123 153l614 -512v-184l-614 -512l-123 154l440 338l33 20h-1456z" />
    <glyph glyph-name="arrow_left" horiz-adv-x="1884" 
d="M1802 696v-184h-1458l35 -20l440 -338l-123 -154l-614 512v184l614 512l123 -153l-440 -338l-35 -21h1458z" />
    <glyph glyph-name="arrow_down" horiz-adv-x="1433" 
d="M625 1556h184v-1458l20 35l338 440l154 -122l-512 -615h-184l-512 615l153 122l338 -440l21 -35v1458z" />
    <glyph glyph-name="arrow_up" horiz-adv-x="1433" 
d="M809 -164h-184v1456l-21 -32l-338 -441l-153 123l512 614h184l512 -614l-154 -123l-338 441l-20 32v-1456z" />
    <glyph glyph-name="arrow_left_up" horiz-adv-x="1556" 
d="M319 999l72 -548l-194 -23l-74 795l131 131l797 -74l-23 -195l-551 72l-39 8l1026 -1034l-131 -131l-1022 1032z" />
    <glyph glyph-name="arrow_left_down" horiz-adv-x="1556" 
d="M391 903l-72 -549l-8 -32l1022 1032l131 -131l-1026 -1037l39 11l551 71l23 -194l-797 -74l-131 131l74 795z" />
    <glyph glyph-name="arrow_right_up" horiz-adv-x="1556" 
d="M1165 451l72 548l8 33l-1022 -1032l-131 131l1024 1034l-37 -8l-551 -72l-22 195l797 74l131 -131l-74 -795z" />
    <glyph glyph-name="arrow_right_down" horiz-adv-x="1556" 
d="M1237 354l-72 549l195 23l74 -795l-131 -131l-797 74l22 194l551 -71l37 -11l-1024 1037l131 131l1022 -1032z" />
    <glyph glyph-name="RP" horiz-adv-x="1658" 
d="M86 678l459 47l2 -12l-459 -49zM1575 817l-459 -47l-2 12l459 49zM86 817l2 14l459 -49l-2 -12zM1575 678l-2 -14l-459 49l2 12zM711 489l12 -6l-188 -422l-13 7zM950 489l189 -421l-13 -7l-188 422zM950 1006l-12 6l188 422l13 -7zM711 1006l-189 421l13 7l188 -422z
M270 254l344 309l9 -10l-342 -309zM1391 254l-11 -10l-342 309l9 10zM270 1241l11 10l342 -309l-9 -10zM1391 1241l-344 -309l-9 10l342 309zM555 829l-438 140l4 14l438 -141zM555 666l4 -13l-438 -141l-4 14zM1106 829l-4 13l438 141l4 -14zM1106 666l438 -140l-4 -14
l-438 141zM1081 883l-8 12l404 229l6 -12zM580 883l-402 229l6 12l404 -229zM580 612l8 -12l-404 -229l-6 12zM1081 612l402 -229l-6 -12l-404 229zM823 1034v461h15v-461h-15zM823 461h15v-461h-15v461zM897 469l94 -449l-14 -4l-94 451zM897 1026l-14 2l94 451l14 -4z
M764 469l14 -2l-94 -451l-14 4zM764 1026l-94 449l14 4l94 -451zM1004 520l272 -370l-12 -11l-273 373zM657 520l13 -8l-273 -373l-12 11zM657 975l-272 371l12 10l273 -373zM1004 975l-13 8l273 373l12 -10zM1577 754v-13h-580v13h580zM82 754h582v-13h-582v13zM807 911
l-64 576l15 2l61 -576zM854 584l64 -576l-15 -2l-61 576zM854 911l-12 2l61 576l15 -2zM807 584l12 -2l-61 -576l-15 2zM995 719l568 -117l-4 -14l-566 119zM995 776l-2 12l566 119l4 -14zM666 719l2 -12l-566 -119l-4 14zM666 776l-568 117l4 14l566 -119zM676 809
l-533 233l7 13l532 -234zM985 686l533 -233l-7 -13l-532 234zM985 809l-6 12l532 234l7 -13zM676 686l6 -12l-532 -234l-7 13zM946 629l389 -430l-10 -11l-389 433zM946 866l-10 8l389 433l10 -11zM715 866l-389 430l10 11l389 -433zM715 629l10 -8l-389 -433l-10 11z
M889 592l178 -551l-14 -4l-176 551zM889 903l-12 4l176 551l14 -4zM772 592l12 -4l-176 -551l-14 4zM772 903l-178 551l14 4l176 -551zM969 653l471 -336l-8 -12l-471 338zM692 842l-471 336l8 12l471 -338zM969 842l-8 10l471 338l8 -12zM692 653l8 -10l-471 -338l-8 12z
M922 608l286 -504l-12 -8l-287 506zM739 608l13 -6l-287 -506l-12 8zM922 887l-13 6l287 506l12 -8zM739 887l-286 504l12 8l287 -506z" />
    <glyph glyph-name="interfinity" horiz-adv-x="983" 
d="M369 0v246h245v-246h-245zM492 498q52 0 82 24t30 63q0 38 -42 72q-9 9 -26 23t-24 20l-20 19l-21 -19q-6 -6 -41 -34t-43 -48t-8 -46t31 -50t82 -24zM492 1321q-78 0 -132 -43t-53 -109q0 -66 63 -121q21 -20 60 -51l62 -51l61 51q39 31 61 51q61 55 61 121
q1 66 -52 109t-131 43zM492 1497q156 0 268 -96t110 -234q0 -93 -51 -163t-147 -144l-37 -29q49 -37 61 -51t30 -32q60 -59 65 -164q-1 -123 -89 -191q-88 -67 -210 -67t-211 68q-88 68 -88 190q0 101 60 161q59 59 95 86l-37 29q-96 74 -147 144t-51 163q0 137 111 234
q112 96 268 96z" />
    <glyph glyph-name="zigzag" horiz-adv-x="1218" 
d="M1178 0h-103v154l-164 -164l-92 92l174 379l-471 -471l-92 92l410 614l-707 -706l-92 92l602 807l-510 -510l-92 92l403 608l-311 -311l-92 92l176 381l-84 -84l-92 92v307h102v-204l164 164l92 -93l-174 -379l471 472l92 -93l-409 -614l706 707l93 -93l-691 -895
l598 598l93 -92l-404 -608l311 311l93 -92l-177 -381l84 84l93 -92v-256z" />
    <glyph glyph-name="afii10074.001" horiz-adv-x="1064" 
d="M123 0v963h201v-656l383 656h235v-963h-201v655l-383 -655h-235z" />
    <glyph glyph-name="afii10092.001" horiz-adv-x="1044" 
d="M471 182h113q84 0 130 43t46 113t-46 113t-130 43h-113v-312zM41 778v185h430v-287h102q181 0 285 -94t104 -244t-104 -244t-285 -94h-307v778h-225z" />
    <glyph glyph-name="afii10096.001" horiz-adv-x="1454" 
d="M655 481q0 -141 74 -229t203 -88t203 88t73 229q0 141 -73 230q-74 88 -203 88q-129 -1 -203 -89t-74 -229zM123 0v963h205v-390h129q31 182 163 296t324 114t330 -141q139 -140 139 -360t-139 -361q-138 -141 -330 -141t-324 114t-163 295h-129v-389h-205z" />
    </font>
</defs>
</svg>
