<?xml version="1.0" standalone="no"?>
<!DOCTYPE svg PUBLIC "-//W3C//DTD SVG 1.1//EN" "http://www.w3.org/Graphics/SVG/1.1/DTD/svg11.dtd" >
<svg xmlns="http://www.w3.org/2000/svg">
<metadata>
Created by FontPrep 20130207 at Fri Feb 20 17:43:25 2015
 By Appuhn, Mikey
Copyright (c) 2008 by Radim Pesko. All rights reserved.
</metadata>
<defs>
<font id="d696cb6ae561ddf017cc2359a2f52c53" horiz-adv-x='1024' >
  <font-face 
    font-family="Fugue-Italic"
    font-weight="400"
    font-style="italic"
    font-stretch="normal"
    units-per-em="2048"
    panose-1="2 0 5 3 0 0 0 2 0 3"
    ascent="1556"
    descent="-492"
    x-height="963"
    cap-height="1495"
    bbox="-246 -487 3080 2361"
    underline-thickness="102"
    underline-position="-102"
    unicode-range="U+0020-FB04"
  />
<missing-glyph horiz-adv-x="471" 
 />
    <glyph glyph-name="ff" unicode="ff" horiz-adv-x="1024" 
d="M1231 1352l-74 20q-102 0 -123 -102l-63 -307h155l-39 -185h-155l-189 -921h-200l188 921h-270l-189 -921h-200l188 921h-147l37 185h149l61 297q33 154 120 226t247 70l113 -20l-62 -184l-92 20q-102 0 -123 -102l-63 -307h270l61 297q33 154 120 226t247 70l72 -20z
" />
    <glyph glyph-name="fi" unicode="fi" horiz-adv-x="983" 
d="M840 1311v225h184v-225h-184zM113 778l37 185h149l61 297q33 154 120 226t247 70l92 -20l-82 -184l-51 20q-102 0 -123 -102l-63 -307h483l-205 -963h-203l173 778h-287l-189 -921h-200l188 921h-147z" />
    <glyph glyph-name="fl" unicode="fl" horiz-adv-x="983" 
d="M809 0h-215l20 184l289 1372h203l-297 -1372v-184zM113 778l37 185h149l61 297q33 154 120 226t247 70l113 -20l-82 -184l-72 20q-102 0 -123 -102l-63 -307h137l-39 -185h-137l-189 -921h-200l188 921h-147z" />
    <glyph glyph-name="ffi" unicode="ffi" horiz-adv-x="1454" 
d="M1311 1311v225h184v-225h-184zM563 1270l-63 -307h270l61 297q33 154 120 226t247 70l92 -20l-82 -184l-51 20q-102 0 -123 -102l-63 -307h483l-205 -963h-202l172 778h-287l-189 -921h-200l188 921h-270l-189 -921h-200l188 921h-147l37 185h149l61 297q33 154 120 226
t247 70l113 -20l-62 -184l-92 20q-103 0 -123 -102z" />
    <glyph glyph-name="ffl" unicode="ffl" horiz-adv-x="1454" 
d="M1280 0h-215l20 184l289 1372h203l-297 -1372v-184zM1229 1352l-72 20q-102 0 -123 -102l-63 -307h137l-39 -185h-137l-189 -921h-200l188 921h-270l-189 -921h-200l188 921h-147l37 185h149l61 297q33 154 120 226t247 70l113 -20l-62 -184l-92 20q-102 0 -123 -102
l-63 -307h270l61 297q33 154 120 226t247 70l113 -20z" />
    <glyph glyph-name=".notdef" horiz-adv-x="471" 
 />
    <glyph glyph-name=".null" horiz-adv-x="0" 
 />
    <glyph glyph-name="nonmarkingreturn" horiz-adv-x="681" 
 />
    <glyph glyph-name="space" unicode=" " horiz-adv-x="471" 
 />
    <glyph glyph-name="exclam" unicode="!" horiz-adv-x="491" 
d="M61 0v246h246v-246h-246zM195 348l71 615l103 532h245l-143 -532l-235 -615h-41z" />
    <glyph glyph-name="quotedbl" unicode="&#x22;" horiz-adv-x="675" 
d="M510 983l104 522l144 -30l-103 -523zM246 983l104 522l144 -30l-105 -523z" />
    <glyph glyph-name="numbersign" unicode="#" horiz-adv-x="1331" 
d="M670 963l-221 -431h356l219 431h-354zM922 1495v-41l-179 -348h355l200 389h136v-41l-179 -348h179l-31 -143h-221l-221 -431h258l-31 -143h-301l-199 -389h-135v41l178 348h-356l-199 -389h-135v41l178 348h-178l31 143h221l219 431h-256l31 143h299l200 389h136z" />
    <glyph glyph-name="dollar" unicode="$" horiz-adv-x="1064" 
d="M225 1091q0 179 120 287t300 117l21 82h184l-27 -111q131 -53 196 -182t40 -280h-203q39 193 -80 266l-49 -205h-184l55 233q-74 -10 -120 -62t-46 -140t91 -168t231 -178q205 -143 204 -351q0 -175 -122 -283t-304 -116l-18 -82h-184l26 111q-130 51 -196 181t-41 282
h203q-37 -197 81 -269l50 207h184l-57 -235q76 10 122 63t48 131q0 115 -99 184q-109 80 -225 175q-201 164 -201 343z" />
    <glyph glyph-name="percent" unicode="%" horiz-adv-x="1392" 
d="M860 297q0 -82 51 -132t123 -50t123 50t51 132t-51 132t-123 50t-123 -50t-51 -132zM717 297q0 135 87 226t230 91q142 0 230 -91t88 -226t-87 -226t-231 -91t-230 91q-87 91 -87 226zM307 1198q0 -82 51 -132t123 -50t123 50t51 132t-51 132t-123 50t-123 -50t-51 -132z
M164 1198q0 135 87 226q87 92 230 92t231 -92t87 -226q0 -135 -87 -226q-86 -91 -230 -91t-231 91t-87 226zM1475 1495l-1270 -1495h-164l1270 1495h164z" />
    <glyph glyph-name="ampersand" unicode="&#x26;" horiz-adv-x="1433" 
d="M915 1157q0 70 -43 117q-44 47 -112 47t-113 -46t-45 -106t30 -132t54 -109l10 4q219 86 219 225zM494 164q90 0 149 39t117 110l-178 379q-140 -57 -220 -130t-79 -193q0 -86 60 -146q61 -59 151 -59zM762 1516q148 0 252 -96q102 -96 102 -242q0 -144 -92 -245
t-246 -165l-12 -6l131 -273l107 136q74 94 140 134t152 40q84 0 158 -41l-51 -185q-47 31 -81 31q-92 0 -138 -55t-49 -57l-136 -170l322 -322h-256l-182 174q-166 -195 -391 -194q-172 0 -291 105t-119 281t117 298q117 121 305 192q-37 76 -51 106q-13 30 -33 96t-21 120
q-1 138 107 238t256 100z" />
    <glyph glyph-name="quotesingle" unicode="'" horiz-adv-x="675" 
d="M369 1536h389l-121 -594h-391z" />
    <glyph glyph-name="parenleft" unicode="(" 
d="M133 655q-1 337 189 607t528 407l61 -113q-291 -116 -457 -364t-167 -557q0 -444 286 -696l-102 -113q-141 125 -240 347q-98 222 -98 482z" />
    <glyph glyph-name="parenright" unicode=")" 
d="M696 860q0 -342 -190 -620t-526 -414l-62 113q289 115 457 373t168 569q0 426 -287 675l102 113q142 -127 240 -339t98 -470z" />
    <glyph glyph-name="asterisk" unicode="*" horiz-adv-x="921" 
d="M666 696h-144v328h-327v143h225l-160 160l102 103l160 -160v225h144v-328h327v-143h-225l160 -160l-103 -102l-159 160v-226z" />
    <glyph glyph-name="plus" unicode="+" horiz-adv-x="1105" 
d="M676 102h-164v410h-389v164h389v409h164v-409h389v-164h-389v-410z" />
    <glyph glyph-name="comma" unicode="," horiz-adv-x="450" 
d="M-102 -205v41l266 471l184 -102l-227 -410h-223z" />
    <glyph glyph-name="hyphen" unicode="-" horiz-adv-x="698" 
d="M135 696h533l-43 -225h-533z" />
    <glyph glyph-name="period" unicode="." horiz-adv-x="409" 
d="M20 0v266h246v-266h-246z" />
    <glyph glyph-name="slash" unicode="/" horiz-adv-x="1024" 
d="M1147 1556l-1004 -1638h-143l1004 1638h143z" />
    <glyph glyph-name="zero" unicode="0" horiz-adv-x="1126" 
d="M208 148q-95 156 -95 401t90 485q49 134 119 240t178 174t239 68q213 0 315 -158t103 -415q0 -257 -149 -590q-72 -159 -198 -267t-278 -106q-112 0 -194 45t-130 123zM311 530q-1 -100 17 -171t73 -127t142 -56q119 0 219 141t148 325t48 303q0 120 -17 191t-73 127
t-147 56q-92 0 -175 -83t-132 -210t-76 -262q-27 -134 -27 -234z" />
    <glyph glyph-name="one" unicode="1" horiz-adv-x="921" 
d="M174 1065v41l410 389h245l-307 -1495h-205l261 1255l-185 -190h-219z" />
    <glyph glyph-name="two" unicode="2" horiz-adv-x="1126" 
d="M689 1516q181 0 309 -128t128 -313q0 -258 -286 -450q-242 -164 -358 -257t-156 -167h657l-41 -201h-901l20 100q16 78 87 192q26 40 79 91t105 101t217 164q166 114 188 130q184 129 185 287q0 119 -72 185t-176 67q-104 -1 -188 -63t-97 -189h-205q36 223 180 337
t325 114z" />
    <glyph glyph-name="three" unicode="3" horiz-adv-x="1126" 
d="M1065 471q0 -207 -146 -349q-145 -142 -365 -142t-360 158t-100 374h205q-33 -138 47 -238t216 -100t217 88t81 200t-73 193q-73 80 -183 107l-153 37v184l444 311h-608l41 201h798l62 -201l-500 -362q174 -43 276 -167t101 -294z" />
    <glyph glyph-name="four" unicode="4" horiz-adv-x="1126" 
d="M328 682h407l115 561zM82 483v199l758 813h266l-168 -813h188l-41 -199h-188l-98 -483h-205l100 483h-612z" />
    <glyph glyph-name="five" unicode="5" horiz-adv-x="1126" 
d="M1096 494q0 -218 -160 -366t-384 -148t-372 174q-147 174 -106 399h202q-36 -151 56 -265t238 -114t235 92q88 92 88 230t-86 223q-86 86 -244 94l-327 14v185l245 483h674l-43 -201h-524l-158 -286q68 0 180 -7q214 -10 350 -150t136 -357z" />
    <glyph glyph-name="six" unicode="6" horiz-adv-x="1126" 
d="M748 1516q200 0 320 -146t89 -346h-203q24 131 -40 213t-187 82q-86 0 -157 -47q-70 -47 -114 -125q-84 -150 -108 -307q102 102 266 102q209 0 340 -141t131 -339t-148 -340t-351 -142t-333 146t-130 363t54 446q54 228 196 405q143 176 375 176zM592 174q125 0 208 82
t83 210t-80 206t-201 78t-203 -79t-82 -203t75 -209t200 -85z" />
    <glyph glyph-name="seven" unicode="7" horiz-adv-x="1044" 
d="M82 0v41l827 1253h-663l41 201h880l-20 -201l-840 -1294h-225z" />
    <glyph glyph-name="eight" unicode="8" horiz-adv-x="1126" 
d="M696 1315q-108 -1 -184 -65t-76 -160t72 -163t182 -67t184 62t74 163q0 100 -71 165q-72 65 -181 65zM276 422q0 -112 78 -182t201 -70t210 70t87 184t-80 186q-80 74 -203 74t-208 -75t-85 -187zM1147 1075q0 -111 -66 -199t-170 -135q143 -133 143 -319t-148 -314
t-356 -128t-343 122t-135 318q0 133 80 238t208 161q-53 45 -89 119t-35 162q0 170 141 288t329 118t314 -122q127 -121 127 -309z" />
    <glyph glyph-name="nine" unicode="9" horiz-adv-x="1126" 
d="M512 -20q-201 0 -325 146t-93 345h203q-23 -131 39 -213t186 -82q84 0 154 48q116 79 185 277q28 77 40 154q-106 -102 -266 -102q-209 0 -340 141t-131 340t145 340q145 142 347 142t336 -151t134 -361q0 -282 -85 -533q-45 -139 -113 -247t-176 -176t-240 -68z
M654 1321q-122 0 -204 -82t-83 -210t79 -206t201 -78t202 78t81 202t-77 210t-199 86z" />
    <glyph glyph-name="colon" unicode=":" horiz-adv-x="512" 
d="M82 82v246h246v-246h-246zM225 717v246h246v-246h-246z" />
    <glyph glyph-name="semicolon" unicode=";" horiz-adv-x="512" 
d="M-102 -205v41l266 471l184 -102l-227 -410h-223zM225 717v246h246v-246h-246z" />
    <glyph glyph-name="less" unicode="&#x3c;" horiz-adv-x="1105" 
d="M102 676l922 368v-161l-735 -289l735 -287v-164l-922 369v164z" />
    <glyph glyph-name="equal" unicode="=" horiz-adv-x="1105" 
d="M123 492h942v-164h-942v164zM123 860h942v-164h-942v164z" />
    <glyph glyph-name="greater" unicode="&#x3e;" horiz-adv-x="1105" 
d="M164 1044l921 -368v-164l-921 -369v164l735 287l-735 289v161z" />
    <glyph glyph-name="question" unicode="?" horiz-adv-x="962" 
d="M268 0v246h246v-246h-246zM644 1495q161 0 282 -104t121 -275q0 -88 -36 -161t-98 -127t-182 -127q-119 -74 -167 -116q-104 -92 -70 -237l-203 43q-12 125 40 215t136 144t168 99q205 112 207 257q0 90 -60 143t-151 53t-155 -62t-87 -175l-182 82q33 150 154 249
q122 99 283 99z" />
    <glyph glyph-name="at" unicode="@" horiz-adv-x="1843" 
d="M860 0q-170 0 -272 114t-102 306t124 358q125 164 306 164t282 -154l72 134h123l-113 -605q-14 -79 25 -121t109 -42t122 66q86 110 86 312q0 308 -181 492t-489 184q-212 0 -374 -121t-242 -300t-80 -377q0 -302 168 -484t457 -182q104 0 189 39t108 104l114 -112
q-30 -90 -156 -137t-266 -48q-356 0 -567 232t-211 598q0 252 112 467t312 344q201 129 447 129q362 0 590 -238t229 -590q0 -212 -98 -372t-279 -160q-180 0 -258 166q-43 -80 -126 -123t-161 -43zM666 399q0 -236 215 -235q78 2 138 57q118 108 118 332q1 105 -57 165
t-166 60t-178 -118t-70 -261z" />
    <glyph glyph-name="A" unicode="A" horiz-adv-x="1310" 
d="M838 1194l-308 -600h367zM0 0l778 1495h226l163 -1495h-213l-39 389h-491l-199 -389h-225z" />
    <glyph glyph-name="B" unicode="B" horiz-adv-x="1228" 
d="M748 860q122 0 204 70t82 163t-58 145t-157 52h-258l-88 -430h275zM645 205q123 -1 205 69t82 164t-60 156q-60 61 -155 61h-285l-94 -450h307zM840 1495q170 1 290 -107t119 -262q0 -270 -262 -376q160 -102 160 -279q0 -219 -165 -345t-388 -126h-512l307 1495h451z
" />
    <glyph glyph-name="C" unicode="C" horiz-adv-x="1474" 
d="M778 -41q-270 0 -452 182t-183 463q0 180 75 352t200 299t296 204t347 77t312 -81t214 -216l-153 -154q-48 113 -148 182t-242 68q-284 0 -486 -221t-202 -500q0 -204 116 -328t327 -124q278 0 471 227l112 -164q-122 -121 -278 -193t-326 -73z" />
    <glyph glyph-name="D" unicode="D" horiz-adv-x="1331" 
d="M655 1290h-96l-223 -1085h115q287 0 476 191t189 464q0 202 -117 316t-344 114zM676 1495q283 0 469 -176t186 -436t-133 -464q-133 -203 -347 -311t-462 -108h-307l307 1495h287z" />
    <glyph glyph-name="E" unicode="E" horiz-adv-x="1146" 
d="M1065 860v-205h-637l-94 -450h670l-41 -205h-881l307 1495h881l-43 -205h-668l-90 -430h596z" />
    <glyph glyph-name="F" unicode="F" horiz-adv-x="1105" 
d="M1044 860v-205h-612l-135 -655h-215l307 1495h881l-43 -205h-666l-88 -430h571z" />
    <glyph glyph-name="G" unicode="G" horiz-adv-x="1658" 
d="M788 -41q-286 0 -465 179q-179 178 -179 438t126 478q127 218 341 350t454 132q354 0 532 -276l-153 -154q-115 229 -400 229q-188 0 -349 -105q-161 -106 -250 -272t-89 -358t116 -314q116 -124 331 -124t381 135t239 340h-768v203h820l163 -205q-86 -291 -326 -483
q-238 -192 -524 -193z" />
    <glyph glyph-name="H" unicode="H" horiz-adv-x="1310" 
d="M1026 860l131 635h215l-307 -1495h-215l135 655h-553l-135 -655h-215l307 1495h215l-131 -635h553z" />
    <glyph glyph-name="I" unicode="I" horiz-adv-x="593" 
d="M72 0l43 205h32l224 1085h-35l43 205h287l-43 -205h-35l-223 -1085h34l-43 -205h-284z" />
    <glyph glyph-name="J" unicode="J" horiz-adv-x="552" 
d="M-20 -205l-41 21v184l61 -10q92 0 113 92l286 1413h215l-290 -1413q-32 -156 -112 -226t-232 -61z" />
    <glyph glyph-name="K" unicode="K" horiz-adv-x="1187" 
d="M1094 1495h278l-768 -750l502 -745h-256l-424 635l-129 -635h-215l307 1495h215l-125 -604z" />
    <glyph glyph-name="L" unicode="L" horiz-adv-x="1064" 
d="M82 0l307 1495h215l-268 -1290h627l-41 -205h-840z" />
    <glyph glyph-name="M" unicode="M" horiz-adv-x="1802" 
d="M922 553l634 942h308l-308 -1495h-213l238 1157l-577 -829h-224l-250 825l-235 -1153h-213l307 1495h262z" />
    <glyph glyph-name="N" unicode="N" horiz-adv-x="1372" 
d="M987 356l236 1139h211l-308 -1495h-245l-351 1159l-237 -1159h-211l307 1495h246z" />
    <glyph glyph-name="O" unicode="O" horiz-adv-x="1699" 
d="M799 162q283 0 485 224t203 495q0 205 -116 329t-327 123q-284 0 -486 -224t-202 -495q0 -204 116 -328t327 -124zM1083 1536q257 0 437 -179t180 -439t-127 -477q-127 -218 -341 -350t-472 -132t-437 179q-179 178 -179 438t126 478q127 218 341 350t472 132z" />
    <glyph glyph-name="P" unicode="P" horiz-adv-x="1187" 
d="M758 840q127 0 212 72t85 194q-1 80 -59 132t-156 52h-279l-92 -450h289zM860 1495q176 0 293 -106t117 -263q0 -231 -165 -360t-388 -131h-291l-129 -635h-215l307 1495h471z" />
    <glyph glyph-name="Q" unicode="Q" horiz-adv-x="1720" 
d="M1487 864q0 222 -116 346t-327 123q-284 0 -486 -224t-202 -495q0 -204 116 -328t326 -124t384 131l-281 280l143 150l283 -287q160 206 160 428zM1083 1536q257 0 437 -179t180 -456q0 -336 -232 -606l252 -254v-41h-245l-154 154q-251 -195 -535 -195t-463 179
q-179 178 -179 438t126 478q127 218 341 350t472 132z" />
    <glyph glyph-name="R" unicode="R" horiz-adv-x="1228" 
d="M768 860q123 0 205 70t82 163q-1 93 -59 145t-156 52h-279l-88 -430h295zM1106 0h-225l-410 655h-39l-135 -655h-215l307 1495h471q170 1 290 -107t120 -262q0 -217 -168 -343t-391 -128l395 -614v-41z" />
    <glyph glyph-name="S" unicode="S" horiz-adv-x="1187" 
d="M717 1333q-116 0 -182 -61t-66 -156q0 -145 186 -233l152 -72q291 -133 291 -401q0 -195 -148 -320t-346 -125q-147 0 -274 75t-196 205t-44 277l217 41q-31 -173 61 -283t257 -110q106 0 181 66t75 163q0 139 -195 230q-90 41 -151 76q-131 75 -205 167t-74 234
q0 188 133 307t338 119t343 -150t116 -358h-217q14 127 -61 218t-191 91z" />
    <glyph glyph-name="T" unicode="T" horiz-adv-x="1064" 
d="M248 1495h1003l-41 -205h-397l-264 -1290h-217l264 1290h-389z" />
    <glyph glyph-name="U" unicode="U" horiz-adv-x="1310" 
d="M901 0v102l-10 11q-66 -72 -157 -113t-181 -41q-178 0 -294 108t-116 281q0 51 11 103l215 1044h215l-217 -1055q-6 -37 -7 -71q0 -95 62 -151t179 -56q118 0 220 85t125 204l211 1044h215l-307 -1495h-164z" />
    <glyph glyph-name="V" unicode="V" horiz-adv-x="1269" 
d="M266 1495h215l117 -1171l623 1171h233l-799 -1495h-225z" />
    <glyph glyph-name="W" unicode="W" horiz-adv-x="1761" 
d="M901 1188h225l109 -830l496 1137h217l-658 -1495h-205l-127 868l-456 -868h-215l-21 1495h205l8 -1135z" />
    <glyph glyph-name="X" unicode="X" horiz-adv-x="1167" 
d="M225 1495h226l235 -557l420 557h246l-576 -766l309 -729h-225l-229 539l-406 -539h-245l563 748z" />
    <glyph glyph-name="Y" unicode="Y" horiz-adv-x="1105" 
d="M246 1495h215l196 -555l418 555h236l-570 -758l-151 -737h-217l151 737z" />
    <glyph glyph-name="Z" unicode="Z" horiz-adv-x="1126" 
d="M307 1290l39 205h924l-43 -205l-934 -1085h690l-41 -205h-942l41 205l934 1085h-668z" />
    <glyph glyph-name="bracketleft" unicode="[" horiz-adv-x="675" 
d="M143 -225l410 1945l20 21h414l-24 -123h-287l-369 -1741h287l-25 -123h-405z" />
    <glyph glyph-name="backslash" unicode="\" horiz-adv-x="1024" 
d="M811 -82l-596 1638h141l596 -1638h-141z" />
    <glyph glyph-name="bracketright" unicode="]" horiz-adv-x="675" 
d="M696 1720l-409 -1945l-21 -21h-413l24 123h287l368 1741h-286l24 123h406z" />
    <glyph glyph-name="asciicircum" unicode="^" horiz-adv-x="1105" 
d="M676 1495l368 -983h-163l-287 788l-289 -788h-162l369 983h164z" />
    <glyph glyph-name="underscore" unicode="_" horiz-adv-x="880" 
d="M-61 0h860v-143h-860v143z" />
    <glyph glyph-name="grave" unicode="`" horiz-adv-x="675" 
d="M246 1382l174 82l174 -389h-195z" />
    <glyph glyph-name="a" unicode="a" horiz-adv-x="1085" 
d="M256 439q0 -129 61 -203t177 -74t200 104t84 244t-64 216q-65 77 -171 77q-139 0 -213 -118t-74 -246zM717 0v82l-10 10l-11 -10q-102 -102 -245 -102q-184 0 -287 133q-102 133 -102 335t136 368q138 167 345 167q96 0 157 -29t119 -94l10 -10l11 10l61 103h174
l-203 -963h-155z" />
    <glyph glyph-name="b" unicode="b" horiz-adv-x="1105" 
d="M348 440q0 -281 225 -280q96 0 167 62q132 116 130 310q0 119 -61 195t-179 76q-118 -1 -200 -105t-82 -258zM676 983q184 0 286 -133t103 -334q0 -201 -146 -369t-356 -167q-96 0 -157 28t-119 94l-11 11l-10 -11l-71 -102h-154l328 1556h204l-153 -675l10 -11l10 11
q86 102 236 102z" />
    <glyph glyph-name="c" unicode="c" horiz-adv-x="921" 
d="M543 801q-147 0 -217 -110t-70 -241q0 -132 61 -210t185 -78t205 125l135 -133q-160 -174 -352 -174t-311 124q-118 124 -118 334q1 211 133 378t349 167q143 0 251 -94t138 -242l-174 -72q-37 226 -215 226z" />
    <glyph glyph-name="d" unicode="d" horiz-adv-x="1085" 
d="M256 439q0 -129 61 -203t177 -74t200 104t84 244t-64 216q-65 77 -171 77q-139 0 -213 -118t-74 -246zM717 0v82l-10 10l-11 -10q-102 -102 -245 -102q-184 0 -287 133q-102 133 -102 335t136 368q138 167 330 167t301 -123l11 -10l10 10l147 696h203l-330 -1556h-153z
" />
    <glyph glyph-name="e" unicode="e" horiz-adv-x="962" 
d="M553 801q-186 0 -258 -195h455q0 90 -52 142t-145 53zM262 430v-20q0 -102 60 -176t176 -72q59 0 116 34t91 80l131 -122q-139 -174 -338 -174t-315 128q-115 128 -115 330t136 374q136 171 359 171q175 0 281 -122t96 -308q-4 -36 -10 -61l-31 -62h-637z" />
    <glyph glyph-name="f" unicode="f" horiz-adv-x="573" 
d="M113 778l37 185h149l61 297q33 156 117 226t250 70l102 -20l-38 -184l-105 20q-102 0 -123 -102l-63 -307h145l-39 -185h-145l-189 -921h-200l188 921h-147z" />
    <glyph glyph-name="g" unicode="g" horiz-adv-x="983" 
d="M133 -50q-1 -85 61 -140q62 -56 155 -56t153 58t61 146q0 89 -63 142q-64 54 -154 54t-152 -60t-61 -144zM295 555q0 -98 55 -164q56 -65 156 -65t167 76t67 176t-59 163q-58 63 -158 63t-164 -75q-64 -76 -64 -174zM748 -57q0 -148 -118 -254q-118 -107 -282 -107
t-282 104t-117 263q0 115 74 211t186 141q-100 117 -100 252q0 184 118 307q119 123 291 123t270 -123l11 -10l10 10l35 103h170l-105 -484q-20 -98 -87 -174t-160 -112q86 -102 86 -250z" />
    <glyph glyph-name="h" unicode="h" horiz-adv-x="1064" 
d="M686 983q174 0 256 -109t45 -280l-127 -594h-205l127 573q23 101 -12 163t-131 62t-180 -69q-84 -70 -105 -176l-110 -553h-203l328 1556h202l-151 -686l10 -10l10 10q41 47 110 80t136 33z" />
    <glyph glyph-name="i" unicode="i" horiz-adv-x="460" 
d="M287 1147v225h205v-225h-205zM41 0l207 963h201l-207 -963h-201z" />
    <glyph glyph-name="j" unicode="j" horiz-adv-x="450" 
d="M287 1147v225h205v-225h-205zM-106 -266q92 0 112 102l240 1127h200l-245 -1147q-31 -146 -112 -206t-236 -61l-99 41l41 174z" />
    <glyph glyph-name="k" unicode="k" horiz-adv-x="942" 
d="M367 575l442 388h276l-565 -484l361 -479h-246l-303 418l-88 -418h-203l330 1556h202z" />
    <glyph glyph-name="l" unicode="l" horiz-adv-x="460" 
d="M276 0h-215l21 184l291 1372h200l-297 -1372v-184z" />
    <glyph glyph-name="m" unicode="m" horiz-adv-x="1597" 
d="M1188 799q-88 0 -163 -75t-95 -171l-113 -553h-201l123 604q39 195 -125 195q-84 0 -152 -66t-97 -158l-121 -575h-203l205 963h164v-93l10 -10l10 10q41 47 109 80t127 33q207 0 266 -164l61 62q102 102 256 102t228 -100t43 -258l-127 -625h-203l123 604
q39 195 -125 195z" />
    <glyph glyph-name="n" unicode="n" horiz-adv-x="1064" 
d="M410 963v-93l10 -10l10 10q41 47 113 80t133 33q180 1 265 -111t48 -278l-129 -594h-203l125 573q23 101 -12 163t-126 62t-169 -58t-106 -152l-125 -588h-203l205 963h164z" />
    <glyph glyph-name="o" unicode="o" horiz-adv-x="1024" 
d="M786 550q0 100 -67 174q-69 75 -191 75t-196 -116t-74 -242q0 -125 64 -201t166 -76t170 61q128 114 128 325zM486 -20q-206 0 -316 131t-109 341t143 370t341 161q199 0 319 -132t119 -339q0 -207 -145 -370q-146 -162 -352 -162z" />
    <glyph glyph-name="p" unicode="p" horiz-adv-x="1105" 
d="M350 462q0 -302 245 -302q128 0 202 118q73 118 73 246t-65 202q-67 75 -181 75t-194 -99q-80 -98 -80 -240zM683 983q169 0 275 -133t106 -335t-141 -369q-142 -167 -350 -166q-176 0 -286 122l-11 11l-10 -11l-112 -512h-201l293 1373h155v-82l11 -11q102 113 271 113z
" />
    <glyph glyph-name="q" unicode="q" horiz-adv-x="1085" 
d="M256 439q0 -129 61 -203t177 -74t200 104t84 244t-64 216q-65 77 -171 77q-139 0 -213 -118t-74 -246zM543 983q96 0 157 -29t119 -94l10 -10l11 10l61 103h174l-287 -1373h-194l113 492l-11 10l-10 -10q-32 -41 -98 -72t-137 -30q-184 0 -287 133q-102 133 -102 335
t136 368q138 167 345 167z" />
    <glyph glyph-name="r" unicode="r" horiz-adv-x="675" 
d="M410 963v-103l10 -10l10 10q104 123 246 123q61 0 102 -20l-33 -164l-49 -21l-71 10q-96 12 -166 -43t-97 -165l-116 -580h-205l205 963h164z" />
    <glyph glyph-name="s" unicode="s" horiz-adv-x="819" 
d="M737 266q0 -122 -94 -202q-95 -80 -243 -80t-264 101t-116 263l193 31q-8 -92 53 -157t154 -64q51 0 89 28t38 80q0 66 -105 111l-96 43q-100 47 -158 121q-57 74 -57 164q0 121 92 197t236 77q144 0 249 -94t97 -250h-193q8 68 -42 119t-112 51t-98 -27t-36 -71
q0 -76 100 -117l96 -41q217 -94 217 -283z" />
    <glyph glyph-name="t" unicode="t" horiz-adv-x="675" 
d="M676 963v-185h-213l-101 -495q-10 -53 16 -87t79 -34h137l-62 -178l-112 -4q-145 10 -213 104t-39 238l92 456h-178l37 185h178l43 204l203 205h41l-84 -409h176z" />
    <glyph glyph-name="u" unicode="u" horiz-adv-x="1064" 
d="M676 0v82l-10 10l-11 -10q-101 -102 -245 -102t-230 82t-86 214q0 53 8 93l131 594h205l-129 -564q-12 -49 -12 -82q0 -77 41 -115t113 -38q111 0 187 68t97 169l117 562h203l-215 -963h-164z" />
    <glyph glyph-name="v" unicode="v" horiz-adv-x="868" 
d="M391 281l357 682h215l-533 -963h-184l-113 963h195z" />
    <glyph glyph-name="w" unicode="w" horiz-adv-x="1310" 
d="M358 279l256 540h213l35 -540l328 684h203l-482 -963h-194l-41 573l-277 -573h-194l-62 963h193z" />
    <glyph glyph-name="x" unicode="x" horiz-adv-x="860" 
d="M471 651l266 312h226l-404 -476l260 -487h-205l-182 340l-289 -340h-225l428 504l-244 459h205z" />
    <glyph glyph-name="y" unicode="y" horiz-adv-x="837" 
d="M416 391l313 572h213l-780 -1373h-203l317 562l-153 811h194z" />
    <glyph glyph-name="z" unicode="z" horiz-adv-x="860" 
d="M133 780l41 183h748l-41 -183l-617 -598h494l-41 -182h-737l40 182l619 598h-506z" />
    <glyph glyph-name="braceleft" unicode="{" 
d="M901 1556h-102q-63 0 -108 -31q-44 -32 -56 -91l-82 -390q-25 -116 -97 -188t-169 -84q102 -12 160 -87t24 -204l-102 -379q-13 -49 15 -86t87 -36h102v-123l-102 -21q-127 0 -199 85t-36 212l94 338q33 119 -34 180t-194 45v144q121 -14 201 45t107 180l82 369
q59 266 307 266l102 -21v-123z" />
    <glyph glyph-name="bar" unicode="|" horiz-adv-x="471" 
d="M379 1577v-1782h-143v1782h143z" />
    <glyph glyph-name="braceright" unicode="}" 
d="M-61 -20h102q63 0 107 32t57 90l82 390q25 116 97 188t169 84q-102 12 -161 87q-58 75 -23 204l102 379q12 49 -15 86q-28 37 -87 36h-103v123l103 21q127 0 199 -85t36 -212l-94 -338q-32 -119 34 -180t193 -45v-144q-121 14 -201 -45t-106 -180l-82 -369
q-59 -266 -307 -266l-102 21v123z" />
    <glyph glyph-name="asciitilde" unicode="~" horiz-adv-x="1105" 
d="M770 553q-47 0 -162 -51q-116 -51 -226 -51q-110 -1 -182 71t-57 205h185q-8 -43 18 -68t73 -25q48 0 169 52q121 51 200 51q127 1 199 -71t57 -205h-184q8 43 -18 67t-72 25z" />
    <glyph glyph-name="uni00A0" unicode="&#xa0;" horiz-adv-x="471" 
 />
    <glyph glyph-name="exclamdown" unicode="&#xa1;" horiz-adv-x="491" 
d="M573 1495v-246h-245v246h245zM440 1147l-71 -615l-103 -532h-246l144 532l235 615h41z" />
    <glyph glyph-name="cent" unicode="&#xa2;" horiz-adv-x="1085" 
d="M367 674q0 -144 94 -211l145 590q-117 -16 -178 -126q-61 -109 -61 -253zM328 -82l84 344q-115 53 -182 166q-66 113 -66 257t55 270t170 209t266 85l82 328h185l-91 -363q105 -47 177 -146t88 -228h-195q-10 121 -117 180l-149 -600q66 2 123 35t80 77h206
q-57 -137 -176 -222t-280 -85l-76 -307h-184z" />
    <glyph glyph-name="sterling" unicode="&#xa3;" horiz-adv-x="1064" 
d="M502 502q0 35 -10 80l-226 -131l-92 163l240 140q-19 39 -40 67q-80 112 -104 250q-4 29 -4 55q0 164 130 277t290 113q199 0 318 -140t92 -332h-203q20 113 -38 192q-59 79 -157 79q-98 1 -157 -61q-117 -122 -11 -321q16 -30 50 -83l229 133l92 -164l-233 -135
q29 -80 28 -152q0 -213 -225 -329h492l-41 -203h-922l41 203h102q168 16 264 99q95 83 95 200z" />
    <glyph glyph-name="currency" unicode="&#xa4;" horiz-adv-x="1105" 
d="M133 593q0 142 80 257l-92 92l115 115l92 -92q117 79 255 79t257 -79l92 92l115 -115l-93 -92q80 -121 80 -258t-80 -254l93 -92l-115 -115l-92 92q-115 -80 -257 -80t-255 80l-92 -92l-115 115l92 92q-80 113 -80 255zM276 594q0 -127 90 -217t218 -90q127 0 217 90
t90 217t-90 217t-217 90q-128 0 -218 -90t-90 -217z" />
    <glyph glyph-name="yen" unicode="&#xa5;" horiz-adv-x="1228" 
d="M526 532v3l-55 247l-246 -96l-61 174l266 101l-123 534h205l150 -745l464 745h226l-346 -537l202 -108l-92 -164l-211 115l-172 -269h338l-37 -174h-338l-71 -358h-205l72 358h-338l36 174h336z" />
    <glyph glyph-name="brokenbar" unicode="&#xa6;" horiz-adv-x="471" 
d="M379 410v-615h-143v615h143zM379 1577v-614h-143v614h143z" />
    <glyph glyph-name="section" unicode="&#xa7;" horiz-adv-x="1024" 
d="M799 567q1 77 -87 131t-190 133q-78 13 -136 -21t-58 -108t98 -137q78 -51 178 -127q78 -14 136 20t59 109zM287 1188q0 166 111 267q112 101 294 101t286 -132q105 -132 66 -318h-196q34 106 -20 182t-162 76q-76 0 -130 -48t-54 -127t85 -151q86 -72 232 -168
q195 -129 194 -284q-1 -115 -73 -182t-185 -82q104 -117 105 -240q0 -166 -112 -267t-293 -101t-287 131q-105 132 -66 319h197q-33 -106 20 -182t162 -76q76 0 130 48t54 127t-86 150t-231 168q-195 129 -195 285q0 114 73 180t183 84q-102 115 -102 240z" />
    <glyph glyph-name="dieresis" unicode="&#xa8;" horiz-adv-x="675" 
d="M573 1157v225h205v-225h-205zM225 1116v225h205v-225h-205z" />
    <glyph glyph-name="copyright" unicode="&#xa9;" horiz-adv-x="1740" 
d="M935 301q-185 0 -295 123t-110 312q0 188 121 332t318 144q133 0 233 -76t146 -210l-154 -62q-10 80 -76 137t-149 58q-127 6 -202 -95q-75 -100 -74 -226t68 -204t185 -79q118 0 187 110l122 -110q-135 -154 -320 -154zM322 748q0 -262 177 -438t433 -175q256 0 433 175
q177 176 177 438t-176 437t-434 175t-434 -175t-176 -437zM184 748q0 311 222 529t526 218q303 0 525 -218t222 -529q0 -312 -223 -530t-525 -218q-303 0 -525 218t-222 530z" />
    <glyph glyph-name="ordfeminine" unicode="&#xaa;" horiz-adv-x="880" 
d="M748 1144q0 228 -194 228q-96 0 -152 -91t-56 -191t47 -159t136 -59t154 81t65 191zM480 731q-128 -1 -208 103t-80 262t107 286q105 128 253 129q148 0 239 -104l8 8l49 80h135l-158 -747h-120v63l-9 8q-88 -88 -216 -88z" />
    <glyph glyph-name="guillemotleft" unicode="&#xab;" horiz-adv-x="839" 
d="M451 123l-390 481l390 481v-235l-195 -246l195 -246v-235zM389 604l389 481v-235l-194 -246l194 -246v-235z" />
    <glyph glyph-name="logicalnot" unicode="&#xac;" horiz-adv-x="1105" 
d="M901 328v471h-778v164h942v-635h-164z" />
    <glyph glyph-name="uni00AD" unicode="&#xad;" horiz-adv-x="698" 
d="M135 696h533l-43 -225h-533z" />
    <glyph glyph-name="registered" unicode="&#xae;" horiz-adv-x="1740" 
d="M993 807q80 0 128 37t48 97q0 116 -122 116h-191l-49 -250h186zM1065 1204q109 0 189 -68t79 -195q0 -126 -96 -201t-252 -78l252 -306l-37 -39h-133l-268 345h-21l-67 -345h-158l174 887h338zM322 748q0 -262 177 -438t433 -175q256 0 433 175q177 176 177 438t-176 437
t-434 175t-434 -175t-176 -437zM184 748q0 311 222 529t526 218q303 0 525 -218t222 -529q0 -312 -223 -530t-525 -218q-303 0 -525 218t-222 530z" />
    <glyph glyph-name="macron" unicode="&#xaf;" horiz-adv-x="675" 
d="M223 1137v157h555v-157h-555z" />
    <glyph glyph-name="degree" unicode="&#xb0;" horiz-adv-x="737" 
d="M369 1188q0 -70 47 -117q46 -47 116 -47t117 47t47 117t-47 117t-117 47t-116 -47t-47 -117zM225 1188q0 131 89 219t218 88q128 0 218 -88t90 -219t-89 -219t-219 -88t-218 88q-89 88 -89 219z" />
    <glyph glyph-name="plusminus" unicode="&#xb1;" horiz-adv-x="1105" 
d="M1044 0h-942v164h942v-164zM655 410h-163v389h-390v164h390v389h163v-389h369v-164h-369v-389z" />
    <glyph glyph-name="twosuperior" unicode="&#xb2;" 
d="M297 1618h-143q10 127 88 190q78 64 178 64t168 -69t67 -175q0 -145 -192 -239q-10 -3 -40 -19t-44 -23q-136 -68 -156 -104h359l-25 -127h-506l17 80q13 65 59 111t74 65q29 20 39 28t42 27q32 18 52 32t70 40q50 27 80 59t30 76t-30 76q-30 31 -76 31t-79 -33
q-32 -33 -32 -90z" />
    <glyph glyph-name="threesuperior" unicode="&#xb3;" 
d="M342 1106q-118 0 -192 81t-58 195h139q-12 -61 24 -103t97 -42t97 34q35 34 35 83t-33 81t-82 42l-113 18v102l219 140h-280l30 127h420l31 -127l-244 -152q86 -17 139 -79t53 -160t-82 -168q-83 -72 -200 -72z" />
    <glyph glyph-name="acute" unicode="&#xb4;" horiz-adv-x="675" 
d="M645 1464l133 -131l-248 -258h-221z" />
    <glyph glyph-name="mu" unicode="&#xb5;" horiz-adv-x="1075" 
d="M434 -20q-130 0 -188 71l-96 -485h-201l295 1397h205l-130 -564q-12 -49 -12 -82q0 -77 41 -115t113 -38q111 0 187 68t97 169l117 562h203l-215 -963h-164v82l-10 10q-112 -112 -242 -112z" />
    <glyph glyph-name="mu" unicode="&#x3bc;" horiz-adv-x="1075" 
d="M434 -20q-130 0 -188 71l-96 -485h-201l295 1397h205l-130 -564q-12 -49 -12 -82q0 -77 41 -115t113 -38q111 0 187 68t97 169l117 562h203l-215 -963h-164v82l-10 10q-112 -112 -242 -112z" />
    <glyph glyph-name="paragraph" unicode="&#xb6;" horiz-adv-x="860" 
d="M143 1190q0 135 89 220t229 85h133l-143 -1833h-144l92 1219q-106 8 -181 91t-75 218zM696 1495h144l-144 -1833h-143z" />
    <glyph glyph-name="periodcentered" unicode="&#xb7;" horiz-adv-x="389" 
d="M102 471v266h267v-266h-267z" />
    <glyph glyph-name="cedilla" unicode="&#xb8;" horiz-adv-x="675" 
d="M188 -262q73 0 72 47q0 63 -117 51l52 184h153l-22 -92q106 -35 106 -143q0 -80 -66 -137q-66 -58 -154 -58q-172 -1 -235 72l95 133q43 -57 116 -57z" />
    <glyph glyph-name="onesuperior" unicode="&#xb9;" 
d="M145 1577v20l256 267h185l-154 -748h-141l125 590l-115 -129h-156z" />
    <glyph glyph-name="ordmasculine" unicode="&#xba;" horiz-adv-x="880" 
d="M788 1161q0 95 -54 151t-149 56t-153 -91t-59 -189q0 -98 51 -155q51 -59 145 -59q95 0 157 96t62 191zM942 1149q0 -164 -114 -291t-273 -127q-160 0 -248 99q-88 100 -88 266t110 290q111 124 269 125q158 0 251 -99t93 -263z" />
    <glyph glyph-name="guillemotright" unicode="&#xbb;" horiz-adv-x="839" 
d="M143 1085l389 -481l-389 -481v235l195 246l-195 246v235zM862 604l-391 -481v235l197 246l-197 246v235z" />
    <glyph glyph-name="onequarter" unicode="&#xbc;" horiz-adv-x="1126" 
d="M625 328h219l51 245zM1096 1126l-860 -757h-154l860 757h154zM123 1208v21l256 266h184l-153 -747h-142l125 589l-114 -129h-156zM424 197l27 131l460 420h164l-88 -420h78l-27 -131h-77l-39 -197h-144l39 197h-393z" />
    <glyph glyph-name="onehalf" unicode="&#xbd;" horiz-adv-x="1126" 
d="M1075 1126l-860 -757h-154l861 757h153zM123 1208v21l256 266h184l-153 -747h-142l125 589l-114 -129h-156zM748 502h-144q10 127 88 190q78 64 178 64t168 -69t68 -175q0 -146 -200 -244t-230 -137h358l-26 -131h-506l16 80q13 64 65 116l31 31q12 13 39 31t37 26t42 27
q32 17 40 23t41 24t63 35q90 52 89 129q0 41 -30 72t-77 31q-46 0 -78 -33t-32 -90z" />
    <glyph glyph-name="threequarters" unicode="&#xbe;" horiz-adv-x="1126" 
d="M645 328h219l51 245zM1147 1126l-840 -757h-153l839 757h154zM342 737q-118 0 -192 81t-58 196h139q-12 -62 24 -104t97 -42t97 34q35 34 35 83t-33 81t-82 42l-113 18v103l219 139h-280l30 127h420l31 -127l-244 -151q86 -17 139 -79t53 -160t-82 -170q-83 -72 -200 -71
zM471 328l461 420h164l-88 -420h77l-26 -131h-78l-39 -197h-143l39 197h-394z" />
    <glyph glyph-name="questiondown" unicode="&#xbf;" horiz-adv-x="962" 
d="M819 1495v-246h-246v246h246zM444 0q-160 0 -282 104q-121 104 -121 275q0 88 36 161t98 127t182 127q120 74 167 116q104 93 70 237l203 -43q12 -125 -40 -215q-52 -89 -136 -143t-168 -100q-207 -113 -207 -257q0 -90 60 -143t150 -53t156 62q64 62 86 175l183 -82
q-33 -150 -155 -249t-282 -99z" />
    <glyph glyph-name="Agrave" unicode="&#xc0;" horiz-adv-x="1310" 
d="M633 1872l164 102l207 -366h-207zM530 594h367l-59 600zM778 1495h226l163 -1495h-213l-39 389h-491l-199 -389h-225z" />
    <glyph glyph-name="Aacute" unicode="&#xc1;" horiz-adv-x="1310" 
d="M1171 1968l119 -143l-264 -217h-248zM530 594h367l-59 600zM778 1495h226l163 -1495h-213l-39 389h-491l-199 -389h-225z" />
    <glyph glyph-name="Acircumflex" unicode="&#xc2;" horiz-adv-x="1310" 
d="M604 1753l260 207h172l187 -223l-136 -125l-155 180l-225 -180zM838 1194l-308 -600h367zM0 0l778 1495h226l163 -1495h-213l-39 389h-491l-199 -389h-225z" />
    <glyph glyph-name="Atilde" unicode="&#xc3;" horiz-adv-x="1310" 
d="M795 1782q29 0 111 49t167 49q86 0 134 -66t22 -186h-170q23 78 -29 78q-22 0 -106 -52t-166 -52t-128 52t-32 148l170 64q-14 -32 -8 -58t35 -26zM530 594h367l-59 600zM778 1495h226l163 -1495h-213l-39 389h-491l-199 -389h-225z" />
    <glyph glyph-name="Adieresis" unicode="&#xc4;" horiz-adv-x="1310" 
d="M956 1663v203h226v-203h-226zM608 1622v203h226v-203h-226zM530 594h367l-59 600zM778 1495h226l163 -1495h-213l-39 389h-491l-199 -389h-225z" />
    <glyph glyph-name="Aring" unicode="&#xc5;" horiz-adv-x="1310" 
d="M823 1772q0 -39 25 -64q26 -25 64 -25t63 25t24 64q-1 40 -25 64t-63 24t-63 -24t-25 -64zM690 1772q0 92 66 154t156 62t155 -62q66 -62 66 -154t-66 -154t-156 -64q-89 0 -155 63t-66 155zM838 1194l-308 -600h367zM0 0l778 1495h226l163 -1495h-213l-39 389h-491
l-199 -389h-225z" />
    <glyph glyph-name="AE" unicode="&#xc6;" horiz-adv-x="1576" 
d="M801 1176l-279 -562h307zM1495 860v-205h-461l27 -450h373l-41 -205h-533l-20 410h-420l-205 -410h-215l758 1495h942l-43 -205h-662l27 -430h473z" />
    <glyph glyph-name="Ccedilla" unicode="&#xc7;" horiz-adv-x="1474" 
d="M823 -215q-1 -80 -67 -137q-66 -58 -153 -58q-171 -1 -234 72l94 133q43 -57 116 -57t72 47q0 63 -116 51l40 154q-195 59 -313 224q-118 166 -119 368q0 202 75 374t200 299t296 204t347 77t312 -81t214 -216l-153 -154q-48 113 -148 182t-242 68q-284 0 -486 -221
t-202 -500q0 -204 116 -328t327 -124q279 0 471 227l112 -164q-122 -121 -278 -193t-326 -73l-53 2l-8 -33q106 -35 106 -143z" />
    <glyph glyph-name="Egrave" unicode="&#xc8;" horiz-adv-x="1146" 
d="M614 1872l164 102l207 -366h-207zM1065 860v-205h-637l-94 -450h670l-41 -205h-881l307 1495h881l-43 -205h-668l-90 -430h596z" />
    <glyph glyph-name="Eacute" unicode="&#xc9;" horiz-adv-x="1146" 
d="M1083 1968l119 -143l-264 -217h-248zM1065 860v-205h-637l-94 -450h670l-41 -205h-881l307 1495h881l-43 -205h-668l-90 -430h596z" />
    <glyph glyph-name="Ecircumflex" unicode="&#xca;" horiz-adv-x="1146" 
d="M563 1753l260 207h172l187 -223l-135 -125l-156 180l-225 -180zM1065 860v-205h-637l-94 -450h670l-41 -205h-881l307 1495h881l-43 -205h-668l-90 -430h596z" />
    <glyph glyph-name="Edieresis" unicode="&#xcb;" horiz-adv-x="1146" 
d="M922 1663v203h225v-203h-225zM573 1622v203h226v-203h-226zM1065 860v-205h-637l-94 -450h670l-41 -205h-881l307 1495h881l-43 -205h-668l-90 -430h596z" />
    <glyph glyph-name="Igrave" unicode="&#xcc;" horiz-adv-x="593" 
d="M295 1872l164 102l207 -366h-207zM115 205h32l224 1085h-35l43 205h287l-43 -205h-35l-223 -1085h34l-43 -205h-284z" />
    <glyph glyph-name="Iacute" unicode="&#xcd;" horiz-adv-x="593" 
d="M795 1968l118 -143l-264 -217h-248zM115 205h32l224 1085h-35l43 205h287l-43 -205h-35l-223 -1085h34l-43 -205h-284z" />
    <glyph glyph-name="Icircumflex" unicode="&#xce;" horiz-adv-x="593" 
d="M250 1753l260 207h172l186 -223l-135 -125l-155 180l-226 -180zM72 0l43 205h32l224 1085h-35l43 205h287l-43 -205h-35l-223 -1085h34l-43 -205h-284z" />
    <glyph glyph-name="Idieresis" unicode="&#xcf;" horiz-adv-x="593" 
d="M602 1663v203h225v-203h-225zM254 1622v203h225v-203h-225zM115 205h32l224 1085h-35l43 205h287l-43 -205h-35l-223 -1085h34l-43 -205h-284z" />
    <glyph glyph-name="Eth" unicode="&#xd0;" horiz-adv-x="1331" 
d="M655 1290h-75l-95 -450h228l-37 -185h-227l-93 -450h95q287 0 476 191t189 464q0 202 -117 316t-344 114zM676 1495q283 0 469 -176t186 -436t-133 -464q-133 -203 -347 -311t-462 -108h-287l136 655h-177l37 185h176l136 655h266z" />
    <glyph glyph-name="Ntilde" unicode="&#xd1;" horiz-adv-x="1372" 
d="M825 1782q29 0 111 49t168 49t134 -66t22 -186h-170q23 78 -29 78q-23 0 -107 -52t-166 -52t-128 52t-31 148l170 64q-15 -32 -9 -58t35 -26zM1223 1495h211l-308 -1495h-245l-351 1159l-237 -1159h-211l307 1495h246l352 -1139z" />
    <glyph glyph-name="Ograve" unicode="&#xd2;" horiz-adv-x="1699" 
d="M827 1872l164 102l207 -366h-207zM799 162q283 0 485 224t203 495q0 205 -116 329t-327 123q-284 0 -486 -224t-202 -495q0 -204 116 -328t327 -124zM1083 1536q257 0 437 -179t180 -439t-127 -477q-127 -218 -341 -350t-472 -132t-437 179q-179 178 -179 438t126 478
q127 218 341 350t472 132z" />
    <glyph glyph-name="Oacute" unicode="&#xd3;" horiz-adv-x="1699" 
d="M1358 1968l119 -143l-265 -217h-247zM799 162q283 0 485 224t203 495q0 205 -116 329t-327 123q-284 0 -486 -224t-202 -495q0 -204 116 -328t327 -124zM1083 1536q257 0 437 -179t180 -439t-127 -477q-127 -218 -341 -350t-472 -132t-437 179q-179 178 -179 438t126 478
q127 218 341 350t472 132z" />
    <glyph glyph-name="Ocircumflex" unicode="&#xd4;" horiz-adv-x="1699" 
d="M807 1753l260 207h172l186 -223l-135 -125l-155 180l-226 -180zM799 162q283 0 485 224t203 495q0 205 -116 329t-327 123q-284 0 -486 -224t-202 -495q0 -204 116 -328t327 -124zM1083 1536q257 0 437 -179t180 -439t-127 -477q-127 -218 -341 -350t-472 -132t-437 179
q-179 178 -179 438t126 478q127 218 341 350t472 132z" />
    <glyph glyph-name="Otilde" unicode="&#xd5;" horiz-adv-x="1699" 
d="M989 1782q29 0 111 49t168 49t134 -65q48 -66 21 -187h-170q23 78 -28 78q-23 0 -107 -52t-166 -52t-128 52t-31 148l170 64q-14 -33 -9 -59q6 -25 35 -25zM799 162q283 0 485 224t203 495q0 205 -116 329t-327 123q-284 0 -486 -224t-202 -495q0 -204 116 -328t327 -124
zM1083 1536q257 0 437 -179t180 -439t-127 -477q-127 -218 -341 -350t-472 -132t-437 179q-179 178 -179 438t126 478q127 218 341 350t472 132z" />
    <glyph glyph-name="Odieresis" unicode="&#xd6;" horiz-adv-x="1699" 
d="M1147 1663v203h225v-203h-225zM799 1622v203h225v-203h-225zM799 162q283 0 485 224t203 495q0 205 -116 329t-327 123q-284 0 -486 -224t-202 -495q0 -204 116 -328t327 -124zM1083 1536q257 0 437 -179t180 -439t-127 -477q-127 -218 -341 -350t-472 -132t-437 179
q-179 178 -179 438t126 478q127 218 341 350t472 132z" />
    <glyph glyph-name="multiply" unicode="&#xd7;" horiz-adv-x="1105" 
d="M1044 246l-114 -115l-348 346l-349 -346l-114 115l346 348l-346 348l114 115l349 -346l348 346l114 -115l-346 -348z" />
    <glyph glyph-name="Oslash" unicode="&#xd8;" horiz-adv-x="1699" 
d="M799 162q283 0 485 224t203 495q0 104 -35 196l-956 -813q115 -102 303 -102zM1044 1333q-284 0 -486 -224t-202 -495q0 -113 33 -196l959 813q-120 102 -304 102zM1700 901q0 -242 -127 -460t-341 -350t-469 -132t-429 168l-150 -127h-286l323 274q-78 139 -78 320
q0 242 127 460t341 350t466 132t432 -168l150 127h287l-324 -274q78 -145 78 -320z" />
    <glyph glyph-name="Ugrave" unicode="&#xd9;" horiz-adv-x="1310" 
d="M645 1872l164 102l207 -366h-207zM901 0v102l-10 11q-66 -72 -157 -113t-181 -41q-178 0 -294 108t-116 281q0 51 11 103l215 1044h215l-217 -1055q-6 -37 -7 -71q0 -95 62 -151t179 -56q118 0 220 85t125 204l211 1044h215l-307 -1495h-164z" />
    <glyph glyph-name="Uacute" unicode="&#xda;" horiz-adv-x="1310" 
d="M1114 1968l119 -143l-264 -217h-248zM901 0v102l-10 11q-66 -72 -157 -113t-181 -41q-178 0 -294 108t-116 281q0 51 11 103l215 1044h215l-217 -1055q-6 -37 -7 -71q0 -95 62 -151t179 -56q118 0 220 85t125 204l211 1044h215l-307 -1495h-164z" />
    <glyph glyph-name="Ucircumflex" unicode="&#xdb;" horiz-adv-x="1310" 
d="M602 1753l260 207h172l187 -223l-136 -125l-155 180l-225 -180zM901 0v102l-10 11q-66 -72 -157 -113t-181 -41q-178 0 -294 108t-116 281q0 51 11 103l215 1044h215l-217 -1055q-6 -37 -7 -71q0 -95 62 -151t179 -56q118 0 220 85t125 204l211 1044h215l-307 -1495h-164
z" />
    <glyph glyph-name="Udieresis" unicode="&#xdc;" horiz-adv-x="1310" 
d="M973 1663v203h225v-203h-225zM625 1622v203h225v-203h-225zM901 0v102l-10 11q-66 -72 -157 -113t-181 -41q-178 0 -294 108t-116 281q0 51 11 103l215 1044h215l-217 -1055q-6 -37 -7 -71q0 -95 62 -151t179 -56q118 0 220 85t125 204l211 1044h215l-307 -1495h-164z
" />
    <glyph glyph-name="Yacute" unicode="&#xdd;" horiz-adv-x="1105" 
d="M1047 1968l118 -143l-264 -217h-248zM461 1495l196 -555l418 555h236l-570 -758l-151 -737h-217l151 737l-278 758h215z" />
    <glyph glyph-name="Thorn" unicode="&#xde;" horiz-adv-x="1230" 
d="M717 532q127 0 213 74t86 193q0 78 -60 131t-157 53h-301l-92 -451h311zM819 1188q176 0 294 -106t118 -263q0 -231 -166 -361t-389 -130h-311l-68 -328h-215l307 1495h215l-63 -307h278z" />
    <glyph glyph-name="germandbls" unicode="&#xdf;" horiz-adv-x="1085" 
d="M614 913q137 0 225 77q87 76 87 186t-58 163t-151 54q-205 0 -246 -205l-57 -275h200zM584 729h-209l-150 -729h-205l250 1221q37 180 159 268t296 88t288 -110t113 -279q0 -123 -76 -227t-200 -152q88 -55 141 -151t53 -207q0 -236 -170 -371t-397 -90l-96 164l10 41
l101 -21q156 -31 252 55t98 232q0 104 -74 186t-184 82z" />
    <glyph glyph-name="agrave" unicode="&#xe0;" horiz-adv-x="1085" 
d="M455 1382l174 82l174 -389h-195zM256 439q0 -129 61 -203t177 -74t200 104t84 244t-64 216q-65 77 -171 77q-139 0 -213 -118t-74 -246zM717 0v82l-10 10l-11 -10q-102 -102 -245 -102q-184 0 -287 133q-102 133 -102 335t136 368q138 167 345 167q96 0 157 -29t119 -94
l10 -10l11 10l61 103h174l-203 -963h-155z" />
    <glyph glyph-name="aacute" unicode="&#xe1;" horiz-adv-x="1085" 
d="M809 1464l133 -131l-248 -258h-221zM256 439q0 -129 61 -203t177 -74t200 104t84 244t-64 216q-65 77 -171 77q-139 0 -213 -118t-74 -246zM717 0v82l-10 10l-11 -10q-102 -102 -245 -102q-184 0 -287 133q-102 133 -102 335t136 368q138 167 345 167q96 0 157 -29
t119 -94l10 -10l11 10l61 103h174l-203 -963h-155z" />
    <glyph glyph-name="acircumflex" unicode="&#xe2;" horiz-adv-x="1085" 
d="M358 1204l224 189h194l144 -226l-144 -96l-112 170l-197 -170zM256 439q0 -129 61 -203t177 -74t200 104t84 244t-64 216q-65 77 -171 77q-139 0 -213 -118t-74 -246zM717 0v82l-10 10l-11 -10q-102 -102 -245 -102q-184 0 -287 133q-102 133 -102 335t136 368
q138 167 345 167q96 0 157 -29t119 -94l10 -10l11 10l61 103h174l-203 -963h-155z" />
    <glyph glyph-name="atilde" unicode="&#xe3;" horiz-adv-x="1085" 
d="M526 1233q33 0 111 49t139 49q94 1 136 -65t18 -181h-150q12 37 3 57t-35 21q-26 0 -110 -49t-154 -49t-110 51t-26 139l150 56q-27 -78 28 -78zM256 439q0 -129 61 -203t177 -74t200 104t84 244t-64 216q-65 77 -171 77q-139 0 -213 -118t-74 -246zM717 0v82l-10 10
l-11 -10q-102 -102 -245 -102q-184 0 -287 133q-102 133 -102 335t136 368q138 167 345 167q96 0 157 -29t119 -94l10 -10l11 10l61 103h174l-203 -963h-155z" />
    <glyph glyph-name="adieresis" unicode="&#xe4;" horiz-adv-x="1085" 
d="M745 1157v225h205v-225h-205zM397 1116v225h205v-225h-205zM256 439q0 -129 61 -203t177 -74t200 104t84 244t-64 216q-65 77 -171 77q-139 0 -213 -118t-74 -246zM717 0v82l-10 10l-11 -10q-102 -102 -245 -102q-184 0 -287 133q-102 133 -102 335t136 368
q138 167 345 167q96 0 157 -29t119 -94l10 -10l11 10l61 103h174l-203 -963h-155z" />
    <glyph glyph-name="aring" unicode="&#xe5;" horiz-adv-x="1085" 
d="M553 1260q0 -39 27 -66q28 -27 66 -27t65 27t26 66q-1 40 -27 66t-65 26t-65 -26t-27 -66zM420 1260q0 94 65 156q66 62 160 62t160 -62q65 -62 65 -156t-65 -157q-66 -63 -160 -63t-160 63q-65 63 -65 157zM256 439q0 -129 61 -203t177 -74t200 104t84 244t-64 216
q-65 77 -171 77q-139 0 -213 -118t-74 -246zM717 0v82l-10 10l-11 -10q-102 -102 -245 -102q-184 0 -287 133q-102 133 -102 335t136 368q138 167 345 167q96 0 157 -29t119 -94l10 -10l11 10l61 103h174l-203 -963h-155z" />
    <glyph glyph-name="ae" unicode="&#xe6;" horiz-adv-x="1681" 
d="M1260 801q-176 0 -252 -193h456q-4 88 -57 140t-147 53zM543 803q-107 1 -173 -63t-90 -144t-24 -182t61 -178q61 -74 177 -74t194 99q80 99 80 241t-59 221q-59 80 -166 80zM717 0v82l-10 10l-11 -10q-102 -102 -245 -102q-184 0 -287 133q-102 133 -102 335t136 368
q138 167 345 167q96 0 157 -29t119 -94l10 -10l11 10l61 103h174l-6 -29q94 49 201 49q176 0 286 -123t103 -307q0 -25 -10 -61l-31 -62h-645v-20q0 -102 60 -176t175 -72q58 0 116 34t91 80l131 -122q-140 -174 -338 -174t-313 124l-23 -104h-155z" />
    <glyph glyph-name="ccedilla" unicode="&#xe7;" horiz-adv-x="921" 
d="M321 -262q73 0 72 47q0 63 -117 51l48 172q-123 45 -193 158t-70 274q1 209 133 376t349 167q143 0 251 -94t138 -242l-174 -72q-37 225 -215 226q-147 0 -217 -110t-70 -241q0 -132 61 -210t185 -78t205 125l135 -133q-160 -174 -350 -174h-21l-12 -52q106 -35 106 -143
q-1 -80 -67 -137q-66 -58 -153 -58q-171 -1 -234 72l94 133q43 -57 116 -57z" />
    <glyph glyph-name="egrave" unicode="&#xe8;" horiz-adv-x="962" 
d="M346 1382l174 82l174 -389h-194zM553 801q-186 0 -258 -195h455q0 90 -52 142t-145 53zM262 430v-20q0 -102 60 -176t176 -72q59 0 116 34t91 80l131 -122q-139 -174 -338 -174t-315 128q-115 128 -115 330t136 374q136 171 359 171q175 0 281 -122t96 -308
q-4 -37 -10 -61l-31 -62h-637z" />
    <glyph glyph-name="eacute" unicode="&#xe9;" horiz-adv-x="962" 
d="M809 1464l133 -131l-248 -258h-221zM553 801q-186 0 -258 -195h455q0 90 -52 142t-145 53zM262 430v-20q0 -102 60 -176t176 -72q59 0 116 34t91 80l131 -122q-139 -174 -338 -174t-315 128q-115 128 -115 330t136 374q136 171 359 171q175 0 281 -122t96 -308
q-4 -37 -10 -61l-31 -62h-637z" />
    <glyph glyph-name="ecircumflex" unicode="&#xea;" horiz-adv-x="962" 
d="M336 1204l223 189h195l143 -226l-143 -96l-113 170l-197 -170zM553 801q-186 0 -258 -195h455q0 90 -52 142t-145 53zM262 430v-20q0 -102 60 -176t176 -72q59 0 116 34t91 80l131 -122q-139 -174 -338 -174t-315 128q-115 128 -115 330t136 374q136 171 359 171
q175 0 281 -122t96 -308q-4 -36 -10 -61l-31 -62h-637z" />
    <glyph glyph-name="edieresis" unicode="&#xeb;" horiz-adv-x="962" 
d="M725 1157v225h205v-225h-205zM377 1116v225h205v-225h-205zM553 801q-186 0 -258 -195h455q0 90 -52 142t-145 53zM262 430v-20q0 -102 60 -176t176 -72q59 0 116 34t91 80l131 -122q-139 -174 -338 -174t-315 128q-115 128 -115 330t136 374q136 171 359 171
q175 0 281 -122t96 -308q-4 -37 -10 -61l-31 -62h-637z" />
    <glyph glyph-name="igrave" unicode="&#xec;" horiz-adv-x="460" 
d="M131 1382l174 82l174 -389h-194zM41 0l207 963h203l-207 -963h-203z" />
    <glyph glyph-name="iacute" unicode="&#xed;" horiz-adv-x="460" 
d="M592 1464l133 -131l-248 -258h-221zM41 0l207 963h203l-207 -963h-203z" />
    <glyph glyph-name="icircumflex" unicode="&#xee;" horiz-adv-x="460" 
d="M106 1204l224 189h194l144 -226l-144 -96l-112 170l-197 -170zM41 0l207 963h203l-207 -963h-203z" />
    <glyph glyph-name="idieresis" unicode="&#xef;" horiz-adv-x="460" 
d="M465 1157v225h205v-225h-205zM117 1116v225h205v-225h-205zM41 0l207 963h203l-207 -963h-203z" />
    <glyph glyph-name="eth" unicode="&#xf0;" horiz-adv-x="1105" 
d="M819 518q0 135 -65 210q-66 75 -192 75t-208 -114t-82 -249q0 -281 240 -280q133 0 220 112t87 246zM1085 899q0 -200 -94 -500q-57 -186 -190 -303q-133 -116 -311 -116t-293 122t-115 342q0 218 142 378t339 161q107 0 193 -56t125 -149l10 -10l10 10q51 223 -45 383
l-170 -117l-92 134l154 106q-150 123 -379 129l123 154q239 -44 395 -187l137 95l94 -134l-127 -88q94 -154 94 -354z" />
    <glyph glyph-name="ntilde" unicode="&#xf1;" horiz-adv-x="1064" 
d="M578 1233q32 0 110 49t139 49q94 0 137 -65q42 -66 17 -181h-150q25 78 -30 78q-27 0 -112 -49t-155 -49t-109 51q-40 51 -26 139l150 56q-26 -78 29 -78zM410 963v-93l10 -10l10 10q41 47 113 80t133 33q180 0 265 -112t48 -277l-129 -594h-203l125 573q23 101 -12 163
t-126 62t-169 -58t-106 -152l-125 -588h-203l205 963h164z" />
    <glyph glyph-name="ograve" unicode="&#xf2;" horiz-adv-x="1024" 
d="M395 1382l174 82l174 -389h-194zM786 550q0 100 -67 174q-69 75 -191 75t-196 -116t-74 -242q0 -125 64 -201t166 -76t170 61q128 114 128 325zM486 -20q-206 0 -316 131t-109 341t143 370t341 161q199 0 319 -132t119 -339q0 -207 -145 -370q-146 -162 -352 -162z" />
    <glyph glyph-name="oacute" unicode="&#xf3;" horiz-adv-x="1024" 
d="M788 1464l134 -131l-248 -258h-221zM786 550q0 100 -67 174q-69 75 -191 75t-196 -116t-74 -242q0 -125 64 -201t166 -76t170 61q128 114 128 325zM486 -20q-206 0 -316 131t-109 341t143 370t341 161q199 0 319 -132t119 -339q0 -207 -145 -370q-146 -162 -352 -162z
" />
    <glyph glyph-name="ocircumflex" unicode="&#xf4;" horiz-adv-x="1024" 
d="M350 1204l223 189h195l143 -226l-143 -96l-113 170l-196 -170zM786 550q0 100 -67 174q-69 75 -191 75t-196 -116t-74 -242q0 -125 64 -201t166 -76t170 61q128 114 128 325zM486 -20q-206 0 -316 131t-109 341t143 370t341 161q199 0 319 -132t119 -339
q0 -207 -145 -370q-146 -162 -352 -162z" />
    <glyph glyph-name="otilde" unicode="&#xf5;" horiz-adv-x="1024" 
d="M494 1233q32 0 110 49t139 49q94 0 137 -65q42 -66 17 -181h-149q12 37 3 57t-35 21q-26 0 -111 -49t-155 -49t-109 51q-40 51 -26 139l150 56q-26 -78 29 -78zM786 550q0 100 -67 174q-69 75 -191 75t-196 -116t-74 -242q0 -125 64 -201t166 -76t170 61q128 114 128 325
zM486 -20q-206 0 -316 131t-109 341t143 370t341 161q199 0 319 -132t119 -339q0 -207 -145 -370q-146 -162 -352 -162z" />
    <glyph glyph-name="odieresis" unicode="&#xf6;" horiz-adv-x="1024" 
d="M721 1157v225h205v-225h-205zM373 1116v225h205v-225h-205zM786 550q0 100 -67 174q-69 75 -191 75t-196 -116t-74 -242q0 -125 64 -201t166 -76t170 61q128 114 128 325zM486 -20q-206 0 -316 131t-109 341t143 370t341 161q199 0 319 -132t119 -339q0 -207 -145 -370
q-146 -162 -352 -162z" />
    <glyph glyph-name="divide" unicode="&#xf7;" horiz-adv-x="1105" 
d="M123 676h942v-164h-942v164zM471 1085h246v-245h-246v245zM471 348h246v-246h-246v246z" />
    <glyph glyph-name="oslash" unicode="&#xf8;" horiz-adv-x="1024" 
d="M786 532q0 37 -6 68l-434 -385q61 -51 156 -51q128 0 206 118t78 250zM543 799q-133 0 -209 -116t-76 -243q0 -41 6 -78l434 383q-67 54 -155 54zM983 522q0 -219 -143 -381q-142 -161 -334 -161t-305 106l-99 -86h-245l249 221q-45 98 -45 230q-1 213 141 373t351 159
q174 0 289 -109l100 89h246l-252 -224q47 -98 47 -217z" />
    <glyph glyph-name="ugrave" unicode="&#xf9;" horiz-adv-x="1064" 
d="M426 1382l174 82l174 -389h-194zM676 0v82l-10 10l-11 -10q-101 -102 -245 -102t-230 82t-86 214q0 53 8 93l131 594h205l-129 -564q-12 -49 -12 -82q0 -77 41 -115t113 -38q111 0 187 68t97 169l117 562h203l-215 -963h-164z" />
    <glyph glyph-name="uacute" unicode="&#xfa;" horiz-adv-x="1064" 
d="M846 1464l133 -131l-248 -258h-221zM676 0v82l-10 10l-11 -10q-101 -102 -245 -102t-230 82t-86 214q0 53 8 93l131 594h205l-129 -564q-12 -49 -12 -82q0 -77 41 -115t113 -38q111 0 187 68t97 169l117 562h203l-215 -963h-164z" />
    <glyph glyph-name="ucircumflex" unicode="&#xfb;" horiz-adv-x="1064" 
d="M401 1204l224 189h194l144 -226l-144 -96l-112 170l-197 -170zM676 0v82l-10 10l-11 -10q-101 -102 -245 -102t-230 82t-86 214q0 53 8 93l131 594h205l-129 -564q-12 -49 -12 -82q0 -77 41 -115t113 -38q111 0 187 68t97 169l117 562h203l-215 -963h-164z" />
    <glyph glyph-name="udieresis" unicode="&#xfc;" horiz-adv-x="1064" 
d="M752 1157v225h204v-225h-204zM403 1116v225h205v-225h-205zM676 0v82l-10 10l-11 -10q-101 -102 -245 -102t-230 82t-86 214q0 53 8 93l131 594h205l-129 -564q-12 -49 -12 -82q0 -77 41 -115t113 -38q111 0 187 68t97 169l117 562h203l-215 -963h-164z" />
    <glyph glyph-name="yacute" unicode="&#xfd;" horiz-adv-x="837" 
d="M754 1464l133 -131l-248 -258h-221zM729 963h213l-780 -1373h-203l317 562l-153 811h194l99 -572z" />
    <glyph glyph-name="thorn" unicode="&#xfe;" horiz-adv-x="1105" 
d="M348 454q0 -294 248 -294q127 0 201 118q73 118 73 246t-61 203q-61 76 -179 76q-118 -1 -200 -105t-82 -244zM676 983q184 0 286 -133t103 -335q0 -202 -142 -369t-350 -166q-180 0 -286 122l-11 11l-10 -11l-112 -512h-199l414 1966h204l-153 -675l10 -11l10 11
q86 102 236 102z" />
    <glyph glyph-name="ydieresis" unicode="&#xff;" horiz-adv-x="837" 
d="M653 1157v225h205v-225h-205zM305 1116v225h205v-225h-205zM729 963h213l-780 -1373h-203l317 562l-153 811h194l99 -572z" />
    <glyph glyph-name="Amacron" unicode="&#x100;" horiz-adv-x="1310" 
d="M625 1661v164h553v-164h-553zM530 594h367l-59 600zM778 1495h226l163 -1495h-213l-39 389h-491l-199 -389h-225z" />
    <glyph glyph-name="amacron" unicode="&#x101;" horiz-adv-x="1085" 
d="M387 1137v157h555v-157h-555zM256 439q0 -129 61 -203t177 -74t200 104t84 244t-64 216q-65 77 -171 77q-139 0 -213 -118t-74 -246zM717 0v82l-10 10l-11 -10q-102 -102 -245 -102q-184 0 -287 133q-102 133 -102 335t136 368q138 167 345 167q96 0 157 -29t119 -94
l10 -10l11 10l61 103h174l-203 -963h-155z" />
    <glyph glyph-name="Abreve" unicode="&#x102;" horiz-adv-x="1310" 
d="M913 1608q-135 0 -195 76q-60 77 -44 190h172q-10 -45 8 -75t68 -30t86 29q35 29 43 76h174q-17 -117 -97 -191q-80 -75 -215 -75zM530 594h367l-59 600zM778 1495h226l163 -1495h-213l-39 389h-491l-199 -389h-225z" />
    <glyph glyph-name="abreve" unicode="&#x103;" horiz-adv-x="1085" 
d="M640 1063q-134 0 -197 78q-62 78 -46 174l2 14h168q-9 -43 11 -76t75 -32q98 0 129 108h170q-16 -112 -97 -189t-215 -77zM256 439q0 -129 61 -203t177 -74t200 104t84 244t-64 216q-65 77 -171 77q-139 0 -213 -118t-74 -246zM717 0v82l-10 10l-11 -10
q-102 -102 -245 -102q-184 0 -287 133q-102 133 -102 335t136 368q138 167 345 167q96 0 157 -29t119 -94l10 -10l11 10l61 103h174l-203 -963h-155z" />
    <glyph glyph-name="Aogonek" unicode="&#x104;" horiz-adv-x="1310" 
d="M838 1194l-308 -600h367zM0 0l778 1495h226l163 -1495l-104 -117q-49 -55 -39 -93t72 -34l53 2l-84 -168q-104 -2 -166 40q-61 42 -60 115t72 153l95 102h-52l-39 389h-491l-199 -389h-225z" />
    <glyph glyph-name="aogonek" unicode="&#x105;" horiz-adv-x="1085" 
d="M256 439q0 -129 61 -203t177 -74t200 104t84 244t-64 216q-65 77 -171 77q-139 0 -213 -118t-74 -246zM451 -20q-184 0 -287 133q-102 133 -102 335t136 368q138 167 345 167q96 0 157 -29t119 -94l10 -10l11 10l61 103h174l-203 -963l-104 -117q-49 -55 -39 -93t72 -34
l53 2l-84 -168q-164 -4 -214 92t62 216l99 102v82l-10 10l-11 -10q-102 -102 -245 -102z" />
    <glyph glyph-name="Cacute" unicode="&#x106;" horiz-adv-x="1474" 
d="M1368 1968l119 -143l-264 -217h-248zM778 -41q-270 0 -452 182t-183 463q0 180 75 352t200 299t296 204t347 77t312 -81t214 -216l-153 -154q-48 113 -148 182t-242 68q-284 0 -486 -221t-202 -500q0 -204 116 -328t327 -124q279 0 471 227l112 -164q-122 -121 -278 -193
t-326 -73z" />
    <glyph glyph-name="cacute" unicode="&#x107;" horiz-adv-x="921" 
d="M793 1464l133 -131l-248 -258h-221zM543 801q-147 0 -217 -110t-70 -241q0 -132 61 -210t185 -78t205 125l135 -133q-160 -174 -352 -174t-311 124q-118 124 -118 334q1 211 133 378t349 167q143 0 251 -94t138 -242l-174 -72q-37 226 -215 226z" />
    <glyph glyph-name="Ccircumflex" unicode="&#x108;" horiz-adv-x="1474" 
d="M797 1753l260 207h172l186 -223l-135 -125l-156 180l-225 -180zM778 -41q-270 0 -452 182t-183 463q0 180 75 352t200 299t296 204t347 77t312 -81t214 -216l-153 -154q-48 113 -148 182t-242 68q-284 0 -486 -221t-202 -500q0 -204 116 -328t327 -124q278 0 471 227
l112 -164q-122 -121 -278 -193t-326 -73z" />
    <glyph glyph-name="ccircumflex" unicode="&#x109;" horiz-adv-x="921" 
d="M332 1204l223 189h195l143 -226l-143 -96l-113 170l-197 -170zM543 801q-147 0 -217 -110t-70 -241q0 -132 61 -210t185 -78t205 125l135 -133q-160 -174 -352 -174t-311 124q-118 124 -118 334q1 211 133 378t349 167q143 0 251 -94t138 -242l-174 -72q-37 226 -215 226
z" />
    <glyph glyph-name="Cdotaccent" unicode="&#x10a;" horiz-adv-x="1474" 
d="M952 1632v226h226v-226h-226zM778 -41q-270 0 -452 182t-183 463q0 180 75 352t200 299t296 204t347 77t312 -81t214 -216l-153 -154q-48 113 -148 182t-242 68q-284 0 -486 -221t-202 -500q0 -204 116 -328t327 -124q279 0 471 227l112 -164q-122 -121 -278 -193
t-326 -73z" />
    <glyph glyph-name="cdotaccent" unicode="&#x10b;" horiz-adv-x="921" 
d="M526 1147v225h205v-225h-205zM543 801q-147 0 -217 -110t-70 -241q0 -132 61 -210t185 -78t205 125l135 -133q-160 -174 -352 -174t-311 124q-118 124 -118 334q1 211 133 378t349 167q143 0 251 -94t138 -242l-174 -72q-37 226 -215 226z" />
    <glyph glyph-name="Ccaron" unicode="&#x10c;" horiz-adv-x="1474" 
d="M1436 1815l-260 -207h-172l-187 223l135 125l156 -180l225 180zM778 -41q-270 0 -452 182t-183 463q0 180 75 352t200 299t296 204t347 77t312 -81t214 -216l-153 -154q-48 113 -148 182t-242 68q-284 0 -486 -221t-202 -500q0 -204 116 -328t327 -124q278 0 471 227
l112 -164q-122 -121 -278 -193t-326 -73z" />
    <glyph glyph-name="ccaron" unicode="&#x10d;" horiz-adv-x="921" 
d="M907 1264l-223 -189h-195l-143 225l143 97l113 -170l197 170zM543 801q-147 0 -217 -110t-70 -241q0 -132 61 -210t185 -78t205 125l135 -133q-160 -174 -352 -174t-311 124q-118 124 -118 334q1 211 133 378t349 167q143 0 251 -94t138 -242l-174 -72q-37 226 -215 226z
" />
    <glyph glyph-name="Dcaron" unicode="&#x10e;" horiz-adv-x="1331" 
d="M1163 1815l-260 -207h-172l-186 223l135 125l156 -180l225 180zM655 1290h-96l-223 -1085h115q287 0 476 191t189 464q0 202 -117 316t-344 114zM676 1495q283 0 469 -176t186 -436t-133 -464q-133 -203 -347 -311t-462 -108h-307l307 1495h287z" />
    <glyph glyph-name="dcaron" unicode="&#x10f;" horiz-adv-x="1306" 
d="M1587 1556l-231 -432l-156 78l191 354h196zM256 439q0 -129 61 -203t177 -74t200 104t84 244t-64 216q-65 77 -171 77q-139 0 -213 -118t-74 -246zM717 0v82l-10 10l-11 -10q-102 -102 -245 -102q-184 0 -287 133q-102 133 -102 335t136 368q138 167 330 167t301 -123
l11 -10l10 10l147 696h203l-330 -1556h-153z" />
    <glyph glyph-name="Dcroat" unicode="&#x110;" horiz-adv-x="1331" 
d="M655 1290h-75l-95 -450h228l-37 -185h-227l-93 -450h95q287 0 476 191t189 464q0 202 -117 316t-344 114zM676 1495q283 0 469 -176t186 -436t-133 -464q-133 -203 -347 -311t-462 -108h-287l136 655h-177l37 185h176l136 655h266z" />
    <glyph glyph-name="dcroat" unicode="&#x111;" horiz-adv-x="1085" 
d="M256 439q0 -129 61 -203t177 -74t200 104t84 244t-64 216q-65 77 -171 77q-139 0 -213 -118t-74 -246zM635 1137v153h305l57 266h203l-57 -266h127v-153h-160l-240 -1137h-153v82l-10 10l-11 -10q-102 -102 -245 -102q-184 0 -287 133q-102 133 -102 335t136 368
q138 167 330 167t301 -123l11 -10l10 10l57 277h-272z" />
    <glyph glyph-name="Emacron" unicode="&#x112;" horiz-adv-x="1146" 
d="M590 1661v164h553v-164h-553zM1065 860v-205h-637l-94 -450h670l-41 -205h-881l307 1495h881l-43 -205h-668l-90 -430h596z" />
    <glyph glyph-name="emacron" unicode="&#x113;" horiz-adv-x="962" 
d="M356 1137v157h555v-157h-555zM553 801q-186 0 -258 -195h455q0 90 -52 142t-145 53zM262 430v-20q0 -102 60 -176t176 -72q59 0 116 34t91 80l131 -122q-139 -174 -338 -174t-315 128q-115 128 -115 330t136 374q136 171 359 171q175 0 281 -122t96 -308q-4 -37 -10 -61
l-31 -62h-637z" />
    <glyph glyph-name="Ebreve" unicode="&#x114;" horiz-adv-x="1146" 
d="M856 1608q-135 0 -196 76q-60 77 -44 190h172q-10 -45 8 -75t69 -30q50 0 85 29t43 76h174q-17 -117 -96 -191q-80 -75 -215 -75zM1065 860v-205h-637l-94 -450h670l-41 -205h-881l307 1495h881l-43 -205h-668l-90 -430h596z" />
    <glyph glyph-name="ebreve" unicode="&#x115;" horiz-adv-x="962" 
d="M605 1063q-134 0 -198 81t-42 185h167q-8 -43 12 -76t74 -32q98 0 130 108h170l-3 -14q-14 -98 -95 -175t-215 -77zM553 801q-186 0 -258 -195h455q0 90 -52 142t-145 53zM262 430v-20q0 -102 60 -176t176 -72q59 0 116 34t91 80l131 -122q-139 -174 -338 -174t-315 128
q-115 128 -115 330t136 374q136 171 359 171q175 0 281 -122t96 -308q-4 -37 -10 -61l-31 -62h-637z" />
    <glyph glyph-name="Edotaccent" unicode="&#x116;" horiz-adv-x="1146" 
d="M745 1632v226h226v-226h-226zM1065 860v-205h-637l-94 -450h670l-41 -205h-881l307 1495h881l-43 -205h-668l-90 -430h596z" />
    <glyph glyph-name="edotaccent" unicode="&#x117;" horiz-adv-x="962" 
d="M524 1147v225h205v-225h-205zM553 801q-186 0 -258 -195h455q0 90 -52 142t-145 53zM262 430v-20q0 -102 60 -176t176 -72q59 0 116 34t91 80l131 -122q-139 -174 -338 -174t-315 128q-115 128 -115 330t136 374q136 171 359 171q175 0 281 -122t96 -308q-4 -37 -10 -61
l-31 -62h-637z" />
    <glyph glyph-name="Eogonek" unicode="&#x118;" horiz-adv-x="1146" 
d="M1065 860v-205h-637l-94 -450h670l-41 -205h-72l-105 -117q-48 -55 -38 -93t71 -34l53 2l-84 -168q-104 -2 -165 40t-61 115t73 153l94 102h-647l307 1495h881l-43 -205h-668l-90 -430h596z" />
    <glyph glyph-name="eogonek" unicode="&#x119;" horiz-adv-x="962" 
d="M553 801q-186 0 -258 -195h455q0 90 -52 142t-145 53zM262 430v-20q0 -102 60 -176t176 -72q59 0 116 34t91 80l131 -122l-242 -271q-49 -55 -39 -93t72 -34l53 2l-84 -168q-162 -4 -209 90t59 218l72 84q-10 -2 -31 -2q-188 0 -304 128q-115 128 -115 330t136 374
q136 171 359 171q175 0 281 -122t96 -308q-4 -36 -10 -61l-31 -62h-637z" />
    <glyph glyph-name="Ecaron" unicode="&#x11a;" horiz-adv-x="1146" 
d="M1194 1815l-260 -207h-172l-187 223l136 125l155 -180l226 180zM1065 860v-205h-637l-94 -450h670l-41 -205h-881l307 1495h881l-43 -205h-668l-90 -430h596z" />
    <glyph glyph-name="ecaron" unicode="&#x11b;" horiz-adv-x="962" 
d="M924 1264l-224 -189h-194l-144 225l144 97l112 -170l197 170zM553 801q-186 0 -258 -195h455q0 90 -52 142t-145 53zM262 430v-20q0 -102 60 -176t176 -72q59 0 116 34t91 80l131 -122q-139 -174 -338 -174t-315 128q-115 128 -115 330t136 374q136 171 359 171
q175 0 281 -122t96 -308q-4 -36 -10 -61l-31 -62h-637z" />
    <glyph glyph-name="Gcircumflex" unicode="&#x11c;" horiz-adv-x="1658" 
d="M766 1753l260 207h172l186 -223l-135 -125l-155 180l-226 -180zM788 -41q-286 0 -465 179q-179 178 -179 438t126 478q127 218 341 350t454 132q354 0 532 -276l-153 -154q-115 229 -400 229q-188 0 -349 -105q-161 -106 -250 -272t-89 -358t116 -314q116 -124 331 -124
t381 135t239 340h-768v203h820l163 -205q-86 -291 -326 -483q-238 -192 -524 -193z" />
    <glyph glyph-name="gcircumflex" unicode="&#x11d;" horiz-adv-x="983" 
d="M365 1204l223 189h194l144 -226l-144 -96l-112 170l-197 -170zM133 -50q-1 -85 61 -140q62 -56 155 -56t153 58t61 146q0 89 -63 142q-64 54 -154 54t-152 -60t-61 -144zM295 555q0 -98 55 -164q56 -65 156 -65t167 76t67 176t-59 163q-58 63 -158 63t-164 -75
q-64 -76 -64 -174zM748 -57q0 -148 -118 -254q-118 -107 -282 -107t-282 104t-117 263q0 115 74 211t186 141q-100 117 -100 252q0 184 118 307q119 123 291 123t270 -123l11 -10l10 10l35 103h170l-105 -484q-20 -98 -87 -174t-160 -112q86 -102 86 -250z" />
    <glyph glyph-name="Gbreve" unicode="&#x11e;" horiz-adv-x="1658" 
d="M1071 1608q-135 0 -195 77t-45 189h173q-10 -45 8 -75t68 -30t85 29t43 76h174q-17 -117 -96 -191q-80 -75 -215 -75zM788 -41q-286 0 -465 179q-179 178 -179 438t126 478q127 218 341 350t454 132q354 0 532 -276l-153 -154q-115 229 -400 229q-188 0 -349 -105
q-161 -106 -250 -272t-89 -358t116 -314q116 -124 331 -124t381 135t239 340h-768v203h820l163 -205q-86 -291 -326 -483q-238 -192 -524 -193z" />
    <glyph glyph-name="gbreve" unicode="&#x11f;" horiz-adv-x="983" 
d="M619 1063q-134 0 -196 78t-46 174l2 14h168q-8 -43 11 -76t75 -32q98 0 129 108h170q-16 -112 -98 -189t-215 -77zM133 -50q-1 -85 61 -140q62 -56 155 -56t153 58t61 146q0 89 -63 142q-64 54 -154 54t-152 -60t-61 -144zM295 555q0 -98 55 -164q56 -65 156 -65t167 76
t67 176t-59 163q-58 63 -158 63t-164 -75q-64 -76 -64 -174zM748 -57q0 -148 -118 -254q-118 -107 -282 -107t-282 104t-117 263q0 115 74 211t186 141q-100 117 -100 252q0 184 118 307q119 123 291 123t270 -123l11 -10l10 10l35 103h170l-105 -484q-20 -98 -87 -174
t-160 -112q86 -102 86 -250z" />
    <glyph glyph-name="Gdotaccent" unicode="&#x120;" horiz-adv-x="1658" 
d="M952 1632v226h226v-226h-226zM788 -41q-286 0 -465 179q-179 178 -179 438t126 478q127 218 341 350t454 132q354 0 532 -276l-153 -154q-115 229 -400 229q-188 0 -349 -105q-161 -106 -250 -272t-89 -358t116 -314q116 -124 331 -124t381 135t239 340h-768v203h820
l163 -205q-86 -291 -326 -483q-238 -192 -524 -193z" />
    <glyph glyph-name="gdotaccent" unicode="&#x121;" horiz-adv-x="983" 
d="M506 1147v225h205v-225h-205zM133 -50q-1 -85 61 -140q62 -56 155 -56t153 58t61 146q0 89 -63 142q-64 54 -154 54t-152 -60t-61 -144zM295 555q0 -98 55 -164q56 -65 156 -65t167 76t67 176t-59 163q-58 63 -158 63t-164 -75q-64 -76 -64 -174zM748 -57
q0 -148 -118 -254q-118 -107 -282 -107t-282 104t-117 263q0 115 74 211t186 141q-100 117 -100 252q0 184 118 307q119 123 291 123t270 -123l11 -10l10 10l35 103h170l-105 -484q-20 -98 -87 -174t-160 -112q86 -102 86 -250z" />
    <glyph glyph-name="Gcommaaccent" unicode="&#x122;" horiz-adv-x="1658" 
d="M825 -102l-211 -385l-153 84l168 301h196zM788 -41q-286 0 -465 179q-179 178 -179 438t126 478q127 218 341 350t454 132q354 0 532 -276l-153 -154q-115 229 -400 229q-188 0 -349 -105q-161 -106 -250 -272t-89 -358t116 -314q116 -124 331 -124t381 135t239 340h-768
v203h820l163 -205q-86 -291 -326 -483q-238 -192 -524 -193z" />
    <glyph glyph-name="gcommaaccent" unicode="&#x123;" horiz-adv-x="983" 
d="M485 1075l215 393l154 -86l-172 -307h-197zM133 -50q-1 -85 61 -140q62 -56 155 -56t153 58t61 146q0 89 -63 142q-64 54 -154 54t-152 -60t-61 -144zM295 555q0 -98 55 -164q56 -65 156 -65t167 76t67 176t-59 163q-58 63 -158 63t-164 -75q-64 -76 -64 -174zM748 -57
q0 -148 -118 -254q-118 -107 -282 -107t-282 104t-117 263q0 115 74 211t186 141q-100 117 -100 252q0 184 118 307q119 123 291 123t270 -123l11 -10l10 10l35 103h170l-105 -484q-20 -98 -87 -174t-160 -112q86 -102 86 -250z" />
    <glyph glyph-name="Hcircumflex" unicode="&#x124;" horiz-adv-x="1310" 
d="M606 1753l260 207h172l187 -223l-135 -125l-156 180l-225 -180zM1026 860l131 635h215l-307 -1495h-215l135 655h-553l-135 -655h-215l307 1495h215l-131 -635h553z" />
    <glyph glyph-name="hcircumflex" unicode="&#x125;" horiz-adv-x="1064" 
d="M686 983q174 0 256 -109t45 -280l-127 -594h-205l127 573q23 101 -12 163t-131 62t-180 -69q-84 -70 -105 -176l-110 -553h-203l328 1556h202l-151 -686l10 -10l10 10q41 47 110 80t136 33zM375 1741l223 188h195l143 -225l-143 -96l-113 170l-197 -170z" />
    <glyph glyph-name="Hbar" unicode="&#x126;" horiz-adv-x="1310" 
d="M473 860h553l41 205h-553zM197 1065v205h145l47 225h215l-47 -225h553l47 225h215l-47 -225h100v-205h-141l-219 -1065h-215l135 655h-553l-135 -655h-215l219 1065h-104z" />
    <glyph glyph-name="hbar" unicode="&#x127;" horiz-adv-x="1064" 
d="M164 1137v153h147l58 266h202l-59 -266h287v-153h-322l-57 -267l10 -10l10 10q41 47 110 80t136 33q174 0 256 -109t45 -280l-127 -594h-205l127 573q23 101 -12 163t-131 62t-180 -69q-84 -70 -105 -176l-110 -553h-203l240 1137h-117z" />
    <glyph glyph-name="Itilde" unicode="&#x128;" horiz-adv-x="593" 
d="M434 1782q29 0 111 49q81 49 167 49t135 -65q48 -66 21 -187h-170q23 78 -28 78q-23 0 -107 -52t-166 -52t-128 52t-31 148l170 64q-14 -33 -9 -59q6 -25 35 -25zM115 205h32l224 1085h-35l43 205h287l-43 -205h-35l-223 -1085h34l-43 -205h-284z" />
    <glyph glyph-name="itilde" unicode="&#x129;" horiz-adv-x="460" 
d="M270 1233q33 0 111 49t139 49q94 1 136 -65t18 -181h-150q12 37 3 57t-35 21q-26 0 -110 -49t-154 -49t-110 51t-26 139l150 56q-27 -78 28 -78zM41 0l207 963h203l-207 -963h-203z" />
    <glyph glyph-name="Imacron" unicode="&#x12a;" horiz-adv-x="593" 
d="M270 1661v164h553v-164h-553zM115 205h32l224 1085h-35l43 205h287l-43 -205h-35l-223 -1085h34l-43 -205h-284z" />
    <glyph glyph-name="imacron" unicode="&#x12b;" horiz-adv-x="460" 
d="M109 1137v157h555v-157h-555zM41 0l207 963h203l-207 -963h-203z" />
    <glyph glyph-name="Ibreve" unicode="&#x12c;" horiz-adv-x="593" 
d="M549 1608q-135 0 -196 76q-60 77 -44 190h172q-10 -45 8 -75q19 -30 69 -30t85 29t43 76h174q-17 -117 -96 -191q-80 -75 -215 -75zM115 205h32l224 1085h-35l43 205h287l-43 -205h-35l-223 -1085h34l-43 -205h-284z" />
    <glyph glyph-name="ibreve" unicode="&#x12d;" horiz-adv-x="460" 
d="M376 1063q-134 0 -197 78q-62 78 -46 174l2 14h168q-8 -43 11 -76t75 -32q98 0 129 108h170q-16 -112 -97 -189t-215 -77zM41 0l207 963h203l-207 -963h-203z" />
    <glyph glyph-name="Iogonek" unicode="&#x12e;" horiz-adv-x="593" 
d="M72 0l43 205h32l224 1085h-35l43 205h287l-43 -205h-35l-223 -1085h34l-43 -205h-59l-104 -117q-49 -55 -39 -93t71 -34l54 2l-84 -168q-104 -2 -166 40q-61 42 -61 115t73 153l94 102h-63z" />
    <glyph glyph-name="iogonek" unicode="&#x12f;" horiz-adv-x="460" 
d="M287 1147v225h205v-225h-205zM41 0h201l-105 -117q-49 -55 -39 -93t72 -34l53 2l-84 -168q-104 -2 -166 40q-61 42 -60 115t73 153l94 102h162l207 963h-201z" />
    <glyph glyph-name="Idotaccent" unicode="&#x130;" horiz-adv-x="593" 
d="M430 1632v226h225v-226h-225zM115 205h32l224 1085h-35l43 205h287l-43 -205h-35l-223 -1085h34l-43 -205h-284z" />
    <glyph glyph-name="dotlessi" unicode="&#x131;" horiz-adv-x="460" 
d="M41 0l207 963h203l-207 -963h-203z" />
    <glyph glyph-name="Jcircumflex" unicode="&#x134;" horiz-adv-x="552" 
d="M231 1753l261 207h172l186 -223l-135 -125l-156 180l-225 -180zM-20 -205l-41 21v184l61 -10q92 0 113 92l286 1413h215l-290 -1413q-32 -156 -112 -226t-232 -61z" />
    <glyph glyph-name="jcircumflex" unicode="&#x135;" horiz-adv-x="450" 
d="M98 1204l224 189h194l143 -226l-143 -96l-113 170l-196 -170zM-205 -236l99 -30q92 0 112 102l238 1127h202l-245 -1147q-31 -146 -112 -206t-236 -61l-99 41z" />
    <glyph glyph-name="Kcommaaccent" unicode="&#x136;" horiz-adv-x="1187" 
d="M651 -82l-211 -385l-153 84l168 301h196zM1094 1495h278l-768 -750l502 -745h-256l-424 635l-129 -635h-215l307 1495h215l-125 -604z" />
    <glyph glyph-name="kcommaaccent" unicode="&#x137;" horiz-adv-x="942" 
d="M516 -82l-211 -385l-153 84l167 301h197zM367 575l442 388h276l-565 -484l361 -479h-246l-303 418l-88 -418h-203l330 1556h202z" />
    <glyph glyph-name="Lacute" unicode="&#x139;" horiz-adv-x="1064" 
d="M803 1968l119 -143l-265 -217h-247zM389 1495h215l-268 -1290h627l-41 -205h-840z" />
    <glyph glyph-name="lacute" unicode="&#x13a;" horiz-adv-x="460" 
d="M276 0h-215l21 184l291 1372h200l-297 -1372v-184zM717 1944l104 -115l-223 -189h-209z" />
    <glyph glyph-name="Lcommaaccent" unicode="&#x13b;" horiz-adv-x="1064" 
d="M614 -82l-211 -385l-153 84l168 301h196zM82 0l307 1495h215l-268 -1290h627l-41 -205h-840z" />
    <glyph glyph-name="lcommaaccent" unicode="&#x13c;" horiz-adv-x="460" 
d="M276 -82l-210 -385l-154 84l168 301h196zM276 0h-215l21 184l291 1372h200l-297 -1372v-184z" />
    <glyph glyph-name="Lcaron" unicode="&#x13d;" horiz-adv-x="1064" 
d="M1040 1556l-231 -432l-156 78l191 354h196zM389 1495h215l-268 -1290h627l-41 -205h-840z" />
    <glyph glyph-name="lcaron" unicode="&#x13e;" horiz-adv-x="675" 
d="M956 1556l-231 -432l-156 78l191 354h196zM276 0h-215l21 184l291 1372h200l-297 -1372v-184z" />
    <glyph glyph-name="Ldot" unicode="&#x13f;" horiz-adv-x="1064" 
d="M582 471v266h266v-266h-266zM82 0l307 1495h215l-268 -1290h627l-41 -205h-840z" />
    <glyph glyph-name="ldot" unicode="&#x140;" horiz-adv-x="778" 
d="M512 471v266h266v-266h-266zM276 0h-215l21 184l291 1372h200l-297 -1372v-184z" />
    <glyph glyph-name="Lslash" unicode="&#x141;" horiz-adv-x="1064" 
d="M61 387l37 195l160 82l172 831h215l-147 -711l362 187l-37 -195l-366 -186l-80 -385h586l-41 -205h-799l96 467z" />
    <glyph glyph-name="lslash" unicode="&#x142;" horiz-adv-x="460" 
d="M270 0h-213l21 184l90 420l-127 -78l37 185l129 80l166 765h196l-137 -628l121 76l-37 -187l-125 -76l-121 -557v-184z" />
    <glyph glyph-name="Nacute" unicode="&#x143;" horiz-adv-x="1372" 
d="M1190 1968l119 -143l-265 -217h-247zM1223 1495h211l-308 -1495h-245l-351 1159l-237 -1159h-211l307 1495h246l352 -1139z" />
    <glyph glyph-name="nacute" unicode="&#x144;" horiz-adv-x="1064" 
d="M858 1464l133 -131l-248 -258h-221zM410 963v-93l10 -10l10 10q41 47 113 80t133 33q180 0 265 -112t48 -277l-129 -594h-203l125 573q23 101 -12 163t-126 62t-169 -58t-106 -152l-125 -588h-203l205 963h164z" />
    <glyph glyph-name="Ncommaaccent" unicode="&#x145;" horiz-adv-x="1372" 
d="M676 -82l-211 -385l-154 84l168 301h197zM987 356l236 1139h211l-308 -1495h-245l-351 1159l-237 -1159h-211l307 1495h246z" />
    <glyph glyph-name="ncommaaccent" unicode="&#x146;" horiz-adv-x="1064" 
d="M545 -82l-211 -385l-154 84l168 301h197zM410 963v-93l10 -10l10 10q41 47 113 80t133 33q180 1 265 -111t48 -278l-129 -594h-203l125 573q23 101 -12 163t-126 62t-169 -58t-106 -152l-125 -588h-203l205 963h164z" />
    <glyph glyph-name="Ncaron" unicode="&#x147;" horiz-adv-x="1372" 
d="M1280 1815l-260 -207h-172l-186 223l135 125l155 -180l226 180zM987 356l236 1139h211l-308 -1495h-245l-351 1159l-237 -1159h-211l307 1495h246z" />
    <glyph glyph-name="ncaron" unicode="&#x148;" horiz-adv-x="1064" 
d="M993 1264l-223 -189h-195l-143 225l143 97l113 -170l197 170zM410 963v-93l10 -10l10 10q41 47 113 80t133 33q180 1 265 -111t48 -278l-129 -594h-203l125 573q23 101 -12 163t-126 62t-169 -58t-106 -152l-125 -588h-203l205 963h164z" />
    <glyph glyph-name="Eng" unicode="&#x14a;" horiz-adv-x="1372" 
d="M752 -434l-41 20v185l61 -4q94 -6 113 86l30 151l-385 1155l-237 -1159h-211l307 1495h246l354 -1137l234 1137h211l-336 -1632q-65 -311 -346 -297z" />
    <glyph glyph-name="eng" unicode="&#x14b;" horiz-adv-x="1064" 
d="M410 963v-93l10 -10l10 10q41 47 113 80t133 33q180 0 265 -112t48 -277l-168 -778q-31 -143 -112 -205q-82 -61 -238 -62l-98 41l41 174l98 -30q92 0 113 102l157 737q23 101 -12 163t-126 62t-169 -58t-106 -152l-125 -588h-203l205 963h164z" />
    <glyph glyph-name="Omacron" unicode="&#x14c;" horiz-adv-x="1699" 
d="M801 1661v164h553v-164h-553zM799 162q283 0 485 224t203 495q0 205 -116 329t-327 123q-284 0 -486 -224t-202 -495q0 -204 116 -328t327 -124zM1083 1536q257 0 437 -179t180 -439t-127 -477q-127 -218 -341 -350t-472 -132t-437 179q-179 178 -179 438t126 478
q127 218 341 350t472 132z" />
    <glyph glyph-name="omacron" unicode="&#x14d;" horiz-adv-x="1024" 
d="M360 1137v157h555v-157h-555zM786 550q0 100 -67 174q-69 75 -191 75t-196 -116t-74 -242q0 -125 64 -201t166 -76t170 61q128 114 128 325zM486 -20q-206 0 -316 131t-109 341t143 370t341 161q199 0 319 -132t119 -339q0 -207 -145 -370q-146 -162 -352 -162z" />
    <glyph glyph-name="Obreve" unicode="&#x14e;" horiz-adv-x="1699" 
d="M1089 1608q-135 0 -195 76q-60 77 -44 190h172q-10 -45 8 -75t68 -30t86 29q35 29 43 76h174q-17 -117 -96 -192q-81 -74 -216 -74zM799 162q283 0 485 224t203 495q0 205 -116 329t-327 123q-284 0 -486 -224t-202 -495q0 -204 116 -328t327 -124zM1083 1536
q257 0 437 -179t180 -439t-127 -477q-127 -218 -341 -350t-472 -132t-437 179q-179 178 -179 438t126 478q127 218 341 350t472 132z" />
    <glyph glyph-name="obreve" unicode="&#x14f;" horiz-adv-x="1024" 
d="M621 1063q-134 0 -196 78t-46 174l2 14h168q-8 -43 11 -76t75 -32q98 0 129 108h170q-16 -112 -98 -189t-215 -77zM786 550q0 100 -67 174q-69 75 -191 75t-196 -116t-74 -242q0 -125 64 -201t166 -76t170 61q128 114 128 325zM486 -20q-206 0 -316 131t-109 341t143 370
t341 161q199 0 319 -132t119 -339q0 -207 -145 -370q-146 -162 -352 -162z" />
    <glyph glyph-name="Ohungarumlaut" unicode="&#x150;" horiz-adv-x="1699" 
d="M1440 1974l123 -119l-226 -249h-213zM1071 1974l139 -102l-190 -266h-195zM799 162q283 0 485 224t203 495q0 205 -116 329t-327 123q-284 0 -486 -224t-202 -495q0 -204 116 -328t327 -124zM1083 1536q257 0 437 -179t180 -439t-127 -477q-127 -218 -341 -350t-472 -132
t-437 179q-179 178 -179 438t126 478q127 218 341 350t472 132z" />
    <glyph glyph-name="ohungarumlaut" unicode="&#x151;" horiz-adv-x="1024" 
d="M928 1444l121 -119l-224 -250h-213zM569 1444l136 -92l-197 -277h-195zM786 550q0 100 -67 174q-69 75 -191 75t-196 -116t-74 -242q0 -125 64 -201t166 -76t170 61q128 114 128 325zM486 -20q-206 0 -316 131t-109 341t143 370t341 161q199 0 319 -132t119 -339
q0 -207 -145 -370q-146 -162 -352 -162z" />
    <glyph glyph-name="OE" unicode="&#x152;" horiz-adv-x="1884" 
d="M983 1337q-195 -1 -347 -115t-224 -281q-74 -167 -74 -347q0 -432 369 -432q137 0 260 59l219 1067q-86 49 -203 49zM1802 860v-205h-534l-94 -450h567l-41 -205h-776q-117 -41 -238 -41q-270 0 -417 169q-146 169 -146 430t111 481q112 221 317 359t453 138
q121 0 225 -41h778l-43 -205h-565l-90 -430h493z" />
    <glyph glyph-name="oe" unicode="&#x153;" horiz-adv-x="1699" 
d="M1260 801q-176 0 -252 -193h456q-4 88 -57 140t-147 53zM258 441q0 -125 66 -201t186 -76t198 118t78 244q0 125 -65 199q-67 74 -189 74t-198 -116t-76 -242zM502 -20q-211 0 -326 132t-115 342q-1 210 141 370t351 159q236 0 352 -195q141 195 365 195q176 0 286 -123
t103 -307q0 -25 -10 -61l-31 -62h-645v-20q0 -102 60 -176t175 -72q58 0 116 34t91 80l131 -122q-139 -174 -359 -174t-333 186q-141 -186 -352 -186z" />
    <glyph glyph-name="Racute" unicode="&#x154;" horiz-adv-x="1228" 
d="M1059 1968l119 -143l-265 -217h-247zM768 860q123 0 205 70t82 163q-1 93 -59 145t-156 52h-279l-88 -430h295zM1106 0h-225l-410 655h-39l-135 -655h-215l307 1495h471q170 1 290 -107t120 -262q0 -217 -168 -343t-391 -128l395 -614v-41z" />
    <glyph glyph-name="racute" unicode="&#x155;" horiz-adv-x="675" 
d="M727 1464l133 -131l-248 -258h-221zM410 963v-103l10 -10l10 10q104 123 246 123q61 0 102 -20l-33 -164l-49 -21l-71 10q-96 12 -166 -43t-97 -165l-116 -580h-205l205 963h164z" />
    <glyph glyph-name="Rcommaaccent" unicode="&#x156;" horiz-adv-x="1228" 
d="M670 -82l-211 -385l-154 84l168 301h197zM768 860q123 0 205 70t82 163q-1 93 -59 145t-156 52h-279l-88 -430h295zM1106 0h-225l-410 655h-39l-135 -655h-215l307 1495h471q170 1 290 -107t120 -262q0 -217 -168 -343t-391 -128l395 -614v-41z" />
    <glyph glyph-name="rcommaaccent" unicode="&#x157;" horiz-adv-x="675" 
d="M238 -82l-211 -385l-154 84l168 301h197zM410 963v-103l10 -10l10 10q104 123 246 123q61 0 102 -20l-33 -164l-49 -21l-71 10q-96 12 -166 -43t-97 -165l-116 -580h-205l205 963h164z" />
    <glyph glyph-name="Rcaron" unicode="&#x158;" horiz-adv-x="1228" 
d="M1169 1815l-260 -207h-172l-186 223l135 125l156 -180l225 180zM768 860q123 0 205 70t82 163q-1 93 -59 145t-156 52h-279l-88 -430h295zM1106 0h-225l-410 655h-39l-135 -655h-215l307 1495h471q170 1 290 -107t120 -262q0 -217 -168 -343t-391 -128l395 -614v-41z" />
    <glyph glyph-name="rcaron" unicode="&#x159;" horiz-adv-x="675" 
d="M825 1264l-223 -189h-194l-144 225l144 97l112 -170l197 170zM410 963v-103l10 -10l10 10q104 123 246 123q61 0 102 -20l-33 -164l-49 -21l-71 10q-96 12 -166 -43t-97 -165l-116 -580h-205l205 963h164z" />
    <glyph glyph-name="Sacute" unicode="&#x15a;" horiz-adv-x="1187" 
d="M1030 1968l119 -143l-264 -217h-248zM717 1333q-116 0 -182 -61t-66 -156q0 -145 186 -233l152 -72q291 -133 291 -401q0 -195 -148 -320t-346 -125q-147 0 -274 75t-196 205t-44 277l217 41q-31 -173 61 -283t257 -110q106 0 181 66t75 163q0 139 -195 230
q-90 41 -151 76q-131 75 -205 167t-74 234q0 188 133 307t338 119t343 -150t116 -358h-217q14 127 -61 218t-191 91z" />
    <glyph glyph-name="sacute" unicode="&#x15b;" horiz-adv-x="819" 
d="M735 1464l133 -131l-247 -258h-222zM737 266q0 -122 -94 -202q-95 -80 -243 -80t-264 101t-116 263l193 31q-8 -92 53 -157t154 -64q51 0 89 28t38 80q0 66 -105 111l-96 43q-100 47 -158 121q-57 74 -57 164q0 121 92 197t236 77q144 0 249 -94t97 -250h-193
q8 68 -42 119t-112 51t-98 -27t-36 -71q0 -76 100 -117l96 -41q217 -94 217 -283z" />
    <glyph glyph-name="Scircumflex" unicode="&#x15c;" horiz-adv-x="1187" 
d="M508 1753l260 207h172l186 -223l-135 -125l-155 180l-226 -180zM717 1333q-116 0 -182 -61t-66 -156q0 -145 186 -233l152 -72q291 -133 291 -401q0 -195 -148 -320t-346 -125q-147 0 -274 75t-196 205t-44 277l217 41q-31 -173 61 -283t257 -110q106 0 181 66t75 163
q0 139 -195 230q-90 41 -151 76q-131 75 -205 167t-74 234q0 188 133 307t338 119t343 -150t116 -358h-217q14 127 -61 218t-191 91z" />
    <glyph glyph-name="scircumflex" unicode="&#x15d;" horiz-adv-x="819" 
d="M252 1204l223 189h195l143 -226l-143 -96l-113 170l-197 -170zM737 266q0 -122 -94 -202q-95 -80 -243 -80t-264 101t-116 263l193 31q-8 -92 53 -157t154 -64q51 0 89 28t38 80q0 66 -105 111l-96 43q-100 47 -158 121q-57 74 -57 164q0 121 92 197t236 77
q144 0 249 -94t97 -250h-193q8 68 -42 119t-112 51t-98 -27t-36 -71q0 -76 100 -117l96 -41q217 -94 217 -283z" />
    <glyph glyph-name="Scedilla" unicode="&#x15e;" horiz-adv-x="1187" 
d="M403 -262q73 0 72 47q0 63 -117 51l45 168q-161 64 -251 206t-62 312l217 41q-31 -173 61 -283t257 -110q106 0 181 66t75 163q0 139 -195 230q-90 41 -151 76q-131 75 -205 167t-74 234q0 188 133 307t338 119t343 -150t116 -358h-217q14 127 -61 218t-191 91t-182 -61
t-66 -156q0 -145 186 -233l152 -72q291 -133 291 -401q0 -195 -148 -320t-346 -125q-18 0 -55 4l-8 -41q106 -35 106 -143q-1 -80 -67 -137q-66 -58 -153 -58q-171 -1 -234 72l94 133q43 -57 116 -57z" />
    <glyph glyph-name="scedilla" unicode="&#x15f;" horiz-adv-x="819" 
d="M255 -262q73 0 73 47q0 63 -117 51l47 174q-106 41 -172 129t-66 209l193 31q-8 -92 53 -157t154 -64q51 0 89 28t38 80q0 66 -105 111l-96 43q-100 47 -158 121q-57 74 -57 164q0 121 92 197t236 77q144 0 249 -94t97 -250h-193q8 68 -42 119t-112 51t-98 -27t-36 -71
q0 -76 100 -117l96 -41q217 -94 217 -283q0 -123 -94 -203t-233 -79h-4l-13 -56q106 -35 107 -143q0 -80 -67 -137q-67 -58 -154 -58q-171 -1 -234 72l94 133q43 -57 116 -57z" />
    <glyph glyph-name="Scaron" unicode="&#x160;" horiz-adv-x="1187" 
d="M1133 1815l-261 -207h-172l-186 223l135 125l156 -180l225 180zM717 1333q-116 0 -182 -61t-66 -156q0 -145 186 -233l152 -72q291 -133 291 -401q0 -195 -148 -320t-346 -125q-147 0 -274 75t-196 205t-44 277l217 41q-31 -173 61 -283t257 -110q106 0 181 66t75 163
q0 139 -195 230q-90 41 -151 76q-131 75 -205 167t-74 234q0 188 133 307t338 119t343 -150t116 -358h-217q14 127 -61 218t-191 91z" />
    <glyph glyph-name="scaron" unicode="&#x161;" horiz-adv-x="819" 
d="M848 1264l-223 -189h-195l-143 225l143 97l113 -170l196 170zM737 266q0 -122 -94 -202q-95 -80 -243 -80t-264 101t-116 263l193 31q-8 -92 53 -157t154 -64q51 0 89 28t38 80q0 66 -105 111l-96 43q-100 47 -158 121q-57 74 -57 164q0 121 92 197t236 77q144 0 249 -94
t97 -250h-193q8 68 -42 119t-112 51t-98 -27t-36 -71q0 -76 100 -117l96 -41q217 -94 217 -283z" />
    <glyph glyph-name="Tcedilla" unicode="&#x162;" horiz-adv-x="1064" 
d="M362 -262q73 0 72 47q0 63 -117 51l45 164h-30l264 1290h-389l41 205h1003l-41 -205h-397l-264 -1290h-33l-16 -72q106 -35 106 -143q0 -80 -66 -137q-66 -58 -154 -58q-171 -1 -234 72l94 133q43 -57 116 -57z" />
    <glyph glyph-name="tcedilla" unicode="&#x163;" horiz-adv-x="675" 
d="M274 -262q73 0 72 47q0 63 -117 51l52 182q-74 41 -104 121t-9 183l92 456h-178l37 185h178l43 204l203 205h41l-84 -409h176v-185h-213l-101 -495q-10 -53 16 -87t79 -34h137l-62 -178l-108 -4l-12 -52q106 -35 106 -143q0 -80 -66 -137q-66 -58 -154 -58
q-172 -1 -235 72l95 133q43 -57 116 -57z" />
    <glyph glyph-name="Tcaron" unicode="&#x164;" horiz-adv-x="1064" 
d="M1108 1815l-260 -207h-172l-187 223l136 125l155 -180l226 180zM248 1495h1003l-41 -205h-397l-264 -1290h-217l264 1290h-389z" />
    <glyph glyph-name="tcaron" unicode="&#x165;" horiz-adv-x="718" 
d="M1024 1556l-231 -432l-156 78l190 354h197zM676 963v-185h-213l-101 -495q-10 -53 16 -87t79 -34h137l-62 -178l-112 -4q-145 10 -213 104t-39 238l92 456h-178l37 185h178l43 204l203 205h41l-84 -409h176z" />
    <glyph glyph-name="Tbar" unicode="&#x166;" horiz-adv-x="1064" 
d="M199 635v205h305l92 450h-389l41 205h1003l-41 -205h-397l-92 -450h256v-205h-299l-129 -635h-217l129 635h-262z" />
    <glyph glyph-name="tbar" unicode="&#x167;" horiz-adv-x="675" 
d="M27 451v184h204l29 143h-178l37 185h178l43 204l203 205h41l-84 -409h176v-185h-213l-29 -143h187v-184h-226l-33 -168q-10 -53 16 -87t79 -34h137l-62 -178l-112 -4q-145 10 -213 104t-39 238l25 129h-166z" />
    <glyph glyph-name="Utilde" unicode="&#x168;" horiz-adv-x="1310" 
d="M784 1782q29 0 111 49t168 49t134 -66t22 -186h-170q23 78 -29 78q-23 0 -107 -52q-83 -52 -165 -52t-128 52t-32 148l170 64q-14 -32 -8 -58t34 -26zM901 0v102l-10 11q-66 -72 -157 -113t-181 -41q-178 0 -294 108t-116 281q0 51 11 103l215 1044h215l-217 -1055
q-6 -37 -7 -71q0 -95 62 -151t179 -56q118 0 220 85t125 204l211 1044h215l-307 -1495h-164z" />
    <glyph glyph-name="utilde" unicode="&#x169;" horiz-adv-x="1064" 
d="M561 1233q33 0 111 49t139 49q94 1 136 -65t18 -181h-150q12 37 3 57t-35 21q-27 0 -111 -49t-154 -49t-110 51t-25 139l149 56q-26 -78 29 -78zM676 0v82l-10 10l-11 -10q-101 -102 -245 -102t-230 82t-86 214q0 53 8 93l131 594h205l-129 -564q-12 -49 -12 -82
q0 -77 41 -115t113 -38q111 0 187 68t97 169l117 562h203l-215 -963h-164z" />
    <glyph glyph-name="Umacron" unicode="&#x16a;" horiz-adv-x="1310" 
d="M618 1661v164h553v-164h-553zM901 0v102l-10 11q-66 -72 -157 -113t-181 -41q-178 0 -294 108t-116 281q0 51 11 103l215 1044h215l-217 -1055q-6 -37 -7 -71q0 -95 62 -151t179 -56q118 0 220 85t125 204l211 1044h215l-307 -1495h-164z" />
    <glyph glyph-name="umacron" unicode="&#x16b;" horiz-adv-x="1064" 
d="M397 1137v157h555v-157h-555zM676 0v82l-10 10l-11 -10q-101 -102 -245 -102t-230 82t-86 214q0 53 8 93l131 594h205l-129 -564q-12 -49 -12 -82q0 -77 41 -115t113 -38q111 0 187 68t97 169l117 562h203l-215 -963h-164z" />
    <glyph glyph-name="Ubreve" unicode="&#x16c;" horiz-adv-x="1310" 
d="M899 1608q-135 0 -196 76q-60 77 -44 190h172q-9 -45 9 -75t68 -30t85 29t43 76h174q-17 -117 -96 -191q-80 -75 -215 -75zM901 0v102l-10 11q-66 -72 -157 -113t-181 -41q-178 0 -294 108t-116 281q0 51 11 103l215 1044h215l-217 -1055q-6 -37 -7 -71q0 -95 62 -151
t179 -56q118 0 220 85t125 204l211 1044h215l-307 -1495h-164z" />
    <glyph glyph-name="ubreve" unicode="&#x16d;" horiz-adv-x="1064" 
d="M656 1063q-134 0 -196 78t-46 174l2 14h168q-8 -43 11 -76t75 -32q98 0 129 108h170q-15 -112 -97 -189t-216 -77zM676 0v82l-10 10l-11 -10q-101 -102 -245 -102t-230 82t-86 214q0 53 8 93l131 594h205l-129 -564q-12 -49 -12 -82q0 -77 41 -115t113 -38q111 0 187 68
t97 169l117 562h203l-215 -963h-164z" />
    <glyph glyph-name="Uring" unicode="&#x16e;" horiz-adv-x="1310" 
d="M801 1772q1 -39 25 -64t63 -25t63 25t25 64q0 40 -25 64q-26 24 -64 24t-62 -24t-25 -64zM668 1772q0 92 65 154q66 62 156 62q89 0 155 -62t66 -154t-66 -154t-156 -64q-90 0 -155 63t-65 155zM901 0v102l-10 11q-66 -72 -157 -113t-181 -41q-178 0 -294 108t-116 281
q0 51 11 103l215 1044h215l-217 -1055q-6 -37 -7 -71q0 -95 62 -151t179 -56q118 0 220 85t125 204l211 1044h215l-307 -1495h-164z" />
    <glyph glyph-name="uring" unicode="&#x16f;" horiz-adv-x="1064" 
d="M578 1260q0 -39 26 -66t66 -27t66 27t26 66q0 40 -27 66t-65 26t-66 -26q-26 -26 -26 -66zM444 1260q0 94 66 156t160 62t160 -62t65 -156q0 -94 -66 -156q-65 -62 -159 -64q-94 0 -160 63t-66 157zM676 0v82l-10 10l-11 -10q-101 -102 -245 -102t-230 82t-86 214
q0 53 8 93l131 594h205l-129 -564q-12 -49 -12 -82q0 -77 41 -115t113 -38q111 0 187 68t97 169l117 562h203l-215 -963h-164z" />
    <glyph glyph-name="Uhungarumlaut" unicode="&#x170;" horiz-adv-x="1310" 
d="M1217 1974l122 -119l-225 -249h-213zM848 1974l139 -102l-190 -266h-195zM901 0v102l-10 11q-66 -72 -157 -113t-181 -41q-178 0 -294 108t-116 281q0 51 11 103l215 1044h215l-217 -1055q-6 -37 -7 -71q0 -95 62 -151t179 -56q118 0 220 85t125 204l211 1044h215
l-307 -1495h-164z" />
    <glyph glyph-name="uhungarumlaut" unicode="&#x171;" horiz-adv-x="1064" 
d="M995 1444l121 -119l-223 -250h-213zM637 1444l135 -92l-197 -277h-194zM676 0v82l-10 10l-11 -10q-101 -102 -245 -102t-230 82t-86 214q0 53 8 93l131 594h205l-129 -564q-12 -49 -12 -82q0 -77 41 -115t113 -38q111 0 187 68t97 169l117 562h203l-215 -963h-164z" />
    <glyph glyph-name="Uogonek" unicode="&#x172;" horiz-adv-x="1310" 
d="M901 0v102l-10 11q-66 -72 -157 -113t-181 -41q-178 0 -294 108t-116 281q0 51 11 103l215 1044h215l-217 -1055q-6 -37 -7 -71q0 -95 62 -151t179 -56q118 0 220 85t125 204l211 1044h215l-307 -1495l-104 -117q-49 -55 -39 -93t71 -34l54 2l-84 -168q-104 -2 -166 40
q-61 42 -61 115t73 153l94 102h-2z" />
    <glyph glyph-name="uogonek" unicode="&#x173;" horiz-adv-x="1064" 
d="M676 0v82l-10 10l-11 -10q-101 -102 -245 -102t-230 82t-86 214q0 53 8 93l131 594h205l-129 -564q-12 -49 -12 -82q0 -77 41 -115t113 -38q111 0 187 68t97 169l117 562h203l-215 -963l-105 -117q-49 -55 -39 -93t72 -34l53 2l-84 -168q-104 -2 -166 40q-61 42 -60 115
t73 153l94 102h-2z" />
    <glyph glyph-name="Wcircumflex" unicode="&#x174;" horiz-adv-x="1761" 
d="M797 1753l260 207h172l186 -223l-135 -125l-156 180l-225 -180zM901 1188h225l109 -830l496 1137h217l-658 -1495h-205l-127 868l-456 -868h-215l-21 1495h205l8 -1135z" />
    <glyph glyph-name="wcircumflex" unicode="&#x175;" horiz-adv-x="1310" 
d="M504 1204l223 189h195l143 -226l-143 -96l-113 170l-197 -170zM358 279l256 540h213l35 -540l328 684h203l-482 -963h-194l-41 573l-277 -573h-194l-62 963h193z" />
    <glyph glyph-name="Ycircumflex" unicode="&#x176;" horiz-adv-x="1105" 
d="M494 1753l260 207h172l186 -223l-135 -125l-156 180l-225 -180zM246 1495h215l196 -555l418 555h236l-570 -758l-151 -737h-217l151 737z" />
    <glyph glyph-name="ycircumflex" unicode="&#x177;" horiz-adv-x="837" 
d="M279 1204l223 189h194l144 -226l-144 -96l-112 170l-197 -170zM416 391l313 572h213l-780 -1373h-203l317 562l-153 811h194z" />
    <glyph glyph-name="Ydieresis" unicode="&#x178;" horiz-adv-x="1105" 
d="M860 1663v203h225v-203h-225zM512 1622v203h225v-203h-225zM461 1495l196 -555l418 555h236l-570 -758l-151 -737h-217l151 737l-278 758h215z" />
    <glyph glyph-name="Zacute" unicode="&#x179;" horiz-adv-x="1126" 
d="M1028 1968l119 -143l-264 -217h-248zM346 1495h924l-43 -205l-934 -1085h690l-41 -205h-942l41 205l934 1085h-668z" />
    <glyph glyph-name="zacute" unicode="&#x17a;" horiz-adv-x="860" 
d="M758 1464l133 -131l-248 -258h-221zM174 963h748l-41 -183l-617 -598h494l-41 -182h-737l40 182l619 598h-506z" />
    <glyph glyph-name="Zdotaccent" unicode="&#x17b;" horiz-adv-x="1126" 
d="M702 1632v226h226v-226h-226zM346 1495h924l-43 -205l-934 -1085h690l-41 -205h-942l41 205l934 1085h-668z" />
    <glyph glyph-name="zdotaccent" unicode="&#x17c;" horiz-adv-x="860" 
d="M463 1147v225h205v-225h-205zM174 963h748l-41 -183l-617 -598h494l-41 -182h-737l40 182l619 598h-506z" />
    <glyph glyph-name="Zcaron" unicode="&#x17d;" horiz-adv-x="1126" 
d="M1159 1815l-260 -207h-172l-186 223l135 125l155 -180l226 180zM307 1290l39 205h924l-43 -205l-934 -1085h690l-41 -205h-942l41 205l934 1085h-668z" />
    <glyph glyph-name="zcaron" unicode="&#x17e;" horiz-adv-x="860" 
d="M889 1264l-223 -189h-195l-143 225l143 97l113 -170l196 170zM133 780l41 183h748l-41 -183l-617 -598h494l-41 -182h-737l40 182l619 598h-506z" />
    <glyph glyph-name="florin" unicode="&#x192;" horiz-adv-x="737" 
d="M553 778v-758q0 -141 -79 -224t-228 -83l-144 21v184l154 -20q92 0 92 102v778h-246v185h246v286q0 141 79 225t228 82l144 -20v-184l-154 20q-92 0 -92 -102v-307h246v-185h-246z" />
    <glyph glyph-name="Aringacute" unicode="&#x1fa;" horiz-adv-x="1310" 
d="M834 1767q0 -39 24 -63t64 -25q40 0 64 25q24 26 24 64t-25 63t-63 25t-64 -25q-24 -25 -24 -64zM700 1767q0 93 66 155t156 62t156 -62t65 -154q0 -92 -66 -155q-65 -63 -155 -63t-156 62t-66 155zM530 594h367l-59 600zM778 1495h226l163 -1495h-213l-39 389h-491
l-199 -389h-225zM1151 2361l129 -104l-193 -211h-210z" />
    <glyph glyph-name="aringacute" unicode="&#x1fb;" horiz-adv-x="1085" 
d="M895 1905l133 -131l-248 -258h-221zM543 1249q-1 -41 25 -67t67 -25q41 0 67 26q26 27 25 67q0 40 -26 66q-27 26 -67 26t-66 -26q-25 -26 -25 -67zM410 1249q0 94 65 157q66 62 160 62t160 -62q65 -62 65 -156t-66 -157t-159 -63t-159 62t-66 157zM256 439
q0 -129 61 -203t177 -74t200 104t84 244t-64 216q-65 77 -171 77q-139 0 -213 -118t-74 -246zM717 0v82l-10 10l-11 -10q-102 -102 -245 -102q-184 0 -287 133q-102 133 -102 335t136 368q138 167 345 167q96 0 157 -29t119 -94l10 -10l11 10l61 103h174l-203 -963h-155z
" />
    <glyph glyph-name="AEacute" unicode="&#x1fc;" horiz-adv-x="1576" 
d="M1460 1968l119 -143l-264 -217h-248zM522 614h307l-28 562zM1495 860v-205h-461l27 -450h373l-41 -205h-533l-20 410h-420l-205 -410h-215l758 1495h942l-43 -205h-662l27 -430h473z" />
    <glyph glyph-name="aeacute" unicode="&#x1fd;" horiz-adv-x="1681" 
d="M1192 1464l133 -131l-248 -258h-221zM1260 801q-176 0 -252 -193h456q-4 88 -57 140t-147 53zM543 803q-107 1 -173 -63t-90 -144t-24 -182t61 -178q61 -74 177 -74t194 99q80 99 80 241t-59 221q-59 80 -166 80zM717 0v82l-10 10l-11 -10q-102 -102 -245 -102
q-184 0 -287 133q-102 133 -102 335t136 368q138 167 345 167q96 0 157 -29t119 -94l10 -10l11 10l61 103h174l-6 -29q94 49 201 49q176 0 286 -123t103 -307q0 -25 -10 -61l-31 -62h-645v-20q0 -102 60 -176t175 -72q58 0 116 34t91 80l131 -122q-140 -174 -338 -174
t-313 124l-23 -104h-155z" />
    <glyph glyph-name="Oslashacute" unicode="&#x1fe;" horiz-adv-x="1699" 
d="M1358 1968l119 -143l-265 -217h-247zM799 162q283 0 485 224t203 495q0 104 -35 196l-956 -813q115 -102 303 -102zM1044 1333q-284 0 -486 -224t-202 -495q0 -113 33 -196l959 813q-120 102 -304 102zM1700 901q0 -242 -127 -460t-341 -350t-469 -132t-429 168
l-150 -127h-286l323 274q-78 139 -78 320q0 242 127 460t341 350t466 132t432 -168l150 127h287l-324 -274q78 -145 78 -320z" />
    <glyph glyph-name="oslashacute" unicode="&#x1ff;" horiz-adv-x="1024" 
d="M799 1464l133 -131l-248 -258h-221zM786 532q0 37 -6 68l-434 -385q61 -51 156 -51q128 0 206 118t78 250zM543 799q-133 0 -209 -116t-76 -243q0 -41 6 -78l434 383q-67 54 -155 54zM983 522q0 -219 -143 -381q-142 -161 -334 -161t-305 106l-99 -86h-245l249 221
q-45 98 -45 230q-1 213 141 373t351 159q174 0 289 -109l100 89h246l-252 -224q47 -98 47 -217z" />
    <glyph glyph-name="Scommaaccent" unicode="&#x218;" horiz-adv-x="1187" 
d="M598 -82l-211 -385l-154 84l168 301h197zM717 1333q-116 0 -182 -61t-66 -156q0 -145 186 -233l152 -72q291 -133 291 -401q0 -195 -148 -320t-346 -125q-147 0 -274 75t-196 205t-44 277l217 41q-31 -173 61 -283t257 -110q106 0 181 66t75 163q0 139 -195 230
q-90 41 -151 76q-131 75 -205 167t-74 234q0 188 133 307t338 119t343 -150t116 -358h-217q14 127 -61 218t-191 91z" />
    <glyph glyph-name="scommaaccent" unicode="&#x219;" horiz-adv-x="819" 
d="M399 -82l-211 -385l-153 84l168 301h196zM737 266q0 -122 -94 -202q-95 -80 -243 -80t-264 101t-116 263l193 31q-8 -92 53 -157t154 -64q51 0 89 28t38 80q0 66 -105 111l-96 43q-100 47 -158 121q-57 74 -57 164q0 121 92 197t236 77q144 0 249 -94t97 -250h-193
q8 68 -42 119t-112 51t-98 -27t-36 -71q0 -76 100 -117l96 -41q217 -94 217 -283z" />
    <glyph glyph-name="Tcommaaccent" unicode="&#x21a;" horiz-adv-x="1064" 
d="M549 -82l-211 -385l-154 84l168 301h197zM248 1495h1003l-41 -205h-397l-264 -1290h-217l264 1290h-389z" />
    <glyph glyph-name="tcommaaccent" unicode="&#x21b;" horiz-adv-x="675" 
d="M412 -82l-211 -385l-154 84l168 301h197zM676 963v-185h-213l-101 -495q-10 -53 16 -87t79 -34h137l-62 -178l-112 -4q-145 10 -213 104t-39 238l92 456h-178l37 185h178l43 204l203 205h41l-84 -409h176z" />
    <glyph glyph-name="circumflex" unicode="&#x2c6;" 
d="M225 1204l224 189h194l143 -226l-143 -96l-113 170l-196 -170z" />
    <glyph glyph-name="caron" unicode="&#x2c7;" 
d="M797 1264l-224 -189h-194l-143 225l143 97l113 -170l196 170z" />
    <glyph glyph-name="breve" unicode="&#x2d8;" horiz-adv-x="675" 
d="M486 1063q-134 0 -196 78t-46 174l2 14h168q-8 -43 11 -76t75 -32q98 0 129 108h170q-15 -112 -97 -189t-216 -77z" />
    <glyph glyph-name="dotaccent" unicode="&#x2d9;" horiz-adv-x="675" 
d="M389 1147v225h205v-225h-205z" />
    <glyph glyph-name="ring" unicode="&#x2da;" horiz-adv-x="675" 
d="M420 1260q0 -39 26 -66t66 -27q41 0 67 27t25 66q0 40 -26 66t-66 26t-66 -26t-26 -66zM287 1260q0 94 65 156q66 62 160 62t160 -62t66 -156t-66 -157t-160 -63t-160 63q-65 63 -65 157z" />
    <glyph glyph-name="ogonek" unicode="&#x2db;" horiz-adv-x="675" 
d="M174 -102l94 102h162l-104 -117q-49 -55 -39 -93t71 -34l54 2l-84 -168q-104 -2 -166 40q-60 42 -60 115t72 153z" />
    <glyph glyph-name="tilde" unicode="&#x2dc;" horiz-adv-x="675" 
d="M375 1233q33 0 111 49t139 49q94 1 136 -65t17 -181h-149q12 37 3 57t-35 21q-26 0 -111 -49q-84 -49 -154 -49t-110 51t-25 139l149 56q-26 -78 29 -78z" />
    <glyph glyph-name="hungarumlaut" unicode="&#x2dd;" horiz-adv-x="675" 
d="M797 1444l121 -119l-224 -250h-213zM438 1444l135 -92l-196 -277h-195z" />
    <glyph glyph-name="Delta" unicode="&#x394;" horiz-adv-x="921" 
d="M778 143l-297 1133l-297 -1133h594zM922 0h-881v143l369 1352h143l369 -1352v-143z" />
    <glyph glyph-name="Delta" unicode="&#x2206;" horiz-adv-x="921" 
d="M778 143l-297 1133l-297 -1133h594zM922 0h-881v143l369 1352h143l369 -1352v-143z" />
    <glyph glyph-name="Omega" unicode="&#x3a9;" horiz-adv-x="1126" 
d="M626 1495q210 0 350 -152t152 -401q10 -292 -98 -469q-88 -145 -233 -199v-135h247v-139h-389v389q131 0 226 113q94 113 104 317q2 61 0 123q-8 198 -105 306t-254 108t-254 -109q-125 -140 -106 -428q10 -205 104 -317t224 -113v-389h-389v139h248v135
q-143 52 -231 198t-99 347q-21 337 153 525q140 152 350 151z" />
    <glyph glyph-name="Omega" unicode="&#x2126;" horiz-adv-x="1126" 
d="M626 1495q210 0 350 -152t152 -401q10 -292 -98 -469q-88 -145 -233 -199v-135h247v-139h-389v389q131 0 226 113q94 113 104 317q2 61 0 123q-8 198 -105 306t-254 108t-254 -109q-125 -140 -106 -428q10 -205 104 -317t224 -113v-389h-389v139h248v135
q-143 52 -231 198t-99 347q-21 337 153 525q140 152 350 151z" />
    <glyph glyph-name="pi" unicode="&#x3c0;" horiz-adv-x="921" 
d="M922 963v-144h-82l-82 -604q-4 -33 13 -52t48 -20h21v-143h-21q-100 0 -160 58q-59 58 -45 167l82 594h-370v-819h-142v819h-123l21 144h840z" />
    <glyph glyph-name="afii10023" unicode="&#x401;" horiz-adv-x="1146" 
d="M922 1663v203h225v-203h-225zM573 1622v203h226v-203h-226zM1065 860v-205h-637l-94 -450h670l-41 -205h-881l307 1495h881l-43 -205h-668l-90 -430h596z" />
    <glyph glyph-name="afii10051" unicode="&#x402;" horiz-adv-x="1249" 
d="M844 801q-76 0 -147 -67t-91 -161l-119 -573h-213l265 1290h-375l43 205h969l-43 -205h-379l-84 -409l8 -11l12 11q106 102 238 102t207 -97q74 -97 41 -261l-80 -389q-27 -135 -118 -203t-241 -53l-102 20l41 184l102 -20q100 0 119 92l76 379q14 76 -19 121
q-34 45 -110 45z" />
    <glyph glyph-name="afii10052" unicode="&#x403;" horiz-adv-x="1146" 
d="M1073 1968l119 -143l-264 -217h-248zM389 1495h881l-43 -205h-666l-264 -1290h-215z" />
    <glyph glyph-name="afii10053" unicode="&#x404;" horiz-adv-x="1454" 
d="M758 -41q-268 0 -442 180q-173 180 -173 465q0 244 119 458t328 344t454 130q172 0 308 -81t215 -216l-154 -154q-49 113 -149 182t-240 68q-215 0 -384 -135t-241 -340h707v-205h-748q-2 -14 -2 -41q0 -208 106 -330t316 -122q278 0 471 227l113 -164
q-121 -121 -278 -193t-326 -73z" />
    <glyph glyph-name="afii10054" unicode="&#x405;" horiz-adv-x="1187" 
d="M717 1333q-116 0 -182 -61t-66 -156q0 -145 186 -233l152 -72q291 -133 291 -401q0 -195 -148 -320t-346 -125q-147 0 -274 75t-196 205t-44 277l217 41q-31 -173 61 -283t257 -110q106 0 181 66t75 163q0 139 -195 230q-90 41 -151 76q-131 75 -205 167t-74 234
q0 188 133 307t338 119t343 -150t116 -358h-217q14 127 -61 218t-191 91z" />
    <glyph glyph-name="afii10055" unicode="&#x406;" horiz-adv-x="593" 
d="M72 0l41 205h34l224 1085h-35l43 205h287l-43 -205h-35l-223 -1085h34l-43 -205h-284z" />
    <glyph glyph-name="afii10056" unicode="&#x407;" horiz-adv-x="593" 
d="M602 1663v203h225v-203h-225zM254 1622v203h225v-203h-225zM115 205h32l224 1085h-35l43 205h287l-43 -205h-35l-223 -1085h34l-43 -205h-284z" />
    <glyph glyph-name="afii10057" unicode="&#x408;" horiz-adv-x="552" 
d="M-20 -205l-41 21v184l61 -10q92 0 113 92l286 1413h215l-290 -1413q-32 -156 -112 -226t-232 -61z" />
    <glyph glyph-name="afii10058" unicode="&#x409;" horiz-adv-x="1720" 
d="M1178 205q122 -1 204 69t82 166t-58 156q-58 59 -157 59h-180l-92 -450h201zM1270 860q168 0 289 -115t120 -274q0 -219 -165 -345t-388 -126h-405l264 1290h-358l-197 -973q-30 -158 -146 -255t-304 -82l-41 20l41 184h40q166 0 197 154l238 1157h796l-14 -31l-125 -604
h158z" />
    <glyph glyph-name="afii10059" unicode="&#x40a;" horiz-adv-x="1658" 
d="M1116 205q123 -1 205 69t82 166t-58 156q-58 59 -157 59h-184l-93 -450h205zM1208 860q168 0 289 -115t121 -274q0 -219 -165 -345t-388 -126h-410l136 655h-361l-92 -450h37l-43 -205h-285l41 205h35l223 1085h-35l43 205h287l-43 -205h-37l-88 -430h358l132 635h215
l-131 -635h161z" />
    <glyph glyph-name="afii10060" unicode="&#x40b;" horiz-adv-x="1249" 
d="M928 983q132 0 207 -97q74 -97 41 -261l-127 -625h-205l129 635q14 76 -19 121q-34 45 -110 45t-147 -67t-91 -161l-119 -573h-213l265 1290h-375l43 205h969l-43 -205h-379l-84 -409l8 -11l12 11q106 102 238 102z" />
    <glyph glyph-name="afii10061" unicode="&#x40c;" horiz-adv-x="1187" 
d="M1114 1968l119 -143l-264 -217h-248zM1372 1495l-768 -750l502 -745h-256l-424 635l-129 -635h-215l307 1495h215l-125 -604l615 604h278z" />
    <glyph glyph-name="afii10062" unicode="&#x40e;" horiz-adv-x="1126" 
d="M813 1608q-135 0 -196 76q-60 77 -44 190h172q-9 -45 9 -75t68 -30t85 29t43 76h174q-17 -117 -96 -191q-80 -75 -215 -75zM287 1495h223l160 -676l426 676h235l-942 -1495h-235l372 592z" />
    <glyph glyph-name="afii10145" unicode="&#x40f;" horiz-adv-x="1310" 
d="M891 205l266 1290h215l-307 -1495h-381l-63 -307h-215l63 307h-387l307 1495h215l-266 -1290h553z" />
    <glyph glyph-name="afii10017" unicode="&#x410;" horiz-adv-x="1310" 
d="M838 1194l-308 -600h367zM0 0l778 1495h226l163 -1495h-213l-39 389h-491l-199 -389h-225z" />
    <glyph glyph-name="afii10018" unicode="&#x411;" horiz-adv-x="1187" 
d="M645 205q123 -1 205 69t82 166t-58 156q-58 59 -157 59h-287l-92 -450h307zM737 860q168 0 289 -115t121 -274q0 -219 -165 -345t-388 -126h-512l307 1495h840l-43 -205h-625l-88 -430h264z" />
    <glyph glyph-name="afii10019" unicode="&#x412;" horiz-adv-x="1228" 
d="M748 860q122 0 204 70t82 163t-58 145t-157 52h-258l-88 -430h275zM645 205q123 -1 205 69t82 164t-60 156q-60 61 -155 61h-285l-94 -450h307zM840 1495q170 1 290 -107t119 -262q0 -270 -262 -376q160 -102 160 -279q0 -219 -165 -345t-388 -126h-512l307 1495h451z
" />
    <glyph glyph-name="afii10020" unicode="&#x413;" horiz-adv-x="1146" 
d="M82 0l307 1495h881l-43 -205h-666l-264 -1290h-215z" />
    <glyph glyph-name="afii10021" unicode="&#x414;" horiz-adv-x="1392" 
d="M373 205h557l225 1085h-481l-180 -880q-29 -121 -121 -205zM61 205q183 0 224 184l227 1106h901l-268 -1290h166l-103 -512h-215l66 307h-907l-62 -307h-215l105 512h81z" />
    <glyph glyph-name="afii10022" unicode="&#x415;" horiz-adv-x="1146" 
d="M1065 860v-205h-637l-94 -450h670l-41 -205h-881l307 1495h881l-43 -205h-668l-90 -430h596z" />
    <glyph glyph-name="afii10024" unicode="&#x416;" horiz-adv-x="1822" 
d="M1741 1495h276l-768 -750l492 -745h-256l-412 635l-131 -635h-215l129 635l-643 -635h-274l788 788l-461 707h236l405 -614l127 614h215l-133 -614z" />
    <glyph glyph-name="afii10025" unicode="&#x417;" horiz-adv-x="1187" 
d="M492 676v205h174q122 0 194 62t72 167t-75 164t-181 59t-178 -51t-88 -135l-197 61q31 140 168 234t295 94q203 0 337 -116t134 -304q0 -254 -254 -356q193 -127 193 -333t-156 -337t-374 -131t-376 154t-127 379h213q-28 -148 66 -238t232 -90t222 73t84 191t-78 182
q-78 66 -198 66h-102z" />
    <glyph glyph-name="afii10026" unicode="&#x418;" horiz-adv-x="1331" 
d="M367 381l780 1114h246l-308 -1495h-211l232 1114l-780 -1114h-244l307 1495h211z" />
    <glyph glyph-name="afii10027" unicode="&#x419;" horiz-adv-x="1331" 
d="M901 1608q-135 0 -198 81t-41 185h172q-10 -45 8 -75t68 -30t85 29t43 76h174q-17 -117 -96 -191q-80 -75 -215 -75zM1147 1495h246l-308 -1495h-211l232 1114l-780 -1114h-244l307 1495h211l-233 -1114z" />
    <glyph glyph-name="afii10028" unicode="&#x41a;" horiz-adv-x="1187" 
d="M1094 1495h278l-768 -750l502 -745h-256l-424 635l-129 -635h-215l307 1495h215l-125 -604z" />
    <glyph glyph-name="afii10029" unicode="&#x41b;" horiz-adv-x="1331" 
d="M20 184q166 0 197 154l238 1157h938l-308 -1495h-215l265 1290h-508l-197 -973q-30 -158 -146 -255t-304 -82l-41 20l41 184h40z" />
    <glyph glyph-name="afii10030" unicode="&#x41c;" horiz-adv-x="1802" 
d="M922 553l634 942h308l-308 -1495h-213l238 1157l-577 -829h-224l-250 825l-235 -1153h-213l307 1495h262z" />
    <glyph glyph-name="afii10031" unicode="&#x41d;" horiz-adv-x="1310" 
d="M1026 860l131 635h215l-307 -1495h-215l135 655h-553l-135 -655h-215l307 1495h215l-131 -635h553z" />
    <glyph glyph-name="afii10032" unicode="&#x41e;" horiz-adv-x="1699" 
d="M799 162q283 0 485 224t203 495q0 205 -116 329t-327 123q-284 0 -486 -224t-202 -495q0 -204 116 -328t327 -124zM1083 1536q257 0 437 -179t180 -439t-127 -477q-127 -218 -341 -350t-472 -132t-437 179q-179 178 -179 438t126 478q127 218 341 350t472 132z" />
    <glyph glyph-name="afii10033" unicode="&#x41f;" horiz-adv-x="1310" 
d="M82 0l307 1495h983l-307 -1495h-215l264 1290h-553l-264 -1290h-215z" />
    <glyph glyph-name="afii10034" unicode="&#x420;" horiz-adv-x="1187" 
d="M758 840q127 0 212 72t85 194q-1 80 -59 132t-156 52h-279l-92 -450h289zM860 1495q176 0 293 -106t117 -263q0 -231 -165 -360t-388 -131h-291l-129 -635h-215l307 1495h471z" />
    <glyph glyph-name="afii10035" unicode="&#x421;" horiz-adv-x="1474" 
d="M778 -41q-270 0 -452 182t-183 463q0 180 75 352t200 299t296 204t347 77t312 -81t214 -216l-153 -154q-48 113 -148 182t-242 68q-284 0 -486 -221t-202 -500q0 -204 116 -328t327 -124q278 0 471 227l112 -164q-122 -121 -278 -193t-326 -73z" />
    <glyph glyph-name="afii10036" unicode="&#x422;" horiz-adv-x="1064" 
d="M248 1495h1003l-41 -205h-397l-264 -1290h-217l264 1290h-389z" />
    <glyph glyph-name="afii10037" unicode="&#x423;" horiz-adv-x="1126" 
d="M287 1495h223l160 -676l426 676h235l-942 -1495h-235l372 592z" />
    <glyph glyph-name="afii10038" unicode="&#x424;" horiz-adv-x="1597" 
d="M748 1071q-170 0 -282 -100t-112 -254q0 -117 71 -183t200 -67h77l125 604h-79zM993 467q170 0 282 99t111 253q0 117 -70 185q-71 68 -200 67h-84l-125 -604h86zM614 266q-211 0 -341 124t-130 306q1 264 189 418t456 154h80l47 227h205l-47 -227h53q211 0 341 -124
t130 -304q0 -264 -188 -419t-457 -155h-86l-53 -266h-207l56 266h-48z" />
    <glyph glyph-name="afii10039" unicode="&#x425;" horiz-adv-x="1167" 
d="M225 1495h226l235 -557l420 557h246l-576 -766l309 -729h-225l-229 539l-406 -539h-245l563 748z" />
    <glyph glyph-name="afii10040" unicode="&#x426;" horiz-adv-x="1351" 
d="M891 205l266 1290h215l-266 -1290h164l-103 -512h-215l64 307h-934l307 1495h215l-266 -1290h553z" />
    <glyph glyph-name="afii10041" unicode="&#x427;" horiz-adv-x="1228" 
d="M565 553q-186 0 -281 134t-63 317l101 491h213l-93 -438q-55 -299 164 -299q134 0 236 84t127 202l88 451h215l-289 -1495h-215l145 696l-10 11q-66 -72 -157 -113t-181 -41z" />
    <glyph glyph-name="afii10042" unicode="&#x428;" horiz-adv-x="1966" 
d="M834 205l266 1290h215l-266 -1290h497l266 1290h216l-308 -1495h-1638l307 1495h215l-266 -1290h496z" />
    <glyph glyph-name="afii10043" unicode="&#x429;" horiz-adv-x="2007" 
d="M604 1495l-266 -1290h496l266 1290h215l-266 -1290h497l266 1290h216l-267 -1290h164l-102 -512h-215l65 307h-1591l307 1495h215z" />
    <glyph glyph-name="afii10044" unicode="&#x42a;" horiz-adv-x="1210" 
d="M645 205q123 -1 205 69t82 166t-58 156q-58 59 -157 59h-246l-92 -450h266zM737 860q168 0 289 -115t121 -274q0 -219 -165 -345t-388 -126h-471l264 1290h-266l43 205h481l-131 -635h223z" />
    <glyph glyph-name="afii10045" unicode="&#x42b;" horiz-adv-x="1699" 
d="M645 205q123 -1 205 69t82 166t-58 156q-58 59 -157 59h-287l-92 -450h307zM1178 0l41 205h34l224 1085h-35l43 205h287l-43 -205h-35l-224 -1085h35l-43 -205h-284zM737 860q168 0 289 -115t121 -274q0 -219 -165 -345t-388 -126h-512l307 1495h215l-131 -635h264z" />
    <glyph glyph-name="afii10046" unicode="&#x42c;" horiz-adv-x="1187" 
d="M645 205q123 -1 205 69t82 166t-58 156q-58 59 -157 59h-287l-92 -450h307zM737 860q168 0 289 -115t121 -274q0 -219 -165 -345t-388 -126h-512l307 1495h215l-131 -635h264z" />
    <glyph glyph-name="afii10047" unicode="&#x42d;" horiz-adv-x="1454" 
d="M819 1536q267 0 441 -180t174 -465q0 -244 -119 -458t-328 -344t-455 -130q-172 0 -308 81t-214 216l154 154q49 -113 149 -182t240 -68q221 0 392 142t239 353h-713v205h750v21q-1 207 -107 329t-315 123q-278 0 -471 -227l-113 164q121 122 278 194t326 72z" />
    <glyph glyph-name="afii10048" unicode="&#x42e;" horiz-adv-x="2027" 
d="M1227 162q178 0 315 108t205 271t68 351q1 188 -101 314t-279 127q-177 0 -317 -108q-139 -109 -210 -271q-70 -162 -70 -350t106 -314q106 -128 283 -128zM1433 1536q265 0 430 -175t165 -435t-102 -478q-102 -216 -292 -352q-188 -136 -430 -137q-242 0 -409 175
q-168 175 -168 450q0 47 2 71h-199l-92 -450h37l-43 -205h-285l41 205h35l223 1085h-35l43 205h287l-43 -205h-37l-88 -430h191q78 292 291 484t478 192z" />
    <glyph glyph-name="afii10049" unicode="&#x42f;" horiz-adv-x="1228" 
d="M676 860h268l88 430h-284q-134 0 -216 -61t-82 -161t58 -154q57 -54 168 -54zM236 1044q0 203 153 327q154 124 389 124h512l-309 -1495h-215l135 655h-41l-657 -655h-244v41l637 614q-152 4 -256 117t-104 272z" />
    <glyph glyph-name="afii10065" unicode="&#x430;" horiz-adv-x="1085" 
d="M256 439q0 -129 61 -203t177 -74t200 104t84 244t-64 216q-65 77 -171 77q-139 0 -213 -118t-74 -246zM717 0v82l-10 10l-11 -10q-102 -102 -245 -102q-184 0 -287 133q-102 133 -102 335t136 368q138 167 345 167q96 0 157 -29t119 -94l10 -10l11 10l61 103h174
l-203 -963h-155z" />
    <glyph glyph-name="afii10066" unicode="&#x431;" horiz-adv-x="1064" 
d="M570 799q-124 -1 -210 -101t-86 -237t62 -217t187 -80q126 0 213 106t87 240t-64 212q-65 77 -189 77zM594 977q186 0 308 -125t122 -332t-148 -374q-148 -166 -354 -166t-324 137q-116 137 -116 354q0 45 6 92q50 396 209 559q80 82 169 125q90 43 234 69t232 48t118 45
t33 66l2 20h164l21 -20q0 -211 -277 -275q-74 -16 -288 -53q-287 -47 -357 -256l10 -10l11 10q82 86 225 86z" />
    <glyph glyph-name="afii10067" unicode="&#x432;" horiz-adv-x="962" 
d="M563 573q70 0 117 28t47 85q0 100 -123 100h-198l-46 -213h203zM502 176q72 0 118 31t46 83t-34 81t-87 28h-221l-48 -223h226zM625 963q139 0 218 -69t79 -167q0 -168 -166 -244q115 -66 114 -176q0 -151 -122 -229t-287 -78h-420l205 963h379z" />
    <glyph glyph-name="afii10068" unicode="&#x433;" horiz-adv-x="819" 
d="M41 0l205 963h655l-37 -185h-452l-166 -778h-205z" />
    <glyph glyph-name="afii10069" unicode="&#x434;" horiz-adv-x="1105" 
d="M276 184h433l127 594h-365l-94 -440q-21 -97 -101 -154zM0 184q145 0 174 144l133 635h766l-166 -779h137l-88 -430h-204l49 246h-670l-49 -246h-205l88 430h35z" />
    <glyph glyph-name="afii10070" unicode="&#x435;" horiz-adv-x="972" 
d="M553 801q-186 0 -258 -195h455q0 90 -52 142t-145 53zM262 430v-20q0 -102 60 -176t176 -72q59 0 116 34t91 80l131 -122q-139 -174 -338 -174t-315 128q-115 128 -115 330t136 374q136 171 359 171q175 0 281 -122t96 -308q-4 -36 -10 -61l-31 -62h-637z" />
    <glyph glyph-name="afii10072" unicode="&#x436;" horiz-adv-x="1495" 
d="M879 578l442 385h276l-571 -488l367 -475h-236l-313 418l-88 -418h-201l90 418l-450 -418h-256l565 512l-361 451h246l289 -385l84 385h199z" />
    <glyph glyph-name="afii10073" unicode="&#x437;" horiz-adv-x="880" 
d="M348 403v172h92q104 0 157 25q52 25 52 81t-51 92t-122 36t-116 -27t-53 -65l-164 51q13 92 109 154t230 61q134 0 246 -82t112 -215q0 -154 -170 -217q108 -82 108 -210t-114 -204t-254 -75q-180 0 -288 110t-91 258h184q-10 -76 43 -134t162 -58q68 0 118 32t50 89
q0 59 -51 93t-138 33h-51z" />
    <glyph glyph-name="afii10074" unicode="&#x438;" horiz-adv-x="1044" 
d="M41 0l205 963h198l-139 -654l514 654h225l-204 -963h-199l139 651l-514 -651h-225z" />
    <glyph glyph-name="afii10075" unicode="&#x439;" horiz-adv-x="1044" 
d="M675 1063q-134 0 -197 78q-62 78 -46 174l2 14h168q-8 -43 11 -76t75 -32q98 0 129 108h170q-16 -112 -97 -189t-215 -77zM246 963h198l-139 -654l514 654h225l-204 -963h-199l139 651l-514 -651h-225z" />
    <glyph glyph-name="afii10076" unicode="&#x43a;" horiz-adv-x="962" 
d="M367 578l442 385h276l-563 -486l359 -477h-246l-303 418l-88 -418h-203l205 963h203z" />
    <glyph glyph-name="afii10077" unicode="&#x43b;" horiz-adv-x="1034" 
d="M-10 164q113 0 133 102l143 697h758l-205 -963h-201l166 778h-356l-113 -532q-61 -295 -356 -266l-41 20l41 164h31z" />
    <glyph glyph-name="afii10078" unicode="&#x43c;" horiz-adv-x="1228" 
d="M645 102h-186l-101 574l-139 -676h-178l205 963h225l117 -656l405 656h236l-205 -963h-178l147 676z" />
    <glyph glyph-name="afii10079" unicode="&#x43d;" horiz-adv-x="1044" 
d="M41 0l205 963h200l-77 -369h393l80 369h202l-204 -963h-203l86 410h-393l-86 -410h-203z" />
    <glyph glyph-name="afii10080" unicode="&#x43e;" horiz-adv-x="1024" 
d="M786 550q0 100 -67 174q-69 75 -191 75t-196 -116t-74 -242q0 -125 64 -201t166 -76t170 61q128 114 128 325zM486 -20q-206 0 -316 131t-109 341t143 370t341 161q199 0 319 -132t119 -339q0 -207 -145 -370q-146 -162 -352 -162z" />
    <glyph glyph-name="afii10081" unicode="&#x43f;" horiz-adv-x="1044" 
d="M41 0l205 963h798l-204 -963h-203l166 778h-395l-164 -778h-203z" />
    <glyph glyph-name="afii10082" unicode="&#x440;" horiz-adv-x="1105" 
d="M350 462q0 -302 245 -302q128 0 202 118q73 118 73 246t-65 202q-67 75 -181 75t-194 -99q-80 -98 -80 -240zM683 983q169 0 275 -133t106 -335t-141 -369q-142 -167 -350 -166q-176 0 -286 122l-11 11l-10 -11l-112 -512h-201l293 1373h155v-82l11 -11q102 113 271 113z
" />
    <glyph glyph-name="afii10083" unicode="&#x441;" horiz-adv-x="921" 
d="M543 801q-147 0 -217 -110t-70 -241q0 -132 61 -210t185 -78t205 125l135 -133q-160 -174 -352 -174t-311 124q-118 124 -118 334q1 211 133 378t349 167q143 0 251 -94t138 -242l-174 -72q-37 226 -215 226z" />
    <glyph glyph-name="afii10084" unicode="&#x442;" horiz-adv-x="880" 
d="M143 778l37 185h762l-37 -185h-276l-158 -778h-205l158 778h-281z" />
    <glyph glyph-name="afii10085" unicode="&#x443;" horiz-adv-x="860" 
d="M416 391l313 572h213l-780 -1373h-203l317 562l-153 811h194z" />
    <glyph glyph-name="afii10086" unicode="&#x444;" horiz-adv-x="1351" 
d="M1122 553q-4 215 -258 225l-123 -596q177 6 279 108t102 263zM270 410q4 -221 269 -228l123 598q-182 -4 -287 -106t-105 -264zM1321 563q1 -247 -181 -401t-438 -162l-88 -434h-202l88 434q-190 4 -310 120q-119 116 -118 279q0 248 184 404t442 160l123 593h203
l-123 -593q186 -8 303 -124t117 -276z" />
    <glyph glyph-name="afii10087" unicode="&#x445;" horiz-adv-x="860" 
d="M471 651l266 312h226l-404 -476l260 -487h-205l-182 340l-289 -340h-225l428 504l-244 459h205z" />
    <glyph glyph-name="afii10088" unicode="&#x446;" horiz-adv-x="1064" 
d="M41 0l205 963h196l-166 -779h396l164 779h198l-166 -779h138l-88 -430h-205l49 246h-721z" />
    <glyph glyph-name="afii10089" unicode="&#x447;" horiz-adv-x="983" 
d="M401 266q-174 0 -254 109t-43 280l66 308h203l-68 -287q-27 -109 8 -167t130 -58t180 66q84 67 106 169l55 277h199l-195 -963h-202l80 379l-11 10l-10 -10q-41 -47 -109 -80t-135 -33z" />
    <glyph glyph-name="afii10090" unicode="&#x448;" horiz-adv-x="1474" 
d="M41 0l205 963h194l-166 -779h318l170 779h192l-168 -779h320l168 779h194l-206 -963h-1221z" />
    <glyph glyph-name="afii10091" unicode="&#x449;" horiz-adv-x="1515" 
d="M41 0l205 963h194l-166 -779h318l170 779h192l-168 -779h320l168 779h194l-168 -779h138l-88 -430h-205l49 246h-1153z" />
    <glyph glyph-name="afii10092" unicode="&#x44a;" horiz-adv-x="942" 
d="M481 184q90 0 153 47q62 47 62 115t-45 108t-119 40h-155l-68 -310h172zM553 676q156 0 252 -90t96 -217q0 -173 -134 -271t-316 -98h-379l166 778h-207l41 185h405l-61 -287h137z" />
    <glyph glyph-name="afii10093" unicode="&#x44b;" horiz-adv-x="1259" 
d="M420 184q94 0 150 46t56 116t-40 108q-41 40 -115 40h-127l-65 -310h141zM842 0l207 963h200l-205 -963h-202zM492 676q150 0 244 -90t93 -217q0 -170 -122 -270q-123 -99 -308 -99h-358l205 963h198l-61 -287h109z" />
    <glyph glyph-name="afii10094" unicode="&#x44c;" horiz-adv-x="942" 
d="M481 184q90 0 153 47q62 47 62 115t-45 108t-119 40h-186l-67 -310h202zM553 676q150 0 249 -91t99 -216q0 -173 -134 -271t-316 -98h-410l205 963h200l-61 -287h168z" />
    <glyph glyph-name="afii10095" unicode="&#x44d;" horiz-adv-x="942" 
d="M307 401v172h381q-10 98 -70 164t-167 66q-68 0 -125 -36t-90 -91l-134 133q160 174 352 174t310 -124t117 -335q0 -211 -132 -378t-350 -166q-139 0 -249 85t-150 222l174 82q8 -91 68 -149t160 -58q99 0 170 68t100 171h-365z" />
    <glyph glyph-name="afii10096" unicode="&#x44e;" horiz-adv-x="1392" 
d="M898 164q120 0 188 116t69 245q0 128 -56 201q-57 73 -157 73q-100 1 -165 -61q-117 -111 -115 -298q0 -128 58 -202t178 -74zM952 983q182 0 292 -130q108 -130 108 -341q0 -212 -133 -372t-331 -160t-298 111q-100 112 -113 298h-149l-84 -389h-203l207 963h203
l-84 -390h120q37 176 160 293t305 117z" />
    <glyph glyph-name="afii10097" unicode="&#x44f;" horiz-adv-x="962" 
d="M532 797q-72 0 -118 -35t-47 -85t31 -80t85 -30h207l49 230h-207zM0 0v20l410 392q-111 16 -177 89t-65 154q0 145 103 227t282 81h399l-194 -963h-189l84 410h-39l-391 -410h-223z" />
    <glyph glyph-name="afii10071" unicode="&#x451;" horiz-adv-x="962" 
d="M725 1157v225h205v-225h-205zM377 1116v225h205v-225h-205zM553 801q-186 0 -258 -195h455q0 90 -52 142t-145 53zM262 430v-20q0 -102 60 -176t176 -72q59 0 116 34t91 80l131 -122q-139 -174 -338 -174t-315 128q-115 128 -115 330t136 374q136 171 359 171
q175 0 281 -122t96 -308q-4 -37 -10 -61l-31 -62h-637z" />
    <glyph glyph-name="afii10099" unicode="&#x452;" horiz-adv-x="1064" 
d="M686 983q174 -1 256 -109t45 -280l-168 -770q-63 -283 -358 -254l-103 20l41 185l103 -21q98 0 119 90l161 729q23 101 -12 163t-131 62t-180 -69q-84 -70 -105 -176l-110 -553h-203l246 1167h-123l39 185h123l43 204h202l-45 -204h209l-39 -185h-211l-65 -297l10 -10
l10 10q41 47 110 80t136 33z" />
    <glyph glyph-name="afii10100" unicode="&#x453;" horiz-adv-x="819" 
d="M758 1464l133 -131l-248 -258h-221zM246 963h655l-37 -185h-452l-166 -778h-205z" />
    <glyph glyph-name="afii10101" unicode="&#x454;" horiz-adv-x="942" 
d="M540 801q-97 1 -167 -63t-101 -165h342v-172h-362q8 -104 67 -173t173 -68q68 0 124 36t91 91l133 -133q-160 -174 -352 -174t-309 124q-118 124 -118 334q1 211 133 378t349 167q143 0 251 -89t148 -239l-174 -61q-10 90 -70 148t-158 59z" />
    <glyph glyph-name="afii10102" unicode="&#x455;" horiz-adv-x="819" 
d="M737 266q0 -122 -94 -202q-95 -80 -243 -80t-264 101t-116 263l193 31q-8 -92 53 -157t154 -64q51 0 89 28t38 80q0 66 -105 111l-96 43q-100 47 -158 121q-57 74 -57 164q0 121 92 197t236 77q144 0 249 -94t97 -250h-193q8 68 -42 119t-112 51t-98 -27t-36 -71
q0 -76 100 -117l96 -41q217 -94 217 -283z" />
    <glyph glyph-name="afii10103" unicode="&#x456;" horiz-adv-x="460" 
d="M287 1147v225h205v-225h-205zM41 0l207 963h201l-207 -963h-201z" />
    <glyph glyph-name="afii10104" unicode="&#x457;" horiz-adv-x="460" 
d="M465 1157v225h205v-225h-205zM117 1116v225h205v-225h-205zM41 0l207 963h203l-207 -963h-203z" />
    <glyph glyph-name="afii10105" unicode="&#x458;" horiz-adv-x="450" 
d="M287 1147v225h205v-225h-205zM-106 -266q92 0 112 102l240 1127h200l-245 -1147q-31 -146 -112 -206t-236 -61l-99 41l41 174z" />
    <glyph glyph-name="afii10106" unicode="&#x459;" horiz-adv-x="1249" 
d="M799 184q94 0 150 46q57 46 57 116t-41 108q-41 40 -115 40h-90l-66 -310h105zM870 676q150 0 244 -90t94 -217q0 -169 -123 -269t-307 -100h-319l166 778h-199l-113 -532q-61 -295 -354 -266l-41 20l41 164h31q113 0 133 102l143 697h594l-61 -287h71z" />
    <glyph glyph-name="afii10107" unicode="&#x45a;" horiz-adv-x="1259" 
d="M829 184q94 0 151 46q56 46 56 116t-41 108q-41 40 -114 40h-107l-65 -310h120zM901 676q150 0 244 -90t94 -217q0 -169 -123 -269t-307 -100h-338l104 492h-229l-102 -492h-203l205 963h200l-61 -287h229l62 287h198l-61 -287h88z" />
    <glyph glyph-name="afii10108" unicode="&#x45b;" horiz-adv-x="1064" 
d="M686 983q174 0 256 -109t45 -280l-127 -594h-205l127 573q23 101 -12 163t-131 62t-180 -69q-84 -70 -105 -176l-110 -553h-203l246 1167h-123l39 185h123l43 204h202l-45 -204h209l-39 -185h-211l-65 -297l10 -10l10 10q41 47 110 80t136 33z" />
    <glyph glyph-name="afii10109" unicode="&#x45c;" horiz-adv-x="962" 
d="M842 1464l133 -131l-248 -258h-221zM809 963h276l-563 -486l359 -477h-246l-303 418l-88 -418h-203l205 963h203l-82 -385z" />
    <glyph glyph-name="afii10110" unicode="&#x45e;" horiz-adv-x="860" 
d="M558 1063q-134 0 -197 78q-62 78 -46 174l2 14h168q-9 -43 11 -76t75 -32q98 0 129 108h170q-16 -112 -97 -189t-215 -77zM729 963h213l-780 -1373h-203l317 562l-153 811h194l99 -572z" />
    <glyph glyph-name="afii10193" unicode="&#x45f;" horiz-adv-x="1044" 
d="M41 0l205 963h200l-165 -779h397l164 779h202l-204 -963h-297l-49 -246h-205l51 246h-299z" />
    <glyph glyph-name="afii10050" unicode="&#x490;" horiz-adv-x="1116" 
d="M82 0l307 1495h668l49 225h215l-51 -245l-226 -185h-483l-264 -1290h-215z" />
    <glyph glyph-name="afii10098" unicode="&#x491;" horiz-adv-x="819" 
d="M709 963l53 245h201l-58 -266l-217 -164h-276l-166 -778h-205l205 963h463z" />
    <glyph glyph-name="Wgrave" unicode="&#x1e80;" horiz-adv-x="1761" 
d="M840 1872l164 102l206 -366h-206zM901 1188h225l109 -830l496 1137h217l-658 -1495h-205l-127 868l-456 -868h-215l-21 1495h205l8 -1135z" />
    <glyph glyph-name="wgrave" unicode="&#x1e81;" horiz-adv-x="1310" 
d="M539 1382l174 82l174 -389h-195zM614 819h213l35 -540l328 684h203l-482 -963h-194l-41 573l-277 -573h-194l-62 963h193l22 -684z" />
    <glyph glyph-name="Wacute" unicode="&#x1e82;" horiz-adv-x="1761" 
d="M1354 1968l119 -143l-265 -217h-247zM901 1188h225l109 -830l496 1137h217l-658 -1495h-205l-127 868l-456 -868h-215l-21 1495h205l8 -1135z" />
    <glyph glyph-name="wacute" unicode="&#x1e83;" horiz-adv-x="1310" 
d="M975 1464l133 -131l-248 -258h-221zM614 819h213l35 -540l328 684h203l-482 -963h-194l-41 573l-277 -573h-194l-62 963h193l22 -684z" />
    <glyph glyph-name="Wdieresis" unicode="&#x1e84;" horiz-adv-x="1761" 
d="M1169 1663v203h226v-203h-226zM821 1622v203h226v-203h-226zM901 1188h225l109 -830l496 1137h217l-658 -1495h-205l-127 868l-456 -868h-215l-21 1495h205l8 -1135z" />
    <glyph glyph-name="wdieresis" unicode="&#x1e85;" horiz-adv-x="1310" 
d="M866 1157v225h205v-225h-205zM518 1116v225h205v-225h-205zM614 819h213l35 -540l328 684h203l-482 -963h-194l-41 573l-277 -573h-194l-62 963h193l22 -684z" />
    <glyph glyph-name="Ygrave" unicode="&#x1ef2;" horiz-adv-x="1105" 
d="M532 1872l164 102l207 -366h-207zM461 1495l196 -555l418 555h236l-570 -758l-151 -737h-217l151 737l-278 758h215z" />
    <glyph glyph-name="ygrave" unicode="&#x1ef3;" horiz-adv-x="837" 
d="M276 1382l175 82l174 -389h-195zM729 963h213l-780 -1373h-203l317 562l-153 811h194l99 -572z" />
    <glyph glyph-name="endash" unicode="&#x2013;" horiz-adv-x="1249" 
d="M92 696h1127v-184h-1127v184z" />
    <glyph glyph-name="emdash" unicode="&#x2014;" horiz-adv-x="1843" 
d="M92 696h1720v-184h-1720v184z" />
    <glyph glyph-name="quoteleft" unicode="&#x2018;" horiz-adv-x="501" 
d="M184 963l246 522l174 -82l-215 -440h-205z" />
    <glyph glyph-name="quoteright" unicode="&#x2019;" horiz-adv-x="501" 
d="M635 1495l-246 -522l-174 82l215 440h205z" />
    <glyph glyph-name="quotesinglbase" unicode="&#x201a;" horiz-adv-x="501" 
d="M-31 -205l246 522l174 -81l-215 -441h-205z" />
    <glyph glyph-name="quotedblleft" unicode="&#x201c;" horiz-adv-x="802" 
d="M481 963l246 522l174 -82l-215 -440h-205zM174 963l246 522l174 -82l-215 -440h-205z" />
    <glyph glyph-name="quotedblright" unicode="&#x201d;" horiz-adv-x="802" 
d="M635 1495l-246 -522l-174 82l215 440h205zM942 1495l-246 -522l-174 82l215 440h205z" />
    <glyph glyph-name="quotedblbase" unicode="&#x201e;" horiz-adv-x="802" 
d="M276 -205l246 522l174 -81l-215 -441h-205zM-31 -205l246 522l174 -81l-215 -441h-205z" />
    <glyph glyph-name="dagger" unicode="&#x2020;" horiz-adv-x="921" 
d="M707 1249h327l-30 -143h-328l-225 -1106h-144l225 1106h-327l31 143h327l51 246h144z" />
    <glyph glyph-name="daggerdbl" unicode="&#x2021;" horiz-adv-x="921" 
d="M358 246h-327l30 143h328l143 717h-327l31 143h327l51 246h144l-51 -246h327l-30 -143h-328l-144 -717h328l-31 -143h-327l-51 -246h-144z" />
    <glyph glyph-name="bullet" unicode="&#x2022;" horiz-adv-x="1105" 
d="M881 922q-1 16 -13 28q-30 29 -56 0q-11 -12 -11 -28t11 -28q12 -12 28 -13q16 1 28 13t13 28zM1065 696q0 -186 -132 -318q-133 -132 -319 -132t-318 132t-132 318t132 318t318 133q186 0 319 -132q132 -133 132 -319z" />
    <glyph glyph-name="ellipsis" unicode="&#x2026;" horiz-adv-x="1536" 
d="M307 266v-266h-225v266h225zM799 266v-266h-246v266h246zM1331 266v-266h-266v266h266z" />
    <glyph glyph-name="perthousand" unicode="&#x2030;" horiz-adv-x="1617" 
d="M1147 696q0 -82 51 -132t123 -50t123 50t51 132t-51 132t-123 50t-123 -50t-51 -132zM348 1198q0 -82 51 -132t123 -50t123 50t51 132t-51 132t-123 50t-123 -50t-51 -132zM819 297q0 -82 51 -132t123 -50t123 50t51 132t-51 132t-123 50t-123 -50t-51 -132zM1475 1495
l-1270 -1495h-164l1270 1495h164zM205 1198q0 135 87 226q87 92 230 92q142 0 230 -92t88 -226q0 -135 -87 -226t-231 -91t-230 91q-87 91 -87 226zM1004 696q0 134 87 226t230 92t230 -91t87 -227t-87 -226q-87 -91 -230 -91h-21q10 -45 11 -82q0 -135 -87 -226
q-86 -91 -230 -91t-231 91t-87 226t87 226t230 91h21q-10 45 -10 82z" />
    <glyph glyph-name="guilsinglleft" unicode="&#x2039;" horiz-adv-x="655" 
d="M594 131l-535 473l535 473v-217l-287 -256l287 -256v-217z" />
    <glyph glyph-name="guilsinglright" unicode="&#x203a;" horiz-adv-x="655" 
d="M143 1077l533 -473l-533 -473v217l287 256l-287 256v217z" />
    <glyph glyph-name="interrobang" unicode="&#x203d;" horiz-adv-x="942" 
d="M268 0v246h246v-246h-246zM842 1118q0 80 -56 132t-151 52q-94 0 -162 -71l21 -268l-74 -261q66 66 270 187q59 35 106 92q46 57 46 137zM657 1495q158 1 274 -107t116 -272q0 -88 -36 -161t-98 -127t-182 -127q-119 -74 -167 -116q-104 -92 -70 -237l-164 37h-6l-35 6
v572l-62 532h226l4 -68q92 68 200 68z" />
    <glyph glyph-name="asterism" unicode="&#x2042;" horiz-adv-x="1822" 
d="M61 328v143h328v328h143v-226l160 160l103 -102l-160 -160h225v-143h-328v-328h-143v225l-160 -159l-102 102l160 160h-226zM1290 328h-327v143h225l-160 160l102 102l160 -160v226h144v-328h327v-143h-225l160 -160l-103 -102l-159 159v-225h-144v328zM512 1024v143h225
l-159 160l102 103l160 -160v225h143v-225l160 160l102 -103l-160 -160h226v-143h-226l160 -160l-102 -102l-160 160v-226h-143v226l-160 -160l-102 102l159 160h-225z" />
    <glyph glyph-name="fraction" unicode="&#x2044;" horiz-adv-x="1105" 
d="M1372 1495l-1311 -1495h-163l1310 1495h164z" />
    <glyph glyph-name="zerosuperior" unicode="&#x2070;" 
d="M74 1378q0 256 141 411q77 85 189 85t166 -80t54 -212t-77 -296q-37 -78 -104 -129t-146 -51q-115 0 -169 78t-54 194zM213 1382q0 -55 23 -98t71 -43q78 0 128 119q50 120 50 250t-90 131q-80 0 -131 -120t-51 -239z" />
    <glyph glyph-name="foursuperior" unicode="&#x2074;" 
d="M207 1444h205l53 250zM23 1313l26 131l430 420h164l-88 -420h78l-27 -131h-78l-39 -197h-143l39 197h-362z" />
    <glyph glyph-name="fivesuperior" unicode="&#x2075;" 
d="M350 1624q108 0 180 -70t72 -186t-80 -190q-80 -72 -204 -72t-197 87q-74 87 -51 210h141q-19 -72 15 -119t98 -47t100 36q37 36 37 92t-36 92t-103 40l-177 8v113l127 246h387l-28 -127h-285l-59 -115q20 2 63 2z" />
    <glyph glyph-name="sixsuperior" unicode="&#x2076;" 
d="M406 1872q108 0 167 -67t41 -177h-129q10 53 -12 86q-23 33 -72 33q-113 0 -163 -191q46 33 130 33q84 1 149 -65t65 -172t-76 -176t-184 -70t-176 72q-115 124 -34 406q32 112 109 200t185 88zM328 1233q53 0 86 32q32 32 32 85t-32 85q-33 31 -83 31t-84 -32t-34 -82
q0 -51 31 -85t84 -34z" />
    <glyph glyph-name="sevensuperior" unicode="&#x2077;" 
d="M78 1116v39l422 582h-361l31 127h498l-15 -127l-434 -621h-141z" />
    <glyph glyph-name="eightsuperior" unicode="&#x2078;" 
d="M388 1743q-44 -1 -74 -27t-29 -64t27 -65t72 -27t76 26t29 65t-29 65t-72 27zM207 1336q0 -46 33 -74t83 -29q50 0 86 29q35 28 35 74t-32 77q-33 31 -84 31t-86 -31t-35 -77zM631 1646q0 -101 -105 -163q60 -66 60 -156t-78 -156q-78 -65 -189 -65t-181 63t-68 168
q0 61 34 114q35 52 91 77q-45 49 -45 136t70 147q71 61 172 61t170 -62t69 -164z" />
    <glyph glyph-name="ninesuperior" unicode="&#x2079;" 
d="M290 1106q-108 0 -167 66q-59 67 -41 178h129q-9 -53 13 -86t71 -33q113 0 164 190q-45 -33 -130 -33t-150 66t-64 172q0 106 75 176q76 70 185 70t175 -72t66 -184q0 -262 -140 -422q-78 -88 -186 -88zM369 1745q-53 0 -86 -32t-33 -85t33 -85t83 -32t84 32t33 83
q0 51 -30 85q-31 34 -84 34z" />
    <glyph glyph-name="zeroinferior" unicode="&#x2080;" 
d="M74 -108q0 116 32 222t109 190q77 85 189 85t166 -80t54 -212t-77 -296q-37 -78 -104 -129t-146 -51q-115 0 -169 78q-54 77 -54 193zM213 -102q0 -54 23 -98t71 -44q78 0 128 119t50 250t-90 131q-80 0 -131 -120t-51 -238z" />
    <glyph glyph-name="oneinferior" unicode="&#x2081;" 
d="M145 92v21l256 266h185l-154 -748h-141l125 590l-115 -129h-156z" />
    <glyph glyph-name="twoinferior" unicode="&#x2082;" 
d="M297 133h-143q10 127 88 191t178 63q100 0 168 -69t67 -175q0 -145 -192 -239q-219 -109 -240 -146h359l-25 -127h-506l17 80q13 65 64 116l32 32q12 12 39 30q27 19 37 27t42 26t58 35q26 16 70 40q104 56 104 137q0 42 -30 72t-76 30t-79 -33q-32 -33 -32 -90z" />
    <glyph glyph-name="threeinferior" unicode="&#x2083;" 
d="M342 -379q-118 0 -192 81t-58 196h139q-12 -62 24 -104t97 -42t97 34q35 34 35 83t-33 81t-82 42l-113 18v103l219 139h-280l30 127h420l31 -127l-244 -152q86 -18 139 -80t53 -158q0 -98 -82 -170q-83 -72 -200 -71z" />
    <glyph glyph-name="fourinferior" unicode="&#x2084;" 
d="M207 -41h205l53 250zM23 -172l26 131l430 420h164l-88 -420h78l-27 -131h-78l-39 -197h-143l39 197h-362z" />
    <glyph glyph-name="fiveinferior" unicode="&#x2085;" 
d="M350 139q108 1 180 -69t72 -187t-80 -189t-204 -73q-124 0 -197 87q-74 87 -51 210h141q-19 -72 15 -119t98 -47t100 36q37 36 37 92t-36 92t-103 40l-177 8v113l127 246h387l-28 -127h-285l-59 -115q20 2 63 2z" />
    <glyph glyph-name="sixinferior" unicode="&#x2086;" 
d="M406 389q108 -1 167 -67t41 -177h-129q10 53 -12 86q-23 33 -72 33q-113 0 -163 -190q46 32 130 32t149 -66t65 -171q0 -106 -76 -176t-184 -70t-176 72q-115 124 -34 406q32 112 109 200t185 88zM328 -250q53 0 86 32q32 32 32 85t-32 85q-33 32 -83 32t-84 -32t-34 -83
t31 -85t84 -34z" />
    <glyph glyph-name="seveninferior" unicode="&#x2087;" 
d="M78 -369v39l422 582h-361l31 127h498l-15 -127l-434 -621h-141z" />
    <glyph glyph-name="eightinferior" unicode="&#x2088;" 
d="M388 260q-44 0 -74 -26t-29 -65q1 -38 27 -65q26 -26 72 -26t76 26t29 64q-1 40 -29 66t-72 26zM323 -250q50 0 86 29q35 29 35 75t-32 76t-84 31q-51 0 -86 -31q-35 -30 -35 -76t33 -75t83 -29zM392 389q101 -1 170 -63t69 -163t-105 -163q60 -66 60 -156t-78 -155
q-78 -66 -189 -66q-111 -1 -181 63t-68 169q0 61 34 113q35 52 91 77q-45 49 -45 136t70 148q71 60 172 60z" />
    <glyph glyph-name="nineinferior" unicode="&#x2089;" 
d="M290 -377q-108 0 -167 67t-41 177h129q-9 -53 13 -86t71 -33q113 0 164 191q-45 -33 -130 -33t-150 66t-64 171q0 106 75 176q76 70 185 70t175 -72t66 -184q0 -262 -140 -422q-78 -88 -186 -88zM369 262q-53 0 -86 -32t-33 -85t33 -85t83 -32t84 32t33 83q0 51 -30 85
q-31 34 -84 34z" />
    <glyph glyph-name="Euro" unicode="&#x20ac;" horiz-adv-x="1331" 
d="M82 477v178h154q4 188 79 383l-131 58l62 164l149 -64q90 148 219 234t287 86q221 0 355 -148t126 -377h-194q16 143 -66 243t-231 99q-184 0 -316 -215l371 -155l-63 -164l-381 162q-53 -152 -64 -306h402v-178h-391q23 -143 101 -228t200 -85t198 55t111 129h221
q-66 -150 -210 -260t-312 -108q-217 0 -346 137t-164 360h-166z" />
    <glyph glyph-name="afii61352" unicode="&#x2116;" horiz-adv-x="1740" 
d="M1638 1196q0 156 -112 156q-78 0 -116 -67t-38 -148q0 -154 113 -154q77 1 115 67t38 146zM1100 563l37 174h594l-39 -174h-592zM1514 1516q146 0 222 -90t76 -232t-90 -258t-230 -117q-140 0 -217 89q-77 90 -77 234t85 259t231 115zM723 420l219 1075h184l-307 -1495
h-182l2 14l-4 -14h-51l-80 1159l-238 -1159h-184l307 1495h236z" />
    <glyph glyph-name="trademark" unicode="&#x2122;" horiz-adv-x="1617" 
d="M143 1331l33 164h594l-33 -164h-217l-141 -727h-164l141 727h-213zM1751 1495l-174 -891h-156l135 682l-288 -426h-174l-133 426l-132 -682h-153l174 891h192l156 -483l332 483h221z" />
    <glyph glyph-name="uni2160" unicode="&#x2160;" horiz-adv-x="798" 
d="M51 0l43 203h154l231 1091h-153l43 201h512l-43 -201h-154l-231 -1091h153l-43 -203h-512z" />
    <glyph glyph-name="uni2161" unicode="&#x2161;" horiz-adv-x="1269" 
d="M625 0l43 203h112l232 1091h-113l43 201h430l-43 -201h-112l-232 -1091h113l-43 -203h-430zM31 0l43 203h112l232 1091h-113l43 201h430l-43 -201h-112l-232 -1091h113l-43 -203h-430z" />
    <glyph glyph-name="uni2162" unicode="&#x2162;" horiz-adv-x="1863" 
d="M1219 0l43 203h112l232 1091h-113l43 201h430l-43 -201h-113l-231 -1091h113l-43 -203h-430zM625 0l43 203h112l232 1091h-113l43 201h430l-43 -201h-112l-232 -1091h113l-43 -203h-430zM31 0l43 203h112l232 1091h-113l43 201h430l-43 -201h-112l-232 -1091h113
l-43 -203h-430z" />
    <glyph glyph-name="uni2163" unicode="&#x2163;" horiz-adv-x="1863" 
d="M1155 1495l43 -1198l576 1198h223l-737 -1495h-226l-92 1495h213zM524 203l-43 -203h-430l43 203h113l231 1091h-112l43 201h430l-43 -201h-113l-231 -1091h112z" />
    <glyph glyph-name="uni2164" unicode="&#x2164;" horiz-adv-x="1269" 
d="M328 1495h213l53 -1198l586 1198h223l-748 -1495h-225z" />
    <glyph glyph-name="uni2165" unicode="&#x2165;" horiz-adv-x="1863" 
d="M530 1495l43 -1198l576 1198h223l-737 -1495h-225l-93 1495h213zM1669 203l-43 -203h-430l43 203h113l231 1091h-113l43 201h431l-43 -201h-113l-232 -1091h113z" />
    <glyph glyph-name="uni2166" unicode="&#x2166;" horiz-adv-x="2478" 
d="M1833 203h113l231 1091h-113l43 201h430l-43 -201h-112l-232 -1091h113l-43 -203h-430zM530 1495l43 -1198l576 1198h223l-737 -1495h-225l-93 1495h213zM1669 203l-43 -203h-430l43 203h113l231 1091h-113l43 201h431l-43 -201h-113l-232 -1091h113z" />
    <glyph glyph-name="uni2167" unicode="&#x2167;" horiz-adv-x="2990" 
d="M520 1495l43 -1198l576 1198h223l-737 -1495h-226l-92 1495h213zM2376 203h112l232 1091h-113l43 201h430l-43 -201h-112l-232 -1091h113l-43 -203h-430zM1802 203h113l231 1091h-112l43 201h430l-43 -201h-113l-231 -1091h112l-43 -203h-430zM1659 203l-43 -203h-430
l43 203h112l232 1091h-113l43 201h430l-43 -201h-112l-232 -1091h113z" />
    <glyph glyph-name="uni2168" unicode="&#x2168;" horiz-adv-x="1863" 
d="M524 203l-43 -203h-430l43 203h113l231 1091h-112l43 201h430l-43 -201h-113l-231 -1091h112zM1229 750l-266 745h221l190 -534l367 534h241l-524 -766l262 -729h-221l-186 518l-355 -518h-241z" />
    <glyph glyph-name="uni2169" unicode="&#x2169;" horiz-adv-x="1269" 
d="M584 745l-318 750h221l240 -561l424 561h242l-580 -766l313 -729h-223l-231 541l-410 -541h-242z" />
    <glyph glyph-name="uni216A" unicode="&#x216a;" horiz-adv-x="1863" 
d="M1669 203l-43 -203h-430l43 203h113l231 1091h-113l43 201h431l-43 -201h-113l-232 -1091h113zM532 750l-266 745h221l191 -534l366 534h242l-524 -766l262 -729h-221l-187 518l-354 -518h-242z" />
    <glyph glyph-name="uni216B" unicode="&#x216b;" horiz-adv-x="2478" 
d="M1790 0l43 203h113l231 1091h-113l43 201h430l-43 -201h-112l-232 -1091h113l-43 -203h-430zM1669 203l-43 -203h-430l43 203h113l231 1091h-113l43 201h431l-43 -201h-113l-232 -1091h113zM532 750l-266 745h221l191 -534l366 534h242l-524 -766l262 -729h-221l-187 518
l-354 -518h-242z" />
    <glyph glyph-name="uni216C" unicode="&#x216c;" horiz-adv-x="1269" 
d="M164 0l317 1495h205l-274 -1292h696l-43 -203h-901z" />
    <glyph glyph-name="uni216D" unicode="&#x216d;" horiz-adv-x="1495" 
d="M461 589q0 -171 78 -291t249 -120q106 0 181 49q74 49 108 121h223q-57 -147 -202 -258t-320 -110q-258 0 -390 179t-132 453t120 512q120 239 316 337q109 54 230 55q223 0 360 -150t121 -375h-197q16 141 -63 234q-81 92 -227 92t-253 -123q-202 -230 -202 -605z" />
    <glyph glyph-name="uni216E" unicode="&#x216e;" horiz-adv-x="1515" 
d="M766 1292h-113l-231 -1089h133q289 1 481 193t193 464q0 204 -118 318t-345 114zM786 1495q283 0 465 -176q183 -176 183 -436t-131 -464q-131 -203 -343 -311t-460 -108h-326l318 1495h294z" />
    <glyph glyph-name="uni216F" unicode="&#x216f;" horiz-adv-x="1863" 
d="M963 561l600 934h290l-317 -1495h-201l258 1219l-528 -850h-254l-188 850l-258 -1219h-201l317 1495h283z" />
    <glyph glyph-name="uni2180" unicode="&#x2180;" horiz-adv-x="2314" 
d="M1585 1292h-112l-232 -1089h133q290 1 482 193t192 464q0 204 -118 318t-345 114zM451 589q-1 -171 77 -291t250 -120q106 0 180 49t109 121l137 647q16 139 -67 231q-85 91 -231 91t-254 -123t-154 -279t-47 -326zM1606 1495q283 0 465 -176t182 -436t-131 -464
q-131 -203 -343 -311t-460 -108h-326l11 49q-102 -70 -236 -69q-258 0 -390 179t-132 476q0 147 49 302t135 284t218 212t284 83q225 0 348 -160l31 139h295z" />
    <glyph glyph-name="uni2181" unicode="&#x2181;" horiz-adv-x="1515" 
d="M553 203q289 1 483 193t193 464q0 203 -118 318t-345 114h-113l-37 -166h132q139 0 228 -90t89 -217q0 -197 -137 -323t-334 -127h-137l-37 -166h133zM786 1495q283 0 465 -176q183 -176 183 -436t-131 -464q-131 -203 -343 -311t-460 -108h-326l318 1495h294zM727 942
h-149l-82 -389h139q98 -1 172 65t74 170q0 154 -154 154z" />
    <glyph glyph-name="partialdiff" unicode="&#x2202;" horiz-adv-x="921" 
d="M571 821q-157 0 -241 -144t-84 -319q0 -109 51 -172t143 -63q158 0 248 139t90 311q0 113 -56 181q-57 67 -151 67zM440 -20q-154 0 -246 101t-92 291t120 384q56 90 148 148t182 58q89 0 146 -31q57 -32 84 -79q-16 260 -118 383t-221 123q-229 0 -195 -232h-133
q-23 176 68 272t248 97q157 0 281 -116q71 -67 121 -167q51 -100 77 -265t14 -389t-142 -402q-130 -176 -342 -176z" />
    <glyph glyph-name="product" unicode="&#x220f;" horiz-adv-x="921" 
d="M922 1290v-143h-41v-1581h-144v1581h-430v-1581h-143v1581h-41v143h799z" />
    <glyph glyph-name="summation" unicode="&#x2211;" horiz-adv-x="921" 
d="M942 -291v-143h-819v143l665 803l-665 840v143h819v-143h-637l617 -758v-143l-617 -742h637z" />
    <glyph glyph-name="minus" unicode="&#x2212;" horiz-adv-x="1105" 
d="M1065 512h-942v164h942v-164z" />
    <glyph glyph-name="radical" unicode="&#x221a;" horiz-adv-x="921" 
d="M82 819v144h266l215 -1045l297 1577h144l-369 -1929h-143l-267 1253h-143z" />
    <glyph glyph-name="infinity" unicode="&#x221e;" horiz-adv-x="1105" 
d="M979 595q0 50 -28 86t-85 36q-82 0 -188 -172q78 -74 178 -74q57 0 90 37t33 87zM302 655q-46 1 -74 -35t-28 -88t28 -87q28 -36 85 -35q102 0 191 118q-75 82 -116 105q-40 22 -86 22zM1122 594q0 -123 -70 -195t-186 -71q-154 0 -264 98q-125 -160 -289 -160
q-117 0 -187 72t-69 194q0 122 70 195q70 72 186 72q77 0 137 -37t132 -115q70 102 134 158q65 55 166 55q100 0 170 -72t70 -194z" />
    <glyph glyph-name="integral" unicode="&#x222b;" horiz-adv-x="921" 
d="M963 1413q-102 0 -134 -102l-194 -635l-277 -823q-49 -145 -130 -217t-228 -70h-184l30 143h185q102 1 133 103l266 864l205 594q51 147 131 217t227 69h185l-31 -143h-184z" />
    <glyph glyph-name="therefore" unicode="&#x2234;" horiz-adv-x="1187" 
d="M819 0v266h246v-266h-246zM410 696v267h245v-267h-245zM0 0v266h246v-266h-246z" />
    <glyph glyph-name="because" unicode="&#x2235;" horiz-adv-x="1187" 
d="M963 696v267h245v-267h-245zM553 0v266h246v-266h-246zM143 696v267h246v-267h-246z" />
    <glyph glyph-name="approxequal" unicode="&#x2248;" horiz-adv-x="1105" 
d="M770 358q-47 0 -162 -51q-116 -51 -226 -51t-182 72t-57 204h185q-8 -44 18 -68t73 -24q48 0 169 52t200 51q127 0 199 -72t57 -205h-184q8 43 -17 68q-26 24 -73 24zM770 727q-47 0 -162 -51q-116 -51 -226 -51q-110 -1 -182 71t-57 205h185q-8 -43 18 -67t73 -25
q48 0 169 51t200 51q127 1 199 -71t57 -205h-184q8 43 -18 67t-72 25z" />
    <glyph glyph-name="notequal" unicode="&#x2260;" horiz-adv-x="1105" 
d="M1065 860v-164h-313l-162 -204h475v-164h-604l-256 -328h-123v41l225 287h-184v164h313l160 204h-473v164h602l258 328h123v-41l-225 -287h184z" />
    <glyph glyph-name="lessequal" unicode="&#x2264;" horiz-adv-x="1105" 
d="M1024 0h-922v160h762l-762 352v164l922 450v-163l-754 -369l754 -348v-246z" />
    <glyph glyph-name="greaterequal" unicode="&#x2265;" horiz-adv-x="1105" 
d="M1065 0h-922v246l754 348l-754 369v163l922 -450v-164l-762 -352h762v-160z" />
    <glyph glyph-name="lozenge" unicode="&#x25ca;" horiz-adv-x="860" 
d="M287 748l205 -566l204 566l-204 563zM123 748l287 747h163l287 -747l-287 -748h-163z" />
    <glyph glyph-name="at.cap" horiz-adv-x="1843" 
d="M901 217q-170 0 -272 114q-103 115 -103 307t125 356t306 165q181 0 282 -153l72 133h123l-113 -604q-14 -78 25 -121q40 -43 110 -43q70 -1 121 65q86 110 86 314q0 307 -181 491t-489 184q-211 -1 -373 -121t-243 -299q-80 -179 -80 -378q0 -303 168 -485t457 -181
q104 0 189 39t108 104l114 -112q-31 -90 -157 -137t-265 -48q-356 -1 -567 231t-211 599q0 252 112 467t312 344q201 129 447 129q362 0 590 -238t229 -589q-1 -211 -99 -372t-278 -161t-258 166q-43 -80 -126 -123t-161 -43zM707 616q0 -236 215 -235q78 2 138 57
q118 108 118 332q0 106 -58 166t-164 59q-108 0 -179 -117q-70 -119 -70 -262z" />
    <glyph glyph-name="zero.tnum" horiz-adv-x="1126" 
d="M136 148q-95 156 -95 401t90 485q49 134 119 240t178 174t240 68q213 0 315 -158t102 -417t-149 -588q-72 -159 -198 -267t-277 -106q-111 0 -194 45t-131 123zM240 530q0 -100 17 -171t73 -127t141 -56q119 0 219 141t148 325t49 303q0 120 -18 191q-17 71 -72 127
t-147 56t-176 -83q-83 -83 -132 -210q-50 -127 -76 -262q-26 -134 -26 -234z" />
    <glyph glyph-name="one.tnum" horiz-adv-x="1126" 
d="M338 1106v41l369 348h245l-266 -1292h328l-41 -203h-860l41 203h327l215 1044l-133 -141h-225z" />
    <glyph glyph-name="two.tnum" horiz-adv-x="1126" 
d="M668 1516q182 0 310 -128t128 -313q0 -258 -287 -450q-241 -164 -357 -257t-157 -167h658l-41 -201h-902l21 100q16 78 87 192q26 40 79 91t85 82t111 91t185 133t129 89q184 129 184 287q0 119 -72 185t-176 67q-104 -1 -187 -63t-97 -189h-205q37 223 180 337
q142 114 324 114z" />
    <glyph glyph-name="three.tnum" horiz-adv-x="1126" 
d="M991 471q0 -207 -146 -349q-145 -142 -365 -142t-360 158t-100 374h205q-33 -138 47 -238t216 -100t218 88q80 88 80 200t-72 193q-73 80 -184 107l-153 37v184l444 311h-608l41 201h799l61 -201l-500 -362q174 -43 276 -167t101 -294z" />
    <glyph glyph-name="four.tnum" horiz-adv-x="1126" 
d="M287 682h407l115 561zM41 483v199l758 813h266l-168 -813h188l-41 -199h-188l-98 -483h-205l100 483h-612z" />
    <glyph glyph-name="five.tnum" horiz-adv-x="1126" 
d="M504 -20q-224 0 -371 174t-106 399h202q-37 -151 55 -265t239 -114q146 0 235 92q88 92 88 230t-86 223q-86 86 -244 94l-328 14v185l246 483h674l-43 -201h-524l-158 -286q68 0 180 -7q215 -10 350 -150t135 -357q0 -218 -159 -366q-161 -148 -385 -148z" />
    <glyph glyph-name="six.tnum" horiz-adv-x="1126" 
d="M668 1516q200 0 320 -146t89 -346h-203q23 131 -40 213t-187 82q-86 0 -157 -47q-70 -47 -114 -125q-84 -150 -108 -307q102 102 267 102q209 0 339 -141t132 -339q0 -198 -148 -340t-352 -142q-203 0 -333 146t-130 363t54 446q54 228 196 405q143 176 375 176zM512 174
q125 0 208 82t83 210t-80 206t-201 78t-203 -79q-81 -79 -81 -203t74 -209t200 -85z" />
    <glyph glyph-name="seven.tnum" horiz-adv-x="1126" 
d="M20 0v41l828 1253h-664l41 201h881l-21 -201l-839 -1294h-226z" />
    <glyph glyph-name="eight.tnum" horiz-adv-x="1126" 
d="M648 1315q-108 -1 -184 -65t-75 -160q0 -96 72 -163q73 -67 183 -67t184 62t73 163q0 100 -72 165q-73 65 -181 65zM229 422q0 -112 78 -182t201 -70t210 70t87 184t-80 186q-80 74 -203 74t-208 -75t-85 -187zM1100 1075q0 -111 -66 -199t-170 -135q144 -133 144 -319
t-148 -314t-357 -128q-208 0 -343 122t-135 318q0 133 79 238q80 105 209 161q-53 45 -89 119t-36 162q0 170 142 288t328 118t314 -122q128 -121 128 -309z" />
    <glyph glyph-name="nine.tnum" horiz-adv-x="1126" 
d="M467 -20q-201 0 -325 146t-93 345h203q-22 -131 40 -213t185 -82q221 0 339 325q28 77 40 154q-106 -102 -266 -102q-209 0 -340 141t-131 340t145 340q145 142 347 142t336 -151t134 -361q0 -282 -85 -533q-46 -139 -114 -247t-174 -176q-108 -68 -241 -68zM609 1321
q-122 0 -205 -82q-82 -82 -82 -210t80 -206t200 -78q121 0 202 78t81 202t-77 210t-199 86z" />
    <glyph glyph-name="zero.dnom" 
d="M74 1008q0 116 32 222t109 190q77 85 189 85t166 -80t54 -212t-77 -295q-37 -78 -104 -130t-146 -51q-115 0 -169 78q-54 77 -54 193zM213 1014q0 -54 23 -98t71 -44q78 0 128 119t50 250t-90 131q-80 0 -131 -120t-51 -238z" />
    <glyph glyph-name="one.dnom" 
d="M145 1208v21l256 266h185l-154 -747h-141l125 589l-115 -129h-156z" />
    <glyph glyph-name="two.dnom" 
d="M297 1249h-143q10 127 88 191t178 63t168 -69t67 -174q0 -145 -192 -240q-10 -4 -40 -20t-44 -22q-136 -68 -156 -104h359l-25 -126h-506l17 79q13 65 64 116l32 32q12 13 39 31t37 26t42 26t58 35q26 16 70 40q104 56 104 137q0 42 -30 72t-76 30t-79 -33
q-32 -33 -32 -90z" />
    <glyph glyph-name="three.dnom" 
d="M342 737q-118 0 -192 81t-58 196h139q-12 -62 24 -104t97 -42t97 34q35 34 35 83t-33 81t-82 42l-113 18v103l219 139h-280l30 127h420l31 -127l-244 -151q86 -17 139 -79t53 -160t-82 -170q-83 -72 -200 -71z" />
    <glyph glyph-name="four.dnom" 
d="M207 1075h205l53 250zM23 944l26 131l430 420h164l-88 -420h78l-27 -131h-78l-39 -196h-143l39 196h-362z" />
    <glyph glyph-name="five.dnom" 
d="M350 1255q108 1 180 -69t72 -187t-80 -189t-204 -73q-124 0 -197 87q-74 87 -51 210h141q-19 -72 15 -119t98 -47t100 36q37 36 37 92t-36 92t-103 40l-177 9v112l127 246h387l-28 -127h-285l-59 -115q20 2 63 2z" />
    <glyph glyph-name="six.dnom" 
d="M406 1503q108 -1 167 -67t41 -176h-129q10 53 -12 86q-23 33 -72 32q-113 0 -163 -190q46 33 130 33t149 -66t65 -172t-76 -176t-184 -70t-176 72q-115 124 -34 406q32 112 109 200t185 88zM328 864q53 0 86 32q32 32 32 85t-32 85q-33 32 -83 32t-84 -32t-34 -83t31 -85
t84 -34z" />
    <glyph glyph-name="seven.dnom" 
d="M78 748v38l422 582h-361l31 127h498l-15 -127l-434 -620h-141z" />
    <glyph glyph-name="eight.dnom" 
d="M285 1283q1 -39 27 -65t72 -26t76 26t30 64t-29 66q-29 26 -73 26t-74 -26q-29 -27 -29 -65zM323 864q50 0 86 29q35 29 35 75t-32 76t-84 31q-51 0 -86 -31q-35 -30 -35 -76t33 -75t83 -29zM392 1503q101 -1 170 -63t69 -163t-105 -163q60 -66 60 -156t-78 -155
q-78 -66 -189 -66q-111 -1 -181 63t-68 169q0 61 34 113q35 52 91 77q-45 49 -45 136t70 148q71 60 172 60z" />
    <glyph glyph-name="nine.dnom" 
d="M290 737q-108 0 -167 67t-41 177h129q-9 -53 13 -86t71 -33q113 0 164 191q-45 -33 -130 -33t-150 66t-64 171q0 106 75 177q76 70 185 70t175 -72t66 -185q0 -262 -140 -422q-78 -88 -186 -88zM369 1376q-53 0 -86 -32t-33 -84q0 -53 33 -85t83 -32t84 32q34 33 34 83
t-31 84t-84 34z" />
    <glyph glyph-name="zero.numr" 
d="M297 -10q-115 0 -169 78t-54 192q0 257 141 413q77 85 189 85t166 -80t54 -212t-77 -296q-37 -78 -104 -129t-146 -51zM213 266q0 -55 23 -98t71 -43q78 0 128 119q50 120 50 250t-90 131q-80 0 -131 -120t-51 -239z" />
    <glyph glyph-name="one.numr" 
d="M145 461v20l256 267h185l-154 -748h-141l125 590l-115 -129h-156z" />
    <glyph glyph-name="two.numr" 
d="M297 502h-143q10 127 88 190q78 64 178 64t168 -69t67 -175q0 -145 -192 -240q-219 -109 -240 -145h359l-25 -127h-506l17 80q13 65 59 111t74 65q29 20 39 28t42 27q32 17 40 23t40 24t62 35q90 52 90 129q0 41 -30 72t-76 31t-79 -33q-32 -33 -32 -90z" />
    <glyph glyph-name="three.numr" 
d="M352 121q61 0 97 34q35 34 35 83q0 48 -34 80q-32 32 -81 42l-113 19v102l219 140h-280l30 127h420l31 -127l-244 -152q86 -17 139 -79t53 -160t-82 -169q-83 -71 -200 -71q-118 0 -192 81t-58 195h139q-12 -61 24 -103t97 -42z" />
    <glyph glyph-name="four.numr" 
d="M207 328h205l53 250zM23 197l26 131l430 420h164l-88 -420h78l-27 -131h-78l-39 -197h-143l39 197h-362z" />
    <glyph glyph-name="five.numr" 
d="M350 508q108 0 180 -70t72 -186t-80 -190q-80 -72 -204 -72t-197 87q-74 87 -51 210h141q-19 -72 15 -119t98 -47t100 36q37 36 37 92t-36 92t-103 40l-177 8v113l127 246h387l-28 -127h-285l-59 -115q20 2 63 2z" />
    <glyph glyph-name="six.numr" 
d="M406 758q108 0 167 -67t41 -177h-129q10 53 -12 86q-23 33 -72 33q-113 0 -163 -191q46 33 130 33q84 1 149 -65t65 -172t-76 -176t-184 -70t-176 72q-116 123 -34 406q32 112 109 200t185 88zM328 119q53 0 86 32q32 33 32 85t-32 85q-33 31 -83 31t-84 -32t-34 -82
q0 -51 31 -85t84 -34z" />
    <glyph glyph-name="seven.numr" 
d="M78 0v39l422 582h-361l31 127h498l-15 -127l-434 -621h-141z" />
    <glyph glyph-name="eight.numr" 
d="M388 629q-44 -1 -74 -27t-29 -64t27 -65t72 -27t76 26t29 65t-29 65t-72 27zM207 222q0 -46 33 -74t83 -29q50 1 86 29q35 28 35 74t-32 77q-33 31 -84 31t-86 -31t-35 -77zM631 532q0 -101 -105 -163q60 -66 60 -156t-78 -156q-78 -65 -189 -65t-181 63t-68 168
q0 61 34 114q35 52 91 77q-45 49 -45 136t70 147q71 61 172 61t170 -62t69 -164z" />
    <glyph glyph-name="nine.numr" 
d="M290 -8q-108 0 -167 66q-59 67 -41 178h129q-9 -53 13 -86t71 -33q113 0 164 190q-45 -33 -130 -33t-150 66t-64 172q0 106 75 176q76 70 185 70t175 -72t66 -184q0 -262 -140 -422q-78 -88 -186 -88zM369 631q-53 0 -86 -32t-33 -85t33 -85t83 -32t84 32t33 83
q0 51 -30 85q-31 34 -84 34z" />
    <glyph glyph-name="commaaccent" horiz-adv-x="491" 
d="M307 -82l-211 -385l-153 84l168 301h196z" />
    <glyph glyph-name="commaaccent.alt" horiz-adv-x="491" 
d="M219 1075l215 393l154 -86l-172 -307h-197z" />
    <glyph glyph-name="caron.alt" horiz-adv-x="491" 
d="M621 1556l-232 -432l-156 78l191 354h197z" />
    <glyph glyph-name="caron.cap" 
d="M915 1815l-260 -207h-172l-186 223l135 125l156 -180l225 180z" />
    <glyph glyph-name="circumflex.cap" 
d="M307 1753l260 207h172l187 -223l-135 -125l-156 180l-225 -180z" />
    <glyph glyph-name="acute.cap" horiz-adv-x="675" 
d="M803 1968l119 -143l-265 -217h-247z" />
    <glyph glyph-name="grave.cap" horiz-adv-x="675" 
d="M307 1872l164 102l207 -366h-207z" />
    <glyph glyph-name="macron.cap" horiz-adv-x="675" 
d="M328 1661v164h553v-164h-553z" />
    <glyph glyph-name="breve.cap" horiz-adv-x="675" 
d="M608 1608q-135 0 -195 76q-60 77 -44 190h172q-10 -45 8 -75t68 -30t85 29t43 76h175q-17 -117 -97 -191q-80 -75 -215 -75z" />
    <glyph glyph-name="ring.cap" horiz-adv-x="675" 
d="M506 1772q0 -39 24 -64t64 -25t64 25t24 64q0 40 -25 64t-63 24t-64 -24q-24 -24 -24 -64zM373 1772q0 92 65 154q66 62 156 62t156 -62t66 -154t-66 -155t-156 -63t-156 63q-65 63 -65 155z" />
    <glyph glyph-name="tilde.cap" horiz-adv-x="675" 
d="M442 1782q29 0 111 49t168 49t134 -66t22 -186h-170q23 78 -29 78q-23 0 -107 -52q-83 -52 -165 -52t-128 52t-32 148l170 64q-14 -32 -8 -58t34 -26z" />
    <glyph glyph-name="dotaccent.cap" horiz-adv-x="675" 
d="M451 1632v226h225v-226h-225z" />
    <glyph glyph-name="hungarumlaut.cap" horiz-adv-x="675" 
d="M932 1974l123 -119l-226 -249h-213zM563 1974l139 -102l-190 -266h-195z" />
    <glyph glyph-name="dieresis.cap" horiz-adv-x="675" 
d="M676 1663v203h225v-203h-225zM328 1622v203h225v-203h-225z" />
    <glyph glyph-name="afii10072.BUL" horiz-adv-x="1495" 
d="M879 578l442 385h276l-571 -488l367 -475h-236l-313 418l-88 -418h-201l90 418l-450 -418h-256l565 512l-361 451h246l289 -385l211 978h198z" />
    <glyph glyph-name="afii10096.BUL" horiz-adv-x="1392" 
d="M898 164q120 0 188 116t69 245q0 128 -56 201q-57 73 -157 73q-100 1 -165 -61q-117 -111 -115 -298q0 -128 58 -202t178 -74zM952 983q182 0 292 -130q108 -130 108 -341q0 -212 -133 -372t-331 -160t-298 111q-100 112 -113 298h-149l-84 -389h-203l328 1556h202
l-204 -983h120q37 176 160 293t305 117z" />
    <glyph glyph-name="afii10068.BUL" horiz-adv-x="819" 
d="M18 278q0 136 92 210t234 87l133 15q139 16 139 117q0 49 -36 75t-94 27q-56 0 -96 -33t-56 -80l-174 82q39 94 128 148t213 53q124 0 215 -78t91 -206q0 -129 -92 -199t-242 -86l-119 -13q-139 -12 -139 -114q0 -57 44 -86t106 -29q145 0 190 119h201
q-23 -145 -144 -225t-260 -78q-138 0 -236 79t-98 215z" />
    <glyph glyph-name="afii10075.BUL" horiz-adv-x="1064" 
d="M397 1137v157h555v-157h-555zM676 0v82l-10 10l-11 -10q-101 -102 -245 -102t-230 82t-86 214q0 53 8 93l131 594h205l-129 -564q-12 -49 -12 -82q0 -77 41 -115t113 -38q111 0 187 68t97 169l117 562h203l-215 -963h-164z" />
    <glyph glyph-name="afii10077.BUL" horiz-adv-x="880" 
d="M512 698l-358 -698h-215l522 963h194l144 -963h-205z" />
    <glyph glyph-name="afii10081.BUL" horiz-adv-x="1064" 
d="M410 963v-93l10 -10l10 10q41 47 113 80t133 33q180 1 265 -111t48 -278l-129 -594h-203l125 573q23 101 -12 163t-126 62t-169 -58t-106 -152l-125 -588h-203l205 963h164z" />
    <glyph glyph-name="afii10084.BUL" horiz-adv-x="1597" 
d="M1188 799q-88 0 -163 -75t-95 -171l-113 -553h-201l123 604q39 195 -125 195q-84 0 -152 -66t-97 -158l-121 -575h-203l205 963h164v-93l10 -10l10 10q41 47 109 80t127 33q207 0 266 -164l61 62q102 102 256 102t228 -100t43 -258l-127 -625h-203l123 604
q39 195 -125 195z" />
    <glyph glyph-name="afii10088.BUL" horiz-adv-x="1075" 
d="M676 0v82l-10 10l-11 -10q-101 -102 -245 -102t-230 82t-86 214q0 53 8 93l131 594h205l-129 -564q-12 -49 -12 -82q0 -77 41 -115t113 -38q111 0 187 68t97 169l117 562h203l-174 -779h123l-89 -430h-188l51 246h-102z" />
    <glyph glyph-name="afii10090.BUL" horiz-adv-x="1548" 
d="M1171 0v92l-10 10l-10 -10q-41 -47 -103 -80t-122 -32q-195 0 -254 163l-62 -61q-102 -102 -250 -102t-219 99q-70 99 -37 259l127 625h203l-123 -605q-39 -195 115 -194q88 0 158 74t90 172l112 553h199l-123 -605q-39 -195 115 -194q83 0 147 66t93 157l120 576h201
l-205 -963h-162z" />
    <glyph glyph-name="afii10091.BUL" horiz-adv-x="1558" 
d="M1171 0v92l-10 10l-10 -10q-41 -47 -103 -80t-122 -32q-195 0 -254 163l-62 -61q-102 -102 -250 -102t-219 99q-70 99 -37 259l127 625h203l-123 -605q-39 -195 115 -194q88 0 158 74t90 172l112 553h199l-123 -605q-39 -195 115 -194q83 0 147 66t93 157l120 576h201
l-166 -779h123l-88 -430h-186l51 246h-101z" />
    <glyph glyph-name="afii10092.BUL" horiz-adv-x="993" 
d="M492 164q112 0 184 76t72 165t-40 129t-104 39q-106 -1 -181 -77t-75 -179q0 -65 38 -109t106 -44zM650 748q134 0 218 -88t84 -230q0 -190 -138 -320t-333 -130q-155 0 -241 85t-86 222q0 80 10 135l74 356h-207l41 185h409l-61 -297l10 -11q85 93 220 93z" />
    <glyph glyph-name="afii10094.BUL" horiz-adv-x="921" 
d="M420 164q112 0 184 76t72 165t-40 129t-104 39q-106 -1 -181 -77t-75 -179q0 -65 38 -109t106 -44zM582 748q131 0 215 -88t84 -230q-1 -190 -139 -320t-332 -130q-156 0 -242 85t-86 222q0 80 10 135l113 541h205l-62 -297l10 -11q93 93 224 93z" />
    <glyph glyph-name="afii10076.BUL" horiz-adv-x="962" 
d="M367 578l442 385h276l-563 -486l359 -477h-246l-303 418l-88 -418h-203l330 1556h202z" />
    <glyph glyph-name="afii10029.BUL" horiz-adv-x="1331" 
d="M1167 0h-215l-123 1178l-616 -1178h-233l798 1495h226z" />
    <glyph glyph-name="afii10073.BUL" horiz-adv-x="952" 
d="M625 19q1 97 -53 153t-142 68l-151 2v174q78 -4 173 0t170 54t74 144q0 94 -55 142t-136 49q-81 0 -137 -47t-71 -123l-184 61q37 139 148 212q113 73 265 73t258 -95t107 -261q0 -221 -225 -308q84 -57 124 -127t39 -180q0 -172 -139 -295t-335 -123q-195 0 -307 124
t-85 315h201q-20 -115 37 -184t171 -69t184 72t69 169z" />
    <glyph glyph-name="afii10074.BUL" horiz-adv-x="1064" 
d="M676 0v82l-10 10l-11 -10q-101 -102 -245 -102t-230 82t-86 214q0 53 8 93l131 594h205l-129 -564q-12 -49 -12 -82q0 -77 41 -115t113 -38q111 0 187 68t97 169l117 562h203l-215 -963h-164z" />
    <glyph glyph-name="afii10067.BUL" horiz-adv-x="1126" 
d="M715 1516q161 0 277 -108t116 -271q0 -127 -70 -217t-186 -121q84 -39 144 -141t61 -218q1 -204 -143 -330t-364 -126t-344 162q-122 162 -75 397l135 635q37 166 163 252t286 86zM570 168q128 0 205 77t77 198t-65 197t-181 77q-16 0 -74 -4v184q18 -2 74 -2
q135 0 221 56q86 57 86 165t-56 164t-147 57q-91 0 -159 -48t-88 -142l-137 -637q-33 -146 41 -244q75 -98 203 -98z" />
    <glyph glyph-name="afii10069.BUL" horiz-adv-x="1085" 
d="M256 439q0 -129 61 -203t177 -74t200 104t84 244t-64 216q-65 77 -171 77q-139 0 -213 -118t-74 -246zM354 -424q-186 0 -283 92t-81 240l174 72q-16 -100 37 -160t161 -62q108 0 193 64q84 64 121 168l31 92l-11 10l-10 -10q-32 -41 -98 -72t-137 -30q-184 0 -287 133
q-102 133 -102 335t136 368q138 167 345 167q96 0 157 -29t119 -94l10 -10l11 10l61 103h174l-203 -973q-39 -188 -186 -301q-146 -113 -332 -113z" />
    <glyph glyph-name="afii10021.BUL" horiz-adv-x="1392" 
d="M369 205h563l-101 973zM1004 1495l143 -1290h164l-103 -512h-215l66 307h-907l-62 -307h-215l105 512h153l645 1290h226z" />
    <glyph glyph-name="afii10038.BUL" horiz-adv-x="1597" 
d="M748 1071q-170 0 -282 -100t-112 -254q0 -117 71 -183t200 -67h77l125 604h-79zM993 467q170 0 282 99t111 253q0 117 -70 185q-71 68 -200 67h-84l-125 -604h86zM614 266q-211 0 -341 124t-130 306q1 264 189 418t456 154h80l74 350h205l-74 -350h53q211 0 341 -124
t130 -304q0 -264 -188 -419t-457 -155h-86l-75 -368h-207l78 368h-48z" />
    <glyph glyph-name="afii10017.BULgrave" horiz-adv-x="1310" 
d="M633 1872l164 102l207 -366h-207zM530 594h367l-59 600zM778 1495h226l163 -1495h-213l-39 389h-491l-199 -389h-225z" />
    <glyph glyph-name="afii10022.BULgrave" horiz-adv-x="1146" 
d="M614 1872l164 102l207 -366h-207zM1065 860v-205h-637l-94 -450h670l-41 -205h-881l307 1495h881l-43 -205h-668l-90 -430h596z" />
    <glyph glyph-name="afii10026.BULgrave" horiz-adv-x="1331" 
d="M682 1872l164 102l207 -366h-207zM1147 1495h246l-308 -1495h-211l232 1114l-780 -1114h-244l307 1495h211l-233 -1114z" />
    <glyph glyph-name="afii10032.BULgrave" horiz-adv-x="1699" 
d="M827 1872l164 102l207 -366h-207zM799 162q283 0 485 224t203 495q0 205 -116 329t-327 123q-284 0 -486 -224t-202 -495q0 -204 116 -328t327 -124zM1083 1536q257 0 437 -179t180 -439t-127 -477q-127 -218 -341 -350t-472 -132t-437 179q-179 178 -179 438t126 478
q127 218 341 350t472 132z" />
    <glyph glyph-name="afii10037.BULgrave" horiz-adv-x="1126" 
d="M573 1872l164 102l207 -366h-207zM287 1495h223l160 -676l426 676h235l-942 -1495h-235l372 592z" />
    <glyph glyph-name="afii10044.BULgrave" horiz-adv-x="1210" 
d="M285 1872l164 102l206 -366h-206zM645 205q123 -1 205 69t82 166t-58 156q-58 59 -157 59h-246l-92 -450h266zM737 860q168 0 289 -115t121 -274q0 -219 -165 -345t-388 -126h-471l264 1290h-266l43 205h481l-131 -635h223z" />
    <glyph glyph-name="afii10045.BULgrave" horiz-adv-x="1699" 
d="M864 1872l164 102l207 -366h-207zM645 205q123 -1 205 69t82 166t-58 156q-58 59 -157 59h-287l-92 -450h307zM1219 205h34l224 1085h-35l43 205h287l-43 -205h-35l-224 -1085h35l-43 -205h-284zM737 860q168 0 289 -115t121 -274q0 -219 -165 -345t-388 -126h-512
l307 1495h215l-131 -635h264z" />
    <glyph glyph-name="afii10047.BULgrave" horiz-adv-x="1454" 
d="M569 1872l164 102l207 -366h-207zM819 1536q267 0 441 -180t174 -465q0 -244 -119 -458t-328 -344t-455 -130q-172 0 -308 81t-214 216l154 154q49 -113 149 -182t240 -68q221 0 392 142t239 353h-713v205h750v21q-1 207 -107 329t-315 123q-279 0 -471 -227l-113 164
q121 122 278 194t326 72z" />
    <glyph glyph-name="afii10048.BULgrave" horiz-adv-x="2027" 
d="M1208 1872l164 102l207 -366h-207zM1227 162q178 0 315 108t205 271t68 351q1 188 -101 314t-279 127q-177 0 -317 -108q-139 -109 -210 -271q-70 -162 -70 -350t106 -314q106 -128 283 -128zM1433 1536q265 0 430 -175t165 -435t-102 -478q-102 -216 -292 -352
q-188 -136 -430 -137q-242 0 -409 175q-168 175 -168 450q0 47 2 71h-199l-92 -450h37l-43 -205h-285l41 205h35l223 1085h-35l43 205h287l-43 -205h-37l-88 -430h191q78 292 291 484t478 192z" />
    <glyph glyph-name="afii10049.BULgrave" horiz-adv-x="1228" 
d="M717 1872l164 102l206 -366h-206zM676 860h268l88 430h-284q-134 0 -216 -61t-82 -161t58 -154q57 -54 168 -54zM236 1044q0 203 153 327q154 124 389 124h512l-309 -1495h-215l135 655h-41l-657 -655h-244v41l637 614q-152 4 -256 117t-104 272z" />
    <glyph glyph-name="afii10065.BULgrave" horiz-adv-x="1085" 
d="M455 1382l174 82l174 -389h-195zM256 439q0 -129 61 -203t177 -74t200 104t84 244t-64 216q-65 77 -171 77q-139 0 -213 -118t-74 -246zM717 0v82l-10 10l-11 -10q-102 -102 -245 -102q-184 0 -287 133q-102 133 -102 335t136 368q138 167 345 167q96 0 157 -29t119 -94
l10 -10l11 10l61 103h174l-203 -963h-155z" />
    <glyph glyph-name="afii10070.BULgrave" horiz-adv-x="972" 
d="M346 1382l174 82l174 -389h-194zM553 801q-186 0 -258 -195h455q0 90 -52 142t-145 53zM262 430v-20q0 -102 60 -176t176 -72q59 0 116 34t91 80l131 -122q-139 -174 -338 -174t-315 128q-115 128 -115 330t136 374q136 171 359 171q175 0 281 -122t96 -308
q-4 -37 -10 -61l-31 -62h-637z" />
    <glyph glyph-name="afii10074.BULgrave" horiz-adv-x="1064" 
d="M426 1382l174 82l174 -389h-194zM676 0v82l-10 10l-11 -10q-101 -102 -245 -102t-230 82t-86 214q0 53 8 93l131 594h205l-129 -564q-12 -49 -12 -82q0 -77 41 -115t113 -38q111 0 187 68t97 169l117 562h203l-215 -963h-164z" />
    <glyph glyph-name="afii10080.BULgrave" horiz-adv-x="1024" 
d="M395 1382l174 82l174 -389h-194zM786 550q0 100 -67 174q-69 75 -191 75t-196 -116t-74 -242q0 -125 64 -201t166 -76t170 61q128 114 128 325zM486 -20q-206 0 -316 131t-109 341t143 370t341 161q199 0 319 -132t119 -339q0 -207 -145 -370q-146 -162 -352 -162z" />
    <glyph glyph-name="afii10085.BULgrave" horiz-adv-x="860" 
d="M276 1382l175 82l174 -389h-195zM729 963h213l-780 -1373h-203l317 562l-153 811h194l99 -572z" />
    <glyph glyph-name="afii10092.BULgrave" horiz-adv-x="993" 
d="M156 1382l174 82l174 -389h-195zM492 164q112 0 184 76t72 165t-40 129t-104 39q-106 -1 -181 -77t-75 -179q0 -65 38 -109t106 -44zM650 748q134 0 218 -88t84 -230q0 -190 -138 -320t-333 -130q-155 0 -241 85t-86 222q0 80 10 135l74 356h-207l41 185h409l-61 -297
l10 -11q85 93 220 93z" />
    <glyph glyph-name="afii10093.BULgrave" horiz-adv-x="1259" 
d="M553 1382l174 82l174 -389h-194zM420 184q94 0 150 46t56 116t-40 108q-41 40 -115 40h-127l-65 -310h141zM842 0l207 963h200l-205 -963h-202zM492 676q150 0 244 -90t93 -217q0 -170 -122 -270q-123 -99 -308 -99h-358l205 963h198l-61 -287h109z" />
    <glyph glyph-name="afii10095.BULgrave" horiz-adv-x="942" 
d="M213 1382l174 82l174 -389h-194zM307 401v172h381q-10 98 -70 164t-167 66q-68 0 -125 -36t-90 -91l-134 133q160 174 352 174t310 -124t117 -335q0 -211 -132 -378t-350 -166q-139 0 -249 85t-150 222l174 82q8 -91 68 -149t160 -58q99 0 170 68t100 171h-365z" />
    <glyph glyph-name="afii10096.BULgrave" horiz-adv-x="1392" 
d="M702 1382l175 82l174 -389h-195zM898 164q120 0 188 116t69 245q0 128 -56 201q-57 73 -157 73q-100 1 -165 -61q-117 -111 -115 -298q0 -128 58 -202t178 -74zM952 983q182 0 292 -130q108 -130 108 -341q0 -212 -133 -372t-331 -160t-298 111q-100 112 -113 298h-149
l-84 -389h-203l328 1556h202l-204 -983h120q37 176 160 293t305 117z" />
    <glyph glyph-name="afii10097.BULgrave" horiz-adv-x="962" 
d="M430 1382l174 82l174 -389h-194zM532 797q-72 0 -118 -35t-47 -85t31 -80t85 -30h207l49 230h-207zM0 0v20l410 392q-111 16 -177 89t-65 154q0 145 103 227t282 81h399l-194 -963h-189l84 410h-39l-391 -410h-223z" />
    <glyph glyph-name="t.ss01" horiz-adv-x="604" 
d="M666 963v-185h-201l-121 -594v-184h-235l159 778h-166l41 185h164l43 204l195 205h43l-84 -409h162z" />
    <glyph glyph-name="tcaron.ss01" horiz-adv-x="655" 
d="M1012 1556l-232 -432l-155 78l190 354h197zM666 963v-185h-201l-121 -594v-184h-235l159 778h-166l41 185h164l43 204l195 205h43l-84 -409h162z" />
    <glyph glyph-name="tcommaaccent.ss01" horiz-adv-x="604" 
d="M344 -82l-211 -385l-153 84l167 301h197zM666 963v-185h-201l-121 -594v-184h-235l159 778h-166l41 185h164l43 204l195 205h43l-84 -409h162z" />
    <glyph glyph-name="tcedilla.ss01" horiz-adv-x="604" 
d="M149 -262q73 0 72 47q0 63 -117 51l46 164h-41l159 778h-166l41 185h164l43 204l195 205h43l-84 -409h162v-185h-201l-121 -594v-184h-41l-16 -72q106 -35 106 -143q-1 -80 -67 -137q-66 -58 -153 -58q-171 -1 -234 72l94 133q43 -57 116 -57z" />
    <glyph glyph-name="tbar.ss01" horiz-adv-x="614" 
d="M37 451v184h201l30 143h-166l41 185h164l43 204l195 205h43l-84 -409h162v-185h-201l-29 -143h195v-184h-234l-53 -267v-184h-235l92 451h-164z" />
    <glyph glyph-name="one.ss02" horiz-adv-x="1126" 
d="M287 1106v41l368 348h246l-266 -1292h328l-41 -203h-861l41 203h328l215 1044l-133 -141h-225z" />
    <glyph glyph-name="ampersand.alt" horiz-adv-x="1208" 
d="M696 635h471v-178h-123q-24 -236 -162 -357q-138 -120 -330 -120t-321 131t-129 340q0 153 84 263t224 154q-102 114 -102 266t124 267q125 115 302 115t301 -138t100 -323h-203q23 106 -42 186t-165 80q-99 0 -157 -56q-58 -57 -58 -141t47 -144t131 -79l-39 -184
q-133 31 -238 -53t-105 -212t73 -204q74 -74 194 -74q242 0 273 283h-150v178z" />
    <glyph glyph-name="oneinferior.alt" 
d="M152 154v20l215 205h184l-127 -615h184l-26 -133h-512l26 133h185l98 478l-84 -88h-143z" />
    <glyph glyph-name="onesuperior.alt" 
d="M152 1638v21l215 205h184l-127 -615h184l-26 -133h-512l26 133h185l98 477l-84 -88h-143z" />
    <glyph glyph-name="one.dnom.alt" 
d="M152 1270v20l215 205h184l-127 -614h184l-26 -133h-512l26 133h185l98 477l-84 -88h-143z" />
    <glyph glyph-name="one.numr.alt" 
d="M152 522v21l215 205h184l-127 -615h184l-26 -133h-512l26 133h185l98 477l-84 -88h-143z" />
    <glyph glyph-name="onehalf.alt" horiz-adv-x="1126" 
d="M1147 1126l-840 -757h-153l839 757h154zM143 1270v20l215 205h185l-127 -614h164l-17 -82l-57 -51h-424l27 133h163l99 477l-84 -88h-144zM768 502h-143q10 127 88 190q77 64 177 64t168 -69t68 -175q0 -146 -200 -244t-230 -137h359l-27 -131h-506l15 72q28 110 135 184
q29 20 39 28t42 27q32 17 40 23t41 24t62 35q89 52 89 129q0 41 -30 72q-31 31 -77 31t-78 -33t-32 -90z" />
    <glyph glyph-name="onequarter.alt" horiz-adv-x="1126" 
d="M645 328h219l51 245zM1147 1126l-840 -757h-153l839 757h154zM143 1270v20l215 205h185l-127 -614h164l-17 -82l-57 -51h-424l27 133h163l99 477l-84 -88h-144zM444 197l27 131l461 420h164l-88 -420h77l-26 -131h-78l-39 -197h-143l39 197h-394z" />
    <glyph glyph-name="arrow_right" horiz-adv-x="1884" 
d="M82 512v184h1456l-33 21l-440 338l123 153l614 -512v-184l-614 -512l-123 154l440 338l33 20h-1456z" />
    <glyph glyph-name="arrow_left" horiz-adv-x="1884" 
d="M1802 696v-184h-1458l35 -20l440 -338l-123 -154l-614 512v184l614 512l123 -153l-440 -338l-35 -21h1458z" />
    <glyph glyph-name="arrow_down" horiz-adv-x="1433" 
d="M625 1556h184v-1458l20 35l338 440l154 -122l-512 -615h-184l-512 615l153 122l338 -440l21 -35v1458z" />
    <glyph glyph-name="arrow_up" horiz-adv-x="1433" 
d="M860 -164h-184v1456l-21 -32l-338 -441l-153 123l512 614h184l512 -614l-153 -123l-338 441l-21 32v-1456z" />
    <glyph glyph-name="arrow_left_up" horiz-adv-x="1556" 
d="M319 999l72 -548l-194 -23l-74 795l131 131l797 -74l-23 -195l-551 72l-39 8l1026 -1034l-131 -131l-1022 1032z" />
    <glyph glyph-name="arrow_left_down" horiz-adv-x="1556" 
d="M494 903l-72 -549l-8 -32l1022 1032l131 -131l-1026 -1037l39 11l550 71l23 -194l-797 -74l-131 131l74 795z" />
    <glyph glyph-name="arrow_right_up" horiz-adv-x="1556" 
d="M1165 451l72 548l8 33l-1022 -1032l-131 131l1024 1034l-37 -8l-551 -72l-22 195l797 74l131 -131l-74 -795z" />
    <glyph glyph-name="arrow_right_down" horiz-adv-x="1556" 
d="M1257 354l-71 549l194 23l74 -795l-131 -131l-797 74l23 194l551 -71l37 -11l-1024 1037l131 131l1022 -1032z" />
    <glyph glyph-name="RP" horiz-adv-x="1658" 
d="M86 678l459 47l2 -12l-459 -49zM1575 817l-459 -47l-2 12l459 49zM86 817l2 14l459 -49l-2 -12zM1575 678l-2 -14l-459 49l2 12zM711 489l12 -6l-188 -422l-13 7zM950 489l189 -421l-13 -7l-188 422zM950 1006l-12 6l188 422l13 -7zM711 1006l-189 421l13 7l188 -422z
M270 254l344 309l9 -10l-342 -309zM1391 254l-11 -10l-342 309l9 10zM270 1241l11 10l342 -309l-9 -10zM1391 1241l-344 -309l-9 10l342 309zM555 829l-438 140l4 14l438 -141zM555 666l4 -13l-438 -141l-4 14zM1106 829l-4 13l438 141l4 -14zM1106 666l438 -140l-4 -14
l-438 141zM1081 883l-8 12l404 229l6 -12zM580 883l-402 229l6 12l404 -229zM580 612l8 -12l-404 -229l-6 12zM1081 612l402 -229l-6 -12l-404 229zM823 1034v461h15v-461h-15zM823 461h15v-461h-15v461zM897 469l94 -449l-14 -4l-94 451zM897 1026l-14 2l94 451l14 -4z
M764 469l14 -2l-94 -451l-14 4zM764 1026l-94 449l14 4l94 -451zM1004 520l272 -370l-12 -11l-273 373zM657 520l13 -8l-273 -373l-12 11zM657 975l-272 371l12 10l273 -373zM1004 975l-13 8l273 373l12 -10zM1577 754v-13h-580v13h580zM82 754h582v-13h-582v13zM807 911
l-64 576l15 2l61 -576zM854 584l64 -576l-15 -2l-61 576zM854 911l-12 2l61 576l15 -2zM807 584l12 -2l-61 -576l-15 2zM995 719l568 -117l-4 -14l-566 119zM995 776l-2 12l566 119l4 -14zM666 719l2 -12l-566 -119l-4 14zM666 776l-568 117l4 14l566 -119zM676 809
l-533 233l7 13l532 -234zM985 686l533 -233l-7 -13l-532 234zM985 809l-6 12l532 234l7 -13zM676 686l6 -12l-532 -234l-7 13zM946 629l389 -430l-10 -11l-389 433zM946 866l-10 8l389 433l10 -11zM715 866l-389 430l10 11l389 -433zM715 629l10 -8l-389 -433l-10 11z
M889 592l178 -551l-14 -4l-176 551zM889 903l-12 4l176 551l14 -4zM772 592l12 -4l-176 -551l-14 4zM772 903l-178 551l14 4l176 -551zM969 653l471 -336l-8 -12l-471 338zM692 842l-471 336l8 12l471 -338zM969 842l-8 10l471 338l8 -12zM692 653l8 -10l-471 -338l-8 12z
M922 608l286 -504l-12 -8l-287 506zM739 608l13 -6l-287 -506l-12 8zM922 887l-13 6l287 506l12 -8zM739 887l-286 504l12 8l287 -506z" />
    <glyph glyph-name="interfinity" horiz-adv-x="942" 
d="M425 498q46 0 83 24t37 63q0 38 -70 111l-18 21l-25 -17q-7 -6 -49 -31q-63 -37 -63 -101q0 -28 29 -48q30 -22 76 -22zM545 1321q-74 0 -129 -47q-55 -46 -55 -112t88 -158l51 -58l71 47q147 90 148 185q0 70 -50 106t-124 37zM922 1188q0 -190 -263 -344l-41 -25
q16 -22 55 -67q56 -66 56 -148q0 -125 -96 -201q-96 -75 -214 -75t-200 60t-83 162t49 164t151 130l-31 30q-69 72 -105 132t-36 131q0 156 124 258t273 102t255 -87t106 -222zM227 0v246h246v-246h-246z" />
    <glyph glyph-name="zigzag" horiz-adv-x="1218" 
d="M1249 0h-102v154l-164 -164l-92 92l174 379l-471 -471l-92 92l409 614l-706 -706l-92 92l602 807l-510 -510l-92 92l403 608l-311 -311l-92 92l176 381l-84 -84l-92 92v307h102v-204l164 164l92 -93l-174 -379l471 472l92 -93l-409 -614l706 707l92 -93l-690 -895
l598 598l92 -92l-403 -608l311 311l92 -92l-176 -381l84 84l92 -92v-256z" />
    </font>
</defs>
</svg>
