<?xml version="1.0" standalone="no"?>
<!DOCTYPE svg PUBLIC "-//W3C//DTD SVG 1.1//EN" "http://www.w3.org/Graphics/SVG/1.1/DTD/svg11.dtd" >
<svg xmlns="http://www.w3.org/2000/svg">
<metadata>
Created by FontPrep 20130207 at Mon Dec  1 17:43:58 2014
 By Appuhn, Mikey
Copr.1994, Guy Jeffrey Nelson. Designed by Guy Jeffrey Nelson. Produced by The Font Bureau, Inc. Based on Paul Renners Topic.
</metadata>
<defs>
<font id="e117a1770fb19069a4c40658bef25b95" horiz-adv-x='1024' >
  <font-face 
    font-family="Tasse-Medium"
    font-weight="500"
    font-stretch="normal"
    units-per-em="2048"
    panose-1="0 0 0 0 0 0 0 0 0 0"
    ascent="1638"
    descent="-410"
    x-height="946"
    cap-height="1421"
    bbox="-297 -453 1524 1806"
    underline-thickness="40"
    underline-position="-252"
    unicode-range="U+0020-FB02"
  />
<missing-glyph horiz-adv-x="1024" 
 />
    <glyph glyph-name=".notdef" horiz-adv-x="1024" 
 />
    <glyph glyph-name=".null" horiz-adv-x="0" 
 />
    <glyph glyph-name="nonmarkingreturn" horiz-adv-x="681" 
 />
    <glyph glyph-name="space" unicode=" " horiz-adv-x="333" 
 />
    <glyph glyph-name="exclam" unicode="!" horiz-adv-x="344" 
d="M303 119q0 -55 -39 -93t-93 -38t-92 38t-38 93t38 93t92 38t93 -38t39 -93zM274 385h-204v1036h204v-1036z" />
    <glyph glyph-name="quotedbl" unicode="&#x22;" horiz-adv-x="491" 
d="M207 1421l-17 -377h-161l-17 377h195zM479 1421l-16 -377h-160l-18 377h194z" />
    <glyph glyph-name="numbersign" unicode="#" horiz-adv-x="737" 
d="M446 868h-124l-31 -315h125zM725 1038l-14 -170h-86l-29 -315h86l-16 -170h-84l-39 -383h-181l39 383h-125l-38 -383h-179l37 383h-84l15 170h84l30 315h-84l13 170h88l37 383h180l-39 -383h125l39 383h180l-39 -383h84z" />
    <glyph glyph-name="dollar" unicode="$" horiz-adv-x="659" 
d="M610 262q0 -219 -188 -264v-125h-182v119q-123 10 -195 41v233h8q90 -74 207 -73q70 1 100 31t29 100v225q0 57 -25 68q-26 11 -124 14q-193 4 -193 200v336q0 123 52 185t157 75v123h182v-123q96 -14 150 -36v-236h-8q-80 80 -191 80q-65 0 -93 -28t-28 -93v-199
q0 -55 26 -66t121 -13q195 -4 195 -201v-373z" />
    <glyph glyph-name="percent" unicode="%" horiz-adv-x="1075" 
d="M246 739v514q0 39 -41 39t-41 -39v-514q0 -39 41 -39t41 39zM909 168v512q0 39 -40 39t-40 -39v-512q0 -41 40 -41t40 41zM397 721q0 -92 -47 -127t-145 -35t-146 34q-47 34 -47 128v549q0 94 47 129t147 35t145 -34q46 -34 46 -130v-549zM860 1421l-475 -1421h-172
l473 1421h174zM1063 150q0 -92 -48 -127q-49 -35 -147 -35t-145 34t-47 128v548q0 92 48 127t146 35t146 -33t47 -129v-548z" />
    <glyph glyph-name="ampersand" unicode="&#x26;" horiz-adv-x="708" 
d="M428 260v375h-94q-63 0 -64 -74v-301q0 -45 18 -61q18 -17 61 -17t61 16t18 62zM696 635h-49v-391q0 -136 -62 -196t-198 -60h-72q-135 0 -198 63t-64 199v295q0 92 41 139t133 49v8q-92 1 -133 49t-41 140v254q0 250 301 250q133 0 250 -41v-238h-8q-82 72 -204 72
t-122 -99v-198q0 -47 18 -70t62 -22h346v-203z" />
    <glyph glyph-name="quotesingle" unicode="'" horiz-adv-x="219" 
d="M207 1421l-17 -377h-161l-17 377h195z" />
    <glyph glyph-name="parenleft" unicode="(" horiz-adv-x="327" 
d="M53 184v787q0 238 115 448h145q-63 -166 -63 -329v-1027q0 -161 63 -329h-145q-115 211 -115 450z" />
    <glyph glyph-name="parenright" unicode=")" horiz-adv-x="327" 
d="M274 184q0 -240 -114 -450h-146q61 156 62 332v1024q0 176 -62 329h146q115 -211 114 -448v-787z" />
    <glyph glyph-name="asterisk" unicode="*" horiz-adv-x="638" 
d="M627 1118l-195 -33l146 -147l-150 -115l-109 185l-108 -185l-152 115l146 147l-193 33l49 174l185 -78l-25 207h197l-27 -207l187 78z" />
    <glyph glyph-name="plus" unicode="+" horiz-adv-x="657" 
d="M621 483h-189v-217h-207v217h-188v195h188v217h207v-217h189v-195z" />
    <glyph glyph-name="comma" unicode="," horiz-adv-x="301" 
d="M285 215l-133 -379h-172l79 379h226z" />
    <glyph glyph-name="hyphen" unicode="-" horiz-adv-x="561" 
d="M524 483h-487v195h487v-195z" />
    <glyph glyph-name="period" unicode="." horiz-adv-x="301" 
d="M281 119q0 -55 -38 -93t-92 -38t-94 38q-39 38 -39 93t39 93t93 38t93 -38q38 -38 38 -93z" />
    <glyph glyph-name="slash" unicode="/" horiz-adv-x="616" 
d="M631 1548l-430 -1671h-213l430 1671h213z" />
    <glyph glyph-name="zero" unicode="0" horiz-adv-x="688" 
d="M424 260v899q0 43 -17 59t-63 17q-46 0 -62 -16q-17 -16 -18 -60v-899q0 -43 18 -59q18 -17 61 -17q45 0 63 16t18 60zM639 221q0 -131 -75 -182t-220 -51t-220 51t-75 182v977q0 131 76 183q76 53 219 53t219 -52t76 -184v-977z" />
    <glyph glyph-name="one" unicode="1" horiz-adv-x="417" 
d="M356 0h-213v1114h-8q-70 -51 -123 -70v234q92 43 168 143h176v-1421z" />
    <glyph glyph-name="two" unicode="2" horiz-adv-x="638" 
d="M602 1137q0 -84 -45 -239t-137 -412t-103 -285h273v-201h-572v8q23 70 123 333q240 631 240 753q0 139 -141 139q-119 0 -201 -72h-8v219q111 54 259 54t230 -76t82 -221z" />
    <glyph glyph-name="three" unicode="3" horiz-adv-x="593" 
d="M541 240q0 -136 -74 -194t-211 -58t-238 41v229h9q76 -72 184 -72q59 0 87 27t28 86v244q0 51 -18 71t-60 21h-84v199h84q41 0 59 20t19 74v196q0 111 -113 111q-102 0 -180 -72h-8v228q104 43 237 43t206 -56t73 -190v-311q0 -53 -27 -93t-78 -47v-8q104 -18 105 -139
v-350z" />
    <glyph glyph-name="four" unicode="4" horiz-adv-x="671" 
d="M383 428v516h-8l-168 -516h176zM657 238h-75v-238h-213v238h-357v190l336 993h234v-993h75v-190z" />
    <glyph glyph-name="five" unicode="5" horiz-adv-x="616" 
d="M578 244q0 -256 -302 -256q-127 0 -237 43v227h8q80 -76 202 -76t122 113v348q0 51 -22 69t-73 19h-237v690h506v-202h-299v-287h121q106 0 158 -48t53 -163v-477z" />
    <glyph glyph-name="six" unicode="6" horiz-adv-x="630" 
d="M393 252v436q0 76 -65 76q-38 0 -54 -18t-16 -58v-436q0 -68 70 -68q65 0 65 68zM590 209q0 -221 -270 -221t-271 221v985q0 240 289 240q125 0 235 -39v-224h-8q-80 63 -196 64q-59 0 -85 -22t-26 -80v-242h8q44 45 140 45t140 -39t44 -131v-557z" />
    <glyph glyph-name="seven" unicode="7" horiz-adv-x="681" 
d="M18 1219v202h650v-8l-420 -1413h-215l352 1219h-367z" />
    <glyph glyph-name="eight" unicode="8" horiz-adv-x="657" 
d="M399 240v303q0 53 -69 90q-72 -39 -72 -90v-303q0 -35 17 -47t55 -13q69 1 69 60zM399 926v256q0 59 -69 59q-36 0 -54 -12t-18 -47v-256q0 -45 72 -92q69 39 69 92zM610 197q0 -209 -280 -209t-281 209v350q0 72 37 123t104 69v9q-141 43 -141 190v285q0 211 281 211
t280 -211v-285q0 -145 -143 -190v-11q67 -16 105 -68t38 -122v-350z" />
    <glyph glyph-name="nine" unicode="9" horiz-adv-x="630" 
d="M373 733v436q1 37 -15 51t-53 15q-37 0 -52 -14t-15 -52v-436q0 -78 68 -78t67 78zM582 227q0 -240 -289 -239q-125 0 -238 39v223h8q80 -63 199 -64q59 0 85 22t26 81v241h-8q-45 -47 -139 -47t-141 40q-46 40 -46 132v557q0 222 271 222t272 -222v-985z" />
    <glyph glyph-name="colon" unicode=":" horiz-adv-x="301" 
d="M281 119q0 -55 -38 -93t-92 -38t-94 38q-39 38 -39 93t39 93t93 38t93 -38q38 -38 38 -93zM281 706q0 -54 -38 -94t-92 -39q-54 0 -94 39q-39 40 -39 94t39 93t93 39t93 -39q38 -39 38 -93z" />
    <glyph glyph-name="semicolon" unicode=";" horiz-adv-x="301" 
d="M285 215l-133 -379h-172l79 379h226zM281 705q0 -55 -38 -95t-93 -39q-55 0 -94 39q-38 38 -38 94t38 95t94 39t93 -39q38 -39 38 -94z" />
    <glyph glyph-name="less" unicode="&#x3c;" horiz-adv-x="475" 
d="M457 131l-441 363v165l441 367v-238l-254 -213l254 -208v-236z" />
    <glyph glyph-name="equal" unicode="=" horiz-adv-x="581" 
d="M545 305h-508v197h508v-197zM545 659h-508v199h508v-199z" />
    <glyph glyph-name="greater" unicode="&#x3e;" horiz-adv-x="475" 
d="M461 494l-441 -363v236l256 208l-256 213v238l441 -367v-165z" />
    <glyph glyph-name="question" unicode="?" horiz-adv-x="483" 
d="M387 118q0 -54 -39 -92t-92 -38t-92 38t-39 93t39 93t92 38t92 -39t39 -93zM457 1200q1 -102 -97 -330t-98 -273q0 -46 52 -46t83 41h9v-191q-76 -27 -156 -27t-131 55q-51 54 -51 139q0 84 98 316t98 283q0 78 -86 78t-151 -71h-9v204q92 56 210 56t173 -66
q56 -66 56 -168z" />
    <glyph glyph-name="at" unicode="@" horiz-adv-x="763" 
d="M418 465v201q0 45 -40 45t-40 -45v-201q0 -45 40 -45t40 45zM709 285q0 -70 -36 -100q-36 -29 -110 -29q-73 0 -109 30t-36 99v88h-8q-20 -43 -84 -43q-88 0 -88 102v266q0 104 88 105q63 0 84 -43h8v172q0 33 -12 46t-62 13t-90 -45h-8v111q55 33 141 33q135 0 135 -136
v-663q0 -41 40 -41t40 41v876q0 99 -54 135t-166 36t-166 -36q-54 -34 -54 -135v-915q0 -98 53 -133t140 -35t128 8v-100q-37 -4 -75 -4h-70q-285 0 -285 241v963q0 242 285 242h86q285 0 285 -242v-907z" />
    <glyph glyph-name="A" unicode="A" horiz-adv-x="708" 
d="M410 555l-54 444h-8l-59 -444h121zM690 0h-217l-51 348h-148l-51 -348h-205l222 1421h231z" />
    <glyph glyph-name="B" unicode="B" horiz-adv-x="706" 
d="M453 281v286q0 78 -74 78h-92v-444h92q74 0 74 80zM436 915v226q0 78 -74 78h-75v-381h75q74 -1 74 77zM664 250q0 -134 -62 -192t-199 -58h-333v1421h309q135 0 197 -59t63 -193v-231q0 -178 -156 -186v-9q97 -4 139 -54t42 -146v-293z" />
    <glyph glyph-name="C" unicode="C" horiz-adv-x="595" 
d="M330 -12q-131 0 -204 63t-73 207v905q0 143 73 207t204 64t235 -41v-244h-8q-61 70 -158 70q-127 0 -127 -111v-797q0 -109 127 -108q96 0 158 69h8v-243q-104 -41 -235 -41z" />
    <glyph glyph-name="D" unicode="D" horiz-adv-x="735" 
d="M463 281v860q0 78 -76 78h-100v-1018h100q76 0 76 80zM680 262q0 -138 -62 -200t-200 -62h-348v1421h348q137 0 199 -63t63 -199v-897z" />
    <glyph glyph-name="E" unicode="E" horiz-adv-x="600" 
d="M573 0h-503v1421h497v-202h-282v-363h266v-203h-266v-452h288v-201z" />
    <glyph glyph-name="F" unicode="F" horiz-adv-x="552" 
d="M518 1219h-233v-363h219v-203h-219v-653h-215v1421h448v-202z" />
    <glyph glyph-name="G" unicode="G" horiz-adv-x="712" 
d="M670 244q0 -136 -60 -196t-200 -60h-88q-139 0 -204 59t-65 197v913q0 156 79 216q80 61 226 61t271 -43v-238h-8q-92 76 -218 76q-67 0 -99 -24t-32 -87v-848q0 -47 22 -66q22 -20 72 -20t70 18t21 68v383h-103v203h316v-612z" />
    <glyph glyph-name="H" unicode="H" horiz-adv-x="772" 
d="M702 0h-217v668h-198v-668h-217v1421h217v-555h198v555h217v-1421z" />
    <glyph glyph-name="I" unicode="I" horiz-adv-x="372" 
d="M295 0h-217v1421h217v-1421z" />
    <glyph glyph-name="J" unicode="J" horiz-adv-x="440" 
d="M379 199q0 -211 -211 -211q-80 0 -150 28v209h9q31 -37 86 -37t55 54v1179h211v-1222z" />
    <glyph glyph-name="K" unicode="K" horiz-adv-x="733" 
d="M283 686v-686h-213v1421h213v-604h4q20 86 43 156l143 448h215l-219 -651l252 -770h-227l-166 532l-41 154h-4z" />
    <glyph glyph-name="L" unicode="L" horiz-adv-x="509" 
d="M498 0h-428v1421h213v-1220h215v-201z" />
    <glyph glyph-name="M" unicode="M" horiz-adv-x="1038" 
d="M969 0h-205v797h-4q-16 -102 -33 -189l-121 -608h-176l-121 608l-30 195h-5v-803h-204v1421h229l190 -850l29 -182h4q12 109 29 182l190 850h228v-1421z" />
    <glyph glyph-name="N" unicode="N" horiz-adv-x="835" 
d="M766 0h-182l-256 698l-49 162h-5v-860h-204v1421h180l260 -723l45 -141h4v864h207v-1421z" />
    <glyph glyph-name="O" unicode="O" horiz-adv-x="749" 
d="M477 276v869q0 49 -24 68q-25 19 -78 19t-78 -18t-25 -69v-869q0 -51 25 -69q25 -19 78 -19t77 18t25 70zM696 254q0 -141 -67 -204q-68 -62 -203 -62h-102q-270 0 -271 266v913q0 266 271 267h102q135 0 203 -64t67 -203v-913z" />
    <glyph glyph-name="P" unicode="P" horiz-adv-x="692" 
d="M453 924v217q0 78 -76 78h-90v-373h90q76 0 76 78zM664 895q0 -139 -66 -195t-195 -55h-116v-645h-217v1421h333q135 0 197 -59t64 -193v-274z" />
    <glyph glyph-name="Q" unicode="Q" horiz-adv-x="749" 
d="M477 276v869q0 49 -24 68q-25 19 -78 19t-78 -18t-25 -69v-869q0 -51 25 -69q25 -19 78 -19t77 18t25 70zM426 -12h-102q-270 0 -271 266v913q0 266 271 267h102q135 0 203 -64t67 -203v-913q0 -84 -24 -139l65 -70l-141 -129l-78 80q-35 -8 -92 -8z" />
    <glyph glyph-name="R" unicode="R" horiz-adv-x="710" 
d="M444 936v205q0 78 -73 78h-84v-361h84q73 0 73 78zM694 0h-215q-45 64 -51 282t-14 273t-26 83t-58 28h-43v-666h-217v1421h338q133 0 190 -59t57 -193v-213q0 -188 -159 -211v-8q57 -12 84 -60q28 -48 36 -128t25 -350q6 -127 53 -191v-8z" />
    <glyph glyph-name="S" unicode="S" horiz-adv-x="659" 
d="M610 262q0 -274 -299 -274q-152 0 -266 45v233h8q90 -74 207 -73q70 1 100 31t29 100v225q0 57 -25 68q-26 11 -124 14q-193 4 -193 200v336q0 145 73 205q74 60 222 62q148 0 246 -43v-236h-8q-80 80 -191 80q-65 0 -93 -28t-28 -93v-199q0 -55 26 -66t121 -13
q195 -4 195 -201v-373z" />
    <glyph glyph-name="T" unicode="T" horiz-adv-x="593" 
d="M582 1219h-176v-1219h-218v1219h-176v202h570v-202z" />
    <glyph glyph-name="U" unicode="U" horiz-adv-x="768" 
d="M705 254q0 -266 -269 -266h-104q-268 0 -269 266v1167h218v-1145q-1 -53 23 -70q24 -18 79 -18t79 18t23 70v1145h220v-1167z" />
    <glyph glyph-name="V" unicode="V" horiz-adv-x="714" 
d="M698 1421l-233 -1421h-215l-232 1421h218l104 -819l25 -272h4q10 158 24 272l101 819h204z" />
    <glyph glyph-name="W" unicode="W" horiz-adv-x="1112" 
d="M1094 1421l-209 -1421h-197l-106 711l-21 194h-4q-10 -115 -22 -194l-109 -711h-199l-209 1421h215l97 -833l18 -217h4q10 123 23 217l102 833h178l103 -833l18 -213h4q8 119 19 213l96 833h199z" />
    <glyph glyph-name="X" unicode="X" horiz-adv-x="780" 
d="M768 0h-231l-121 406l-33 135h-4q-14 -80 -31 -135l-117 -406h-221l258 750l-233 671h229l98 -340l27 -123h4q10 72 25 123l94 340h221l-227 -671z" />
    <glyph glyph-name="Y" unicode="Y" horiz-adv-x="751" 
d="M485 0h-217v670l-258 751h236l106 -417l29 -158h4q14 90 31 155l102 420h221l-254 -751v-670z" />
    <glyph glyph-name="Z" unicode="Z" horiz-adv-x="645" 
d="M608 201v-201h-596v8l312 1073l45 138h-326v202h590v-8l-301 -1067l-45 -145h321z" />
    <glyph glyph-name="bracketleft" unicode="[" horiz-adv-x="419" 
d="M401 -266h-331v1687h323v-178h-112v-1331h120v-178z" />
    <glyph glyph-name="backslash" unicode="\" horiz-adv-x="616" 
d="M631 -123h-213l-430 1671h211z" />
    <glyph glyph-name="bracketright" unicode="]" horiz-adv-x="419" 
d="M352 -266h-334v178h123v1331h-114v178h325v-1687z" />
    <glyph glyph-name="asciicircum" unicode="^" horiz-adv-x="745" 
d="M725 680h-207l-145 426l-150 -426h-205l267 741h176z" />
    <glyph glyph-name="underscore" unicode="_" horiz-adv-x="497" 
d="M498 -264h-498v131h498v-131z" />
    <glyph glyph-name="grave" unicode="`" horiz-adv-x="612" 
d="M395 1161h-139l-137 236h166z" />
    <glyph glyph-name="a" unicode="a" horiz-adv-x="628" 
d="M365 213v170q0 61 -68 61t-68 -61v-170q0 -61 68 -61t68 61zM573 0h-208v78h-9q-41 -90 -145 -90q-162 0 -162 166v286q0 166 162 166q106 0 145 -88h9v164q0 52 -25 72t-80 20q-117 0 -194 -65h-9v196q117 53 258 53q258 0 258 -229v-729z" />
    <glyph glyph-name="b" unicode="b" horiz-adv-x="663" 
d="M412 252v442q0 80 -71 80t-71 -98v-424q0 -80 71 -80t71 80zM612 190q0 -203 -178 -202q-121 0 -158 98h-8v-86h-205v1421h205v-561h8q45 98 158 98q178 0 178 -202v-566z" />
    <glyph glyph-name="c" unicode="c" horiz-adv-x="518" 
d="M284 -12q-118 0 -176 58t-59 190v477q1 129 59 187t180 58t199 -43v-215h-8q-51 66 -139 66t-88 -82v-422q0 -82 88 -82t139 66h8v-215q-85 -43 -203 -43z" />
    <glyph glyph-name="d" unicode="d" horiz-adv-x="663" 
d="M393 252v424q1 98 -71 98t-72 -80v-442q0 -80 72 -80t71 80zM600 0h-207v86h-8q-43 -98 -158 -98q-178 0 -178 202v566q0 203 178 202q113 0 158 -98h8v561h207v-1421z" />
    <glyph glyph-name="e" unicode="e" horiz-adv-x="614" 
d="M383 561v150q0 74 -68 73q-68 0 -67 -73v-150h135zM565 399h-315v-129q0 -94 108 -94t181 62h8v-207q-92 -43 -226 -43t-203 64t-69 210v465q1 125 61 178t185 53h24q125 0 185 -54t61 -177v-328z" />
    <glyph glyph-name="f" unicode="f" horiz-adv-x="382" 
d="M369 750h-103v-750h-203v750h-45v196h45v289q-1 109 45 154t154 45q53 0 107 -17v-192h-9q-16 27 -49 26q-45 0 -45 -47v-258h103v-196z" />
    <glyph glyph-name="g" unicode="g" horiz-adv-x="651" 
d="M393 252v424q1 98 -71 98t-72 -80v-442q0 -80 72 -80t71 80zM600 -172q0 -281 -283 -281q-168 0 -280 99l80 180h8q74 -94 164 -94q51 0 78 32t26 86v236h-8q-43 -98 -158 -98q-178 0 -178 202v566q0 203 178 202q113 0 158 -98h8v86h207v-1118z" />
    <glyph glyph-name="h" unicode="h" horiz-adv-x="667" 
d="M612 0h-202v694q0 80 -70 80t-70 -80v-694h-207v1421h205v-569h8q43 106 164 106q172 0 172 -204v-754z" />
    <glyph glyph-name="i" unicode="i" horiz-adv-x="333" 
d="M266 0h-196v946h196v-946zM299 1220q0 -54 -38 -92t-92 -38t-93 38t-39 92t39 93t93 39t92 -39t38 -93z" />
    <glyph glyph-name="j" unicode="j" horiz-adv-x="333" 
d="M266 -438h-196v1384h196v-1384zM299 1220q0 -54 -38 -92t-92 -38t-93 38t-39 92t39 93t93 39t92 -39t38 -93z" />
    <glyph glyph-name="k" unicode="k" horiz-adv-x="638" 
d="M264 457v-457h-201v1421h201v-897h4q14 57 31 115l92 307h197l-154 -444l197 -502h-207l-119 336l-37 121h-4z" />
    <glyph glyph-name="l" unicode="l" horiz-adv-x="329" 
d="M260 0h-190v1421h190v-1421z" />
    <glyph glyph-name="m" unicode="m" horiz-adv-x="995" 
d="M940 0h-199v690q1 80 -67 80t-68 -80v-690h-200v694q0 76 -68 76t-68 -76v-694h-207v946h205v-96h8q45 108 171 108t149 -114h8q41 115 166 114q94 0 132 -52t38 -150v-756z" />
    <glyph glyph-name="n" unicode="n" horiz-adv-x="667" 
d="M612 0h-202v694q0 80 -70 80t-70 -80v-694h-207v946h205v-94h8q43 106 164 106q172 0 172 -204v-754z" />
    <glyph glyph-name="o" unicode="o" horiz-adv-x="630" 
d="M385 242v463q0 65 -70 65t-69 -65v-463q0 -66 70 -66t69 66zM582 227q0 -123 -58 -181t-182 -58h-53q-123 0 -181 58t-59 181v492q1 123 59 181t181 58h53q123 0 181 -58t59 -181v-492z" />
    <glyph glyph-name="p" unicode="p" horiz-adv-x="663" 
d="M412 252v442q0 80 -71 80t-71 -98v-424q0 -80 71 -80t71 80zM612 190q0 -203 -178 -202q-121 0 -158 98h-8v-526h-205v1386h205v-86h8q45 98 158 98q178 0 178 -202v-566z" />
    <glyph glyph-name="q" unicode="q" horiz-adv-x="663" 
d="M393 252v424q1 98 -71 98t-72 -80v-442q0 -80 72 -80t71 80zM600 -440h-207v526h-8q-43 -98 -158 -98q-178 0 -178 202v566q0 203 178 202q113 0 158 -98h8v86h207v-1386z" />
    <glyph glyph-name="r" unicode="r" horiz-adv-x="440" 
d="M428 717h-8q-29 33 -76 33q-78 0 -78 -78v-672h-203v946h191v-84h8q6 43 38 70q32 26 68 26t60 -12v-229z" />
    <glyph glyph-name="s" unicode="s" horiz-adv-x="561" 
d="M520 211q0 -135 -66 -179t-186 -44t-223 32v197h8q66 -53 165 -53t99 65v136q0 29 -19 35t-98 10q-79 2 -120 43t-41 133v155q0 129 62 173t183 44t203 -32v-197h-8q-63 53 -164 53q-74 0 -73 -55v-98q0 -29 18 -35t90 -8q170 -2 170 -178v-197z" />
    <glyph glyph-name="t" unicode="t" horiz-adv-x="376" 
d="M236 -12q-172 0 -173 184v580h-45v194h45v248h203v-248h92v-194h-92v-529q0 -47 56 -47h36v-176q-45 -12 -122 -12z" />
    <glyph glyph-name="u" unicode="u" horiz-adv-x="643" 
d="M588 227q0 -123 -58 -181t-182 -58h-53q-125 0 -182 58t-58 181v719h197v-704q0 -66 70 -66t69 66v704h197v-719z" />
    <glyph glyph-name="v" unicode="v" horiz-adv-x="649" 
d="M637 946l-221 -946h-180l-224 946h207l86 -508l23 -174h4q6 94 20 174l86 508h199z" />
    <glyph glyph-name="w" unicode="w" horiz-adv-x="958" 
d="M944 946l-184 -946h-191l-67 379l-19 153h-4q-10 -90 -20 -153l-68 -379h-194l-185 946h211l74 -526l16 -162h4q8 98 17 162l67 526h164l66 -524l18 -172h4q10 104 19 172l71 524h201z" />
    <glyph glyph-name="x" unicode="x" horiz-adv-x="688" 
d="M674 0h-219l-93 250l-28 100h-4q-12 -61 -27 -100l-88 -250h-203l217 510l-186 436h219l64 -188l22 -86h4q8 47 21 86l59 188h197l-176 -432z" />
    <glyph glyph-name="y" unicode="y" horiz-adv-x="667" 
d="M606 -172q0 -281 -284 -281q-164 0 -281 99l82 180h8q70 -94 162 -94q51 0 79 32t27 86v236h-6q-39 -98 -160 -98q-178 0 -178 202v756h203v-694q0 -80 71 -80t70 80v694h207v-1118z" />
    <glyph glyph-name="z" unicode="z" horiz-adv-x="559" 
d="M543 193v-193h-531v8l267 746h-259v192h529v-8l-232 -657l-36 -88h262z" />
    <glyph glyph-name="braceleft" unicode="{" horiz-adv-x="438" 
d="M420 -266h-98q-123 0 -171 56t-49 181v432q0 78 -59 78h-31v191h31q59 0 59 80v432q0 125 48 181t172 56h98v-182h-41q-43 0 -59 -18t-17 -70v-395q0 -49 -3 -77q-3 -27 -25 -57t-64 -40v-9q59 -18 75 -60t17 -116v-391q0 -51 15 -69t59 -19h43v-184z" />
    <glyph glyph-name="bar" unicode="|" horiz-adv-x="346" 
d="M268 -123h-190v1671h190v-1671z" />
    <glyph glyph-name="braceright" unicode="}" horiz-adv-x="438" 
d="M426 481h-29q-61 0 -61 -78v-432q0 -125 -47 -181t-170 -56h-101v184h43q41 0 57 18t17 70v391q0 49 4 77t26 56t62 43v9q-59 14 -75 57t-17 117v395q0 49 -16 69t-58 19h-43v182h101q123 0 170 -56t47 -181v-432q0 -80 59 -80h31v-191z" />
    <glyph glyph-name="asciitilde" unicode="~" horiz-adv-x="567" 
d="M377 451q-35 1 -92 31t-90 30q-53 0 -101 -80h-8l-49 168q63 92 151 92q36 0 94 -33t90 -33t58 28t43 61h8l47 -170q-61 -94 -151 -94z" />
    <glyph glyph-name="nbspace" unicode="&#xa0;" horiz-adv-x="165" 
 />
    <glyph glyph-name="exclamdown" unicode="&#xa1;" horiz-adv-x="344" 
d="M274 -440h-204v1034h204v-1034zM301 861q0 -54 -37 -92t-93 -38t-94 37t-38 92t39 94t93 39t92 -39t38 -93z" />
    <glyph glyph-name="cent" unicode="&#xa2;" horiz-adv-x="518" 
d="M391 229h-180v117q-162 33 -162 240v477q0 205 162 237v121h182v-123q55 -12 94 -32v-215h-8q-51 65 -139 65t-88 -82v-422q0 -82 88 -82t139 66h8v-215q-37 -20 -96 -33v-119z" />
    <glyph glyph-name="sterling" unicode="&#xa3;" horiz-adv-x="655" 
d="M627 0h-588v164q74 41 115 116t41 162q0 23 -5 64h-147v201h102q-4 16 -23 79q-71 235 -71 332q0 150 88 232q87 82 231 82t242 -50v-229h-8q-78 82 -206 82t-128 -121q0 -67 20 -147t44 -159q23 -79 28 -101h152v-201h-113q4 -27 5 -76q0 -143 -60 -231h281v-199z" />
    <glyph glyph-name="currency" unicode="&#xa4;" 
d="M178 399q0 51 60 66q28 -80 81 -146q-141 0 -141 80zM537 238q-68 23 -109 73v11l109 -19v-65zM905 129q0 -35 -61 -54q-121 -38 -238 0q-61 19 -61 54q0 12 10 23q82 -29 170 -29t170 29q10 -11 10 -23zM1079 76h-57q0 70 -68 98l25 12q100 -30 100 -110zM1171 639
q1 -39 -123 -64t-190 -24v8q61 6 62 39q0 45 -152 45q-84 0 -113 -22l4 -7q33 12 97 12t65 -30q-1 -25 -125 -25t-125 41q0 57 158 58v12h-6q-248 0 -248 -70q0 -31 45 -45v-8q-51 0 -144 24t-93 56q0 45 166 70q167 25 281 25t278 -26q164 -24 163 -69zM1245 631
q0 49 -63 82t-198 51t-220 18q-86 0 -157 -5t-169 -18t-164 -44t-66 -77t11 -108q-115 -37 -115 -127q0 -145 207 -145q41 0 60 4q31 -31 61 -47v-10q-41 -14 -73 -50q-31 -36 -31 -83t46 -85q75 -62 247 -82q59 -7 110 -7t111 7q176 21 247 83q46 39 46 87t-34 81t-79 51v8
q223 164 223 416zM1319 629q0 -256 -193 -424v-8q96 -53 97 -150q-1 -63 -57 -109t-142 -69t-160 -32t-133 -9t-134 9t-160 32t-142 69t-57 109q0 96 90 148v8h-29q-113 0 -191 47q-78 48 -77 158q0 110 108 165q-4 45 -4 68q0 59 50 101q88 74 245 94t299 20
q590 0 590 -227zM836 1092q0 -86 -148 -185h-10q39 72 39 160q0 42 -93 79q-36 13 -65 40q-29 28 -29 62t29 62t65 43q93 39 93 74q0 68 -41 99h10q39 0 84 -38t45 -83t-63 -86q-64 -41 -64 -65q-1 -38 74 -70q30 -12 52 -36t22 -56z" />
    <glyph glyph-name="yen" unicode="&#xa5;" horiz-adv-x="755" 
d="M655 690v-190h-168v-142h168v-190h-168v-168h-215v168h-166v190h166v142h-166v190h160l-254 731h236l106 -409l29 -152h4q12 86 29 152l104 409h221l-249 -731h163z" />
    <glyph glyph-name="brokenbar" unicode="&#xa6;" 
d="M178 399q0 51 60 66q28 -80 81 -146q-141 0 -141 80zM537 238q-68 23 -109 73v11l109 -19v-65zM905 129q0 -35 -61 -54q-121 -38 -238 0q-61 19 -61 54q0 12 10 23q82 -29 170 -29t170 29q10 -11 10 -23zM1079 76h-57q0 70 -68 98l25 12q100 -30 100 -110zM1171 639
q1 -39 -123 -64t-190 -24v8q61 6 62 39q0 45 -152 45q-84 0 -113 -22l4 -7q33 12 97 12t65 -30q-1 -25 -125 -25t-125 41q0 57 158 58v12h-6q-248 0 -248 -70q0 -31 45 -45v-8q-51 0 -144 24t-93 56q0 45 166 70q167 25 281 25t278 -26q164 -24 163 -69zM1245 631
q0 49 -63 82t-198 51t-220 18q-86 0 -157 -5t-169 -18t-164 -44t-66 -77t11 -108q-115 -37 -115 -127q0 -145 207 -145q41 0 60 4q31 -31 61 -47v-10q-41 -14 -73 -50q-31 -36 -31 -83t46 -85q75 -62 247 -82q59 -7 110 -7t111 7q176 21 247 83q46 39 46 87t-34 81t-79 51v8
q223 164 223 416zM1319 629q0 -256 -193 -424v-8q96 -53 97 -150q-1 -63 -57 -109t-142 -69t-160 -32t-133 -9t-134 9t-160 32t-142 69t-57 109q0 96 90 148v8h-29q-113 0 -191 47q-78 48 -77 158q0 110 108 165q-4 45 -4 68q0 59 50 101q88 74 245 94t299 20
q590 0 590 -227zM836 1092q0 -86 -148 -185h-10q39 72 39 160q0 42 -93 79q-36 13 -65 40q-29 28 -29 62t29 62t65 43q93 39 93 74q0 68 -41 99h10q39 0 84 -38t45 -83t-63 -86q-64 -41 -64 -65q-1 -38 74 -70q30 -12 52 -36t22 -56z" />
    <glyph glyph-name="section" unicode="&#xa7;" horiz-adv-x="663" 
d="M412 453v211q0 72 -52 96l-59 26q-49 -8 -49 -86v-211q0 -74 51 -96l59 -28q50 8 50 88zM614 424q0 -115 -88 -156q47 -33 47 -141v-156q0 -141 -63 -195t-191 -54t-233 38v203h8q76 -59 191 -59q47 0 62 15t15 65v112q0 43 -44 70q-44 26 -112 56t-100 67
q-57 57 -57 196v246q0 119 90 156q-49 35 -49 141v156q0 141 64 195q64 55 198 55t226 -39v-203h-9q-76 59 -188 59q-49 0 -63 -14t-15 -66v-114q0 -33 29 -58q28 -25 66 -39q109 -39 163 -96q53 -57 53 -194v-246z" />
    <glyph glyph-name="dieresis" unicode="&#xa8;" horiz-adv-x="612" 
d="M162 1356q42 0 72 -30t30 -72t-30 -72t-72 -29q-42 0 -73 30q-30 29 -30 71t30 72t73 30zM452 1356q42 0 72 -30t31 -72q0 -42 -31 -72q-30 -30 -72 -29q-42 0 -72 30q-30 29 -30 71t30 72t72 30z" />
    <glyph glyph-name="copyright" unicode="&#xa9;" horiz-adv-x="763" 
d="M395 328q-145 0 -145 133v500q0 135 145 135q43 0 109 -21v-123h-8q-25 35 -81 35t-57 -53v-445q0 -53 66 -53q47 0 72 35h8v-123q-55 -20 -109 -20zM602 254v913q0 99 -54 135t-167 36t-166 -36q-53 -34 -53 -135v-913q0 -100 53 -135t166 -35t167 35t54 135zM709 229
q0 -242 -285 -241h-86q-285 0 -285 241v963q0 242 285 242h86q285 0 285 -242v-963z" />
    <glyph glyph-name="ordfeminine" unicode="&#xaa;" horiz-adv-x="315" 
d="M182 1053v86q0 31 -34 31t-33 -31v-86q-1 -29 33 -29t34 29zM287 946h-105v39h-8q-18 -45 -70 -45q-80 0 -79 84v143q0 84 79 84q51 0 70 -45h8v82q0 47 -53 47t-92 -32h-8v98q59 27 129 26q129 0 129 -116v-365z" />
    <glyph glyph-name="guillemotleft" unicode="&#xab;" horiz-adv-x="819" 
d="M477 0h-217l-244 473l244 473h217l-244 -473zM801 0h-217l-246 473l246 473h217l-242 -473z" />
    <glyph glyph-name="logicalnot" unicode="&#xac;" horiz-adv-x="739" 
d="M537 844q123 0 122 -133v-516q0 -117 43 -187v-8h-217q-41 66 -41 190v385q0 45 -14 59t-59 15h-84v-649h-217v1421h217v-577h20l199 577h215l-201 -577h17z" />
    <glyph glyph-name="registered" unicode="&#xae;" horiz-adv-x="763" 
d="M426 831v117q0 39 -37 39h-43v-194h43q37 -1 37 38zM549 334h-107q-23 31 -22 106q-2 20 -4 109t-8 113q-6 35 -37 34h-25v-362h-108v756h161q131 0 131 -125v-125q0 -94 -79 -103v-8q57 -14 63 -111q4 -28 5 -96t4 -110t26 -70v-8zM602 254v913q0 99 -54 135t-167 36
t-166 -36q-53 -34 -53 -135v-913q0 -100 53 -135t166 -35t167 35t54 135zM709 229q0 -242 -285 -241h-86q-285 0 -285 241v963q0 242 285 242h86q285 0 285 -242v-963z" />
    <glyph glyph-name="macron" unicode="&#xaf;" horiz-adv-x="612" 
d="M537 1161h-463v131h463v-131z" />
    <glyph glyph-name="degree" unicode="&#xb0;" horiz-adv-x="616" 
d="M430 1143q0 51 -36 87t-86 36t-86 -36t-36 -87t36 -86t86 -35t86 35t36 86zM598 1143q0 -119 -85 -203t-205 -84t-205 84t-85 203t85 205t205 86t205 -86t85 -205z" />
    <glyph glyph-name="plusminus" unicode="&#xb1;" horiz-adv-x="1036" 
d="M266 946h148v191q0 49 8 84q-31 6 -57 4q-98 -8 -99 -111v-168zM63 1133q0 293 279 293q141 0 223 -37q55 33 152 32h256v-1421h-207v1225h-39q-109 0 -109 -105v-174h74v-196h-74v-750h-204v750h-148v-750h-203v750h-45v196h45v187z" />
    <glyph glyph-name="twosuperior" unicode="&#xb2;" 
d="M178 399q0 51 60 66q28 -80 81 -146q-141 0 -141 80zM537 238q-68 23 -109 73v11l109 -19v-65zM905 129q0 -35 -61 -54q-121 -38 -238 0q-61 19 -61 54q0 12 10 23q82 -29 170 -29t170 29q10 -11 10 -23zM1079 76h-57q0 70 -68 98l25 12q100 -30 100 -110zM1171 639
q1 -39 -123 -64t-190 -24v8q61 6 62 39q0 45 -152 45q-84 0 -113 -22l4 -7q33 12 97 12t65 -30q-1 -25 -125 -25t-125 41q0 57 158 58v12h-6q-248 0 -248 -70q0 -31 45 -45v-8q-51 0 -144 24t-93 56q0 45 166 70q167 25 281 25t278 -26q164 -24 163 -69zM1245 631
q0 49 -63 82t-198 51t-220 18q-86 0 -157 -5t-169 -18t-164 -44t-66 -77t11 -108q-115 -37 -115 -127q0 -145 207 -145q41 0 60 4q31 -31 61 -47v-10q-41 -14 -73 -50q-31 -36 -31 -83t46 -85q75 -62 247 -82q59 -7 110 -7t111 7q176 21 247 83q46 39 46 87t-34 81t-79 51v8
q223 164 223 416zM1319 629q0 -256 -193 -424v-8q96 -53 97 -150q-1 -63 -57 -109t-142 -69t-160 -32t-133 -9t-134 9t-160 32t-142 69t-57 109q0 96 90 148v8h-29q-113 0 -191 47q-78 48 -77 158q0 110 108 165q-4 45 -4 68q0 59 50 101q88 74 245 94t299 20
q590 0 590 -227zM836 1092q0 -86 -148 -185h-10q39 72 39 160q0 42 -93 79q-36 13 -65 40q-29 28 -29 62t29 62t65 43q93 39 93 74q0 68 -41 99h10q39 0 84 -38t45 -83t-63 -86q-64 -41 -64 -65q-1 -38 74 -70q30 -12 52 -36t22 -56z" />
    <glyph glyph-name="threesuperior" unicode="&#xb3;" 
d="M178 399q0 51 60 66q28 -80 81 -146q-141 0 -141 80zM537 238q-68 23 -109 73v11l109 -19v-65zM905 129q0 -35 -61 -54q-121 -38 -238 0q-61 19 -61 54q0 12 10 23q82 -29 170 -29t170 29q10 -11 10 -23zM1079 76h-57q0 70 -68 98l25 12q100 -30 100 -110zM1171 639
q1 -39 -123 -64t-190 -24v8q61 6 62 39q0 45 -152 45q-84 0 -113 -22l4 -7q33 12 97 12t65 -30q-1 -25 -125 -25t-125 41q0 57 158 58v12h-6q-248 0 -248 -70q0 -31 45 -45v-8q-51 0 -144 24t-93 56q0 45 166 70q167 25 281 25t278 -26q164 -24 163 -69zM1245 631
q0 49 -63 82t-198 51t-220 18q-86 0 -157 -5t-169 -18t-164 -44t-66 -77t11 -108q-115 -37 -115 -127q0 -145 207 -145q41 0 60 4q31 -31 61 -47v-10q-41 -14 -73 -50q-31 -36 -31 -83t46 -85q75 -62 247 -82q59 -7 110 -7t111 7q176 21 247 83q46 39 46 87t-34 81t-79 51v8
q223 164 223 416zM1319 629q0 -256 -193 -424v-8q96 -53 97 -150q-1 -63 -57 -109t-142 -69t-160 -32t-133 -9t-134 9t-160 32t-142 69t-57 109q0 96 90 148v8h-29q-113 0 -191 47q-78 48 -77 158q0 110 108 165q-4 45 -4 68q0 59 50 101q88 74 245 94t299 20
q590 0 590 -227zM836 1092q0 -86 -148 -185h-10q39 72 39 160q0 42 -93 79q-36 13 -65 40q-29 28 -29 62t29 62t65 43q93 39 93 74q0 68 -41 99h10q39 0 84 -38t45 -83t-63 -86q-64 -41 -64 -65q-1 -38 74 -70q30 -12 52 -36t22 -56z" />
    <glyph glyph-name="acute" unicode="&#xb4;" horiz-adv-x="612" 
d="M487 1397l-135 -236h-141l111 236h165z" />
    <glyph glyph-name="mu" unicode="&#xb5;" horiz-adv-x="1128" 
d="M1067 0h-217v1157q0 47 -20 67t-68 21q-48 0 -68 -20t-20 -68v-1157h-215v1157q0 88 -90 88q-47 0 -67 -20t-21 -68v-1157h-218v1165q0 143 69 205q68 62 220 64q152 0 209 -113h8q57 113 209 113t220 -64q69 -64 69 -205v-1165z" />
    <glyph glyph-name="paragraph" unicode="&#xb6;" horiz-adv-x="864" 
d="M795 -266h-187v1483h-104v-1483h-193v962h-37q-244 0 -243 234v256q0 236 243 235h521v-1687z" />
    <glyph glyph-name="periodcentered" unicode="&#xb7;" horiz-adv-x="299" 
d="M281 706q0 -54 -38 -94t-92 -39q-54 0 -94 39q-39 40 -39 94t39 93t93 39t93 -39q38 -39 38 -93z" />
    <glyph glyph-name="cedilla" unicode="&#xb8;" horiz-adv-x="612" 
d="M465 -272q0 -68 -33 -94t-94 -26t-107 30v114h9q30 -43 72 -43t42 39v64q0 20 -7 27t-28 7h-65v181h111v-99h14q86 0 86 -90v-110z" />
    <glyph glyph-name="onesuperior" unicode="&#xb9;" 
d="M178 399q0 51 60 66q28 -80 81 -146q-141 0 -141 80zM537 238q-68 23 -109 73v11l109 -19v-65zM905 129q0 -35 -61 -54q-121 -38 -238 0q-61 19 -61 54q0 12 10 23q82 -29 170 -29t170 29q10 -11 10 -23zM1079 76h-57q0 70 -68 98l25 12q100 -30 100 -110zM1171 639
q1 -39 -123 -64t-190 -24v8q61 6 62 39q0 45 -152 45q-84 0 -113 -22l4 -7q33 12 97 12t65 -30q-1 -25 -125 -25t-125 41q0 57 158 58v12h-6q-248 0 -248 -70q0 -31 45 -45v-8q-51 0 -144 24t-93 56q0 45 166 70q167 25 281 25t278 -26q164 -24 163 -69zM1245 631
q0 49 -63 82t-198 51t-220 18q-86 0 -157 -5t-169 -18t-164 -44t-66 -77t11 -108q-115 -37 -115 -127q0 -145 207 -145q41 0 60 4q31 -31 61 -47v-10q-41 -14 -73 -50q-31 -36 -31 -83t46 -85q75 -62 247 -82q59 -7 110 -7t111 7q176 21 247 83q46 39 46 87t-34 81t-79 51v8
q223 164 223 416zM1319 629q0 -256 -193 -424v-8q96 -53 97 -150q-1 -63 -57 -109t-142 -69t-160 -32t-133 -9t-134 9t-160 32t-142 69t-57 109q0 96 90 148v8h-29q-113 0 -191 47q-78 48 -77 158q0 110 108 165q-4 45 -4 68q0 59 50 101q88 74 245 94t299 20
q590 0 590 -227zM836 1092q0 -86 -148 -185h-10q39 72 39 160q0 42 -93 79q-36 13 -65 40q-29 28 -29 62t29 62t65 43q93 39 93 74q0 68 -41 99h10q39 0 84 -38t45 -83t-63 -86q-64 -41 -64 -65q-1 -38 74 -70q30 -12 52 -36t22 -56z" />
    <glyph glyph-name="ordmasculine" unicode="&#xba;" horiz-adv-x="315" 
d="M193 1069v229q0 35 -35 35t-35 -35v-229q0 -35 35 -35t35 35zM291 1061q0 -121 -119 -121h-27q-121 0 -120 121v246q0 121 120 120h27q119 0 119 -120v-246z" />
    <glyph glyph-name="guillemotright" unicode="&#xbb;" horiz-adv-x="819" 
d="M479 473l-243 -473h-218l242 473l-242 473h218zM803 473l-244 -473h-217l242 473l-242 473h217z" />
    <glyph glyph-name="onequarter" unicode="&#xbc;" 
d="M178 399q0 51 60 66q28 -80 81 -146q-141 0 -141 80zM537 238q-68 23 -109 73v11l109 -19v-65zM905 129q0 -35 -61 -54q-121 -38 -238 0q-61 19 -61 54q0 12 10 23q82 -29 170 -29t170 29q10 -11 10 -23zM1079 76h-57q0 70 -68 98l25 12q100 -30 100 -110zM1171 639
q1 -39 -123 -64t-190 -24v8q61 6 62 39q0 45 -152 45q-84 0 -113 -22l4 -7q33 12 97 12t65 -30q-1 -25 -125 -25t-125 41q0 57 158 58v12h-6q-248 0 -248 -70q0 -31 45 -45v-8q-51 0 -144 24t-93 56q0 45 166 70q167 25 281 25t278 -26q164 -24 163 -69zM1245 631
q0 49 -63 82t-198 51t-220 18q-86 0 -157 -5t-169 -18t-164 -44t-66 -77t11 -108q-115 -37 -115 -127q0 -145 207 -145q41 0 60 4q31 -31 61 -47v-10q-41 -14 -73 -50q-31 -36 -31 -83t46 -85q75 -62 247 -82q59 -7 110 -7t111 7q176 21 247 83q46 39 46 87t-34 81t-79 51v8
q223 164 223 416zM1319 629q0 -256 -193 -424v-8q96 -53 97 -150q-1 -63 -57 -109t-142 -69t-160 -32t-133 -9t-134 9t-160 32t-142 69t-57 109q0 96 90 148v8h-29q-113 0 -191 47q-78 48 -77 158q0 110 108 165q-4 45 -4 68q0 59 50 101q88 74 245 94t299 20
q590 0 590 -227zM836 1092q0 -86 -148 -185h-10q39 72 39 160q0 42 -93 79q-36 13 -65 40q-29 28 -29 62t29 62t65 43q93 39 93 74q0 68 -41 99h10q39 0 84 -38t45 -83t-63 -86q-64 -41 -64 -65q-1 -38 74 -70q30 -12 52 -36t22 -56z" />
    <glyph glyph-name="onehalf" unicode="&#xbd;" 
d="M178 399q0 51 60 66q28 -80 81 -146q-141 0 -141 80zM537 238q-68 23 -109 73v11l109 -19v-65zM905 129q0 -35 -61 -54q-121 -38 -238 0q-61 19 -61 54q0 12 10 23q82 -29 170 -29t170 29q10 -11 10 -23zM1079 76h-57q0 70 -68 98l25 12q100 -30 100 -110zM1171 639
q1 -39 -123 -64t-190 -24v8q61 6 62 39q0 45 -152 45q-84 0 -113 -22l4 -7q33 12 97 12t65 -30q-1 -25 -125 -25t-125 41q0 57 158 58v12h-6q-248 0 -248 -70q0 -31 45 -45v-8q-51 0 -144 24t-93 56q0 45 166 70q167 25 281 25t278 -26q164 -24 163 -69zM1245 631
q0 49 -63 82t-198 51t-220 18q-86 0 -157 -5t-169 -18t-164 -44t-66 -77t11 -108q-115 -37 -115 -127q0 -145 207 -145q41 0 60 4q31 -31 61 -47v-10q-41 -14 -73 -50q-31 -36 -31 -83t46 -85q75 -62 247 -82q59 -7 110 -7t111 7q176 21 247 83q46 39 46 87t-34 81t-79 51v8
q223 164 223 416zM1319 629q0 -256 -193 -424v-8q96 -53 97 -150q-1 -63 -57 -109t-142 -69t-160 -32t-133 -9t-134 9t-160 32t-142 69t-57 109q0 96 90 148v8h-29q-113 0 -191 47q-78 48 -77 158q0 110 108 165q-4 45 -4 68q0 59 50 101q88 74 245 94t299 20
q590 0 590 -227zM836 1092q0 -86 -148 -185h-10q39 72 39 160q0 42 -93 79q-36 13 -65 40q-29 28 -29 62t29 62t65 43q93 39 93 74q0 68 -41 99h10q39 0 84 -38t45 -83t-63 -86q-64 -41 -64 -65q-1 -38 74 -70q30 -12 52 -36t22 -56z" />
    <glyph glyph-name="threequarters" unicode="&#xbe;" 
d="M178 399q0 51 60 66q28 -80 81 -146q-141 0 -141 80zM537 238q-68 23 -109 73v11l109 -19v-65zM905 129q0 -35 -61 -54q-121 -38 -238 0q-61 19 -61 54q0 12 10 23q82 -29 170 -29t170 29q10 -11 10 -23zM1079 76h-57q0 70 -68 98l25 12q100 -30 100 -110zM1171 639
q1 -39 -123 -64t-190 -24v8q61 6 62 39q0 45 -152 45q-84 0 -113 -22l4 -7q33 12 97 12t65 -30q-1 -25 -125 -25t-125 41q0 57 158 58v12h-6q-248 0 -248 -70q0 -31 45 -45v-8q-51 0 -144 24t-93 56q0 45 166 70q167 25 281 25t278 -26q164 -24 163 -69zM1245 631
q0 49 -63 82t-198 51t-220 18q-86 0 -157 -5t-169 -18t-164 -44t-66 -77t11 -108q-115 -37 -115 -127q0 -145 207 -145q41 0 60 4q31 -31 61 -47v-10q-41 -14 -73 -50q-31 -36 -31 -83t46 -85q75 -62 247 -82q59 -7 110 -7t111 7q176 21 247 83q46 39 46 87t-34 81t-79 51v8
q223 164 223 416zM1319 629q0 -256 -193 -424v-8q96 -53 97 -150q-1 -63 -57 -109t-142 -69t-160 -32t-133 -9t-134 9t-160 32t-142 69t-57 109q0 96 90 148v8h-29q-113 0 -191 47q-78 48 -77 158q0 110 108 165q-4 45 -4 68q0 59 50 101q88 74 245 94t299 20
q590 0 590 -227zM836 1092q0 -86 -148 -185h-10q39 72 39 160q0 42 -93 79q-36 13 -65 40q-29 28 -29 62t29 62t65 43q93 39 93 74q0 68 -41 99h10q39 0 84 -38t45 -83t-63 -86q-64 -41 -64 -65q-1 -38 74 -70q30 -12 52 -36t22 -56z" />
    <glyph glyph-name="questiondown" unicode="&#xbf;" horiz-adv-x="483" 
d="M27 -221q0 101 97 329t97 274t-54 46t-81 -41h-8v193q76 26 156 26t130 -54q52 -54 52 -139t-98 -317t-97 -282q0 -78 76 -78q94 0 160 71h8v-204q-92 -55 -209 -55t-173 64q-56 65 -56 167zM231 993q55 0 93 -39t38 -93t-38 -92t-92 -38t-93 38t-39 92t38 93t93 39z" />
    <glyph glyph-name="Agrave" unicode="&#xc0;" horiz-adv-x="708" 
d="M422 1509h-139l-138 236h166zM410 555l-54 444h-8l-59 -444h121zM690 0h-217l-51 348h-148l-51 -348h-205l222 1421h231z" />
    <glyph glyph-name="Aacute" unicode="&#xc1;" horiz-adv-x="708" 
d="M557 1745l-135 -236h-141l110 236h166zM410 555l-54 444h-8l-59 -444h121zM690 0h-217l-51 348h-148l-51 -348h-205l222 1421h231z" />
    <glyph glyph-name="Acircumflex" unicode="&#xc2;" horiz-adv-x="708" 
d="M575 1599l-67 -98l-156 131l-151 -131l-74 101l225 194zM410 555l-54 444h-8l-59 -444h121zM690 0h-217l-51 348h-148l-51 -348h-205l222 1421h231z" />
    <glyph glyph-name="Atilde" unicode="&#xc3;" horiz-adv-x="708" 
d="M557 1667q0 -70 -27 -121t-90 -51q-30 0 -72 27t-63 26q-33 0 -41 -41h-112q0 63 30 117q31 53 90 53q35 -1 80 -25t68 -24q31 0 35 39h102zM410 555l-54 444h-8l-59 -444h121zM690 0h-217l-51 348h-148l-51 -348h-205l222 1421h231z" />
    <glyph glyph-name="Adieresis" unicode="&#xc4;" horiz-adv-x="708" 
d="M207 1704q43 0 73 -30t29 -71q1 -42 -29 -72t-73 -30t-73 30t-30 72q0 41 30 71t73 30zM395 1603q0 41 30 71t72 30q43 0 73 -30t30 -71q0 -42 -31 -72t-73 -30t-71 30q-30 30 -30 72zM410 555l-54 444h-8l-59 -444h121zM690 0h-217l-51 348h-148l-51 -348h-205l222 1421
h231z" />
    <glyph glyph-name="Aring" unicode="&#xc5;" horiz-adv-x="708" 
d="M410 1653q0 25 -18 41t-41 16q-24 0 -41 -17t-17 -41t16 -41t41 -17q24 0 42 16q18 18 18 43zM506 1653q0 -66 -45 -111t-109 -45t-110 45q-45 46 -45 110t45 109q46 45 110 45t109 -44t45 -109zM410 555l-54 444h-8l-59 -444h121zM690 0h-217l-51 348h-148l-51 -348
h-205l222 1421h231z" />
    <glyph glyph-name="AE" unicode="&#xc6;" horiz-adv-x="946" 
d="M479 561v561h-8l-129 -561h137zM915 0h-444v362h-164l-84 -362h-205l330 1421h561v-202h-239v-367h227v-203h-227v-448h245v-201z" />
    <glyph glyph-name="Ccedilla" unicode="&#xc7;" horiz-adv-x="595" 
d="M389 -72h12q86 0 86 -90v-110q1 -68 -31 -94t-96 -26t-104 30v114h8q31 -43 73 -43t42 39v64q0 20 -7 27t-28 7h-65v146q-225 25 -226 266v905q0 143 73 207t204 64t235 -41v-244h-8q-61 70 -158 70q-127 0 -127 -111v-797q0 -109 127 -108q96 0 158 69h8v-243
q-80 -33 -176 -39v-62z" />
    <glyph glyph-name="Egrave" unicode="&#xc8;" horiz-adv-x="600" 
d="M403 1509h-139l-137 236h166zM573 0h-503v1421h497v-202h-282v-363h266v-203h-266v-452h288v-201z" />
    <glyph glyph-name="Eacute" unicode="&#xc9;" horiz-adv-x="600" 
d="M498 1745l-136 -236h-141l111 236h166zM573 0h-503v1421h497v-202h-282v-363h266v-203h-266v-452h288v-201z" />
    <glyph glyph-name="Ecircumflex" unicode="&#xca;" horiz-adv-x="600" 
d="M537 1599l-68 -98l-156 131l-151 -131l-74 101l225 194zM573 0h-503v1421h497v-202h-282v-363h266v-203h-266v-452h288v-201z" />
    <glyph glyph-name="Edieresis" unicode="&#xcb;" horiz-adv-x="600" 
d="M166 1704q42 0 72 -30t30 -71q0 -42 -30 -72t-72 -30q-43 0 -73 30t-30 72q0 41 30 71t73 30zM354 1603q0 41 30 71t72 30t72 -30t31 -71q0 -42 -31 -72q-30 -30 -72 -30t-72 30t-30 72zM573 0h-503v1421h497v-202h-282v-363h266v-203h-266v-452h288v-201z" />
    <glyph glyph-name="Igrave" unicode="&#xcc;" horiz-adv-x="372" 
d="M252 1509h-139l-138 236h166zM295 0h-217v1421h217v-1421z" />
    <glyph glyph-name="Iacute" unicode="&#xcd;" horiz-adv-x="372" 
d="M387 1745l-135 -236h-141l110 236h166zM295 0h-217v1421h217v-1421z" />
    <glyph glyph-name="Icircumflex" unicode="&#xce;" horiz-adv-x="372" 
d="M410 1599l-68 -98l-156 131l-151 -131l-74 101l225 194zM295 0h-217v1421h217v-1421z" />
    <glyph glyph-name="Idieresis" unicode="&#xcf;" horiz-adv-x="372" 
d="M41 1704q43 0 73 -30t29 -71q1 -42 -29 -72t-73 -30t-73 30t-30 72q0 41 30 71t73 30zM229 1603q0 41 30 71t72 30q43 0 73 -30t30 -71q0 -42 -31 -72t-73 -30t-72 30q-29 30 -29 72zM295 0h-217v1421h217v-1421z" />
    <glyph glyph-name="Eth" unicode="&#xd0;" horiz-adv-x="735" 
d="M463 281v860q0 78 -76 78h-100v-342h84v-203h-84v-473h100q76 0 76 80zM680 262q0 -138 -62 -200t-200 -62h-348v674h-52v203h52v544h348q137 0 199 -63t63 -199v-897z" />
    <glyph glyph-name="Ntilde" unicode="&#xd1;" horiz-adv-x="835" 
d="M623 1667q0 -70 -27 -121t-90 -51q-31 0 -73 27t-62 26q-33 0 -41 -41h-113q0 63 31 117t90 53q35 -1 80 -25t67 -24q31 0 35 39h103zM766 0h-182l-256 698l-49 162h-5v-860h-204v1421h180l260 -723l45 -141h4v864h207v-1421z" />
    <glyph glyph-name="Ograve" unicode="&#xd2;" horiz-adv-x="749" 
d="M442 1509h-139l-137 236h166zM477 276v869q0 49 -24 68q-25 19 -78 19t-78 -18t-25 -69v-869q0 -51 25 -69q25 -19 78 -19t77 18t25 70zM696 254q0 -141 -67 -204q-68 -62 -203 -62h-102q-270 0 -271 266v913q0 266 271 267h102q135 0 203 -64t67 -203v-913z" />
    <glyph glyph-name="Oacute" unicode="&#xd3;" horiz-adv-x="749" 
d="M569 1745l-135 -236h-141l110 236h166zM477 276v869q0 49 -24 68q-25 19 -78 19t-78 -18t-25 -69v-869q0 -51 25 -69q25 -19 78 -19t77 18t25 70zM696 254q0 -141 -67 -204q-68 -62 -203 -62h-102q-270 0 -271 266v913q0 266 271 267h102q135 0 203 -64t67 -203v-913z
" />
    <glyph glyph-name="Ocircumflex" unicode="&#xd4;" horiz-adv-x="749" 
d="M594 1599l-68 -98l-155 131l-152 -131l-74 101l226 194zM477 276v869q0 49 -24 68q-25 19 -78 19t-78 -18t-25 -69v-869q0 -51 25 -69q25 -19 78 -19t77 18t25 70zM696 254q0 -141 -67 -204q-68 -62 -203 -62h-102q-270 0 -271 266v913q0 266 271 267h102q135 0 203 -64
t67 -203v-913z" />
    <glyph glyph-name="Otilde" unicode="&#xd5;" horiz-adv-x="749" 
d="M575 1667q-1 -70 -27 -121t-89 -51q-31 0 -73 27t-62 26q-33 0 -41 -41h-113q0 63 31 117t79 53t91 -25t67 -24q31 0 35 39h102zM477 276v869q0 49 -24 68q-25 19 -78 19t-78 -18t-25 -69v-869q0 -51 25 -69q25 -19 78 -19t77 18t25 70zM696 254q0 -141 -67 -204
q-68 -62 -203 -62h-102q-270 0 -271 266v913q0 266 271 267h102q135 0 203 -64t67 -203v-913z" />
    <glyph glyph-name="Odieresis" unicode="&#xd6;" horiz-adv-x="749" 
d="M227 1501q-43 0 -73 30t-29 72q0 41 30 71q31 30 73 30t72 -30t30 -71q0 -42 -30 -72t-73 -30zM517 1704q42 0 73 -30t31 -71q0 -42 -31 -72t-73 -30t-72 30q-29 30 -29 72q0 41 30 71t71 30zM477 276v869q0 49 -24 68q-25 19 -78 19t-78 -18t-25 -69v-869q0 -51 25 -69
q25 -19 78 -19t77 18t25 70zM696 254q0 -141 -67 -204q-68 -62 -203 -62h-102q-270 0 -271 266v913q0 266 271 267h102q135 0 203 -64t67 -203v-913z" />
    <glyph glyph-name="multiply" unicode="&#xd7;" 
d="M178 399q0 51 60 66q28 -80 81 -146q-141 0 -141 80zM537 238q-68 23 -109 73v11l109 -19v-65zM905 129q0 -35 -61 -54q-121 -38 -238 0q-61 19 -61 54q0 12 10 23q82 -29 170 -29t170 29q10 -11 10 -23zM1079 76h-57q0 70 -68 98l25 12q100 -30 100 -110zM1171 639
q1 -39 -123 -64t-190 -24v8q61 6 62 39q0 45 -152 45q-84 0 -113 -22l4 -7q33 12 97 12t65 -30q-1 -25 -125 -25t-125 41q0 57 158 58v12h-6q-248 0 -248 -70q0 -31 45 -45v-8q-51 0 -144 24t-93 56q0 45 166 70q167 25 281 25t278 -26q164 -24 163 -69zM1245 631
q0 49 -63 82t-198 51t-220 18q-86 0 -157 -5t-169 -18t-164 -44t-66 -77t11 -108q-115 -37 -115 -127q0 -145 207 -145q41 0 60 4q31 -31 61 -47v-10q-41 -14 -73 -50q-31 -36 -31 -83t46 -85q75 -62 247 -82q59 -7 110 -7t111 7q176 21 247 83q46 39 46 87t-34 81t-79 51v8
q223 164 223 416zM1319 629q0 -256 -193 -424v-8q96 -53 97 -150q-1 -63 -57 -109t-142 -69t-160 -32t-133 -9t-134 9t-160 32t-142 69t-57 109q0 96 90 148v8h-29q-113 0 -191 47q-78 48 -77 158q0 110 108 165q-4 45 -4 68q0 59 50 101q88 74 245 94t299 20
q590 0 590 -227zM836 1092q0 -86 -148 -185h-10q39 72 39 160q0 42 -93 79q-36 13 -65 40q-29 28 -29 62t29 62t65 43q93 39 93 74q0 68 -41 99h10q39 0 84 -38t45 -83t-63 -86q-64 -41 -64 -65q-1 -38 74 -70q30 -12 52 -36t22 -56z" />
    <glyph glyph-name="Oslash" unicode="&#xd8;" horiz-adv-x="749" 
d="M477 276v869q0 49 -24 68q-25 19 -78 19t-78 -18t-25 -69v-869q0 -51 25 -69q25 -19 78 -19t77 18t25 70zM696 254q0 -141 -67 -204q-68 -62 -203 -62h-147l-17 -68h-172l33 131q-70 63 -70 203v913q0 266 271 267h147l18 71h173l-35 -135q70 -63 69 -203v-913z" />
    <glyph glyph-name="Ugrave" unicode="&#xd9;" horiz-adv-x="768" 
d="M451 1509h-140l-137 236h166zM705 254q0 -266 -269 -266h-104q-268 0 -269 266v1167h218v-1145q-1 -53 23 -70q24 -18 79 -18t79 18t23 70v1145h220v-1167z" />
    <glyph glyph-name="Uacute" unicode="&#xda;" horiz-adv-x="768" 
d="M584 1745l-135 -236h-142l111 236h166zM705 254q0 -266 -269 -266h-104q-268 0 -269 266v1167h218v-1145q-1 -53 23 -70q24 -18 79 -18t79 18t23 70v1145h220v-1167z" />
    <glyph glyph-name="Ucircumflex" unicode="&#xdb;" horiz-adv-x="768" 
d="M606 1599l-67 -98l-156 131l-152 -131l-73 101l225 194zM705 254q0 -266 -269 -266h-104q-268 0 -269 266v1167h218v-1145q-1 -53 23 -70q24 -18 79 -18t79 18t23 70v1145h220v-1167z" />
    <glyph glyph-name="Udieresis" unicode="&#xdc;" horiz-adv-x="768" 
d="M236 1704q42 0 72 -30t30 -71q0 -42 -30 -72t-72 -30t-73 30q-30 30 -30 72q0 41 30 71t73 30zM525 1501q-41 0 -71 30t-30 72q0 41 30 71t72 30t72 -30q31 -30 31 -71q0 -42 -31 -72t-73 -30zM705 254q0 -266 -269 -266h-104q-268 0 -269 266v1167h218v-1145
q-1 -53 23 -70q24 -18 79 -18t79 18t23 70v1145h220v-1167z" />
    <glyph glyph-name="Yacute" unicode="&#xdd;" horiz-adv-x="751" 
d="M569 1745l-135 -236h-141l110 236h166zM485 0h-217v670l-258 751h236l106 -417l29 -158h4q14 90 31 155l102 420h221l-254 -751v-670z" />
    <glyph glyph-name="Thorn" unicode="&#xde;" horiz-adv-x="692" 
d="M453 614v215q0 80 -76 80h-90v-374h90q76 -1 76 79zM664 586q0 -138 -66 -194t-195 -56h-116v-336h-217v1421h215v-311h118q135 0 197 -58t64 -192v-274z" />
    <glyph glyph-name="germandbls" unicode="&#xdf;" horiz-adv-x="692" 
d="M637 -215q0 -125 -55 -176t-183 -51h-157v202h108q42 0 58 16t16 60v326q0 68 -66 67h-32v205h32q66 0 66 68v172q0 43 -15 59t-59 17h-86v-750h-201v750h-45v196h45v225q1 131 61 197t192 66t206 -52v-211h-8q-60 66 -154 66t-94 -76v-215h133q127 0 183 -52t55 -175
v-193q0 -92 -41 -139t-133 -49v-8q92 -2 133 -49t41 -140v-356z" />
    <glyph glyph-name="agrave" unicode="&#xe0;" horiz-adv-x="628" 
d="M385 1059h-139l-137 235h165zM365 213v170q0 61 -68 61t-68 -61v-170q0 -61 68 -61t68 61zM573 0h-208v78h-9q-41 -90 -145 -90q-162 0 -162 166v286q0 166 162 166q106 0 145 -88h9v164q0 52 -25 72t-80 20q-117 0 -194 -65h-9v196q117 53 258 53q258 0 258 -229v-729z
" />
    <glyph glyph-name="aacute" unicode="&#xe1;" horiz-adv-x="628" 
d="M487 1294l-135 -235h-141l111 235h165zM365 213v170q0 61 -68 61t-68 -61v-170q0 -61 68 -61t68 61zM573 0h-208v78h-9q-41 -90 -145 -90q-162 0 -162 166v286q0 166 162 166q106 0 145 -88h9v164q0 52 -25 72t-80 20q-117 0 -194 -65h-9v196q117 53 258 53
q258 0 258 -229v-729z" />
    <glyph glyph-name="acircumflex" unicode="&#xe2;" horiz-adv-x="628" 
d="M537 1157l-68 -98l-156 131l-151 -131l-74 100l225 195zM365 213v170q0 61 -68 61t-68 -61v-170q0 -61 68 -61t68 61zM573 0h-208v78h-9q-41 -90 -145 -90q-162 0 -162 166v286q0 166 162 166q106 0 145 -88h9v164q0 52 -25 72t-80 20q-117 0 -194 -65h-9v196
q117 53 258 53q258 0 258 -229v-729z" />
    <glyph glyph-name="atilde" unicode="&#xe3;" horiz-adv-x="628" 
d="M516 1231q0 -70 -27 -121t-90 -51q-31 1 -73 27t-62 26q-33 0 -41 -41h-112q0 63 30 117q31 53 90 53q35 -1 80 -25t68 -24q31 0 35 39h102zM365 213v170q0 61 -68 61t-68 -61v-170q0 -61 68 -61t68 61zM573 0h-208v78h-9q-41 -90 -145 -90q-162 0 -162 166v286
q0 166 162 166q106 0 145 -88h9v164q0 52 -25 72t-80 20q-117 0 -194 -65h-9v196q117 53 258 53q258 0 258 -229v-729z" />
    <glyph glyph-name="adieresis" unicode="&#xe4;" horiz-adv-x="628" 
d="M166 1262q42 0 72 -30t30 -72t-30 -72t-72 -29q-43 0 -73 30q-30 29 -30 71t30 72t73 30zM456 1262q42 0 72 -30t31 -72q0 -42 -31 -72q-30 -30 -72 -29q-42 0 -72 30q-30 29 -30 71t30 72t72 30zM365 213v170q0 61 -68 61t-68 -61v-170q0 -61 68 -61t68 61zM573 0h-208
v78h-9q-41 -90 -145 -90q-162 0 -162 166v286q0 166 162 166q106 0 145 -88h9v164q0 52 -25 72t-80 20q-117 0 -194 -65h-9v196q117 53 258 53q258 0 258 -229v-729z" />
    <glyph glyph-name="aring" unicode="&#xe5;" horiz-adv-x="628" 
d="M369 1214q1 25 -17 41q-18 17 -42 17t-41 -18t-17 -41q0 -24 16 -41t41 -17t43 17t17 42zM465 1214q0 -66 -45 -110q-46 -44 -110 -45q-64 0 -109 45t-45 109q0 63 45 109t109 46t110 -44q45 -44 45 -110zM365 213v170q0 61 -68 61t-68 -61v-170q0 -61 68 -61t68 61z
M573 0h-208v78h-9q-41 -90 -145 -90q-162 0 -162 166v286q0 166 162 166q106 0 145 -88h9v164q0 52 -25 72t-80 20q-117 0 -194 -65h-9v196q117 53 258 53q258 0 258 -229v-729z" />
    <glyph glyph-name="ae" unicode="&#xe6;" horiz-adv-x="933" 
d="M365 213v170q0 61 -68 61t-68 -61v-170q0 -61 68 -61t68 61zM702 561v150q0 74 -67 73q-68 0 -68 -73v-150h135zM885 399h-318v-129q-1 -94 107 -94t184 62h8v-207q-92 -43 -215 -43q-158 0 -225 100h-8q-76 -100 -205 -100q-164 0 -164 166v286q0 166 162 166
q106 0 145 -88h9v164q0 52 -25 72t-80 20q-117 0 -194 -65h-9v196q111 53 231 53t169 -63h8q55 63 177 63t182 -53t61 -178v-328z" />
    <glyph glyph-name="ccedilla" unicode="&#xe7;" horiz-adv-x="518" 
d="M346 -72h14q86 0 86 -90v-110q0 -68 -32 -94t-96 -26t-105 30v114h8q31 -43 73 -43t42 39v64q0 35 -33 34h-67v146q-96 12 -142 70q-45 58 -45 174v477q1 129 59 187t180 58t199 -43v-215h-8q-51 66 -139 66t-88 -82v-422q0 -82 88 -82t139 66h8v-215q-57 -29 -141 -41
v-62z" />
    <glyph glyph-name="egrave" unicode="&#xe8;" horiz-adv-x="614" 
d="M375 1059h-139l-138 235h166zM383 561v150q0 74 -68 73q-68 0 -67 -73v-150h135zM565 399h-315v-129q0 -94 108 -94t181 62h8v-207q-92 -43 -226 -43t-203 64t-69 210v465q1 125 61 178t185 53h24q125 0 185 -54t61 -177v-328z" />
    <glyph glyph-name="eacute" unicode="&#xe9;" horiz-adv-x="614" 
d="M500 1294l-135 -235h-142l111 235h166zM383 561v150q0 74 -68 73q-68 0 -67 -73v-150h135zM565 399h-315v-129q0 -94 108 -94t181 62h8v-207q-92 -43 -226 -43t-203 64t-69 210v465q1 125 61 178t185 53h24q125 0 185 -54t61 -177v-328z" />
    <glyph glyph-name="ecircumflex" unicode="&#xea;" horiz-adv-x="614" 
d="M530 1157l-67 -98l-156 131l-151 -131l-74 100l225 195zM383 561v150q0 74 -68 73q-68 0 -67 -73v-150h135zM565 399h-315v-129q0 -94 108 -94t181 62h8v-207q-92 -43 -226 -43t-203 64t-69 210v465q1 125 61 178t185 53h24q125 0 185 -54t61 -177v-328z" />
    <glyph glyph-name="edieresis" unicode="&#xeb;" horiz-adv-x="614" 
d="M162 1262q42 0 72 -30t30 -72t-30 -72t-72 -29q-42 0 -73 30q-30 29 -30 71t30 72t73 30zM452 1262q42 0 72 -30t31 -72q0 -42 -31 -72q-30 -30 -72 -29q-42 0 -72 30q-30 29 -30 71t30 72t72 30zM383 561v150q0 74 -68 73q-68 0 -67 -73v-150h135zM565 399h-315v-129
q0 -94 108 -94t181 62h8v-207q-92 -43 -226 -43t-203 64t-69 210v465q1 125 61 178t185 53h24q125 0 185 -54t61 -177v-328z" />
    <glyph glyph-name="igrave" unicode="&#xec;" horiz-adv-x="333" 
d="M225 1059h-139l-137 235h166zM266 0h-196v946h196v-946z" />
    <glyph glyph-name="iacute" unicode="&#xed;" horiz-adv-x="333" 
d="M375 1294l-135 -235h-142l111 235h166zM266 0h-196v946h196v-946z" />
    <glyph glyph-name="icircumflex" unicode="&#xee;" horiz-adv-x="333" 
d="M387 1157l-68 -98l-155 131l-152 -131l-73 100l225 195zM266 0h-196v946h196v-946z" />
    <glyph glyph-name="idieresis" unicode="&#xef;" horiz-adv-x="333" 
d="M123 1160q0 -42 -30 -72t-73 -29q-42 0 -72 30q-30 29 -30 71t30 72t72 30t73 -30q30 -30 30 -72zM414 1160q0 -42 -31 -72t-74 -29q-43 0 -71 30q-28 29 -29 71q0 42 30 72q29 30 71 30t73 -30t31 -72zM266 0h-196v946h196v-946z" />
    <glyph glyph-name="eth" unicode="&#xf0;" horiz-adv-x="632" 
d="M383 244v461q0 65 -70 65t-69 -65v-463q0 -66 70 -66t69 68zM578 217q0 -121 -58 -175t-182 -54h-49q-123 0 -181 54t-59 175v526q0 215 211 215h21q78 0 108 -36h8v75q0 82 -20 131l-53 -63l-107 98l49 60q-45 29 -104 28v170q117 0 215 -57l53 63l109 -100l-47 -53
q86 -115 86 -285v-772z" />
    <glyph glyph-name="ntilde" unicode="&#xf1;" horiz-adv-x="667" 
d="M535 1225q0 -70 -27 -121t-90 -51q-31 1 -73 27t-62 26q-33 0 -41 -41h-113q0 63 31 117t79 53q48 0 91 -25t67 -24q31 0 35 39h103zM612 0h-202v694q0 80 -70 80t-70 -80v-694h-207v946h205v-94h8q43 106 164 106q172 0 172 -204v-754z" />
    <glyph glyph-name="ograve" unicode="&#xf2;" horiz-adv-x="630" 
d="M381 1059h-139l-138 235h166zM385 242v463q0 65 -70 65t-69 -65v-463q0 -66 70 -66t69 66zM582 227q0 -123 -58 -181t-182 -58h-53q-123 0 -181 58t-59 181v492q1 123 59 181t181 58h53q123 0 181 -58t59 -181v-492z" />
    <glyph glyph-name="oacute" unicode="&#xf3;" horiz-adv-x="630" 
d="M516 1294l-135 -235h-141l110 235h166zM385 242v463q0 65 -70 65t-69 -65v-463q0 -66 70 -66t69 66zM582 227q0 -123 -58 -181t-182 -58h-53q-123 0 -181 58t-59 181v492q1 123 59 181t181 58h53q123 0 181 -58t59 -181v-492z" />
    <glyph glyph-name="ocircumflex" unicode="&#xf4;" horiz-adv-x="630" 
d="M539 1157l-68 -98l-156 131l-151 -131l-74 100l225 195zM385 242v463q0 65 -70 65t-69 -65v-463q0 -66 70 -66t69 66zM582 227q0 -123 -58 -181t-182 -58h-53q-123 0 -181 58t-59 181v492q1 123 59 181t181 58h53q123 0 181 -58t59 -181v-492z" />
    <glyph glyph-name="otilde" unicode="&#xf5;" horiz-adv-x="630" 
d="M518 1225q0 -70 -26 -121t-91 -51q-31 1 -73 27t-62 26q-33 0 -41 -41h-112q0 63 30 117q31 53 79 53t91 -25t68 -24q31 0 35 39h102zM385 242v463q0 65 -70 65t-69 -65v-463q0 -66 70 -66t69 66zM582 227q0 -123 -58 -181t-182 -58h-53q-123 0 -181 58t-59 181v492
q1 123 59 181t181 58h53q123 0 181 -58t59 -181v-492z" />
    <glyph glyph-name="odieresis" unicode="&#xf6;" horiz-adv-x="630" 
d="M170 1262q42 0 72 -30t30 -72t-30 -72t-72 -29q-43 0 -73 30q-29 29 -29 71t29 72q30 30 73 30zM460 1262q42 0 72 -30t31 -72q0 -42 -31 -72q-30 -30 -72 -29q-42 0 -72 30q-30 29 -30 71t30 72t72 30zM385 242v463q0 65 -70 65t-69 -65v-463q0 -66 70 -66t69 66z
M582 227q0 -123 -58 -181t-182 -58h-53q-123 0 -181 58t-59 181v492q1 123 59 181t181 58h53q123 0 181 -58t59 -181v-492z" />
    <glyph glyph-name="divide" unicode="&#xf7;" 
d="M178 399q0 51 60 66q28 -80 81 -146q-141 0 -141 80zM537 238q-68 23 -109 73v11l109 -19v-65zM905 129q0 -35 -61 -54q-121 -38 -238 0q-61 19 -61 54q0 12 10 23q82 -29 170 -29t170 29q10 -11 10 -23zM1079 76h-57q0 70 -68 98l25 12q100 -30 100 -110zM1171 639
q1 -39 -123 -64t-190 -24v8q61 6 62 39q0 45 -152 45q-84 0 -113 -22l4 -7q33 12 97 12t65 -30q-1 -25 -125 -25t-125 41q0 57 158 58v12h-6q-248 0 -248 -70q0 -31 45 -45v-8q-51 0 -144 24t-93 56q0 45 166 70q167 25 281 25t278 -26q164 -24 163 -69zM1245 631
q0 49 -63 82t-198 51t-220 18q-86 0 -157 -5t-169 -18t-164 -44t-66 -77t11 -108q-115 -37 -115 -127q0 -145 207 -145q41 0 60 4q31 -31 61 -47v-10q-41 -14 -73 -50q-31 -36 -31 -83t46 -85q75 -62 247 -82q59 -7 110 -7t111 7q176 21 247 83q46 39 46 87t-34 81t-79 51v8
q223 164 223 416zM1319 629q0 -256 -193 -424v-8q96 -53 97 -150q-1 -63 -57 -109t-142 -69t-160 -32t-133 -9t-134 9t-160 32t-142 69t-57 109q0 96 90 148v8h-29q-113 0 -191 47q-78 48 -77 158q0 110 108 165q-4 45 -4 68q0 59 50 101q88 74 245 94t299 20
q590 0 590 -227zM836 1092q0 -86 -148 -185h-10q39 72 39 160q0 42 -93 79q-36 13 -65 40q-29 28 -29 62t29 62t65 43q93 39 93 74q0 68 -41 99h10q39 0 84 -38t45 -83t-63 -86q-64 -41 -64 -65q-1 -38 74 -70q30 -12 52 -36t22 -56z" />
    <glyph glyph-name="oslash" unicode="&#xf8;" horiz-adv-x="630" 
d="M385 242v463q0 65 -70 65t-69 -65v-463q0 -66 70 -66t69 66zM582 227q0 -123 -58 -181t-182 -58h-72l-18 -70h-166l31 119q-68 57 -68 190v492q1 123 59 181t181 58h71l19 70h166l-31 -119q68 -57 68 -190v-492z" />
    <glyph glyph-name="ugrave" unicode="&#xf9;" horiz-adv-x="643" 
d="M381 1059h-139l-138 235h166zM588 227q0 -123 -58 -181t-182 -58h-53q-125 0 -182 58t-58 181v719h197v-704q0 -66 70 -66t69 66v704h197v-719z" />
    <glyph glyph-name="uacute" unicode="&#xfa;" horiz-adv-x="643" 
d="M518 1294l-135 -235h-141l110 235h166zM588 227q0 -123 -58 -181t-182 -58h-53q-125 0 -182 58t-58 181v719h197v-704q0 -66 70 -66t69 66v704h197v-719z" />
    <glyph glyph-name="ucircumflex" unicode="&#xfb;" horiz-adv-x="643" 
d="M545 1157l-68 -98l-155 131l-152 -131l-74 100l226 195zM588 227q0 -123 -58 -181t-182 -58h-53q-125 0 -182 58t-58 181v719h197v-704q0 -66 70 -66t69 66v704h197v-719z" />
    <glyph glyph-name="udieresis" unicode="&#xfc;" horiz-adv-x="643" 
d="M279 1160q0 -42 -30 -72t-73 -29q-43 0 -73 30q-29 29 -29 71t29 72q30 30 73 30t73 -30t30 -72zM466 1262q42 0 72 -30t31 -72q-1 -42 -31 -72t-73 -29q-43 0 -72 30q-29 29 -29 71t30 72t72 30zM588 227q0 -123 -58 -181t-182 -58h-53q-125 0 -182 58t-58 181v719h197
v-704q0 -66 70 -66t69 66v704h197v-719z" />
    <glyph glyph-name="yacute" unicode="&#xfd;" horiz-adv-x="667" 
d="M524 1294l-135 -235h-141l110 235h166zM606 -172q0 -281 -284 -281q-164 0 -281 99l82 180h8q70 -94 162 -94q51 0 79 32t27 86v236h-6q-39 -98 -160 -98q-178 0 -178 202v756h203v-694q0 -80 71 -80t70 80v694h207v-1118z" />
    <glyph glyph-name="thorn" unicode="&#xfe;" horiz-adv-x="663" 
d="M412 252v442q0 80 -71 80t-71 -98v-424q0 -80 71 -80t71 80zM612 190q0 -203 -178 -202q-121 0 -158 98h-8v-526h-205v1788h205v-488h8q45 98 158 98q178 0 178 -202v-566z" />
    <glyph glyph-name="ydieresis" unicode="&#xff;" horiz-adv-x="667" 
d="M287 1160q0 -42 -30 -72t-73 -29q-42 0 -72 30q-30 29 -30 71t30 72t72 30t73 -30q30 -30 30 -72zM578 1160q0 -42 -31 -72t-74 -29q-43 0 -72 30q-29 29 -29 71t30 72t72 30t73 -30t31 -72zM606 -172q0 -281 -284 -281q-164 0 -281 99l82 180h8q70 -94 162 -94
q51 0 79 32t27 86v236h-6q-39 -98 -160 -98q-178 0 -178 202v756h203v-694q0 -80 71 -80t70 80v694h207v-1118z" />
    <glyph glyph-name="dotlessi" unicode="&#x131;" horiz-adv-x="333" 
d="M266 0h-196v946h196v-946z" />
    <glyph glyph-name="Lslash" unicode="&#x141;" horiz-adv-x="509" 
d="M498 0h-428v616l-50 -20v203l50 20v602h213v-510l108 47v-202l-108 -47v-508h215v-201z" />
    <glyph glyph-name="lslash" unicode="&#x142;" horiz-adv-x="329" 
d="M260 0h-190v623l-52 -21v203l52 20v596h190v-503l51 20v-203l-51 -20v-715z" />
    <glyph glyph-name="OE" unicode="&#x152;" horiz-adv-x="931" 
d="M453 197v1028h-91q-49 1 -69 -17t-21 -67v-860q0 -49 20 -67t70 -17h91zM903 0h-588q-137 0 -199 65t-63 201v889q1 135 63 201t199 65h580v-202h-225v-367h215v-203h-215v-448h233v-201z" />
    <glyph glyph-name="oe" unicode="&#x153;" horiz-adv-x="950" 
d="M385 242v463q0 65 -70 65t-69 -65v-463q0 -66 70 -66t69 66zM721 561v150q0 74 -68 73q-68 0 -67 -73v-150h135zM901 399h-315v-129q0 -94 108 -94t183 62h8v-207q-106 -43 -219 -43t-181 63h-8q-59 -63 -183 -63t-184 56t-61 183v492q-1 127 61 183t185 56t182 -63h8
q63 63 181 63t176 -53t59 -178v-328z" />
    <glyph glyph-name="Scaron" unicode="&#x160;" horiz-adv-x="659" 
d="M553 1696l-223 -195l-226 197l72 98l152 -131l155 133zM610 262q0 -274 -299 -274q-152 0 -266 45v233h8q90 -74 207 -73q70 1 100 31t29 100v225q0 57 -25 68q-26 11 -124 14q-193 4 -193 200v336q0 145 73 205q74 60 222 62q148 0 246 -43v-236h-8q-80 80 -191 80
q-65 0 -93 -28t-28 -93v-199q0 -55 26 -66t121 -13q195 -4 195 -201v-373z" />
    <glyph glyph-name="scaron" unicode="&#x161;" horiz-adv-x="561" 
d="M504 1253l-223 -194l-226 196l72 99l152 -131l155 133zM520 211q0 -135 -66 -179t-186 -44t-223 32v197h8q66 -53 165 -53t99 65v136q0 29 -19 35t-98 10q-79 2 -120 43t-41 133v155q0 129 62 173t183 44t203 -32v-197h-8q-63 53 -164 53q-74 0 -73 -55v-98q0 -29 18 -35
t90 -8q170 -2 170 -178v-197z" />
    <glyph glyph-name="Ydieresis" unicode="&#x178;" horiz-adv-x="751" 
d="M229 1501q-43 0 -73 30t-29 72q0 41 30 71q31 30 73 30t72 -30t30 -71q0 -42 -30 -72t-73 -30zM519 1704q42 0 73 -30t31 -71q0 -42 -31 -72t-74 -30t-72 30q-28 30 -28 72q0 41 30 71t71 30zM485 0h-217v670l-258 751h236l106 -417l29 -158h4q14 90 31 155l102 420h221
l-254 -751v-670z" />
    <glyph glyph-name="Zcaron" unicode="&#x17d;" horiz-adv-x="645" 
d="M547 1696l-223 -195l-226 197l72 98l152 -131l155 133zM608 201v-201h-596v8l312 1073l45 138h-326v202h590v-8l-301 -1067l-45 -145h321z" />
    <glyph glyph-name="zcaron" unicode="&#x17e;" horiz-adv-x="559" 
d="M506 1253l-223 -194l-226 196l72 99l152 -131l155 133zM543 193v-193h-531v8l267 746h-259v192h529v-8l-232 -657l-36 -88h262z" />
    <glyph glyph-name="florin" unicode="&#x192;" horiz-adv-x="536" 
d="M266 -170q0 -283 -296 -283q-150 0 -267 99l82 180h6q74 -94 164 -94q53 0 81 32t27 84v902h-45v196h45v242q0 246 259 246q131 0 202 -48v-206h-8q-70 66 -160 66t-90 -83v-217h103v-196h-103v-920z" />
    <glyph glyph-name="circumflex" unicode="&#x2c6;" horiz-adv-x="612" 
d="M528 1251l-67 -98l-156 131l-151 -131l-74 100l225 195z" />
    <glyph glyph-name="caron" unicode="&#x2c7;" horiz-adv-x="612" 
d="M528 1348l-223 -195l-225 197l72 98l151 -131l156 133z" />
    <glyph glyph-name="breve" unicode="&#x2d8;" horiz-adv-x="612" 
d="M305 1149q-121 0 -173 52t-62 175h137q14 -106 98 -106t98 106h138q-11 -123 -63 -175t-173 -52z" />
    <glyph glyph-name="dotaccent" unicode="&#x2d9;" horiz-adv-x="612" 
d="M412 1256q0 -44 -31 -76t-75 -31q-44 0 -75 32q-31 31 -31 75t31 76t76 32t75 -32t30 -76z" />
    <glyph glyph-name="ring" unicode="&#x2da;" horiz-adv-x="612" 
d="M362 1305q0 25 -17 41t-41 16t-41 -17t-17 -41t16 -41t41 -17t42 16q17 18 17 43zM459 1305q0 -66 -45 -111q-46 -45 -110 -45t-109 45q-45 46 -45 110t45 109t109 45t110 -44q45 -44 45 -109z" />
    <glyph glyph-name="ogonek" unicode="&#x2db;" horiz-adv-x="612" 
d="M356 -371q-74 0 -120 41t-48 122q0 81 50 228h141q-49 -147 -49 -209t57 -63q47 0 86 43h8v-127q-51 -35 -125 -35z" />
    <glyph glyph-name="tilde" unicode="&#x2dc;" horiz-adv-x="612" 
d="M510 1319q0 -70 -27 -121t-90 -51q-31 0 -73 27t-62 26q-33 0 -41 -41h-113q0 63 31 117t79 53t91 -25t68 -24q31 0 35 39h102z" />
    <glyph glyph-name="hungarumlaut" unicode="&#x2dd;" horiz-adv-x="612" 
d="M391 1389l-133 -228h-135l108 228h160zM600 1389l-135 -228h-135l110 228h160z" />
    <glyph glyph-name="Delta" unicode="&#x394;" 
d="M178 399q0 51 60 66q28 -80 81 -146q-141 0 -141 80zM537 238q-68 23 -109 73v11l109 -19v-65zM905 129q0 -35 -61 -54q-121 -38 -238 0q-61 19 -61 54q0 12 10 23q82 -29 170 -29t170 29q10 -11 10 -23zM1079 76h-57q0 70 -68 98l25 12q100 -30 100 -110zM1171 639
q1 -39 -123 -64t-190 -24v8q61 6 62 39q0 45 -152 45q-84 0 -113 -22l4 -7q33 12 97 12t65 -30q-1 -25 -125 -25t-125 41q0 57 158 58v12h-6q-248 0 -248 -70q0 -31 45 -45v-8q-51 0 -144 24t-93 56q0 45 166 70q167 25 281 25t278 -26q164 -24 163 -69zM1245 631
q0 49 -63 82t-198 51t-220 18q-86 0 -157 -5t-169 -18t-164 -44t-66 -77t11 -108q-115 -37 -115 -127q0 -145 207 -145q41 0 60 4q31 -31 61 -47v-10q-41 -14 -73 -50q-31 -36 -31 -83t46 -85q75 -62 247 -82q59 -7 110 -7t111 7q176 21 247 83q46 39 46 87t-34 81t-79 51v8
q223 164 223 416zM1319 629q0 -256 -193 -424v-8q96 -53 97 -150q-1 -63 -57 -109t-142 -69t-160 -32t-133 -9t-134 9t-160 32t-142 69t-57 109q0 96 90 148v8h-29q-113 0 -191 47q-78 48 -77 158q0 110 108 165q-4 45 -4 68q0 59 50 101q88 74 245 94t299 20
q590 0 590 -227zM836 1092q0 -86 -148 -185h-10q39 72 39 160q0 42 -93 79q-36 13 -65 40q-29 28 -29 62t29 62t65 43q93 39 93 74q0 68 -41 99h10q39 0 84 -38t45 -83t-63 -86q-64 -41 -64 -65q-1 -38 74 -70q30 -12 52 -36t22 -56z" />
    <glyph glyph-name="Omega" unicode="&#x3a9;" horiz-adv-x="714" 
d="M666 817q0 -227 -201 -262v-555h-217v555q-199 35 -199 262v604h219v-610q0 -84 89 -84t89 84v610h220v-604z" />
    <glyph glyph-name="pi" unicode="&#x3c0;" horiz-adv-x="763" 
d="M430 829v119q0 39 -37 39h-47v-196h47q37 -1 37 38zM537 819q0 -73 -33 -101t-94 -28h-64v-356h-108v756h168q131 0 131 -129v-142zM602 252v915q0 99 -54 135t-167 36t-166 -36q-53 -34 -53 -135v-915q0 -98 53 -133t166 -35t167 35t54 133zM709 229q0 -242 -285 -241
h-86q-285 0 -285 241v963q0 242 285 242h86q285 0 285 -242v-963z" />
    <glyph glyph-name="endash" unicode="&#x2013;" horiz-adv-x="606" 
d="M567 483h-530v195h530v-195z" />
    <glyph glyph-name="emdash" unicode="&#x2014;" horiz-adv-x="935" 
d="M899 483h-862v195h862v-195z" />
    <glyph glyph-name="quoteleft" unicode="&#x2018;" horiz-adv-x="301" 
d="M301 1421l-80 -379h-223l133 379h170z" />
    <glyph glyph-name="quoteright" unicode="&#x2019;" horiz-adv-x="301" 
d="M303 1421l-133 -379h-172l80 379h225z" />
    <glyph glyph-name="quotesinglbase" unicode="&#x201a;" horiz-adv-x="301" 
d="M285 215l-133 -379h-172l79 379h226z" />
    <glyph glyph-name="quotedblleft" unicode="&#x201c;" horiz-adv-x="598" 
d="M301 1421l-84 -379h-219l129 379h174zM600 1421l-86 -379h-219l129 379h176z" />
    <glyph glyph-name="quotedblright" unicode="&#x201d;" horiz-adv-x="598" 
d="M303 1421l-129 -379h-176l84 379h221zM600 1421l-129 -379h-174l84 379h219z" />
    <glyph glyph-name="quotedblbase" unicode="&#x201e;" horiz-adv-x="598" 
d="M285 215l-133 -379h-172l79 379h226zM582 215l-133 -379h-170l79 379h224z" />
    <glyph glyph-name="dagger" unicode="&#x2020;" horiz-adv-x="595" 
d="M582 741h-176v-1007h-218v1007h-176v205h176v475h218v-475h176v-205z" />
    <glyph glyph-name="daggerdbl" unicode="&#x2021;" horiz-adv-x="589" 
d="M580 262h-177v-526h-217v526h-174v205h174v274h-174v205h174v475h217v-475h177v-205h-177v-274h177v-205z" />
    <glyph glyph-name="bullet" unicode="&#x2022;" horiz-adv-x="493" 
d="M444 567q0 -98 -47 -139t-149 -41t-151 41q-48 41 -48 139v119q0 98 48 139q49 41 151 41t149 -41t47 -139v-119z" />
    <glyph glyph-name="ellipsis" unicode="&#x2026;" horiz-adv-x="970" 
d="M281 119q0 -53 -39 -92t-92 -39t-93 39q-39 39 -39 92t39 92t93 39t92 -39q39 -39 39 -92zM614 119q0 -53 -38 -92t-92 -39t-93 39t-39 92t39 92t93 39t92 -39t38 -92zM950 119q0 -53 -39 -92t-92 -39t-92 39t-39 92t39 92t92 39t92 -39t39 -92z" />
    <glyph glyph-name="perthousand" unicode="&#x2030;" horiz-adv-x="1536" 
d="M246 739v514q0 39 -41 39t-41 -39v-514q0 -39 41 -39t41 39zM909 168v512q0 39 -40 39t-40 -39v-512q0 -41 40 -41t40 41zM1370 168v512q0 39 -40 39t-40 -39v-512q0 -41 40 -41t40 41zM397 721q0 -92 -47 -127t-145 -35t-146 34q-47 34 -47 128v549q0 94 47 129t147 35
t145 -34q46 -34 46 -130v-549zM860 1421l-475 -1421h-172l473 1421h174zM1063 150q0 -92 -48 -127q-49 -35 -147 -35t-145 34t-47 128v548q0 92 48 127t146 35t146 -33t47 -129v-548zM1524 150q0 -92 -48 -127t-146 -35t-146 34q-47 34 -47 128v548q0 92 48 127t146 35
q97 0 145 -33t48 -129v-548z" />
    <glyph glyph-name="guilsinglleft" unicode="&#x2039;" horiz-adv-x="495" 
d="M477 0h-217l-244 473l244 473h217l-244 -473z" />
    <glyph glyph-name="guilsinglright" unicode="&#x203a;" horiz-adv-x="495" 
d="M479 473l-243 -473h-218l242 473l-242 473h218z" />
    <glyph glyph-name="fraction" unicode="&#x2044;" horiz-adv-x="616" 
d="M631 1548l-430 -1671h-213l430 1671h213z" />
    <glyph glyph-name="trademark" unicode="&#x2122;" horiz-adv-x="823" 
d="M293 1319h-88v-610h-105v610h-88v102h281v-102zM782 709h-100v372l-80 -372h-88l-78 376v-376h-102v712h115l110 -487l111 487h112v-712z" />
    <glyph glyph-name="partialdiff" unicode="&#x2202;" horiz-adv-x="561" 
d="M526 0h-221q-252 0 -252 240v327q0 95 40 141t132 48v8q-92 2 -132 48t-40 140v226q0 244 252 243h217v-196h-170q-82 0 -82 -86v-203q0 -44 18 -62t60 -18h162v-194h-162q-43 0 -60 -18t-18 -60v-301q0 -86 82 -86h174v-197z" />
    <glyph glyph-name="product" unicode="&#x220f;" 
d="M178 399q0 51 60 66q28 -80 81 -146q-141 0 -141 80zM537 238q-68 23 -109 73v11l109 -19v-65zM905 129q0 -35 -61 -54q-121 -38 -238 0q-61 19 -61 54q0 12 10 23q82 -29 170 -29t170 29q10 -11 10 -23zM1079 76h-57q0 70 -68 98l25 12q100 -30 100 -110zM1171 639
q1 -39 -123 -64t-190 -24v8q61 6 62 39q0 45 -152 45q-84 0 -113 -22l4 -7q33 12 97 12t65 -30q-1 -25 -125 -25t-125 41q0 57 158 58v12h-6q-248 0 -248 -70q0 -31 45 -45v-8q-51 0 -144 24t-93 56q0 45 166 70q167 25 281 25t278 -26q164 -24 163 -69zM1245 631
q0 49 -63 82t-198 51t-220 18q-86 0 -157 -5t-169 -18t-164 -44t-66 -77t11 -108q-115 -37 -115 -127q0 -145 207 -145q41 0 60 4q31 -31 61 -47v-10q-41 -14 -73 -50q-31 -36 -31 -83t46 -85q75 -62 247 -82q59 -7 110 -7t111 7q176 21 247 83q46 39 46 87t-34 81t-79 51v8
q223 164 223 416zM1319 629q0 -256 -193 -424v-8q96 -53 97 -150q-1 -63 -57 -109t-142 -69t-160 -32t-133 -9t-134 9t-160 32t-142 69t-57 109q0 96 90 148v8h-29q-113 0 -191 47q-78 48 -77 158q0 110 108 165q-4 45 -4 68q0 59 50 101q88 74 245 94t299 20
q590 0 590 -227zM836 1092q0 -86 -148 -185h-10q39 72 39 160q0 42 -93 79q-36 13 -65 40q-29 28 -29 62t29 62t65 43q93 39 93 74q0 68 -41 99h10q39 0 84 -38t45 -83t-63 -86q-64 -41 -64 -65q-1 -38 74 -70q30 -12 52 -36t22 -56z" />
    <glyph glyph-name="summation" unicode="&#x2211;" horiz-adv-x="1128" 
d="M1069 256q0 -140 -69 -204q-70 -64 -222 -64t-207 112h-8q-55 -112 -209 -112t-222 62q-69 62 -69 206v1165h218v-1159q0 -86 89 -86t89 86v1159h217v-1159q0 -86 88 -86t88 86v1159h217v-1165z" />
    <glyph glyph-name="minus" unicode="&#x2212;" 
d="M178 399q0 51 60 66q28 -80 81 -146q-141 0 -141 80zM537 238q-68 23 -109 73v11l109 -19v-65zM905 129q0 -35 -61 -54q-121 -38 -238 0q-61 19 -61 54q0 12 10 23q82 -29 170 -29t170 29q10 -11 10 -23zM1079 76h-57q0 70 -68 98l25 12q100 -30 100 -110zM1171 639
q1 -39 -123 -64t-190 -24v8q61 6 62 39q0 45 -152 45q-84 0 -113 -22l4 -7q33 12 97 12t65 -30q-1 -25 -125 -25t-125 41q0 57 158 58v12h-6q-248 0 -248 -70q0 -31 45 -45v-8q-51 0 -144 24t-93 56q0 45 166 70q167 25 281 25t278 -26q164 -24 163 -69zM1245 631
q0 49 -63 82t-198 51t-220 18q-86 0 -157 -5t-169 -18t-164 -44t-66 -77t11 -108q-115 -37 -115 -127q0 -145 207 -145q41 0 60 4q31 -31 61 -47v-10q-41 -14 -73 -50q-31 -36 -31 -83t46 -85q75 -62 247 -82q59 -7 110 -7t111 7q176 21 247 83q46 39 46 87t-34 81t-79 51v8
q223 164 223 416zM1319 629q0 -256 -193 -424v-8q96 -53 97 -150q-1 -63 -57 -109t-142 -69t-160 -32t-133 -9t-134 9t-160 32t-142 69t-57 109q0 96 90 148v8h-29q-113 0 -191 47q-78 48 -77 158q0 110 108 165q-4 45 -4 68q0 59 50 101q88 74 245 94t299 20
q590 0 590 -227zM836 1092q0 -86 -148 -185h-10q39 72 39 160q0 42 -93 79q-36 13 -65 40q-29 28 -29 62t29 62t65 43q93 39 93 74q0 68 -41 99h10q39 0 84 -38t45 -83t-63 -86q-64 -41 -64 -65q-1 -38 74 -70q30 -12 52 -36t22 -56z" />
    <glyph glyph-name="radical" unicode="&#x221a;" horiz-adv-x="727" 
d="M739 1421l-319 -1421h-201l-207 774h205l70 -311l26 -176h4q8 98 25 176l195 958h202z" />
    <glyph glyph-name="infinity" unicode="&#x221e;" horiz-adv-x="1032" 
d="M266 946h148v199q0 45 8 84q-31 6 -57 4q-98 -8 -99 -113v-174zM975 0h-209v750h-148v-750h-204v750h-148v-750h-203v750h-45v196h45v195q0 145 69 219t230 74q109 0 195 -35q63 35 178 35t215 -41v-219h-8q-82 61 -207 61q-61 0 -89 -27t-28 -88v-174h357v-946z" />
    <glyph glyph-name="integral" unicode="&#x222b;" horiz-adv-x="739" 
d="M461 860v291q0 84 -92 84t-93 -84v-291h185zM674 0h-213v657h-185v-657h-213v1157q0 150 75 213q75 64 231 64q157 0 231 -64t74 -213v-1157z" />
    <glyph glyph-name="approxequal" unicode="&#x2248;" horiz-adv-x="716" 
d="M647 0h-219v582q0 39 -15 55t-55 16q-72 0 -71 -71v-582h-217v557q0 180 163 186v9q-164 6 -163 188v481h217v-508q0 -74 71 -73q70 0 70 73v508h219v-481q0 -186 -164 -188v-9q164 -6 164 -188v-555z" />
    <glyph glyph-name="notequal" unicode="&#x2260;" horiz-adv-x="737" 
d="M266 1120v-174h152v248q0 25 2 37q-27 6 -62 4q-92 -10 -92 -115zM725 750h-102v-750h-205v750h-152v-750h-203v750h-45v196h45v195q0 145 69 219t230 74q82 0 150 -23q45 23 102 23t111 -17v-192h-8q-16 27 -49 26q-45 0 -45 -47v-258h102v-196z" />
    <glyph glyph-name="lessequal" unicode="&#x2264;" horiz-adv-x="745" 
d="M684 0h-219v1157q-1 47 -21 67t-67 19q-47 0 -69 -19t-21 -67v-1157h-217v1421h217v-82h8q45 94 156 95q233 0 233 -244v-1190z" />
    <glyph glyph-name="greaterequal" unicode="&#x2265;" 
d="M178 399q0 51 60 66q28 -80 81 -146q-141 0 -141 80zM537 238q-68 23 -109 73v11l109 -19v-65zM905 129q0 -35 -61 -54q-121 -38 -238 0q-61 19 -61 54q0 12 10 23q82 -29 170 -29t170 29q10 -11 10 -23zM1079 76h-57q0 70 -68 98l25 12q100 -30 100 -110zM1171 639
q1 -39 -123 -64t-190 -24v8q61 6 62 39q0 45 -152 45q-84 0 -113 -22l4 -7q33 12 97 12t65 -30q-1 -25 -125 -25t-125 41q0 57 158 58v12h-6q-248 0 -248 -70q0 -31 45 -45v-8q-51 0 -144 24t-93 56q0 45 166 70q167 25 281 25t278 -26q164 -24 163 -69zM1245 631
q0 49 -63 82t-198 51t-220 18q-86 0 -157 -5t-169 -18t-164 -44t-66 -77t11 -108q-115 -37 -115 -127q0 -145 207 -145q41 0 60 4q31 -31 61 -47v-10q-41 -14 -73 -50q-31 -36 -31 -83t46 -85q75 -62 247 -82q59 -7 110 -7t111 7q176 21 247 83q46 39 46 87t-34 81t-79 51v8
q223 164 223 416zM1319 629q0 -256 -193 -424v-8q96 -53 97 -150q-1 -63 -57 -109t-142 -69t-160 -32t-133 -9t-134 9t-160 32t-142 69t-57 109q0 96 90 148v8h-29q-113 0 -191 47q-78 48 -77 158q0 110 108 165q-4 45 -4 68q0 59 50 101q88 74 245 94t299 20
q590 0 590 -227zM836 1092q0 -86 -148 -185h-10q39 72 39 160q0 42 -93 79q-36 13 -65 40q-29 28 -29 62t29 62t65 43q93 39 93 74q0 68 -41 99h10q39 0 84 -38t45 -83t-63 -86q-64 -41 -64 -65q-1 -38 74 -70q30 -12 52 -36t22 -56z" />
    <glyph glyph-name="lozenge" unicode="&#x25ca;" 
d="M178 399q0 51 60 66q28 -80 81 -146q-141 0 -141 80zM537 238q-68 23 -109 73v11l109 -19v-65zM905 129q0 -35 -61 -54q-121 -38 -238 0q-61 19 -61 54q0 12 10 23q82 -29 170 -29t170 29q10 -11 10 -23zM1079 76h-57q0 70 -68 98l25 12q100 -30 100 -110zM1171 639
q1 -39 -123 -64t-190 -24v8q61 6 62 39q0 45 -152 45q-84 0 -113 -22l4 -7q33 12 97 12t65 -30q-1 -25 -125 -25t-125 41q0 57 158 58v12h-6q-248 0 -248 -70q0 -31 45 -45v-8q-51 0 -144 24t-93 56q0 45 166 70q167 25 281 25t278 -26q164 -24 163 -69zM1245 631
q0 49 -63 82t-198 51t-220 18q-86 0 -157 -5t-169 -18t-164 -44t-66 -77t11 -108q-115 -37 -115 -127q0 -145 207 -145q41 0 60 4q31 -31 61 -47v-10q-41 -14 -73 -50q-31 -36 -31 -83t46 -85q75 -62 247 -82q59 -7 110 -7t111 7q176 21 247 83q46 39 46 87t-34 81t-79 51v8
q223 164 223 416zM1319 629q0 -256 -193 -424v-8q96 -53 97 -150q-1 -63 -57 -109t-142 -69t-160 -32t-133 -9t-134 9t-160 32t-142 69t-57 109q0 96 90 148v8h-29q-113 0 -191 47q-78 48 -77 158q0 110 108 165q-4 45 -4 68q0 59 50 101q88 74 245 94t299 20
q590 0 590 -227zM836 1092q0 -86 -148 -185h-10q39 72 39 160q0 42 -93 79q-36 13 -65 40q-29 28 -29 62t29 62t65 43q93 39 93 74q0 68 -41 99h10q39 0 84 -38t45 -83t-63 -86q-64 -41 -64 -65q-1 -38 74 -70q30 -12 52 -36t22 -56z" />
    <glyph glyph-name="apple" unicode="&#xf8ff;" 
d="M178 399q0 51 60 66q28 -80 81 -146q-141 0 -141 80zM537 238q-68 23 -109 73v11l109 -19v-65zM905 129q0 -35 -61 -54q-121 -38 -238 0q-61 19 -61 54q0 12 10 23q82 -29 170 -29t170 29q10 -11 10 -23zM1079 76h-57q0 70 -68 98l25 12q100 -30 100 -110zM1171 639
q1 -39 -123 -64t-190 -24v8q61 6 62 39q0 45 -152 45q-84 0 -113 -22l4 -7q33 12 97 12t65 -30q-1 -25 -125 -25t-125 41q0 57 158 58v12h-6q-248 0 -248 -70q0 -31 45 -45v-8q-51 0 -144 24t-93 56q0 45 166 70q167 25 281 25t278 -26q164 -24 163 -69zM1245 631
q0 49 -63 82t-198 51t-220 18q-86 0 -157 -5t-169 -18t-164 -44t-66 -77t11 -108q-115 -37 -115 -127q0 -145 207 -145q41 0 60 4q31 -31 61 -47v-10q-41 -14 -73 -50q-31 -36 -31 -83t46 -85q75 -62 247 -82q59 -7 110 -7t111 7q176 21 247 83q46 39 46 87t-34 81t-79 51v8
q223 164 223 416zM1319 629q0 -256 -193 -424v-8q96 -53 97 -150q-1 -63 -57 -109t-142 -69t-160 -32t-133 -9t-134 9t-160 32t-142 69t-57 109q0 96 90 148v8h-29q-113 0 -191 47q-78 48 -77 158q0 110 108 165q-4 45 -4 68q0 59 50 101q88 74 245 94t299 20
q590 0 590 -227zM836 1092q0 -86 -148 -185h-10q39 72 39 160q0 42 -93 79q-36 13 -65 40q-29 28 -29 62t29 62t65 43q93 39 93 74q0 68 -41 99h10q39 0 84 -38t45 -83t-63 -86q-64 -41 -64 -65q-1 -38 74 -70q30 -12 52 -36t22 -56z" />
    <glyph glyph-name="fi" unicode="&#xfb01;" horiz-adv-x="679" 
d="M623 0h-209v750h-148v-750h-203v750h-45v196h45v195q0 145 69 219t218 74t250 -41v-219h-8q-82 61 -207 61q-61 0 -90 -27t-29 -88v-174h357v-946z" />
    <glyph glyph-name="fl" unicode="&#xfb02;" horiz-adv-x="684" 
d="M623 0h-209v1225h-35q-113 0 -113 -105v-174h76v-196h-76v-750h-203v750h-45v196h45v187q0 143 70 216t234 72h256v-1421z" />
    <glyph glyph-name="NUL" horiz-adv-x="0" 
 />
    </font>
</defs>
</svg>
